<svg width="21" height="22" viewBox="0 0 21 22" fill="none" xmlns="http://www.w3.org/2000/svg">
<path fill-rule="evenodd" clip-rule="evenodd" d="M10.6742 4.37207C11.0306 4.37207 11.3195 4.661 11.3195 5.01742V10.1802H16.4823C16.8387 10.1802 17.1277 10.4691 17.1277 10.8256C17.1277 11.182 16.8387 11.4709 16.4823 11.4709H11.3195V16.6337C11.3195 16.9901 11.0306 17.279 10.6742 17.279C10.3178 17.279 10.0288 16.9901 10.0288 16.6337V11.4709H4.86605C4.50964 11.4709 4.2207 11.182 4.2207 10.8256C4.2207 10.4691 4.50964 10.1802 4.86605 10.1802H10.0288V5.01742C10.0288 4.661 10.3178 4.37207 10.6742 4.37207Z" fill="#475467"/>
</svg>
