<svg width="46" height="46" viewBox="0 0 46 46" fill="none" xmlns="http://www.w3.org/2000/svg">

    <rect x="3" y="3" width="40" height="40" rx="20" fill="#F4EBFF" />

    <rect x="3" y="3" width="40" height="40" rx="20" stroke="#F9F5FF" stroke-width="6" />

    <path
        d="M20.5 22.1667H17.1667C16.7248 22.1661 16.3012 21.9903 15.9888 21.6779C15.6763 21.3655 15.5006 20.9419 15.5 20.5V17.1667C15.5006 16.7248 15.6763 16.3012 15.9888 15.9888C16.3012 15.6763 16.7248 15.5006 17.1667 15.5H20.5C20.9419 15.5006 21.3655 15.6763 21.6779 15.9888C21.9903 16.3012 22.1661 16.7248 22.1667 17.1667V20.5C22.1661 20.9419 21.9903 21.3655 21.6779 21.6779C21.3655 21.9903 20.9419 22.1661 20.5 22.1667ZM17.1667 17.1667V20.5H20.5008L20.5 17.1667H17.1667ZM20.5 30.5H17.1667C16.7248 30.4994 16.3012 30.3237 15.9888 30.0112C15.6763 29.6988 15.5006 29.2752 15.5 28.8333V25.5C15.5006 25.0581 15.6763 24.6345 15.9888 24.3221C16.3012 24.0097 16.7248 23.8339 17.1667 23.8333H20.5C20.9419 23.8339 21.3655 24.0097 21.6779 24.3221C21.9903 24.6345 22.1661 25.0581 22.1667 25.5V28.8333C22.1661 29.2752 21.9903 29.6988 21.6779 30.0112C21.3655 30.3237 20.9419 30.4994 20.5 30.5ZM17.1667 25.5V28.8333H20.5008L20.5 25.5H17.1667ZM28.8333 22.1667H25.5C25.0581 22.1662 24.6344 21.9905 24.322 21.678C24.0095 21.3656 23.8338 20.9419 23.8333 20.5V17.1667C23.8338 16.7248 24.0095 16.3011 24.322 15.9886C24.6344 15.6762 25.0581 15.5004 25.5 15.5H28.8333C29.2752 15.5004 29.6989 15.6762 30.0114 15.9886C30.3238 16.3011 30.4996 16.7248 30.5 17.1667V20.5C30.4996 20.9419 30.3238 21.3656 30.0114 21.678C29.6989 21.9905 29.2752 22.1662 28.8333 22.1667ZM25.5 17.1667V20.5H28.8346L28.8333 17.1667H25.5ZM27.1667 30.5C26.9457 30.5 26.7337 30.4122 26.5774 30.2559C26.4211 30.0996 26.3333 29.8877 26.3333 29.6667V24.6667C26.3333 24.4457 26.4211 24.2337 26.5774 24.0774C26.7337 23.9211 26.9457 23.8333 27.1667 23.8333C27.3877 23.8333 27.5996 23.9211 27.7559 24.0774C27.9122 24.2337 28 24.4457 28 24.6667V29.6667C28 29.8877 27.9122 30.0996 27.7559 30.2559C27.5996 30.4122 27.3877 30.5 27.1667 30.5Z"
        fill="#7F56D9" />

    <path
        d="M29.6667 27.9999H24.6667C24.4457 27.9999 24.2337 27.9121 24.0775 27.7558C23.9212 27.5996 23.8334 27.3876 23.8334 27.1666C23.8334 26.9456 23.9212 26.7336 24.0775 26.5773C24.2337 26.421 24.4457 26.3333 24.6667 26.3333H29.6667C29.8877 26.3333 30.0997 26.421 30.256 26.5773C30.4122 26.7336 30.5 26.9456 30.5 27.1666C30.5 27.3876 30.4122 27.5996 30.256 27.7558C30.0997 27.9121 29.8877 27.9999 29.6667 27.9999Z"
        fill="#7F56D9" />

</svg>