<svg width="36" height="36" viewBox="0 0 36 36" fill="none" xmlns="http://www.w3.org/2000/svg">
<g style="mix-blend-mode:multiply">
<rect x="2" y="2" width="32" height="32" rx="16" fill="#F4EBFF"/>
<rect x="2" y="2" width="32" height="32" rx="16" stroke="#F9F5FF" stroke-width="4"/>
<g clip-path="url(#clip0_11748_7904)">
<path d="M11.333 18.0004L17.7612 21.2144C17.8486 21.2582 17.8923 21.28 17.9382 21.2886C17.9788 21.2963 18.0205 21.2963 18.0611 21.2886C18.107 21.28 18.1507 21.2582 18.2382 21.2144L24.6663 18.0004M11.333 21.3337L17.7612 24.5478C17.8486 24.5915 17.8923 24.6134 17.9382 24.622C17.9788 24.6296 18.0205 24.6296 18.0611 24.622C18.107 24.6134 18.1507 24.5915 18.2382 24.5478L24.6663 21.3337M11.333 14.667L17.7612 11.453C17.8486 11.4092 17.8923 11.3874 17.9382 11.3788C17.9788 11.3711 18.0205 11.3711 18.0611 11.3788C18.107 11.3874 18.1507 11.4092 18.2382 11.453L24.6663 14.667L18.2382 17.8811C18.1507 17.9248 18.107 17.9467 18.0611 17.9553C18.0205 17.9629 17.9788 17.9629 17.9382 17.9553C17.8923 17.9467 17.8486 17.9248 17.7612 17.8811L11.333 14.667Z" stroke="#7F56D9" stroke-width="1.33333" stroke-linecap="round" stroke-linejoin="round"/>
</g>
</g>
<defs>
<clipPath id="clip0_11748_7904">
<rect width="16" height="16" fill="white" transform="translate(10 10)"/>
</clipPath>
</defs>
</svg>
