<svg width="46" height="46" viewBox="0 0 46 46" fill="none" xmlns="http://www.w3.org/2000/svg">
<rect x="3" y="3" width="40" height="40" rx="20" fill="#F4EBFF"/>
<rect x="3" y="3" width="40" height="40" rx="20" stroke="#F9F5FF" stroke-width="6"/>
<path d="M29.2948 13.6501C29.0907 13.8555 28.9761 14.1334 28.9761 14.423C28.9761 14.7126 29.0907 14.9904 29.2948 15.1958L30.7199 16.6209H22.553C22.2623 16.6209 21.9835 16.7364 21.7779 16.942C21.5723 17.1476 21.4568 17.4264 21.4568 17.7172C21.4568 18.0079 21.5723 18.2867 21.7779 18.4923C21.9835 18.6979 22.2623 18.8134 22.553 18.8134H30.7199L29.3058 20.2275C29.1262 20.4372 29.0324 20.707 29.043 20.9829C29.0537 21.2588 29.1681 21.5205 29.3633 21.7157C29.5585 21.911 29.8202 22.0253 30.0961 22.036C30.372 22.0466 30.6418 21.9528 30.8515 21.7732L34.1402 18.4845C34.2429 18.3826 34.3245 18.2614 34.3801 18.1278C34.4358 17.9942 34.4644 17.8509 34.4644 17.7062C34.4644 17.5615 34.4358 17.4182 34.3801 17.2846C34.3245 17.151 34.2429 17.0298 34.1402 16.9279L30.8515 13.6392C30.7489 13.5371 30.627 13.4564 30.4931 13.4017C30.3591 13.347 30.2156 13.3194 30.0709 13.3204C29.9262 13.3214 29.7831 13.3511 29.6499 13.4077C29.5167 13.4643 29.396 13.5467 29.2948 13.6501ZM17.6967 21.7842C17.8763 21.5745 17.9702 21.3047 17.9595 21.0288C17.9488 20.7529 17.8345 20.4912 17.6392 20.296C17.444 20.1007 17.1823 19.9864 16.9064 19.9757C16.6305 19.965 16.3608 20.0589 16.151 20.2385L12.8623 23.5272C12.7596 23.6291 12.678 23.7503 12.6224 23.8839C12.5667 24.0175 12.5381 24.1608 12.5381 24.3055C12.5381 24.4502 12.5667 24.5935 12.6224 24.7271C12.678 24.8607 12.7596 24.9819 12.8623 25.0838L16.151 28.3725C16.3589 28.5775 16.6397 28.6915 16.9316 28.6894C17.2236 28.6874 17.5027 28.5694 17.7077 28.3616C17.9127 28.1537 18.0267 27.8729 18.0246 27.581C18.0225 27.289 17.9046 27.0099 17.6967 26.8049L16.2716 25.3908H24.4385C24.7293 25.3908 25.0081 25.2753 25.2137 25.0697C25.4193 24.8641 25.5348 24.5853 25.5348 24.2945C25.5348 24.0038 25.4193 23.725 25.2137 23.5194C25.0081 23.3138 24.7293 23.1983 24.4385 23.1983H16.2716L17.6967 21.7842Z" fill="#7F56D9"/>
</svg>
