<svg width="46" height="32" viewBox="0 0 46 32" fill="none" xmlns="http://www.w3.org/2000/svg">
<rect x="0.5" y="0.5" width="45" height="31" rx="5.5" fill="white"/>
<rect x="0.5" y="0.5" width="45" height="31" rx="5.5" stroke="#F2F4F7"/>
<path fill-rule="evenodd" clip-rule="evenodd" d="M12.6968 11.1239C12.31 11.5931 11.6912 11.9632 11.0723 11.9103C10.995 11.2759 11.298 10.6018 11.6525 10.1855C12.0393 9.70308 12.7161 9.35944 13.264 9.33301C13.3285 9.99385 13.0771 10.6415 12.6968 11.1239ZM13.2575 12.0358C12.7123 12.0037 12.2149 12.2039 11.8131 12.3657C11.5545 12.4698 11.3356 12.5579 11.169 12.5579C10.9821 12.5579 10.7541 12.465 10.4981 12.3608C10.1626 12.2242 9.77915 12.068 9.37699 12.0755C8.45521 12.0887 7.59789 12.624 7.12733 13.4765C6.16042 15.1814 6.87593 17.7058 7.81061 19.0936C8.26827 19.7809 8.81619 20.5342 9.53814 20.5078C9.85576 20.4955 10.0842 20.3961 10.3207 20.2933C10.5929 20.1748 10.8757 20.0518 11.3173 20.0518C11.7435 20.0518 12.0139 20.1716 12.2735 20.2867C12.5203 20.396 12.7574 20.501 13.1092 20.4946C13.857 20.4814 14.3275 19.8073 14.7852 19.12C15.2791 18.3824 15.4962 17.6625 15.5291 17.5533L15.533 17.5406C15.5322 17.5398 15.5261 17.537 15.5153 17.5319L15.5153 17.5319C15.3502 17.4544 14.0883 16.8622 14.0762 15.274C14.064 13.9409 15.0771 13.2655 15.2366 13.1592L15.2366 13.1591C15.2463 13.1527 15.2528 13.1483 15.2558 13.1461C14.6112 12.168 13.6056 12.0623 13.2575 12.0358ZM18.4337 20.4219V10.1194H22.2047C24.1514 10.1194 25.5115 11.4939 25.5115 13.5029C25.5115 15.5119 24.1256 16.8996 22.1531 16.8996H19.9937V20.4219H18.4337ZM19.9935 11.4675H21.792C23.1457 11.4675 23.9192 12.2077 23.9192 13.5095C23.9192 14.8114 23.1457 15.5581 21.7855 15.5581H19.9935V11.4675ZM30.6619 19.1861C30.2494 19.9924 29.3405 20.5012 28.3607 20.5012C26.9103 20.5012 25.8983 19.6157 25.8983 18.2808C25.8983 16.9591 26.8781 16.1991 28.6894 16.0868L30.6361 15.9678V15.3995C30.6361 14.5603 30.1011 14.1043 29.1471 14.1043C28.3607 14.1043 27.787 14.5206 27.671 15.155H26.2657C26.3109 13.8201 27.5356 12.8487 29.1922 12.8487C30.9778 12.8487 32.1381 13.8069 32.1381 15.2938V20.4219H30.6942V19.1861H30.6619ZM28.7796 19.2787C27.948 19.2787 27.4195 18.8689 27.4195 18.2411C27.4195 17.5935 27.9287 17.2168 28.9021 17.1574L30.636 17.045V17.6266C30.636 18.5914 29.8367 19.2787 28.7796 19.2787ZM36.9274 20.825C36.3022 22.6291 35.5866 23.2239 34.0654 23.2239C33.9493 23.2239 33.5626 23.2107 33.4723 23.1842V21.9485C33.569 21.9617 33.8075 21.9749 33.93 21.9749C34.6197 21.9749 35.0065 21.6775 35.245 20.9043L35.3868 20.4483L32.7439 12.9478H34.3748L36.2119 19.0341H36.2441L38.0813 12.9478H39.667L36.9274 20.825Z" fill="black"/>
</svg>
