<svg width="20" height="20" viewBox="0 0 20 20" fill="none" xmlns="http://www.w3.org/2000/svg">
<g clip-path="url(#clip0_11447_18920)">
<path d="M20 10C20 15.5228 15.5228 20 10 20C4.47719 20 0 15.5228 0 10C0 10.0023 10 0.00113281 10 0C15.5228 0 20 4.47719 20 10Z" fill="#0052B4"/>
<path d="M9.97314 10.0004H9.99996C9.99996 9.99136 9.99996 9.98267 9.99996 9.97363C9.99103 9.98259 9.98211 9.99152 9.97314 10.0004Z" fill="#F0F0F0"/>
<path d="M9.99999 5.21836C9.99999 3.45879 9.99999 2.30578 9.99999 0.000976562H9.99831C4.47625 0.001875 0 4.47863 0 10.0009H5.21738V7.06297L8.15535 10.0009H9.97328C9.98222 9.99203 9.99113 9.98312 10 9.97418C10 9.30047 10 8.69934 10 8.15637L7.06203 5.21836H9.99999Z" fill="#F0F0F0"/>
<path d="M5.05904 1.30469C3.49502 2.19527 2.19479 3.49551 1.3042 5.05953V10.0004H3.91291V3.91344V3.9134H9.99987C9.99987 3.09063 9.99987 2.3068 9.99987 1.30469H5.05904Z" fill="#D80027"/>
<path d="M9.99986 8.77061L6.44701 5.21779H5.21729C5.21729 5.21775 5.21729 5.21779 5.21729 5.21779L9.99982 10.0003H9.99986C9.99986 10.0003 9.99986 9.15248 9.99986 8.77061Z" fill="#D80027"/>
<path d="M6.03107 11.7383L6.5799 12.8859L7.81924 12.5994L7.26424 13.744L8.26088 14.5344L7.01998 14.8141L7.02346 16.0861L6.03107 15.2903L5.03873 16.0861L5.04221 14.8141L3.80127 14.5344L4.79795 13.744L4.24287 12.5994L5.48228 12.8859L6.03107 11.7383Z" fill="#F0F0F0"/>
<path d="M14.9723 13.9121L15.2467 14.4859L15.8664 14.3427L15.5889 14.915L16.0872 15.3102L15.4668 15.45L15.4685 16.086L14.9723 15.6881L14.4761 16.086L14.4779 15.45L13.8574 15.3102L14.3557 14.915L14.0782 14.3427L14.6979 14.4859L14.9723 13.9121Z" fill="#F0F0F0"/>
<path d="M12.4191 7.82617L12.6935 8.4L13.3132 8.25672L13.0357 8.82902L13.534 9.22422L12.9136 9.36406L12.9153 10.0001L12.4191 9.60215L11.9229 10.0001L11.9246 9.36406L11.3042 9.22422L11.8025 8.82902L11.525 8.25672L12.1447 8.4L12.4191 7.82617Z" fill="#F0F0F0"/>
<path d="M14.9723 4.34766L15.2467 4.92149L15.8664 4.77824L15.5889 5.35055L16.0872 5.7457L15.4668 5.88559L15.4685 6.5216L14.9723 6.12367L14.4761 6.5216L14.4779 5.88559L13.8574 5.7457L14.3557 5.35055L14.0782 4.77824L14.6979 4.92149L14.9723 4.34766Z" fill="#F0F0F0"/>
<path d="M17.2018 6.95605L17.4762 7.52988L18.0959 7.3866L17.8184 7.95891L18.3167 8.3541L17.6962 8.49398L17.698 9.12996L17.2018 8.73207L16.7057 9.12996L16.7073 8.49398L16.0869 8.3541L16.5852 7.95891L16.3077 7.3866L16.9274 7.52988L17.2018 6.95605Z" fill="#F0F0F0"/>
<path d="M15.6077 10L15.8235 10.6643H16.522L15.9569 11.0749L16.1728 11.7391L15.6077 11.3286L15.0426 11.7391L15.2584 11.0749L14.6934 10.6643H15.3918L15.6077 10Z" fill="#F0F0F0"/>
</g>
<defs>
<clipPath id="clip0_11447_18920">
<rect width="20" height="20" fill="white"/>
</clipPath>
</defs>
</svg>
