<svg width="19" height="22" viewBox="0 0 19 22" fill="none" xmlns="http://www.w3.org/2000/svg">
<path d="M5.17201 1.53946C8.12979 0.351585 11.0055 0.45411 13.8136 1.92782C14.0123 2.03212 14.0986 2.00711 14.1993 1.8128C14.375 1.47389 14.5785 1.14943 14.7964 0.774067C15.3306 2.00246 15.8447 3.18489 16.3743 4.40275C15.0645 4.55298 13.7939 4.6987 12.44 4.85399C12.6397 4.50772 12.7927 4.20034 12.9856 3.92044C13.1561 3.67309 13.1226 3.55837 12.8487 3.41668C9.25205 1.55611 4.73709 2.66094 2.4047 5.98334C2.11892 6.39042 1.86097 6.81516 1.67261 7.27489C1.58709 7.48363 1.46124 7.54271 1.25679 7.52086C0.875352 7.4801 0.528566 7.3694 0.231041 7.10988C-0.0102562 6.89941 -0.0699929 6.70508 0.0871636 6.39236C1.20117 4.17562 2.86916 2.54757 5.17201 1.53946Z" fill="#039855"/>
<path d="M5.4905 20.2128C4.7851 19.8734 4.78541 19.8736 4.40635 20.5299C4.30375 20.7075 4.19864 20.8837 4.05531 21.1276C3.52112 19.9012 3.00873 18.725 2.47705 17.5044C3.78921 17.3542 5.06096 17.2086 6.40227 17.055C6.20105 17.4104 6.05278 17.737 5.84531 18.0204C5.63607 18.3061 5.81416 18.3799 6.01904 18.4868C10.062 20.597 15.1985 18.8744 17.1211 14.7394C17.2874 14.3815 17.4906 14.3514 17.7933 14.4084C17.9832 14.4442 18.1692 14.4947 18.3405 14.5934C18.9034 14.9175 18.9642 15.1138 18.6685 15.6864C16.1661 20.5332 10.3693 22.5328 5.4905 20.2128Z" fill="#039855"/>
<path d="M6.80514 14.6231C6.68376 14.985 6.3447 15.2289 5.96295 15.2289C5.35037 15.2289 4.92164 14.6235 5.12507 14.0457L7.92495 6.09262C8.06334 5.69951 8.43474 5.43652 8.8515 5.43652H9.65059C10.0672 5.43652 10.4385 5.69932 10.577 6.09222L13.3808 14.0454C13.5845 14.6233 13.1558 15.2289 12.5432 15.2289C12.1616 15.2289 11.8227 14.9853 11.7012 14.6236L9.30131 7.48099C9.29404 7.45933 9.27374 7.44474 9.25089 7.44474C9.22804 7.44474 9.20773 7.45934 9.20046 7.48101L6.80514 14.6231ZM6.66411 12.1019C6.66411 11.7084 6.98308 11.3894 7.37655 11.3894H11.1157C11.5091 11.3894 11.8281 11.7084 11.8281 12.1019C11.8281 12.4953 11.5091 12.8143 11.1157 12.8143H7.37655C6.98308 12.8143 6.66411 12.4953 6.66411 12.1019Z" fill="#039855"/>
</svg>
