<svg width="32" height="32" viewBox="0 0 32 32" fill="none" xmlns="http://www.w3.org/2000/svg">
<path d="M25.6295 10.0403C25.3092 9.61744 24.707 9.52775 24.2842 9.84807C23.8614 10.1684 23.7717 10.7706 24.092 11.1934C25.4758 13.0384 26.2061 15.1909 26.2061 17.4203C26.2061 23.1731 21.5295 27.8496 15.7767 27.8496C10.0238 27.8496 5.34729 23.1731 5.34729 17.4203C5.34729 11.6674 10.0238 7.00369 15.7767 7.00369C16.5198 7.00369 17.2758 7.09338 18.0958 7.28557C18.1342 7.29838 18.1726 7.28557 18.2239 7.28557C18.2495 7.28557 18.288 7.31119 18.3136 7.31119C18.352 7.31119 18.3776 7.29838 18.4161 7.29838C18.4673 7.29838 18.5058 7.28557 18.5442 7.27275C18.6083 7.25994 18.6723 7.23432 18.7364 7.19588C18.7748 7.17025 18.8261 7.15744 18.8645 7.13182C18.8773 7.119 18.903 7.119 18.9158 7.10619C18.9542 7.08057 18.967 7.04213 18.9926 7.0165C19.0439 6.96525 19.0823 6.92682 19.1208 6.86275C19.1592 6.8115 19.172 6.74744 19.1976 6.69619C19.2105 6.65775 19.2361 6.61932 19.2489 6.58088C19.2489 6.55525 19.2489 6.54244 19.2489 6.51682C19.2617 6.45275 19.2617 6.38869 19.2489 6.32463C19.2489 6.26057 19.2489 6.20932 19.2361 6.14525C19.2233 6.094 19.1976 6.04275 19.172 5.97869C19.1464 5.91463 19.1208 5.85057 19.0823 5.79932C19.0695 5.77369 19.0695 5.76088 19.0567 5.74807L16.5198 2.58338C16.1867 2.17338 15.5845 2.10932 15.1745 2.42963C14.7645 2.76275 14.7005 3.36494 15.0208 3.77494L16.0714 5.08182C15.9689 5.08182 15.8664 5.069 15.7639 5.069C8.96041 5.069 3.4126 10.604 3.4126 17.4203C3.4126 24.2365 8.9476 29.7715 15.7639 29.7715C22.5801 29.7715 28.1151 24.2365 28.1151 17.4203C28.128 14.7681 27.2567 12.2184 25.6295 10.0403Z" fill="#B3BAC2"/>
<path d="M12.6251 21.9845C12.0998 21.9845 11.6641 21.5488 11.6641 21.0235V16.6801L11.4207 16.962C11.0619 17.3592 10.4598 17.3848 10.0626 17.0388C9.66539 16.6801 9.63976 16.0779 9.9857 15.6807L11.9076 13.541C12.1766 13.2464 12.5994 13.1439 12.971 13.2848C13.3426 13.4257 13.586 13.7845 13.586 14.1817V21.0363C13.586 21.5617 13.1632 21.9845 12.6251 21.9845Z" fill="#B3BAC2"/>
<path d="M18.3374 21.9838C16.3899 21.9838 14.814 20.4079 14.814 18.4604V16.7307C14.814 14.7832 16.3899 13.2073 18.3374 13.2073C20.2849 13.2073 21.8608 14.7832 21.8608 16.7307V18.4604C21.8608 20.4079 20.2849 21.9838 18.3374 21.9838ZM18.3374 15.142C17.4533 15.142 16.7358 15.8595 16.7358 16.7435V18.4732C16.7358 19.3573 17.4533 20.0748 18.3374 20.0748C19.2215 20.0748 19.939 19.3573 19.939 18.4732V16.7435C19.939 15.8595 19.2215 15.142 18.3374 15.142Z" fill="#B3BAC2"/>
</svg>
