<svg width="23" height="23" viewBox="0 0 23 23" fill="none" xmlns="http://www.w3.org/2000/svg">
<path d="M19 19V12.4375M11.5 19V9.625M4 19L4 15.25M12.8188 4.96329L17.6642 6.78032M10.3738 5.31336L5.12521 9.24984M19.9944 6.28688C20.5435 6.83606 20.5435 7.72644 19.9944 8.27562C19.4452 8.82479 18.5548 8.82479 18.0056 8.27562C17.4565 7.72644 17.4565 6.83606 18.0056 6.28688C18.5548 5.73771 19.4452 5.73771 19.9944 6.28688ZM4.99437 9.09938C5.54354 9.64856 5.54354 10.5389 4.99437 11.0881C4.44519 11.6373 3.55481 11.6373 3.00563 11.0881C2.45646 10.5389 2.45646 9.64856 3.00563 9.09938C3.55481 8.55021 4.44519 8.55021 4.99437 9.09938ZM12.4944 3.47438C13.0435 4.02356 13.0435 4.91394 12.4944 5.46312C11.9452 6.01229 11.0548 6.01229 10.5056 5.46312C9.95646 4.91394 9.95646 4.02356 10.5056 3.47438C11.0548 2.92521 11.9452 2.92521 12.4944 3.47438Z" stroke="black" stroke-width="1.60714" stroke-linecap="round" stroke-linejoin="round"/>
</svg>
