<svg width="21" height="21" viewBox="0 0 21 21" fill="none" xmlns="http://www.w3.org/2000/svg">
<g id="Frame" clip-path="url(#clip0_10693_32738)">
<g id="Group">
<path id="Vector" d="M21.1392 10.0874C21.1392 7.92776 19.7372 6.03328 17.7293 5.3722V3.31002C17.7293 2.7013 17.4405 2.1529 16.9386 1.80856C16.4366 1.46409 15.821 1.392 15.253 1.61115L5.73898 5.28144H2.70691C1.1373 5.28144 -0.139408 6.55815 -0.139408 8.12772V12.0471C-0.139408 13.4449 0.873271 14.6094 2.2032 14.848V18.7182C2.2032 19.1576 2.55936 19.5137 2.99874 19.5137H5.88714C6.32652 19.5137 6.68267 19.1576 6.68267 18.7182V15.2574L15.2529 18.5636C15.2529 18.5636 15.253 18.5636 15.253 18.5636C15.4689 18.647 15.6921 18.6883 15.9139 18.6883C16.2744 18.6883 16.6286 18.579 16.9386 18.3662C17.4405 18.0219 17.7294 17.4735 17.7294 16.8647V14.8025C19.7372 14.1415 21.1392 12.247 21.1392 10.0874ZM1.45166 12.0471V8.12772C1.45166 7.43573 2.01487 6.87251 2.70691 6.87251H5.0916V13.3023H2.70691C2.01487 13.3023 1.45166 12.7391 1.45166 12.0471ZM3.79427 17.9227V14.8934H5.0916V17.9227H3.79427ZM16.1383 16.8648C16.1383 16.9128 16.1292 16.947 16.1152 16.9736C16.1011 17.0003 16.078 17.0271 16.0383 17.0543C15.9988 17.0815 15.9654 17.0934 15.9355 17.0969C15.9057 17.1004 15.8705 17.0965 15.8257 17.0792C15.8257 17.0792 15.8257 17.0792 15.8257 17.0792L6.68267 13.5521V6.62276L15.8256 3.09561C15.8256 3.0956 15.8257 3.09559 15.8257 3.09557C15.8705 3.07835 15.9057 3.0745 15.9356 3.078C15.9655 3.0815 15.9988 3.09339 16.0384 3.12054C16.078 3.14771 16.1011 3.17457 16.1152 3.20121C16.1292 3.22784 16.1383 3.26207 16.1383 3.31006V16.8648ZM17.7293 13.0819V7.09294C18.8217 7.66141 19.5481 8.80606 19.5481 10.0874C19.5481 11.3687 18.8217 12.5134 17.7293 13.0819Z" fill="#7F56D9" stroke="#7F56D9" stroke-width="0.278571"/>
</g>
</g>
<defs>
<clipPath id="clip0_10693_32738">
<rect width="21" height="21" fill="white"/>
</clipPath>
</defs>
</svg>
