<svg xmlns="http://www.w3.org/2000/svg" width="20" height="20" viewBox="0 0 20 20" fill="none">
    <path d="M5.07799 9.35668C5.02619 9.02287 4.99932 8.6809 4.99932 8.33268C4.99932 4.65078 8.00372 1.66602 11.7098 1.66602C15.416 1.66602 18.4204 4.65078 18.4204 8.33268C18.4204 9.16441 18.2671 9.96056 17.987 10.6948C17.9288 10.8473 17.8997 10.9235 17.8865 10.983C17.8734 11.042 17.8684 11.0835 17.867 11.1439C17.8655 11.2048 17.8738 11.272 17.8903 11.4063L18.2258 14.1315C18.2621 14.4265 18.2803 14.574 18.2312 14.6812C18.1882 14.7752 18.1118 14.8498 18.0169 14.8906C17.9086 14.9372 17.7615 14.9156 17.4674 14.8725L14.8131 14.4834C14.6745 14.4631 14.6052 14.453 14.5421 14.4533C14.4796 14.4537 14.4364 14.4583 14.3753 14.4711C14.3135 14.4841 14.2346 14.5137 14.0768 14.5728C13.3407 14.8485 12.543 14.9993 11.7098 14.9993C11.3614 14.9993 11.0191 14.973 10.6849 14.9221M6.359 18.3327C8.82975 18.3327 10.8327 16.2807 10.8327 13.7493C10.8327 11.218 8.82975 9.16602 6.359 9.16602C3.88825 9.16602 1.88531 11.218 1.88531 13.7493C1.88531 14.2582 1.96625 14.7476 2.11564 15.205C2.17879 15.3983 2.21037 15.4949 2.22073 15.561C2.23155 15.6299 2.23344 15.6686 2.22942 15.7383C2.22556 15.805 2.20886 15.8804 2.17547 16.0313L1.66602 18.3327L4.16168 17.9918C4.2979 17.9732 4.36601 17.9639 4.42549 17.9643C4.48812 17.9648 4.52135 17.9682 4.58277 17.9804C4.6411 17.992 4.72782 18.0226 4.90124 18.0838C5.35818 18.2451 5.84861 18.3327 6.359 18.3327Z" stroke="#6941C6" stroke-width="1.66667" stroke-linecap="round" stroke-linejoin="round"/>
  </svg>