<svg width="23" height="23" viewBox="0 0 23 23" fill="none" xmlns="http://www.w3.org/2000/svg">
<g id="coins-stacked-03">
<path id="Icon" d="M12.4375 4.9375C12.4375 5.97303 10.129 6.8125 7.28125 6.8125C4.43353 6.8125 2.125 5.97303 2.125 4.9375M12.4375 4.9375C12.4375 3.90197 10.129 3.0625 7.28125 3.0625C4.43353 3.0625 2.125 3.90197 2.125 4.9375M12.4375 4.9375V6.34375M2.125 4.9375V16.1875C2.125 17.223 4.43353 18.0625 7.28125 18.0625M7.28125 10.5625C7.12324 10.5625 6.96689 10.5599 6.8125 10.5549C4.18445 10.4687 2.125 9.66558 2.125 8.6875M7.28125 14.3125C4.43353 14.3125 2.125 13.473 2.125 12.4375M20.875 11.0312C20.875 12.0668 18.5665 12.9062 15.7187 12.9062C12.871 12.9062 10.5625 12.0668 10.5625 11.0312M20.875 11.0312C20.875 9.99572 18.5665 9.15625 15.7187 9.15625C12.871 9.15625 10.5625 9.99572 10.5625 11.0312M20.875 11.0312V18.0625C20.875 19.098 18.5665 19.9375 15.7187 19.9375C12.871 19.9375 10.5625 19.098 10.5625 18.0625V11.0312M20.875 14.5469C20.875 15.5824 18.5665 16.4219 15.7187 16.4219C12.871 16.4219 10.5625 15.5824 10.5625 14.5469" stroke="black" stroke-width="1.60714" stroke-linecap="round" stroke-linejoin="round"/>
</g>
</svg>
