<svg width="21" height="20" viewBox="0 0 21 20" fill="none" xmlns="http://www.w3.org/2000/svg">
<path d="M11.339 4.16374C11.339 5.08367 9.2882 5.82943 6.75838 5.82943C4.22856 5.82943 2.17773 5.08367 2.17773 4.16374M11.339 4.16374C11.339 3.2438 9.2882 2.49805 6.75838 2.49805C4.22856 2.49805 2.17773 3.2438 2.17773 4.16374M11.339 4.16374V5.413M2.17773 4.16374V14.1579C2.17773 15.0778 4.22856 15.8236 6.75838 15.8236M6.75838 9.16081C6.61801 9.16081 6.47911 9.15851 6.34196 9.15402C4.00729 9.07751 2.17773 8.36401 2.17773 7.49512M6.75838 12.4922C4.22856 12.4922 2.17773 11.7464 2.17773 10.8265M18.8346 9.57723C18.8346 10.4972 16.7838 11.2429 14.254 11.2429C11.7242 11.2429 9.67334 10.4972 9.67334 9.57723M18.8346 9.57723C18.8346 8.65729 16.7838 7.91154 14.254 7.91154C11.7242 7.91154 9.67334 8.65729 9.67334 9.57723M18.8346 9.57723V15.8236C18.8346 16.7435 16.7838 17.4893 14.254 17.4893C11.7242 17.4893 9.67334 16.7435 9.67334 15.8236V9.57723M18.8346 12.7004C18.8346 13.6203 16.7838 14.3661 14.254 14.3661C11.7242 14.3661 9.67334 13.6203 9.67334 12.7004" stroke="#7F56D9" stroke-width="1.66569" stroke-linecap="round" stroke-linejoin="round"/>
</svg>
