<svg width="345" height="210" viewBox="0 0 345 210" fill="none" xmlns="http://www.w3.org/2000/svg">
<g filter="url(#filter0_bd_3762_24515)">
<rect x="-2.20459" y="0.575073" width="348.307" height="209.425" rx="22.0447" fill="url(#paint0_linear_3762_24515)"/>
<rect x="-1.65347" y="1.12619" width="347.204" height="208.323" rx="21.4936" stroke="url(#paint1_linear_3762_24515)" stroke-width="1.10224"/>
<rect x="278.866" y="157.093" width="49.9681" height="35.2716" rx="4.40895" fill="white" fill-opacity="0.1"/>
<path opacity="0.5" fill-rule="evenodd" clip-rule="evenodd" d="M304.113 181.826C302.373 183.293 300.115 184.178 297.649 184.178C292.145 184.178 287.684 179.77 287.684 174.332C287.684 168.893 292.145 164.485 297.649 164.485C300.115 164.485 302.373 165.37 304.113 166.837C305.853 165.37 308.11 164.485 310.577 164.485C316.08 164.485 320.542 168.893 320.542 174.332C320.542 179.77 316.08 184.178 310.577 184.178C308.11 184.178 305.853 183.293 304.113 181.826Z" fill="white"/>
<path opacity="0.5" fill-rule="evenodd" clip-rule="evenodd" d="M304.113 181.826C306.255 180.02 307.614 177.333 307.614 174.332C307.614 171.331 306.255 168.643 304.113 166.837C305.853 165.37 308.11 164.485 310.577 164.485C316.08 164.485 320.542 168.893 320.542 174.332C320.542 179.77 316.08 184.178 310.577 184.178C308.11 184.178 305.853 183.293 304.113 181.826Z" fill="white"/>
<path fill-rule="evenodd" clip-rule="evenodd" d="M304.113 181.826C306.255 180.02 307.614 177.333 307.614 174.332C307.614 171.331 306.255 168.643 304.113 166.837C301.97 168.643 300.612 171.331 300.612 174.332C300.612 177.333 301.97 180.02 304.113 181.826Z" fill="white"/>
<path d="M18.8789 187.115V176.445L16.4893 177.9V175.846L18.8789 174.417H20.7572V187.115H18.8789ZM26.3984 187.106L26.4072 185.466L31.936 180.51C32.3828 180.117 32.6856 179.74 32.8443 179.382C33.0089 179.023 33.0912 178.665 33.0912 178.306C33.0912 177.853 32.9912 177.448 32.7914 177.089C32.5915 176.725 32.3152 176.437 31.9625 176.225C31.6098 176.013 31.2042 175.907 30.7456 175.907C30.2753 175.907 29.855 176.019 29.4847 176.243C29.1202 176.46 28.8351 176.751 28.6293 177.116C28.4236 177.48 28.3236 177.874 28.3295 178.297H26.4425C26.4425 177.474 26.6277 176.754 26.998 176.137C27.3743 175.514 27.8886 175.029 28.5412 174.682C29.1937 174.329 29.9403 174.153 30.7809 174.153C31.5804 174.153 32.2976 174.335 32.9325 174.699C33.5673 175.058 34.067 175.552 34.4315 176.181C34.8019 176.81 34.987 177.527 34.987 178.332C34.987 178.914 34.9106 179.408 34.7578 179.814C34.6049 180.219 34.3757 180.596 34.07 180.942C33.7643 181.289 33.3822 181.666 32.9236 182.071L28.6558 185.88L28.453 185.351H34.987V187.106H26.3984ZM43.3008 187.353C42.6718 187.353 42.081 187.236 41.5284 187C40.9758 186.759 40.4967 186.418 40.0911 185.977C39.6913 185.537 39.4003 185.016 39.2181 184.417L40.9993 183.923C41.1698 184.47 41.4667 184.89 41.8899 185.184C42.3132 185.472 42.7835 185.613 43.3008 185.607C43.7652 185.601 44.1738 185.492 44.5265 185.281C44.8792 185.069 45.1555 184.784 45.3554 184.426C45.5552 184.061 45.6552 183.644 45.6552 183.173C45.6552 182.468 45.4347 181.886 44.9938 181.427C44.5588 180.969 43.9886 180.74 43.2832 180.74C43.0833 180.74 42.8775 180.769 42.6659 180.828C42.4601 180.887 42.2662 180.963 42.0839 181.057L41.2198 179.602L45.6993 175.643L45.8932 176.172H39.7207V174.417H47.357V176.172L43.6359 179.752L43.6182 179.152C44.4177 179.152 45.1114 179.332 45.6993 179.69C46.2871 180.043 46.7398 180.525 47.0572 181.136C47.3805 181.742 47.5422 182.421 47.5422 183.173C47.5422 183.985 47.3511 184.705 46.969 185.334C46.5928 185.963 46.0843 186.457 45.4435 186.815C44.8086 187.174 44.0944 187.353 43.3008 187.353ZM57.8638 187.115V184.902H52.1322V183.156L56.259 174.417H58.3664L54.2397 183.156H57.8638V179.717H59.7332V183.156H60.9942V184.902H59.7332V187.115H57.8638ZM74.1458 187.115V176.445L71.7561 177.9V175.846L74.1458 174.417H76.024V187.115H74.1458ZM81.6652 187.106L81.674 185.466L87.2029 180.51C87.6496 180.117 87.9524 179.74 88.1111 179.382C88.2757 179.023 88.358 178.665 88.358 178.306C88.358 177.853 88.2581 177.448 88.0582 177.089C87.8583 176.725 87.582 176.437 87.2293 176.225C86.8766 176.013 86.471 175.907 86.0124 175.907C85.5422 175.907 85.1218 176.019 84.7515 176.243C84.387 176.46 84.1019 176.751 83.8962 177.116C83.6904 177.48 83.5905 177.874 83.5963 178.297H81.7093C81.7093 177.474 81.8945 176.754 82.2648 176.137C82.6411 175.514 83.1555 175.029 83.808 174.682C84.4605 174.329 85.2071 174.153 86.0477 174.153C86.8472 174.153 87.5644 174.335 88.1993 174.699C88.8342 175.058 89.3339 175.552 89.6983 176.181C90.0687 176.81 90.2539 177.527 90.2539 178.332C90.2539 178.914 90.1774 179.408 90.0246 179.814C89.8717 180.219 89.6425 180.596 89.3368 180.942C89.0311 181.289 88.649 181.666 88.1905 182.071L83.9226 185.88L83.7198 185.351H90.2539V187.106H81.6652ZM98.5676 187.353C97.9386 187.353 97.3478 187.236 96.7952 187C96.2426 186.759 95.7635 186.418 95.3579 185.977C94.9582 185.537 94.6672 185.016 94.4849 184.417L96.2661 183.923C96.4366 184.47 96.7335 184.89 97.1567 185.184C97.58 185.472 98.0503 185.613 98.5676 185.607C99.032 185.601 99.4406 185.492 99.7933 185.281C100.146 185.069 100.422 184.784 100.622 184.426C100.822 184.061 100.922 183.644 100.922 183.173C100.922 182.468 100.702 181.886 100.261 181.427C99.8256 180.969 99.2554 180.74 98.55 180.74C98.3501 180.74 98.1444 180.769 97.9327 180.828C97.727 180.887 97.533 180.963 97.3507 181.057L96.4866 179.602L100.966 175.643L101.16 176.172H94.9875V174.417H102.624V176.172L98.9027 179.752L98.8851 179.152C99.6845 179.152 100.378 179.332 100.966 179.69C101.554 180.043 102.007 180.525 102.324 181.136C102.647 181.742 102.809 182.421 102.809 183.173C102.809 183.985 102.618 184.705 102.236 185.334C101.86 185.963 101.351 186.457 100.71 186.815C100.075 187.174 99.3612 187.353 98.5676 187.353ZM113.131 187.115V184.902H107.399V183.156L111.526 174.417H113.633L109.506 183.156H113.131V179.717H115V183.156H116.261V184.902H115V187.115H113.131ZM129.413 187.115V176.445L127.023 177.9V175.846L129.413 174.417H131.291V187.115H129.413ZM136.932 187.106L136.941 185.466L142.47 180.51C142.916 180.117 143.219 179.74 143.378 179.382C143.543 179.023 143.625 178.665 143.625 178.306C143.625 177.853 143.525 177.448 143.325 177.089C143.125 176.725 142.849 176.437 142.496 176.225C142.143 176.013 141.738 175.907 141.279 175.907C140.809 175.907 140.389 176.019 140.018 176.243C139.654 176.46 139.369 176.751 139.163 177.116C138.957 177.48 138.857 177.874 138.863 178.297H136.976C136.976 177.474 137.161 176.754 137.532 176.137C137.908 175.514 138.422 175.029 139.075 174.682C139.727 174.329 140.474 174.153 141.315 174.153C142.114 174.153 142.831 174.335 143.466 174.699C144.101 175.058 144.601 175.552 144.965 176.181C145.335 176.81 145.521 177.527 145.521 178.332C145.521 178.914 145.444 179.408 145.291 179.814C145.139 180.219 144.909 180.596 144.604 180.942C144.298 181.289 143.916 181.666 143.457 182.071L139.189 185.88L138.987 185.351H145.521V187.106H136.932ZM153.834 187.353C153.205 187.353 152.615 187.236 152.062 187C151.509 186.759 151.03 186.418 150.625 185.977C150.225 185.537 149.934 185.016 149.752 184.417L151.533 183.923C151.703 184.47 152 184.89 152.424 185.184C152.847 185.472 153.317 185.613 153.834 185.607C154.299 185.601 154.707 185.492 155.06 185.281C155.413 185.069 155.689 184.784 155.889 184.426C156.089 184.061 156.189 183.644 156.189 183.173C156.189 182.468 155.968 181.886 155.527 181.427C155.092 180.969 154.522 180.74 153.817 180.74C153.617 180.74 153.411 180.769 153.2 180.828C152.994 180.887 152.8 180.963 152.618 181.057L151.753 179.602L156.233 175.643L156.427 176.172H150.254V174.417H157.891V176.172L154.17 179.752L154.152 179.152C154.951 179.152 155.645 179.332 156.233 179.69C156.821 180.043 157.273 180.525 157.591 181.136C157.914 181.742 158.076 182.421 158.076 183.173C158.076 183.985 157.885 184.705 157.503 185.334C157.126 185.963 156.618 186.457 155.977 186.815C155.342 187.174 154.628 187.353 153.834 187.353ZM168.397 187.115V184.902H162.666V183.156L166.793 174.417H168.9L164.773 183.156H168.397V179.717H170.267V183.156H171.528V184.902H170.267V187.115H168.397ZM184.679 187.115V176.445L182.29 177.9V175.846L184.679 174.417H186.558V187.115H184.679ZM192.199 187.106L192.208 185.466L197.737 180.51C198.183 180.117 198.486 179.74 198.645 179.382C198.809 179.023 198.892 178.665 198.892 178.306C198.892 177.853 198.792 177.448 198.592 177.089C198.392 176.725 198.116 176.437 197.763 176.225C197.41 176.013 197.005 175.907 196.546 175.907C196.076 175.907 195.655 176.019 195.285 176.243C194.921 176.46 194.636 176.751 194.43 177.116C194.224 177.48 194.124 177.874 194.13 178.297H192.243C192.243 177.474 192.428 176.754 192.798 176.137C193.175 175.514 193.689 175.029 194.342 174.682C194.994 174.329 195.741 174.153 196.581 174.153C197.381 174.153 198.098 174.335 198.733 174.699C199.368 175.058 199.867 175.552 200.232 176.181C200.602 176.81 200.787 177.527 200.787 178.332C200.787 178.914 200.711 179.408 200.558 179.814C200.405 180.219 200.176 180.596 199.87 180.942C199.565 181.289 199.183 181.666 198.724 182.071L194.456 185.88L194.253 185.351H200.787V187.106H192.199ZM209.101 187.353C208.472 187.353 207.881 187.236 207.329 187C206.776 186.759 206.297 186.418 205.892 185.977C205.492 185.537 205.201 185.016 205.019 184.417L206.8 183.923C206.97 184.47 207.267 184.89 207.69 185.184C208.114 185.472 208.584 185.613 209.101 185.607C209.566 185.601 209.974 185.492 210.327 185.281C210.68 185.069 210.956 184.784 211.156 184.426C211.356 184.061 211.456 183.644 211.456 183.173C211.456 182.468 211.235 181.886 210.794 181.427C210.359 180.969 209.789 180.74 209.084 180.74C208.884 180.74 208.678 180.769 208.466 180.828C208.261 180.887 208.067 180.963 207.884 181.057L207.02 179.602L211.5 175.643L211.694 176.172H205.521V174.417H213.157V176.172L209.436 179.752L209.419 179.152C210.218 179.152 210.912 179.332 211.5 179.69C212.088 180.043 212.54 180.525 212.858 181.136C213.181 181.742 213.343 182.421 213.343 183.173C213.343 183.985 213.152 184.705 212.769 185.334C212.393 185.963 211.885 186.457 211.244 186.815C210.609 187.174 209.895 187.353 209.101 187.353ZM223.664 187.115V184.902H217.933V183.156L222.059 174.417H224.167L220.04 183.156H223.664V179.717H225.534V183.156H226.795V184.902H225.534V187.115H223.664Z" fill="white"/>
<path d="M20.3317 155.86C19.3794 155.86 18.5681 155.653 17.898 155.238C17.2278 154.819 16.7142 154.237 16.357 153.492C16.0043 152.747 15.828 151.883 15.828 150.9C15.828 149.917 16.0043 149.052 16.357 148.307C16.7142 147.562 17.2278 146.982 17.898 146.568C18.5681 146.149 19.3794 145.94 20.3317 145.94C21.2796 145.94 22.0887 146.149 22.7588 146.568C23.4334 146.982 23.947 147.562 24.2997 148.307C24.6525 149.052 24.8288 149.917 24.8288 150.9C24.8288 151.883 24.6525 152.747 24.2997 153.492C23.947 154.237 23.4334 154.819 22.7588 155.238C22.0887 155.653 21.2796 155.86 20.3317 155.86ZM20.3317 154.544C21.0063 154.553 21.5662 154.405 22.0115 154.101C22.4612 153.792 22.7985 153.364 23.0234 152.818C23.2482 152.266 23.3606 151.627 23.3606 150.9C23.3606 150.172 23.2482 149.537 23.0234 148.995C22.7985 148.448 22.4612 148.023 22.0115 147.719C21.5662 147.414 21.0063 147.26 20.3317 147.256C19.6571 147.247 19.095 147.395 18.6453 147.699C18.2 148.003 17.8649 148.431 17.64 148.982C17.4152 149.533 17.3005 150.172 17.2961 150.9C17.2917 151.627 17.402 152.264 17.6268 152.811C17.8517 153.353 18.1889 153.777 18.6387 154.081C19.0928 154.385 19.6571 154.539 20.3317 154.544ZM26.9416 155.661V146.138H28.3238V154.359H32.6358V155.661H26.9416ZM34.5522 155.661V146.138H35.9344V155.661H34.5522ZM40.8171 155.661L37.722 146.138H39.1571L41.7959 154.266L44.4677 146.138H45.9028L42.8077 155.661H40.8171ZM47.6938 155.661V146.138H49.076V155.661H47.6938ZM51.062 155.661L54.1571 146.138H56.1477L59.2428 155.661H57.8077L54.9573 146.971H55.3144L52.4971 155.661H51.062ZM52.669 153.512V152.216H57.6423V153.512H52.669ZM64.3999 155.661V146.138H68.2489C68.3415 146.138 68.4561 146.142 68.5928 146.151C68.7295 146.156 68.8595 146.169 68.983 146.191C69.5121 146.275 69.953 146.455 70.3057 146.733C70.6628 147.011 70.9295 147.362 71.1059 147.785C71.2823 148.208 71.3704 148.675 71.3704 149.187C71.3704 149.945 71.1765 150.6 70.7885 151.151C70.4005 151.698 69.8185 152.039 69.0425 152.176L68.4804 152.242H65.7821V155.661H64.3999ZM69.9684 155.661L68.0902 151.786L69.4856 151.429L71.549 155.661H69.9684ZM65.7821 150.933H68.196C68.2842 150.933 68.3812 150.928 68.487 150.92C68.5972 150.911 68.7008 150.895 68.7978 150.873C69.08 150.807 69.3071 150.686 69.479 150.51C69.651 150.329 69.7744 150.122 69.8494 149.888C69.9243 149.654 69.9618 149.421 69.9618 149.187C69.9618 148.953 69.9243 148.722 69.8494 148.492C69.7744 148.259 69.651 148.054 69.479 147.877C69.3071 147.697 69.08 147.573 68.7978 147.507C68.7008 147.481 68.5972 147.463 68.487 147.454C68.3812 147.445 68.2842 147.441 68.196 147.441H65.7821V150.933ZM73.6639 155.661V146.138H75.0461V150.245H79.8077V146.138H81.1965V155.661H79.8077V151.548H75.0461V155.661H73.6639ZM86.0106 155.661V151.726L82.7899 146.138H84.4035L86.7116 150.139L89.0197 146.138H90.6334L87.4126 151.726V155.661H86.0106ZM92.2176 155.661V146.138H98.3019V147.441H93.5998V150.113H97.5083V151.416H93.5998V154.359H98.3019V155.661H92.2176Z" fill="white"/>
<path d="M191.276 155.86C190.628 155.86 190.055 155.719 189.557 155.437C189.059 155.15 188.666 154.758 188.38 154.259C188.097 153.761 187.956 153.188 187.956 152.54V149.26C187.956 148.611 188.097 148.038 188.38 147.54C188.666 147.042 189.059 146.652 189.557 146.37C190.055 146.083 190.628 145.94 191.276 145.94C191.924 145.94 192.498 146.083 192.996 146.37C193.494 146.652 193.884 147.042 194.166 147.54C194.453 148.038 194.596 148.611 194.596 149.26V152.54C194.596 153.188 194.453 153.761 194.166 154.259C193.884 154.758 193.494 155.15 192.996 155.437C192.498 155.719 191.924 155.86 191.276 155.86ZM191.276 154.537C191.629 154.537 191.949 154.453 192.235 154.286C192.526 154.114 192.758 153.885 192.93 153.598C193.102 153.307 193.188 152.983 193.188 152.626V149.16C193.188 148.808 193.102 148.488 192.93 148.201C192.758 147.91 192.526 147.681 192.235 147.514C191.949 147.342 191.629 147.256 191.276 147.256C190.924 147.256 190.602 147.342 190.311 147.514C190.024 147.681 189.795 147.91 189.623 148.201C189.451 148.488 189.365 148.808 189.365 149.16V152.626C189.365 152.983 189.451 153.307 189.623 153.598C189.795 153.885 190.024 154.114 190.311 154.286C190.602 154.453 190.924 154.537 191.276 154.537ZM200.378 155.86C199.76 155.86 199.205 155.714 198.711 155.423C198.217 155.128 197.825 154.724 197.534 154.213C197.247 153.702 197.104 153.12 197.104 152.467V149.432C197.104 148.739 197.247 148.131 197.534 147.606C197.825 147.082 198.226 146.674 198.738 146.383C199.253 146.092 199.846 145.946 200.517 145.946C201.019 145.946 201.491 146.041 201.932 146.231C202.373 146.42 202.754 146.702 203.076 147.077L202.064 148.023C201.883 147.789 201.656 147.604 201.383 147.467C201.114 147.326 200.825 147.256 200.517 147.256C200.12 147.256 199.772 147.351 199.472 147.54C199.172 147.725 198.936 147.97 198.764 148.274C198.597 148.578 198.513 148.905 198.513 149.253V150.999L198.242 150.695C198.515 150.338 198.854 150.055 199.26 149.848C199.666 149.641 200.1 149.537 200.563 149.537C201.154 149.537 201.681 149.676 202.144 149.954C202.611 150.227 202.977 150.6 203.241 151.072C203.51 151.543 203.645 152.075 203.645 152.665C203.645 153.261 203.495 153.801 203.195 154.286C202.9 154.766 202.503 155.15 202.005 155.437C201.511 155.719 200.969 155.86 200.378 155.86ZM200.378 154.53C200.722 154.53 201.035 154.447 201.317 154.279C201.599 154.112 201.824 153.887 201.991 153.605C202.159 153.322 202.243 153.009 202.243 152.665C202.243 152.322 202.159 152.009 201.991 151.726C201.828 151.444 201.606 151.219 201.323 151.052C201.041 150.884 200.728 150.801 200.384 150.801C200.04 150.801 199.725 150.884 199.439 151.052C199.156 151.219 198.932 151.444 198.764 151.726C198.597 152.009 198.513 152.322 198.513 152.665C198.513 153.005 198.597 153.316 198.764 153.598C198.932 153.88 199.156 154.107 199.439 154.279C199.721 154.447 200.034 154.53 200.378 154.53ZM208.388 146.138H209.783L207.244 155.661H205.848L208.388 146.138ZM211.906 155.655L211.912 154.425L216.059 150.708C216.394 150.413 216.621 150.13 216.74 149.861C216.864 149.592 216.925 149.324 216.925 149.055C216.925 148.715 216.85 148.411 216.7 148.142C216.551 147.869 216.343 147.653 216.079 147.494C215.814 147.335 215.51 147.256 215.166 147.256C214.813 147.256 214.498 147.339 214.22 147.507C213.947 147.67 213.733 147.888 213.579 148.162C213.425 148.435 213.35 148.731 213.354 149.048H211.939C211.939 148.431 212.078 147.891 212.355 147.428C212.638 146.96 213.023 146.597 213.513 146.336C214.002 146.072 214.562 145.94 215.193 145.94C215.792 145.94 216.33 146.076 216.806 146.35C217.282 146.619 217.657 146.989 217.931 147.461C218.208 147.932 218.347 148.47 218.347 149.074C218.347 149.511 218.29 149.881 218.175 150.185C218.061 150.49 217.889 150.772 217.659 151.032C217.43 151.292 217.144 151.574 216.8 151.879L213.599 154.735L213.447 154.339H218.347V155.655H211.906ZM224.371 155.661V154.001H220.072V152.692L223.167 146.138H224.747L221.652 152.692H224.371V150.113H225.773V152.692H226.718V154.001H225.773V155.661H224.371Z" fill="white"/>
<path d="M32.0837 31.1213H29.7414C29.6746 30.7371 29.5515 30.3969 29.3719 30.1004C29.1924 29.7998 28.969 29.5451 28.7018 29.3364C28.4346 29.1276 28.1298 28.9711 27.7875 28.8667C27.4493 28.7581 27.084 28.7039 26.6915 28.7039C25.9942 28.7039 25.3763 28.8792 24.8377 29.2299C24.2991 29.5765 23.8774 30.0858 23.5727 30.758C23.2679 31.426 23.1155 32.2423 23.1155 33.2067C23.1155 34.1879 23.2679 35.0146 23.5727 35.6868C23.8816 36.3548 24.3033 36.86 24.8377 37.2023C25.3763 37.5405 25.9922 37.7096 26.6852 37.7096C27.0693 37.7096 27.4284 37.6595 27.7624 37.5593C28.1006 37.4549 28.4033 37.3025 28.6705 37.1021C28.9419 36.9017 29.1694 36.6554 29.3531 36.3631C29.541 36.0709 29.6705 35.7369 29.7414 35.3611L32.0837 35.3736C31.996 35.9832 31.806 36.5552 31.5138 37.0896C31.2257 37.624 30.8478 38.0958 30.3802 38.505C29.9126 38.91 29.3657 39.2273 28.7394 39.4569C28.1131 39.6824 27.418 39.7951 26.6539 39.7951C25.5266 39.7951 24.5204 39.5342 23.6353 39.0123C22.7502 38.4904 22.0529 37.7368 21.5435 36.7514C21.0342 35.7661 20.7795 34.5845 20.7795 33.2067C20.7795 31.8248 21.0363 30.6432 21.5498 29.662C22.0633 28.6767 22.7627 27.9231 23.6478 27.4012C24.5329 26.8793 25.535 26.6184 26.6539 26.6184C27.3679 26.6184 28.0317 26.7186 28.6455 26.919C29.2592 27.1194 29.8061 27.4137 30.2863 27.802C30.7664 28.1861 31.161 28.6579 31.4699 29.2174C31.7831 29.7727 31.9877 30.4073 32.0837 31.1213ZM36.8793 39.8139C36.2698 39.8139 35.7207 39.7053 35.2323 39.4882C34.7479 39.267 34.3638 38.9413 34.0799 38.5113C33.8002 38.0812 33.6603 37.551 33.6603 36.9205C33.6603 36.3778 33.7605 35.9289 33.9609 35.574C34.1613 35.2192 34.4348 34.9352 34.7813 34.7223C35.1279 34.5094 35.5183 34.3486 35.9525 34.2401C36.3909 34.1274 36.8439 34.0459 37.3115 33.9958C37.8751 33.9374 38.3323 33.8852 38.683 33.8393C39.0337 33.7892 39.2884 33.714 39.4471 33.6138C39.6099 33.5094 39.6913 33.3487 39.6913 33.1316V33.094C39.6913 32.6222 39.5514 32.2569 39.2717 31.998C38.992 31.7392 38.5891 31.6097 38.063 31.6097C37.5077 31.6097 37.0672 31.7308 36.7416 31.973C36.4201 32.2151 36.203 32.5011 36.0902 32.831L33.9735 32.5304C34.1405 31.9458 34.416 31.4574 34.8001 31.0649C35.1842 30.6683 35.6539 30.3718 36.2092 30.1756C36.7645 29.9752 37.3783 29.875 38.0505 29.875C38.5139 29.875 38.9753 29.9293 39.4345 30.0378C39.8938 30.1464 40.3134 30.3259 40.6933 30.5764C41.0733 30.8227 41.3781 31.1588 41.6077 31.5847C41.8415 32.0106 41.9584 32.5429 41.9584 33.1817V39.6198H39.779V38.2983H39.7038C39.566 38.5655 39.3719 38.816 39.1214 39.0498C38.8751 39.2795 38.564 39.4653 38.1883 39.6072C37.8167 39.745 37.3804 39.8139 36.8793 39.8139ZM37.468 38.148C37.9231 38.148 38.3177 38.0582 38.6517 37.8787C38.9857 37.695 39.2425 37.4529 39.422 37.1522C39.6057 36.8516 39.6976 36.5239 39.6976 36.169V35.0354C39.6266 35.0939 39.5055 35.1482 39.3343 35.1983C39.1673 35.2484 38.9794 35.2922 38.7707 35.3298C38.5619 35.3674 38.3553 35.4008 38.1507 35.43C37.9461 35.4592 37.7687 35.4843 37.6183 35.5052C37.2802 35.5511 36.9775 35.6262 36.7103 35.7306C36.443 35.835 36.2322 35.9811 36.0777 36.169C35.9232 36.3527 35.846 36.5907 35.846 36.8829C35.846 37.3005 35.9984 37.6157 36.3032 37.8286C36.608 38.0415 36.9963 38.148 37.468 38.148ZM46.5051 26.7937V39.6198H44.238V26.7937H46.5051ZM51.1035 26.7937V39.6198H48.8364V26.7937H51.1035ZM57.0046 39.7888C56.2489 39.7888 55.5725 39.5947 54.9754 39.2064C54.3784 38.8181 53.9066 38.2545 53.5601 37.5155C53.2135 36.7765 53.0403 35.8788 53.0403 34.8225C53.0403 33.7537 53.2156 32.8519 53.5663 32.117C53.9212 31.378 54.3993 30.8206 55.0005 30.4449C55.6017 30.0649 56.2718 29.875 57.0108 29.875C57.5745 29.875 58.0379 29.971 58.4011 30.1631C58.7644 30.3509 59.0525 30.5785 59.2654 30.8457C59.4783 31.1087 59.6432 31.3572 59.7601 31.591H59.8541V26.7937H62.1275V39.6198H59.8979V38.1042H59.7601C59.6432 38.338 59.4742 38.5864 59.2529 38.8494C59.0316 39.1083 58.7393 39.3296 58.3761 39.5133C58.0129 39.697 57.5557 39.7888 57.0046 39.7888ZM57.6371 37.9288C58.1172 37.9288 58.5264 37.7994 58.8646 37.5405C59.2028 37.2775 59.4595 36.9122 59.6349 36.4446C59.8103 35.9769 59.8979 35.4321 59.8979 34.81C59.8979 34.1879 59.8103 33.6472 59.6349 33.188C59.4637 32.7287 59.209 32.3717 58.8708 32.117C58.5368 31.8623 58.1256 31.735 57.6371 31.735C57.1319 31.735 56.7102 31.8665 56.372 32.1296C56.0338 32.3926 55.7792 32.7558 55.608 33.2193C55.4368 33.6827 55.3512 34.2129 55.3512 34.81C55.3512 35.4112 55.4368 35.9477 55.608 36.4195C55.7833 36.8871 56.0401 37.2566 56.3783 37.528C56.7206 37.7952 57.1402 37.9288 57.6371 37.9288ZM65.9524 43.2271C65.6434 43.2271 65.3574 43.202 65.0944 43.1519C64.8355 43.106 64.6289 43.0517 64.4744 42.9891L65.0005 41.223C65.3303 41.319 65.6246 41.365 65.8835 41.3608C66.1424 41.3566 66.3699 41.2752 66.5661 41.1165C66.7665 40.9621 66.9356 40.7032 67.0734 40.34L67.2676 39.8202L63.7792 30.0002H66.1841L68.4011 37.265H68.5013L70.7246 30.0002H73.1357L69.2842 40.7846C69.1046 41.294 68.8666 41.7303 68.5702 42.0935C68.2738 42.4609 67.9105 42.7407 67.4805 42.9327C67.0546 43.129 66.5453 43.2271 65.9524 43.2271ZM76.9716 33.9833V39.6198H74.7045V30.0002H76.8714V31.6348H76.9842C77.2054 31.0962 77.5582 30.6683 78.0426 30.3509C78.531 30.0336 79.1344 29.875 79.8525 29.875C80.5163 29.875 81.0946 30.0169 81.5872 30.3008C82.0841 30.5848 82.4682 30.996 82.7396 31.5346C83.0151 32.0732 83.1508 32.7266 83.1467 33.4948V39.6198H80.8796V33.8455C80.8796 33.2026 80.7126 32.6995 80.3785 32.3362C80.0487 31.973 79.5915 31.7914 79.007 31.7914C78.6104 31.7914 78.2576 31.879 77.9486 32.0544C77.6438 32.2256 77.4038 32.474 77.2284 32.7997C77.0572 33.1253 76.9716 33.5199 76.9716 33.9833ZM88.2194 39.8139C87.6099 39.8139 87.0608 39.7053 86.5724 39.4882C86.088 39.267 85.7039 38.9413 85.42 38.5113C85.1403 38.0812 85.0004 37.551 85.0004 36.9205C85.0004 36.3778 85.1006 35.9289 85.301 35.574C85.5014 35.2192 85.7749 34.9352 86.1214 34.7223C86.468 34.5094 86.8584 34.3486 87.2926 34.2401C87.731 34.1274 88.184 34.0459 88.6516 33.9958C89.2152 33.9374 89.6724 33.8852 90.0231 33.8393C90.3738 33.7892 90.6285 33.714 90.7872 33.6138C90.95 33.5094 91.0314 33.3487 91.0314 33.1316V33.094C91.0314 32.6222 90.8915 32.2569 90.6118 31.998C90.3321 31.7392 89.9292 31.6097 89.4031 31.6097C88.8478 31.6097 88.4073 31.7308 88.0817 31.973C87.7602 32.2151 87.5431 32.5011 87.4303 32.831L85.3136 32.5304C85.4806 31.9458 85.7561 31.4574 86.1402 31.0649C86.5243 30.6683 86.994 30.3718 87.5493 30.1756C88.1046 29.9752 88.7184 29.875 89.3906 29.875C89.854 29.875 90.3154 29.9293 90.7746 30.0378C91.2339 30.1464 91.6535 30.3259 92.0334 30.5764C92.4134 30.8227 92.7182 31.1588 92.9478 31.5847C93.1816 32.0106 93.2985 32.5429 93.2985 33.1817V39.6198H91.1191V38.2983H91.0439C90.9061 38.5655 90.712 38.816 90.4615 39.0498C90.2152 39.2795 89.9041 39.4653 89.5284 39.6072C89.1568 39.745 88.7205 39.8139 88.2194 39.8139ZM88.8081 38.148C89.2632 38.148 89.6578 38.0582 89.9918 37.8787C90.3258 37.695 90.5826 37.4529 90.7621 37.1522C90.9458 36.8516 91.0377 36.5239 91.0377 36.169V35.0354C90.9667 35.0939 90.8456 35.1482 90.6744 35.1983C90.5074 35.2484 90.3195 35.2922 90.1108 35.3298C89.902 35.3674 89.6954 35.4008 89.4908 35.43C89.2862 35.4592 89.1088 35.4843 88.9584 35.5052C88.6203 35.5511 88.3176 35.6262 88.0504 35.7306C87.7831 35.835 87.5723 35.9811 87.4178 36.169C87.2633 36.3527 87.1861 36.5907 87.1861 36.8829C87.1861 37.3005 87.3385 37.6157 87.6433 37.8286C87.9481 38.0415 88.3364 38.148 88.8081 38.148ZM95.5781 39.6198V30.0002H97.745V31.6348H97.8578C98.0582 31.0837 98.3901 30.6536 98.8535 30.3447C99.317 30.0315 99.8702 29.875 100.513 29.875C101.164 29.875 101.713 30.0336 102.16 30.3509C102.611 30.6641 102.928 31.092 103.112 31.6348H103.212C103.425 31.1004 103.784 30.6745 104.29 30.3572C104.799 30.0357 105.402 29.875 106.099 29.875C106.985 29.875 107.707 30.1547 108.266 30.7142C108.826 31.2737 109.106 32.0899 109.106 33.1629V39.6198H106.832V33.5136C106.832 32.9166 106.674 32.4803 106.356 32.2047C106.039 31.925 105.651 31.7851 105.191 31.7851C104.644 31.7851 104.216 31.9563 103.908 32.2986C103.603 32.6368 103.45 33.0773 103.45 33.6201V39.6198H101.227V33.4197C101.227 32.9228 101.077 32.5262 100.776 32.2298C100.48 31.9333 100.091 31.7851 99.6113 31.7851C99.2857 31.7851 98.9892 31.8686 98.722 32.0356C98.4548 32.1984 98.2419 32.4302 98.0832 32.7308C97.9246 33.0272 97.8452 33.3737 97.8452 33.7704V39.6198H95.5781ZM111.406 39.6198V30.0002H113.673V39.6198H111.406ZM112.545 28.635C112.186 28.635 111.877 28.516 111.618 28.278C111.36 28.0358 111.23 27.7457 111.23 27.4075C111.23 27.0651 111.36 26.7749 111.618 26.537C111.877 26.2948 112.186 26.1737 112.545 26.1737C112.909 26.1737 113.218 26.2948 113.472 26.537C113.731 26.7749 113.861 27.0651 113.861 27.4075C113.861 27.7457 113.731 28.0358 113.472 28.278C113.218 28.516 112.909 28.635 112.545 28.635ZM120.2 39.8076C119.24 39.8076 118.415 39.5968 117.726 39.1751C117.041 38.7534 116.513 38.171 116.142 37.4278C115.774 36.6805 115.591 35.8204 115.591 34.8476C115.591 33.8706 115.778 33.0084 116.154 32.2611C116.53 31.5095 117.06 30.925 117.745 30.5075C118.434 30.0858 119.248 29.875 120.187 29.875C120.968 29.875 121.659 30.019 122.26 30.3071C122.866 30.591 123.348 30.9939 123.707 31.5158C124.066 32.0335 124.271 32.6389 124.321 33.332H122.154C122.066 32.8686 121.857 32.4824 121.528 32.1734C121.202 31.8603 120.766 31.7037 120.219 31.7037C119.755 31.7037 119.348 31.8289 118.998 32.0795C118.647 32.3258 118.373 32.6807 118.177 33.1441C117.985 33.6076 117.889 34.1628 117.889 34.81C117.889 35.4655 117.985 36.0291 118.177 36.5009C118.369 36.9685 118.638 37.3297 118.985 37.5844C119.336 37.8349 119.747 37.9601 120.219 37.9601C120.553 37.9601 120.851 37.8975 121.114 37.7723C121.382 37.6428 121.605 37.457 121.784 37.2149C121.964 36.9727 122.087 36.6784 122.154 36.3318H124.321C124.267 37.0124 124.066 37.6157 123.72 38.1418C123.373 38.6636 122.901 39.0728 122.304 39.3692C121.707 39.6615 121.006 39.8076 120.2 39.8076ZM133.785 32.5429L131.719 32.7683C131.66 32.5596 131.558 32.3634 131.412 32.1797C131.27 31.9959 131.078 31.8477 130.836 31.735C130.593 31.6223 130.297 31.5659 129.946 31.5659C129.475 31.5659 129.078 31.6682 128.756 31.8728C128.439 32.0774 128.283 32.3425 128.287 32.6681C128.283 32.9479 128.385 33.1754 128.594 33.3508C128.806 33.5261 129.157 33.6702 129.646 33.7829L131.287 34.1336C132.197 34.3299 132.873 34.6409 133.316 35.0668C133.762 35.4926 133.988 36.05 133.992 36.7389C133.988 37.3443 133.81 37.8787 133.46 38.3422C133.113 38.8014 132.631 39.1605 132.013 39.4193C131.395 39.6782 130.685 39.8076 129.884 39.8076C128.706 39.8076 127.759 39.5613 127.04 39.0686C126.322 38.5718 125.894 37.8808 125.757 36.9957L127.967 36.7827C128.067 37.217 128.28 37.5447 128.606 37.766C128.932 37.9873 129.356 38.0979 129.877 38.0979C130.416 38.0979 130.848 37.9873 131.174 37.766C131.504 37.5447 131.669 37.2712 131.669 36.9456C131.669 36.67 131.562 36.4425 131.349 36.2629C131.14 36.0834 130.815 35.9456 130.372 35.8496L128.731 35.5052C127.809 35.3131 127.126 34.9895 126.683 34.5344C126.241 34.0752 126.022 33.4948 126.026 32.7934C126.022 32.2005 126.182 31.687 126.508 31.2528C126.838 30.8144 127.295 30.4762 127.88 30.2382C128.468 29.9961 129.147 29.875 129.915 29.875C131.042 29.875 131.929 30.115 132.577 30.5952C133.228 31.0753 133.631 31.7246 133.785 32.5429Z" fill="white"/>
<g clip-path="url(#clip0_3762_24515)">
<path d="M318.397 24.0369C320.47 27.6275 321.562 31.7005 321.562 35.8465C321.562 39.9926 320.47 44.0656 318.397 47.6562M313.201 26.635C314.818 29.4357 315.669 32.6126 315.669 35.8465C315.669 39.0805 314.818 42.2574 313.201 45.0581M308.241 29.0205C309.41 31.0672 310.026 33.3888 310.026 35.7521C310.026 38.1153 309.41 40.4369 308.241 42.4836M303.281 31.5951C304.123 32.8703 304.57 34.3433 304.57 35.8465C304.57 37.3497 304.123 38.8228 303.281 40.098" stroke="white" stroke-width="2.83432" stroke-linecap="round"/>
</g>
</g>
<defs>
<filter id="filter0_bd_3762_24515" x="-15.4314" y="-12.6518" width="387.987" height="251.31" filterUnits="userSpaceOnUse" color-interpolation-filters="sRGB">
<feFlood flood-opacity="0" result="BackgroundImageFix"/>
<feGaussianBlur in="BackgroundImageFix" stdDeviation="6.61342"/>
<feComposite in2="SourceAlpha" operator="in" result="effect1_backgroundBlur_3762_24515"/>
<feColorMatrix in="SourceAlpha" type="matrix" values="0 0 0 0 0 0 0 0 0 0 0 0 0 0 0 0 0 0 127 0" result="hardAlpha"/>
<feOffset dx="8.81789" dy="11.0224"/>
<feGaussianBlur stdDeviation="8.81789"/>
<feColorMatrix type="matrix" values="0 0 0 0 0 0 0 0 0 0 0 0 0 0 0 0 0 0 0.05 0"/>
<feBlend mode="normal" in2="effect1_backgroundBlur_3762_24515" result="effect2_dropShadow_3762_24515"/>
<feBlend mode="normal" in="SourceGraphic" in2="effect2_dropShadow_3762_24515" result="shape"/>
</filter>
<linearGradient id="paint0_linear_3762_24515" x1="15.1968" y1="0.575096" x2="374.033" y2="252.793" gradientUnits="userSpaceOnUse">
<stop stop-color="white" stop-opacity="0.51"/>
<stop offset="1" stop-color="white" stop-opacity="0"/>
</linearGradient>
<linearGradient id="paint1_linear_3762_24515" x1="-2.20459" y1="9.41835" x2="338.146" y2="222.696" gradientUnits="userSpaceOnUse">
<stop stop-color="white"/>
<stop offset="1" stop-color="white" stop-opacity="0.2"/>
</linearGradient>
<clipPath id="clip0_3762_24515">
<rect width="22.0447" height="26.4537" fill="white" transform="translate(301.706 22.6198)"/>
</clipPath>
</defs>
</svg>
