<svg xmlns="http://www.w3.org/2000/svg" width="26" height="26" viewBox="0 0 26 26" fill="none">
    <path d="M24.1426 20.6142H12.9544C12.5354 19.1352 11.1845 18.0429 9.5713 18.0429C7.95783 18.0429 6.60732 19.1354 6.18816 20.6142H1.85718C1.32821 20.6142 0.9 21.0427 0.9 21.5715C0.9 22.1 1.32818 22.5287 1.85718 22.5287H6.18815C6.60717 24.0077 7.95809 25.1 9.5713 25.1C11.1848 25.1 12.5353 24.0075 12.9544 22.5287H24.1426C24.6716 22.5287 25.0998 22.1002 25.0998 21.5715C25.0998 21.0429 24.6716 20.6142 24.1426 20.6142ZM9.5714 23.1858C8.68158 23.1858 7.95704 22.4617 7.95704 21.5714C7.95704 20.6811 8.68133 19.957 9.5714 19.957C10.4612 19.957 11.1858 20.6811 11.1858 21.5714C11.1856 22.4616 10.4613 23.1858 9.5714 23.1858ZM24.1426 12.0428H19.8118C19.3928 10.5638 18.0419 9.4715 16.4287 9.4715C14.8152 9.4715 13.4647 10.564 13.0456 12.0428H1.85739C1.32841 12.0428 0.900204 12.4713 0.900204 13.0001C0.900204 13.5286 1.32839 13.9573 1.85739 13.9573H13.0455C13.4646 15.4363 14.8155 16.5286 16.4287 16.5286C18.0422 16.5286 19.3927 15.4361 19.8118 13.9573H24.1428C24.6718 13.9573 25.1 13.5288 25.1 13.0001C25.1 12.4715 24.6718 12.0428 24.1428 12.0428H24.1426ZM16.4284 14.6144C15.5386 14.6144 14.8141 13.8903 14.8141 13C14.8141 12.1097 15.5384 11.3856 16.4284 11.3856C17.3183 11.3856 18.0428 12.1097 18.0428 13C18.0428 13.8903 17.3185 14.6144 16.4284 14.6144ZM1.85723 5.38575H6.1882C6.60722 6.86479 7.95815 7.9571 9.57135 7.9571C11.1848 7.9571 12.5353 6.86458 12.9545 5.38575H24.1427C24.6716 5.38575 25.0998 4.95731 25.0998 4.42855C25.0998 3.90002 24.6717 3.47135 24.1427 3.47135H12.9545C12.5351 1.99233 11.1848 0.9 9.57135 0.9C7.95788 0.9 6.60737 1.99252 6.18821 3.47135H1.85723C1.32826 3.47135 0.900051 3.89979 0.900051 4.42855C0.900051 4.95708 1.32823 5.38575 1.85723 5.38575ZM9.5714 2.8142C10.4612 2.8142 11.1858 3.53833 11.1858 4.4286C11.1858 5.31888 10.4615 6.043 9.5714 6.043C8.68158 6.043 7.95704 5.31888 7.95704 4.4286C7.95704 3.53832 8.68133 2.8142 9.5714 2.8142Z" fill="#7F56D9" stroke="#7F56D9" stroke-width="0.2"/>
  </svg>