<svg width="23" height="23" viewBox="0 0 23 23" fill="none" xmlns="http://www.w3.org/2000/svg">
<g id="dataflow-04">
<path id="Icon" d="M4 16.9844V16.7969C4 15.2217 4 14.4342 4.30654 13.8325C4.57619 13.3033 5.00645 12.8731 5.53565 12.6034C6.13728 12.2969 6.92485 12.2969 8.5 12.2969H14.5C16.0751 12.2969 16.8627 12.2969 17.4643 12.6034C17.9936 12.8731 18.4238 13.3033 18.6935 13.8325C19 14.4342 19 15.2217 19 16.7969V16.9844M4 16.9844C2.96447 16.9844 2.125 17.8238 2.125 18.8594C2.125 19.8949 2.96447 20.7344 4 20.7344C5.03553 20.7344 5.875 19.8949 5.875 18.8594C5.875 17.8238 5.03553 16.9844 4 16.9844ZM19 16.9844C17.9645 16.9844 17.125 17.8238 17.125 18.8594C17.125 19.8949 17.9645 20.7344 19 20.7344C20.0355 20.7344 20.875 19.8949 20.875 18.8594C20.875 17.8238 20.0355 16.9844 19 16.9844ZM11.5 16.9844C10.4645 16.9844 9.625 17.8238 9.625 18.8594C9.625 19.8949 10.4645 20.7344 11.5 20.7344C12.5355 20.7344 13.375 19.8949 13.375 18.8594C13.375 17.8238 12.5355 16.9844 11.5 16.9844ZM11.5 16.9844V7.60937M5.875 7.60937H17.125C17.9986 7.60937 18.4355 7.60937 18.78 7.46665C19.2395 7.27635 19.6045 6.91133 19.7948 6.45191C19.9375 6.10734 19.9375 5.67051 19.9375 4.79687C19.9375 3.92323 19.9375 3.48641 19.7948 3.14184C19.6045 2.68242 19.2395 2.3174 18.78 2.1271C18.4355 1.98438 17.9986 1.98438 17.125 1.98438H5.875C5.00136 1.98438 4.56454 1.98438 4.21997 2.1271C3.76054 2.3174 3.39553 2.68242 3.20523 3.14184C3.0625 3.48641 3.0625 3.92323 3.0625 4.79687C3.0625 5.67051 3.0625 6.10734 3.20523 6.45191C3.39553 6.91133 3.76054 7.27635 4.21997 7.46665C4.56454 7.60937 5.00136 7.60937 5.875 7.60937Z" stroke="black" stroke-width="1.60714" stroke-linecap="round" stroke-linejoin="round"/>
</g>
</svg>
