<svg width="23" height="23" viewBox="0 0 23 23" fill="none" xmlns="http://www.w3.org/2000/svg">
<g id="database-01">
<path id="Icon" d="M19.9375 4.9375C19.9375 6.4908 16.1599 7.75 11.5 7.75C6.8401 7.75 3.0625 6.4908 3.0625 4.9375M19.9375 4.9375C19.9375 3.3842 16.1599 2.125 11.5 2.125C6.8401 2.125 3.0625 3.3842 3.0625 4.9375M19.9375 4.9375V18.0625C19.9375 19.6187 16.1875 20.875 11.5 20.875C6.8125 20.875 3.0625 19.6187 3.0625 18.0625V4.9375M19.9375 11.5C19.9375 13.0562 16.1875 14.3125 11.5 14.3125C6.8125 14.3125 3.0625 13.0562 3.0625 11.5" stroke="black" stroke-width="1.60714" stroke-linecap="round" stroke-linejoin="round"/>
</g>
</svg>
