<svg width="23" height="23" viewBox="0 0 23 23" fill="none" xmlns="http://www.w3.org/2000/svg">
<path d="M20.125 20.7344C20.3875 20.7344 20.5188 20.7344 20.6191 20.6833C20.7073 20.6383 20.779 20.5666 20.8239 20.4784C20.875 20.3782 20.875 20.2469 20.875 19.9844V10.2344C20.875 9.97185 20.875 9.84059 20.8239 9.74032C20.779 9.65212 20.7073 9.58041 20.6191 9.53547C20.5188 9.48438 20.3875 9.48438 20.125 9.48438L17.875 9.48437C17.6125 9.48437 17.4812 9.48437 17.3809 9.53547C17.2927 9.58041 17.221 9.65212 17.1761 9.74032C17.125 9.84059 17.125 9.97185 17.125 10.2344V12.4844C17.125 12.7469 17.125 12.8782 17.0739 12.9784C17.029 13.0666 16.9573 13.1383 16.8691 13.1833C16.7688 13.2344 16.6375 13.2344 16.375 13.2344H14.125C13.8625 13.2344 13.7312 13.2344 13.6309 13.2855C13.5427 13.3304 13.471 13.4021 13.4261 13.4903C13.375 13.5906 13.375 13.7218 13.375 13.9844V16.2344C13.375 16.4969 13.375 16.6282 13.3239 16.7284C13.279 16.8166 13.2073 16.8883 13.1191 16.9333C13.0188 16.9844 12.8875 16.9844 12.625 16.9844H10.375C10.1125 16.9844 9.98121 16.9844 9.88094 17.0355C9.79274 17.0804 9.72103 17.1521 9.67609 17.2403C9.625 17.3406 9.625 17.4718 9.625 17.7344V19.9844C9.625 20.2469 9.625 20.3782 9.67609 20.4784C9.72103 20.5666 9.79274 20.6383 9.88094 20.6833C9.98121 20.7344 10.1125 20.7344 10.375 20.7344L20.125 20.7344Z" stroke="black" stroke-width="1.60714" stroke-linecap="round" stroke-linejoin="round"/>
<path d="M9.625 6.48437C9.625 6.22185 9.625 6.09059 9.67609 5.99032C9.72103 5.90212 9.79274 5.83041 9.88094 5.78547C9.98121 5.73437 10.1125 5.73437 10.375 5.73437H12.625C12.8875 5.73437 13.0188 5.73437 13.1191 5.78547C13.2073 5.83041 13.279 5.90212 13.3239 5.99032C13.375 6.09059 13.375 6.22185 13.375 6.48437V8.73437C13.375 8.9969 13.375 9.12816 13.3239 9.22843C13.279 9.31663 13.2073 9.38834 13.1191 9.43328C13.0188 9.48437 12.8875 9.48437 12.625 9.48437H10.375C10.1125 9.48437 9.98121 9.48437 9.88094 9.43328C9.79274 9.38834 9.72103 9.31663 9.67609 9.22843C9.625 9.12816 9.625 8.9969 9.625 8.73437V6.48437Z" stroke="black" stroke-width="1.60714" stroke-linecap="round" stroke-linejoin="round"/>
<path d="M3.0625 12.1094C3.0625 11.8468 3.0625 11.7156 3.11359 11.6153C3.15853 11.5271 3.23024 11.4554 3.31844 11.4105C3.41871 11.3594 3.54998 11.3594 3.8125 11.3594H6.0625C6.32502 11.3594 6.45629 11.3594 6.55656 11.4105C6.64476 11.4554 6.71647 11.5271 6.76141 11.6153C6.8125 11.7156 6.8125 11.8468 6.8125 12.1094V14.3594C6.8125 14.6219 6.8125 14.7532 6.76141 14.8534C6.71647 14.9416 6.64476 15.0133 6.55656 15.0583C6.45629 15.1094 6.32502 15.1094 6.0625 15.1094H3.8125C3.54998 15.1094 3.41871 15.1094 3.31844 15.0583C3.23024 15.0133 3.15853 14.9416 3.11359 14.8534C3.0625 14.7532 3.0625 14.6219 3.0625 14.3594V12.1094Z" stroke="black" stroke-width="1.60714" stroke-linecap="round" stroke-linejoin="round"/>
<path d="M2.125 2.73437C2.125 2.47185 2.125 2.34059 2.17609 2.24032C2.22103 2.15212 2.29274 2.08041 2.38094 2.03547C2.48121 1.98438 2.61248 1.98438 2.875 1.98438H5.125C5.38752 1.98438 5.51879 1.98438 5.61906 2.03547C5.70726 2.08041 5.77897 2.15212 5.82391 2.24032C5.875 2.34059 5.875 2.47185 5.875 2.73437V4.98437C5.875 5.2469 5.875 5.37816 5.82391 5.47843C5.77897 5.56663 5.70726 5.63834 5.61906 5.68328C5.51879 5.73437 5.38752 5.73437 5.125 5.73437H2.875C2.61248 5.73437 2.48121 5.73437 2.38094 5.68328C2.29274 5.63834 2.22103 5.56663 2.17609 5.47843C2.125 5.37816 2.125 5.2469 2.125 4.98437V2.73437Z" stroke="black" stroke-width="1.60714" stroke-linecap="round" stroke-linejoin="round"/>
</svg>
