<svg width="23" height="23" viewBox="0 0 23 23" fill="none" xmlns="http://www.w3.org/2000/svg">
<path d="M11.5 3.85937V14.3594C11.5 15.9345 11.5 16.7221 11.8065 17.3237C12.0762 17.8529 12.5064 18.2832 13.0357 18.5528C13.6373 18.8594 14.4249 18.8594 16 18.8594H16.1875M16.1875 18.8594C16.1875 19.8949 17.027 20.7344 18.0625 20.7344C19.098 20.7344 19.9375 19.8949 19.9375 18.8594C19.9375 17.8238 19.098 16.9844 18.0625 16.9844C17.027 16.9844 16.1875 17.8238 16.1875 18.8594ZM6.8125 3.85937L16.1875 3.85937M6.8125 3.85937C6.8125 4.89491 5.97303 5.73437 4.9375 5.73437C3.90197 5.73437 3.0625 4.89491 3.0625 3.85937C3.0625 2.82384 3.90197 1.98438 4.9375 1.98438C5.97303 1.98438 6.8125 2.82384 6.8125 3.85937ZM16.1875 3.85937C16.1875 4.89491 17.027 5.73437 18.0625 5.73437C19.098 5.73437 19.9375 4.89491 19.9375 3.85937C19.9375 2.82384 19.098 1.98438 18.0625 1.98438C17.027 1.98438 16.1875 2.82384 16.1875 3.85937ZM11.5 11.3594H16.1875M16.1875 11.3594C16.1875 12.3949 17.027 13.2344 18.0625 13.2344C19.098 13.2344 19.9375 12.3949 19.9375 11.3594C19.9375 10.3238 19.098 9.48437 18.0625 9.48437C17.027 9.48437 16.1875 10.3238 16.1875 11.3594Z" stroke="black" stroke-width="1.60714" stroke-linecap="round" stroke-linejoin="round"/>
</svg>
