<svg xmlns="http://www.w3.org/2000/svg" width="30" height="26" viewBox="0 0 30 26" fill="none">
    <path d="M28.0653 11.5624C27.0245 10.5216 25.331 10.5216 24.2903 11.5624L19.6842 16.1685C19.5099 15.7382 19.2269 15.3604 18.8628 15.0722C21.2353 13.7205 22.8387 11.1678 22.8387 8.24741C22.8387 3.91951 19.3177 0.398483 14.9898 0.398483C10.6619 0.398483 7.14088 3.91951 7.14088 8.24741C7.14088 10.0517 7.75325 11.7155 8.78056 13.0427C8.56638 13.0494 8.3515 13.0673 8.13634 13.0981C6.89176 13.2758 5.76405 13.8397 4.87509 14.7287L1.15366 18.4501L2.30192 19.5984L6.0234 15.8769C7.31655 14.5839 9.33955 14.2948 10.9429 15.1742C12.074 15.7934 13.3426 16.1184 14.6321 16.1193H17.2084C17.7849 16.1193 18.2539 16.5883 18.2539 17.1648C18.2539 17.7412 17.7849 18.2102 17.2084 18.2102H12.8745V19.8341H17.2084C17.9189 19.8341 18.5648 19.5546 19.0436 19.1005L19.0461 19.103L25.4386 12.7106C25.8462 12.3029 26.5095 12.303 26.9171 12.7106C27.3247 13.1182 27.3247 13.7815 26.9156 14.1906L20.3717 20.7696C19.4846 21.6614 18.2545 22.1728 16.9966 22.1728H12.6681C10.588 22.1728 8.63226 22.9828 7.16138 24.4538L8.30963 25.602C9.47385 24.4379 11.0217 23.7967 12.6682 23.7967H16.9967C18.6835 23.7967 20.3334 23.1108 21.523 21.9147L28.0654 15.3375C29.1062 14.2967 29.1062 12.6032 28.0653 11.5624ZM14.9897 14.4724C11.5573 14.4724 8.76472 11.6799 8.76472 8.24741C8.76472 4.81492 11.5573 2.02243 14.9897 2.02243C18.4222 2.02243 21.2148 4.81497 21.2148 8.24746C21.2148 11.68 18.4222 14.4724 14.9897 14.4724Z" fill="#7F56D9"/>
    <path d="M14.9893 7.43552C14.5416 7.43552 14.1774 7.0713 14.1774 6.62357C14.1774 6.44211 14.2357 6.27071 14.3462 6.12787C14.518 5.90579 14.8105 5.79432 15.1093 5.83705L16.7691 6.07416L16.9987 4.4666L15.8013 4.29553V3.37568H14.1774V4.33988C13.74 4.49051 13.3494 4.76208 13.0614 5.13462C12.7291 5.56445 12.5534 6.07935 12.5534 6.62352C12.5535 7.96665 13.6462 9.05941 14.9894 9.05941C15.4371 9.05941 15.8013 9.42363 15.8013 9.87136C15.8013 10.2774 15.4986 10.6235 15.0974 10.6763C15.0568 10.6817 15.0058 10.6817 14.9457 10.6766L13.1641 10.5239L13.0254 12.1419L14.1773 12.2407V13.1193H15.8012V12.1677C16.7543 11.8298 17.4251 10.9172 17.4251 9.87141C17.4252 8.52828 16.3325 7.43552 14.9893 7.43552Z" fill="#7F56D9"/>
    <path fill-rule="evenodd" clip-rule="evenodd" d="M4.87509 14.7287C5.76405 13.8397 6.89176 13.2758 8.13634 13.0981C8.27672 13.078 8.41698 13.0634 8.55701 13.0538C8.6316 13.0487 8.70613 13.045 8.78056 13.0427C8.73485 12.9836 8.68996 12.9239 8.64591 12.8635C7.69996 11.5671 7.14088 9.97145 7.14088 8.24741C7.14088 3.91951 10.6619 0.398483 14.9898 0.398483C19.3177 0.398483 22.8387 3.91951 22.8387 8.24741C22.8387 11.0975 21.3116 13.5974 19.0328 14.9725C18.9766 15.0064 18.9199 15.0397 18.8628 15.0722C18.9141 15.1129 18.9639 15.1553 19.0119 15.1994C19.2561 15.4236 19.4566 15.6911 19.6033 15.9883C19.6324 16.0472 19.6594 16.1074 19.6842 16.1685L24.2903 11.5624C25.331 10.5216 27.0245 10.5216 28.0653 11.5624C29.1062 12.6032 29.1062 14.2967 28.0654 15.3375L21.523 21.9147C20.3334 23.1108 18.6835 23.7967 16.9967 23.7967H12.6682C11.0217 23.7967 9.47385 24.4379 8.30963 25.602L7.16138 24.4538C7.16132 24.4538 7.16143 24.4537 7.16138 24.4538C7.20491 24.4102 7.24905 24.3671 7.29342 24.3247C8.74829 22.9355 10.6496 22.1728 12.6681 22.1728H16.9966C18.2545 22.1728 19.4846 21.6614 20.3717 20.7696L26.9156 14.1906C27.3247 13.7815 27.3247 13.1182 26.9171 12.7106C26.5095 12.303 25.8462 12.3029 25.4386 12.7106L19.0461 19.103L19.0436 19.1005C18.5648 19.5546 17.9189 19.8341 17.2084 19.8341H12.8745V18.2102H17.2084C17.7849 18.2102 18.2539 17.7412 18.2539 17.1648C18.2539 16.5883 17.7849 16.1193 17.2084 16.1193H14.6321C13.3426 16.1184 12.074 15.7934 10.9429 15.1742C9.33955 14.2948 7.31655 14.5839 6.0234 15.8769L2.30192 19.5984L1.15366 18.4501L4.87509 14.7287ZM19.0362 19.3542L19.0461 19.3641L25.5692 12.8411C25.9046 12.5056 26.451 12.5056 26.7865 12.8411C27.1219 13.1765 27.1222 13.7229 26.7851 14.0601L20.2408 20.6394C19.3884 21.4963 18.2053 21.9882 16.9966 21.9882H12.6681C10.539 21.9882 8.53634 22.8177 7.03083 24.3232L6.90029 24.4538L8.30963 25.8631L8.44017 25.7326C9.56977 24.603 11.0707 23.9813 12.6682 23.9813H16.9967C18.7327 23.9813 20.4296 23.2758 21.6539 22.0449L28.1959 15.468C29.3088 14.3552 29.3088 12.5448 28.1959 11.4319C27.0829 10.3189 25.2725 10.319 24.1598 11.4319L19.7407 15.851C19.5952 15.5717 19.4047 15.3183 19.1769 15.1009C21.4817 13.6878 23.0233 11.1447 23.0233 8.24741C23.0233 3.81755 19.4197 0.213867 14.9898 0.213867C10.5599 0.213867 6.95626 3.81755 6.95626 8.24741C6.95626 9.97071 7.50215 11.569 8.42939 12.8786C8.32319 12.8879 8.21678 12.9001 8.11023 12.9153C6.8261 13.0987 5.66175 13.6809 4.74454 14.5982L0.892578 18.4501L2.30192 19.8595L6.15394 16.0075C7.38908 14.7724 9.32273 14.4962 10.8541 15.336C12.0124 15.9701 13.3115 16.303 14.6319 16.3039H17.2084C17.6829 16.3039 18.0693 16.6902 18.0693 17.1648C18.0693 17.6393 17.6829 18.0256 17.2084 18.0256H12.6899V20.0187H17.2084C17.9036 20.0187 18.541 19.7683 19.0362 19.3542ZM14.4923 6.24083C14.4069 6.35114 14.362 6.48276 14.362 6.62357C14.362 6.96934 14.6436 7.2509 14.9893 7.2509C16.4345 7.2509 17.6098 8.42633 17.6097 9.87141C17.6097 10.9515 16.9452 11.8986 15.9858 12.2945V13.3039H13.9927V12.4101L12.8257 12.3101L12.996 10.3242L14.9615 10.4927C14.9615 10.4927 14.9615 10.4927 14.9615 10.4927C15.014 10.4971 15.0506 10.4963 15.0733 10.4933C15.3822 10.4527 15.6167 10.1853 15.6167 9.87136C15.6167 9.52559 15.3352 9.24403 14.9894 9.24403C13.5442 9.24403 12.3689 8.06861 12.3688 6.62352C12.3688 6.03856 12.558 5.48393 12.9153 5.02172C13.1986 4.65529 13.5731 4.38015 13.9928 4.21171V3.19106H15.9859V4.13541L17.2076 4.30995L16.9258 6.28303L15.0832 6.01981C14.8441 5.98562 14.6197 6.07599 14.4923 6.24083ZM15.8013 4.29553V3.37568H14.1774V4.33988C13.74 4.49051 13.3494 4.76208 13.0614 5.13462C12.7291 5.56445 12.5534 6.07935 12.5534 6.62352C12.5535 7.96665 13.6462 9.05941 14.9894 9.05941C15.4371 9.05941 15.8013 9.42363 15.8013 9.87136C15.8013 10.2774 15.4986 10.6235 15.0974 10.6763C15.0568 10.6817 15.0058 10.6817 14.9457 10.6766L13.1641 10.5239L13.0254 12.1419L14.1773 12.2407V13.1193H15.8012V12.1677C16.7543 11.8298 17.4251 10.9172 17.4251 9.87141C17.4252 8.52828 16.3325 7.43552 14.9893 7.43552C14.5416 7.43552 14.1774 7.0713 14.1774 6.62357C14.1774 6.44211 14.2357 6.27071 14.3462 6.12787C14.518 5.90579 14.8105 5.79432 15.1093 5.83705L16.7691 6.07416L16.9987 4.4666L15.8013 4.29553ZM8.94933 8.24741C8.94933 11.5779 11.6592 14.2878 14.9897 14.2878C18.3203 14.2878 21.0302 11.578 21.0302 8.24746C21.0302 4.91693 18.3202 2.20705 14.9897 2.20705C11.6593 2.20705 8.94933 4.91688 8.94933 8.24741ZM8.76472 8.24741C8.76472 11.6799 11.5573 14.4724 14.9897 14.4724C18.4222 14.4724 21.2148 11.68 21.2148 8.24746C21.2148 4.81497 18.4222 2.02243 14.9897 2.02243C11.5573 2.02243 8.76472 4.81492 8.76472 8.24741Z" fill="#7F56D9"/>
  </svg>