<svg width="22" height="16" viewBox="0 0 22 16" fill="none" xmlns="http://www.w3.org/2000/svg">
    <g id="Group">
        <g id="Layer 23">
            <path id="Vector"
                d="M16.7944 0.650142C16.5902 0.855535 16.4756 1.13338 16.4756 1.42298C16.4756 1.71259 16.5902 1.99043 16.7944 2.19583L18.2195 3.62093L10.0525 3.62093C9.7618 3.62093 9.48297 3.73642 9.27738 3.942C9.0718 4.14759 8.95631 4.42642 8.95631 4.71716C8.95631 5.00789 9.0718 5.28672 9.27738 5.49231C9.48297 5.69789 9.7618 5.81339 10.0525 5.81339L18.2195 5.81339L16.8053 7.22752C16.6257 7.43723 16.5319 7.70699 16.5425 7.98288C16.5532 8.25878 16.6676 8.52049 16.8628 8.71573C17.058 8.91096 17.3197 9.02533 17.5956 9.03599C17.8715 9.04664 18.1413 8.9528 18.351 8.77321L21.6397 5.48452C21.7424 5.38261 21.824 5.26136 21.8796 5.12778C21.9353 4.99419 21.964 4.85091 21.964 4.70619C21.964 4.56148 21.9353 4.41819 21.8796 4.28461C21.824 4.15102 21.7424 4.02978 21.6397 3.92787L18.351 0.639179C18.2484 0.537146 18.1266 0.456443 17.9926 0.401728C17.8586 0.347012 17.7151 0.319366 17.5704 0.320385C17.4257 0.321404 17.2826 0.351068 17.1494 0.407665C17.0162 0.464262 16.8955 0.546673 16.7944 0.650142ZM5.19624 8.78417C5.37583 8.57446 5.46967 8.3047 5.45902 8.02881C5.44836 7.75291 5.33399 7.4912 5.13875 7.29597C4.94352 7.10074 4.68181 6.98636 4.40591 6.97571C4.13002 6.96505 3.86026 7.05889 3.65055 7.23849L0.361861 10.5272C0.259113 10.6291 0.17756 10.7503 0.121905 10.8839C0.0662512 11.0175 0.0375977 11.1608 0.0375977 11.3055C0.0375977 11.4502 0.0662512 11.5935 0.121905 11.7271C0.17756 11.8607 0.259113 11.9819 0.361861 12.0838L3.65055 15.3725C3.85843 15.5775 4.13922 15.6915 4.43115 15.6894C4.72307 15.6874 5.00223 15.5694 5.2072 15.3616C5.41217 15.1537 5.52617 14.8729 5.52411 14.581C5.52205 14.289 5.40411 14.0099 5.19624 13.8049L3.77114 12.3908H11.9381C12.2288 12.3908 12.5076 12.2753 12.7132 12.0697C12.9188 11.8641 13.0343 11.5853 13.0343 11.2945C13.0343 11.0038 12.9188 10.725 12.7132 10.5194C12.5076 10.3138 12.2288 10.1983 11.9381 10.1983H3.77114L5.19624 8.78417Z"
                fill="#fff" stroke="#fff " stroke-width="0.5" stroke-opacity="0.6" />
        </g>
    </g>
</svg>