<svg width="26" height="24" viewBox="0 0 26 24" fill="none" xmlns="http://www.w3.org/2000/svg">
<g id="HomeOutlined">
<path id="Vector" d="M8 8.46154H2V6.15385H8V8.46154ZM8 11.9231H2V14.2308H8V11.9231ZM24.308 20L19.712 15.5808C18.752 16.1808 17.624 16.5385 16.4 16.5385C13.088 16.5385 10.4 13.9538 10.4 10.7692C10.4 7.58462 13.088 5 16.4 5C19.712 5 22.4 7.58462 22.4 10.7692C22.4 11.9462 22.028 13.0308 21.404 13.9423L26 18.3731L24.308 20ZM20 10.7692C20 8.86538 18.38 7.30769 16.4 7.30769C14.42 7.30769 12.8 8.86538 12.8 10.7692C12.8 12.6731 14.42 14.2308 16.4 14.2308C18.38 14.2308 20 12.6731 20 10.7692ZM2 20H14V17.6923H2V20Z" fill="#494C6C"/>
</g>
</svg>
