<svg width="24" height="24" viewBox="0 0 24 24" fill="none" xmlns="http://www.w3.org/2000/svg">
<g id="InsertDriveFile">
<path id="Icon" d="M14 2.24251V5.96C14 6.46405 14 6.71607 14.0981 6.90859C14.1844 7.07794 14.3221 7.21562 14.4914 7.30191C14.6839 7.4 14.936 7.4 15.44 7.4H19.1575M19.4 9.1894V15.68C19.4 17.1921 19.4 17.9482 19.1057 18.5258C18.8469 19.0338 18.4338 19.4469 17.9258 19.7057C17.3482 20 16.5921 20 15.08 20H9.32C7.80786 20 7.05179 20 6.47423 19.7057C5.96619 19.4469 5.55314 19.0338 5.29428 18.5258C5 17.9482 5 17.1921 5 15.68V6.32C5 4.80786 5 4.05179 5.29428 3.47423C5.55314 2.96619 5.96619 2.55314 6.47423 2.29428C7.05179 2 7.80786 2 9.32 2H12.2106C12.871 2 13.2012 2 13.5119 2.0746C13.7874 2.14074 14.0508 2.24983 14.2924 2.39787C14.5648 2.56484 14.7983 2.79833 15.2653 3.2653L18.1347 6.1347C18.6017 6.60167 18.8352 6.83516 19.0021 7.10763C19.1502 7.34921 19.2593 7.61258 19.3254 7.88807C19.4 8.19881 19.4 8.52901 19.4 9.1894Z" stroke="#494C6C" stroke-width="1.8" stroke-linecap="round" stroke-linejoin="round"/>
</g>
</svg>
