<svg width="23" height="23" viewBox="0 0 23 23" fill="none" xmlns="http://www.w3.org/2000/svg">
<path d="M19.9375 4.79688L9.625 4.79687M19.9375 17.9219L9.625 17.9219M19.9375 11.3594L9.625 11.3594M5.875 4.79687C5.875 5.57353 5.2454 6.20312 4.46875 6.20312C3.6921 6.20312 3.0625 5.57353 3.0625 4.79687C3.0625 4.02022 3.6921 3.39062 4.46875 3.39062C5.2454 3.39062 5.875 4.02022 5.875 4.79687ZM5.875 17.9219C5.875 18.6985 5.2454 19.3281 4.46875 19.3281C3.6921 19.3281 3.0625 18.6985 3.0625 17.9219C3.0625 17.1452 3.6921 16.5156 4.46875 16.5156C5.2454 16.5156 5.875 17.1452 5.875 17.9219ZM5.875 11.3594C5.875 12.136 5.2454 12.7656 4.46875 12.7656C3.6921 12.7656 3.0625 12.136 3.0625 11.3594C3.0625 10.5827 3.6921 9.95312 4.46875 9.95312C5.2454 9.95312 5.875 10.5827 5.875 11.3594Z" stroke="black" stroke-width="1.60714" stroke-linecap="round" stroke-linejoin="round"/>
</svg>
