<svg width="23" height="23" viewBox="0 0 23 23" fill="none" xmlns="http://www.w3.org/2000/svg">
<path d="M10.8456 20.4424C11.0532 20.5635 11.157 20.624 11.3034 20.6554C11.4171 20.6798 11.5829 20.6798 11.6966 20.6554C11.843 20.624 11.9468 20.5635 12.1544 20.4424C13.9807 19.3769 19 16.0301 19 11.4284V6.94494C19 6.1954 19 5.82062 18.8774 5.49847C18.7691 5.21388 18.5931 4.95995 18.3647 4.75862C18.1061 4.53072 17.7552 4.39913 17.0534 4.13595L12.0267 2.25094C11.8318 2.17786 11.7343 2.14131 11.6341 2.12682C11.5452 2.11398 11.4548 2.11398 11.3659 2.12682C11.2657 2.14131 11.1682 2.17786 10.9733 2.25094L5.94663 4.13595C5.24481 4.39913 4.8939 4.53072 4.6353 4.75862C4.40686 4.95995 4.23088 5.21388 4.12259 5.49847C4 5.82062 4 6.1954 4 6.94494V11.4284C4 16.0301 9.01934 19.3769 10.8456 20.4424Z" stroke="black" stroke-width="1.60714" stroke-linecap="round" stroke-linejoin="round"/>
</svg>
