<svg width="23" height="23" viewBox="0 0 23 23" fill="none" xmlns="http://www.w3.org/2000/svg">
<g id="eye">
<g id="Icon">
<path d="M2.51886 12.1686C2.39119 11.9664 2.32735 11.8654 2.29162 11.7095C2.26477 11.5923 2.26477 11.4077 2.29162 11.2905C2.32735 11.1346 2.39119 11.0336 2.51886 10.8314C3.57393 9.16079 6.71444 4.9375 11.5004 4.9375C16.2863 4.9375 19.4268 9.16079 20.4819 10.8314C20.6096 11.0336 20.6734 11.1346 20.7091 11.2905C20.736 11.4077 20.736 11.5923 20.7091 11.7095C20.6734 11.8654 20.6096 11.9664 20.4819 12.1686C19.4268 13.8392 16.2863 18.0625 11.5004 18.0625C6.71444 18.0625 3.57393 13.8392 2.51886 12.1686Z" stroke="black" stroke-width="1.60714" stroke-linecap="round" stroke-linejoin="round"/>
<path d="M11.5004 14.3125C13.0537 14.3125 14.3129 13.0533 14.3129 11.5C14.3129 9.9467 13.0537 8.6875 11.5004 8.6875C9.94708 8.6875 8.68788 9.9467 8.68788 11.5C8.68788 13.0533 9.94708 14.3125 11.5004 14.3125Z" stroke="black" stroke-width="1.60714" stroke-linecap="round" stroke-linejoin="round"/>
</g>
</g>
</svg>
