<svg xmlns="http://www.w3.org/2000/svg" width="41" height="44" viewBox="0 0 41 44" fill="none">
    <path d="M19.3654 0C15.9065 0 13.099 2.80749 13.099 6.32621C13.099 6.68556 13.1589 7.04492 13.2188 7.39679C12.56 7.15722 11.8488 7.03744 11.0702 7.03744C7.61135 7.03744 4.80386 9.84492 4.80386 13.3636C4.80386 13.738 4.84129 14.0973 4.90867 14.4567C4.91616 14.4642 4.93113 14.4717 4.93862 14.4791C6.00172 15.6021 7.44664 16.216 9.00386 16.216C9.40814 16.216 9.73006 16.538 9.73006 16.9423C9.73006 17.3465 9.40814 17.6685 9.00386 17.6685C7.38675 17.6685 5.86696 17.1294 4.62418 16.1487C3.52245 16.6385 2.58655 17.4375 1.93006 18.4489C1.27357 19.4602 0.924697 20.6403 0.925784 21.846C0.925784 24.7733 2.95466 27.2738 5.70226 27.9326C5.10332 28.8909 4.80386 29.9615 4.80386 31.1519C4.80386 34.5508 7.61135 37.4182 11.0702 37.4182C11.3846 37.4182 11.699 37.3882 12.0135 37.3433C12.368 36.2598 12.9847 35.2808 13.8089 34.4932C14.6331 33.7056 15.6391 33.1339 16.7376 32.8289C15.8333 31.9608 15.1813 30.8637 14.8509 29.6546C14.1996 30.1936 13.406 30.5829 12.5076 30.7551C12.4627 30.7626 12.4178 30.7701 12.3728 30.7701C12.1931 30.7671 12.0207 30.698 11.8887 30.5758C11.7568 30.4536 11.6746 30.287 11.6579 30.108C11.6412 29.929 11.6912 29.7501 11.7983 29.6056C11.9053 29.4611 12.0619 29.3613 12.2381 29.3251C12.7246 29.2325 13.1877 29.0437 13.6003 28.7699C14.013 28.4961 14.3668 28.1427 14.6413 27.7305C14.6712 27.6182 14.7236 27.5209 14.806 27.4385C15.2028 26.7198 15.375 25.8663 15.2253 24.9754C15.1935 24.7848 15.2387 24.5894 15.3511 24.4321C15.4634 24.2749 15.6336 24.1687 15.8242 24.1369C16.0148 24.1051 16.2102 24.1504 16.3675 24.2627C16.5247 24.375 16.6309 24.5452 16.6627 24.7358C16.8723 25.9786 16.6402 27.1765 16.0787 28.1872C16.2809 31.0845 18.6766 33.3155 21.6413 33.3155C22.0456 33.3155 22.3675 33.6374 22.3675 34.0417C22.3675 34.446 22.0456 34.7679 21.6413 34.7679C20.532 34.7706 19.4373 34.5142 18.4445 34.0193C15.8092 34.1091 13.6905 36.0032 13.2113 38.5187C13.7354 41.4535 16.2884 43.6845 19.3728 43.6845C22.8317 43.6845 25.6991 40.877 25.6991 37.4182V21.4267C25.5194 21.4417 25.3397 21.4642 25.1675 21.4642C24.2092 21.4642 23.2659 21.2096 22.4124 20.723C21.4177 20.1463 20.6294 19.2716 20.1589 18.2225C19.3204 18.7091 18.3771 18.9636 17.3889 18.9636C17.2916 18.9636 17.1942 18.9636 17.0969 18.9562C16.6926 18.9337 16.3857 18.5968 16.4081 18.1925C16.4306 17.7882 16.775 17.4888 17.1718 17.5037C18.2502 17.5592 19.3071 17.1881 20.114 16.4706C20.5173 16.112 20.8443 15.6761 21.0758 15.1887C21.3073 14.7012 21.4385 14.1723 21.4616 13.6332C21.4841 13.2289 21.836 12.9219 22.2253 12.9444C22.622 12.9668 22.9365 13.3037 22.914 13.708C22.8509 15.0477 22.2996 16.318 21.3643 17.2792C21.6862 18.2 22.3001 18.9711 23.1461 19.4578C23.9247 19.907 24.8156 20.0717 25.7065 19.9519V6.32621C25.6916 2.8 22.8242 0 19.3654 0Z" fill="#7F56D9"/>
    <path d="M38.7466 12.6134V13.6166C38.7446 14.3486 38.4529 15.0502 37.9352 15.5678C37.4176 16.0855 36.7161 16.3772 35.984 16.3791H27.8984V14.9267H35.984C36.7027 14.9267 37.2942 14.3353 37.2942 13.6166V12.5609C36.0888 12.2166 35.2054 11.116 35.2054 9.79838C35.2054 8.21122 36.5081 6.90854 38.0952 6.90854C39.6899 6.90854 40.9926 8.21122 40.9926 9.79838C40.9926 11.1684 40.0268 12.3139 38.7466 12.6134Z" fill="url(#paint0_linear_9003_6145)"/>
    <path d="M33.2289 5.83795V6.84116C33.2269 7.57323 32.9353 8.27475 32.4176 8.79241C31.8999 9.31006 31.1984 9.60175 30.4664 9.60373H27.8984V8.15132H30.4664C31.1851 8.15132 31.7765 7.55988 31.7765 6.84116V5.78555C30.5712 5.44116 29.6877 4.34063 29.6877 3.02298C29.6877 1.43581 30.9904 0.140625 32.5776 0.140625C34.1722 0.140625 35.4749 1.43581 35.4749 3.02298C35.4749 4.39303 34.5091 5.53849 33.2289 5.83795Z" fill="url(#paint1_linear_9003_6145)"/>
    <path d="M38.7466 30.8059V31.8091C39.383 31.9612 39.9503 32.3215 40.3586 32.8329C40.7668 33.3442 40.9926 33.9773 41 34.6315C41 36.2187 39.6974 37.5214 38.1027 37.5214C36.5156 37.5214 35.2129 36.2187 35.2129 34.6315C35.2129 33.3214 36.0963 32.2208 37.3016 31.869V30.8134C37.3016 30.0946 36.7102 29.5032 35.9915 29.5032H27.9059V28.0508H35.9915C36.7216 28.0528 37.4212 28.3437 37.9374 28.8599C38.4537 29.3762 38.7446 30.0758 38.7466 30.8059Z" fill="url(#paint2_linear_9003_6145)"/>
    <path d="M32.0086 35.6422V36.6454C32.6456 36.7964 33.2137 37.1564 33.6222 37.668C34.0307 38.1796 34.2559 38.8133 34.2621 39.4679C34.2621 41.0551 32.9594 42.3503 31.3647 42.3503C29.7776 42.3503 28.4824 41.0551 28.4824 39.4679C28.4824 38.1503 29.3658 37.0572 30.5637 36.6979V35.6497C30.5637 34.9235 29.9722 34.3396 29.2535 34.3396H27.9059V32.8872H29.2535C30.7733 32.8872 32.0086 34.115 32.0086 35.6422Z" fill="url(#paint3_linear_9003_6145)"/>
    <path d="M40.0594 24.2503C39.5165 24.7932 38.7807 25.0991 38.0129 25.1011C36.6728 25.1011 35.5573 24.1802 35.2353 22.9374H27.9059V21.485H35.2353C35.5498 20.2422 36.6803 19.3214 38.0129 19.3214C39.6075 19.3214 40.9102 20.6166 40.9102 22.2037C40.9082 22.9715 40.6023 23.7073 40.0594 24.2503Z" fill="url(#paint4_linear_9003_6145)"/>
    <defs>
      <linearGradient id="paint0_linear_9003_6145" x1="25.8457" y1="28.6321" x2="43.0234" y2="28.6045" gradientUnits="userSpaceOnUse">
        <stop stop-color="#6B7CF8"/>
        <stop offset="1" stop-color="#FBD0F8"/>
      </linearGradient>
      <linearGradient id="paint1_linear_9003_6145" x1="25.8457" y1="28.6321" x2="43.0234" y2="28.6045" gradientUnits="userSpaceOnUse">
        <stop stop-color="#6B7CF8"/>
        <stop offset="1" stop-color="#FBD0F8"/>
      </linearGradient>
      <linearGradient id="paint2_linear_9003_6145" x1="25.8457" y1="28.6321" x2="43.0234" y2="28.6045" gradientUnits="userSpaceOnUse">
        <stop stop-color="#6B7CF8"/>
        <stop offset="1" stop-color="#FBD0F8"/>
      </linearGradient>
      <linearGradient id="paint3_linear_9003_6145" x1="25.8457" y1="28.6321" x2="43.0234" y2="28.6045" gradientUnits="userSpaceOnUse">
        <stop stop-color="#6B7CF8"/>
        <stop offset="1" stop-color="#FBD0F8"/>
      </linearGradient>
      <linearGradient id="paint4_linear_9003_6145" x1="25.8457" y1="28.6321" x2="43.0234" y2="28.6045" gradientUnits="userSpaceOnUse">
        <stop stop-color="#6B7CF8"/>
        <stop offset="1" stop-color="#FBD0F8"/>
      </linearGradient>
    </defs>
  </svg>