<svg xmlns="http://www.w3.org/2000/svg" width="46" height="45" viewBox="0 0 46 45" fill="none">
    <path d="M45.5 14.3182C45.5 11.6591 43.8636 9.40909 41.4089 8.59091V2.04545C41.4089 0.818182 40.5907 0 39.3634 0C38.1361 0 37.3179 0.818182 37.3179 2.04545V8.59091C34.045 9.61364 32.4086 13.0909 33.6359 16.3636C34.2496 18.2045 35.6815 19.4318 37.3179 20.0455V42.9545C37.3179 44.1818 38.1361 45 39.3634 45C40.5907 45 41.4089 44.1818 41.4089 42.9545V20.0455C43.8636 19.2273 45.5 16.9773 45.5 14.3182ZM8.6805 8.59091V2.04545C8.6805 0.818182 7.86228 0 6.63497 0C5.40765 0 4.58944 0.818182 4.58944 2.04545V8.59091C1.31659 9.61364 -0.319828 13.0909 0.907489 16.3636C1.52115 18.2045 2.95302 19.4318 4.58944 20.0455V42.9545C4.58944 44.1818 5.40765 45 6.63497 45C7.86228 45 8.6805 44.1818 8.6805 42.9545V20.0455C11.9533 19.0227 13.5898 15.5455 12.3624 12.2727C11.7488 10.6364 10.5215 9.20455 8.6805 8.59091Z" fill="#7F56D9"/>
    <path d="M25.0445 36.4091C27.4991 35.5909 29.1356 33.3409 29.1356 30.6818C29.1356 28.0227 27.4991 25.7727 25.0445 24.9545V2.04545C25.0445 0.818182 24.2263 0 22.999 0C21.7717 0 20.9535 0.818182 20.9535 2.04545V24.9545C19.317 25.5682 17.8852 26.7955 17.2715 28.6364C16.0442 31.9091 17.6806 35.3864 20.9535 36.4091V42.9545C20.9535 44.1818 21.7717 45 22.999 45C24.2263 45 25.0445 44.1818 25.0445 42.9545V36.4091Z" fill="url(#paint0_linear_9003_17017)"/>
    <defs>
      <linearGradient id="paint0_linear_9003_17017" x1="14.9413" y1="30.375" x2="31.0308" y2="30.3523" gradientUnits="userSpaceOnUse">
        <stop stop-color="#6B7CF8"/>
        <stop offset="1" stop-color="#FBD0F8"/>
      </linearGradient>
    </defs>
  </svg>