<svg xmlns="http://www.w3.org/2000/svg" width="42" height="51" viewBox="0 0 42 51" fill="none">
    <path d="M27.541 19.3904C27.2208 19.0703 26.7745 18.8867 26.3163 18.8867C25.8517 18.8867 25.417 19.0655 25.0917 19.3904L19.0274 25.4546L16.9333 23.3602C16.7728 23.1993 16.5821 23.0719 16.3721 22.9851C16.1621 22.8983 15.937 22.8539 15.7098 22.8545C15.4823 22.8539 15.257 22.8984 15.0468 22.9854C14.8366 23.0725 14.6457 23.2003 14.4852 23.3616C14.3239 23.5221 14.196 23.713 14.1089 23.9233C14.0218 24.1335 13.9772 24.359 13.9778 24.5866C13.9778 25.0495 14.1582 25.4847 14.4851 25.8114L17.8038 29.1304C18.1282 29.4541 18.5628 29.6323 19.0272 29.6323C19.4918 29.6323 19.9264 29.454 20.2523 29.1292L27.5413 21.8403C28.2165 21.1652 28.2166 20.0664 27.541 19.3904Z" fill="url(#paint0_linear_9003_22746)"/>
    <path d="M41.2223 10.917C41.2089 10.7619 41.1554 10.613 41.0672 10.4847C40.979 10.3564 40.859 10.2532 40.719 10.1851L21.394 0.782247C21.2712 0.72247 21.1364 0.691406 20.9999 0.691406C20.8633 0.691406 20.7286 0.72247 20.6058 0.782247L1.28087 10.1849C1.14085 10.253 1.02089 10.3563 0.932676 10.4845C0.844465 10.6128 0.791022 10.7618 0.777564 10.9169C0.752897 11.2004 0.198738 17.9565 2.33362 26.2082C3.59118 31.069 5.52762 35.4295 8.08903 39.1686C11.3016 43.8581 15.5058 47.5721 20.5853 50.2071C20.7134 50.2736 20.8556 50.3083 21 50.3083C21.1444 50.3083 21.2866 50.2736 21.4148 50.2071C26.4941 47.5721 30.6986 43.8583 33.9111 39.1686C36.4726 35.4295 38.409 31.069 39.6664 26.2082C41.8012 17.9565 41.247 11.2006 41.2223 10.917ZM20.9999 35.5708C14.6825 35.5708 9.54309 30.4314 9.54309 24.114C9.54309 17.7967 14.6825 12.6573 20.9999 12.6573C27.3172 12.6573 32.4567 17.7967 32.4567 24.114C32.4567 30.4314 27.3172 35.5708 20.9999 35.5708Z" fill="#7F56D9"/>
    <defs>
      <linearGradient id="paint0_linear_9003_22746" x1="11.7733" y1="26.14" x2="30.2198" y2="26.0148" gradientUnits="userSpaceOnUse">
        <stop stop-color="#6B7CF8"/>
        <stop offset="1" stop-color="#FBD0F8"/>
      </linearGradient>
    </defs>
  </svg>