<svg xmlns="http://www.w3.org/2000/svg" width="36" height="45" viewBox="0 0 36 45" fill="none">
    <path d="M17.9957 24.5358C9.54626 24.5358 2.4656 22.0536 0.532418 18.707C0.192535 19.2961 -0.00585938 19.9082 -0.00585938 20.5433V26.0199C-0.00585938 30.2508 8.056 33.6835 17.9957 33.6835C27.9415 33.6835 36.0064 30.2508 36.0064 26.0199V20.5433C36.0064 19.9082 35.805 19.2961 35.462 18.707C33.5288 22.052 26.4543 24.5358 17.9957 24.5358Z" fill="#7F56D9"/>
    <path d="M17.9957 35.8489C9.54626 35.8489 2.4656 33.3636 0.532418 30.0232C0.192535 30.6092 -0.00585938 31.2213 -0.00585938 31.8549V37.3361C-0.00585938 41.5685 8.056 44.9996 17.9957 44.9996C27.9415 44.9996 36.0064 41.57 36.0064 37.3361V31.8549C36.0064 31.2213 35.805 30.6092 35.462 30.0248C33.5288 33.3636 26.4543 35.8489 17.9957 35.8489ZM35.5143 7.75391C35.1606 10.8544 27.4678 13.3351 17.9957 13.3351C8.52815 13.3351 0.835392 10.8544 0.483204 7.75544C0.174079 8.31833 -0.00585938 8.90582 -0.00585938 9.51023V14.9868C-0.00585938 19.2192 8.056 22.6504 17.9957 22.6504C27.9415 22.6504 36.0064 19.2208 36.0064 14.9868V9.51023C36.0064 8.90582 35.8234 8.31833 35.5143 7.75391Z" fill="#7F56D9"/>
    <path d="M17.9955 11.5976C27.6891 11.5976 35.5433 9.00308 35.5433 5.79802C35.5433 2.59604 27.6891 0 17.9955 0C8.308 0.00153794 0.450684 2.59757 0.450684 5.79956C0.450684 9.00307 8.308 11.5976 17.9955 11.5976Z" fill="url(#paint0_linear_9003_30304)"/>
    <defs>
      <linearGradient id="paint0_linear_9003_30304" x1="-5.0477" y1="7.82836" x2="40.9518" y2="7.1069" gradientUnits="userSpaceOnUse">
        <stop stop-color="#6B7CF8"/>
        <stop offset="1" stop-color="#FBD0F8"/>
      </linearGradient>
    </defs>
  </svg>