<svg xmlns="http://www.w3.org/2000/svg" width="48" height="50" viewBox="0 0 48 50" fill="none">
    <g clip-path="url(#clip0_9003_11238)">
      <path d="M47.8509 12.623L24.0423 15.2526L0.233643 12.623V8.65488C0.233643 7.50142 1.10024 6.56641 2.1693 6.56641H45.9152C46.9843 6.56641 47.8509 7.50142 47.8509 8.65488V12.623Z" fill="#7F56D9"/>
      <path d="M45.9153 6.56641H43.0117C44.0808 6.56641 44.9474 7.50142 44.9474 8.65488V14.0659L47.8509 12.623V8.65488C47.8509 7.50152 46.9843 6.56641 45.9153 6.56641Z" fill="#7F56D9"/>
      <path d="M45.9152 42.0705H2.1693C1.10024 42.0705 0.233643 41.1354 0.233643 39.982V12.623H47.8509V39.982C47.8509 41.1354 46.9843 42.0705 45.9152 42.0705Z" fill="#D6BBFB"/>
      <path d="M17.9248 18.5745V16.9037C17.9248 16.6822 18.0064 16.4697 18.1516 16.313C18.2968 16.1564 18.4937 16.0684 18.699 16.0684H44.173C44.3783 16.0684 44.5753 16.1564 44.7205 16.313C44.8657 16.4697 44.9472 16.6822 44.9472 16.9037V18.5745C44.9472 18.796 44.8657 19.0085 44.7205 19.1652C44.5753 19.3218 44.3783 19.4098 44.173 19.4098H18.699C18.4937 19.4098 18.2968 19.3218 18.1516 19.1652C18.0064 19.0085 17.9248 18.796 17.9248 18.5745Z" fill="white"/>
      <path d="M3.17881 30.7821H14.7092C14.7361 30.6861 14.7509 30.5843 14.7509 30.4788V17.1125C14.7509 16.5359 14.3176 16.0684 13.7831 16.0684H4.10484C3.57035 16.0684 3.13696 16.5359 3.13696 17.1125V30.4788C3.13696 30.5843 3.15184 30.6861 3.17881 30.7821Z" fill="#F4EBFF"/>
      <path d="M8.94442 25.2578C10.4945 25.2578 11.7511 23.902 11.7511 22.2295C11.7511 20.557 10.4945 19.2012 8.94442 19.2012C7.39431 19.2012 6.1377 20.557 6.1377 22.2295C6.1377 23.902 7.39431 25.2578 8.94442 25.2578Z" fill="#7F56D9"/>
      <path d="M14.7094 30.7823C14.3695 27.6714 11.9188 25.2578 8.94418 25.2578C5.96959 25.2578 3.51888 27.6715 3.17896 30.7823C3.29939 31.211 3.66833 31.5232 4.10498 31.5232H13.7833C14.2201 31.5232 14.589 31.2111 14.7094 30.7823Z" fill="#7F56D9"/>
      <path d="M21.7194 23.2962H18.6223C18.4373 23.2962 18.2599 23.2169 18.1291 23.0758C17.9983 22.9346 17.9248 22.7432 17.9248 22.5436C17.9248 22.344 17.9983 22.1526 18.1291 22.0114C18.2599 21.8703 18.4373 21.791 18.6223 21.791H21.7194C21.9044 21.791 22.0818 21.8703 22.2126 22.0114C22.3434 22.1526 22.4169 22.344 22.4169 22.5436C22.4169 22.7432 22.3434 22.9346 22.2126 23.0758C22.0818 23.2169 21.9044 23.2962 21.7194 23.2962ZM27.72 26.6378H24.6229C24.4379 26.6378 24.2605 26.5585 24.1297 26.4173C23.9989 26.2762 23.9254 26.0848 23.9254 25.8852C23.9254 25.6856 23.9989 25.4942 24.1297 25.353C24.2605 25.2119 24.4379 25.1326 24.6229 25.1326H27.72C27.905 25.1326 28.0824 25.2119 28.2132 25.353C28.344 25.4942 28.4175 25.6856 28.4175 25.8852C28.4175 26.0848 28.344 26.2762 28.2132 26.4173C28.0824 26.5585 27.905 26.6378 27.72 26.6378ZM27.72 33.3208H24.6229C24.4379 33.3208 24.2605 33.2415 24.1297 33.1004C23.9989 32.9593 23.9254 32.7678 23.9254 32.5682C23.9254 32.3686 23.9989 32.1772 24.1297 32.0361C24.2605 31.8949 24.4379 31.8157 24.6229 31.8157H27.72C27.905 31.8157 28.0824 31.8949 28.2132 32.0361C28.344 32.1772 28.4175 32.3686 28.4175 32.5682C28.4175 32.7678 28.344 32.9593 28.2132 33.1004C28.0824 33.2415 27.905 33.3208 27.72 33.3208ZM33.7205 26.6378H30.6235C30.4385 26.6378 30.261 26.5585 30.1302 26.4173C29.9994 26.2762 29.9259 26.0848 29.9259 25.8852C29.9259 25.6856 29.9994 25.4942 30.1302 25.353C30.261 25.2119 30.4385 25.1326 30.6235 25.1326H33.7205C33.9055 25.1326 34.0829 25.2119 34.2137 25.353C34.3446 25.4942 34.418 25.6856 34.418 25.8852C34.418 26.0848 34.3446 26.2762 34.2137 26.4173C34.0829 26.5585 33.9055 26.6378 33.7205 26.6378ZM40.1082 23.2962H24.6229C24.4379 23.2962 24.2605 23.2169 24.1297 23.0758C23.9989 22.9346 23.9254 22.7432 23.9254 22.5436C23.9254 22.344 23.9989 22.1526 24.1297 22.0114C24.2605 21.8703 24.4379 21.791 24.6229 21.791H40.1082C40.2932 21.791 40.4706 21.8703 40.6014 22.0114C40.7322 22.1526 40.8057 22.344 40.8057 22.5436C40.8057 22.7432 40.7322 22.9346 40.6014 23.0758C40.4706 23.2169 40.2932 23.2962 40.1082 23.2962ZM21.7194 29.9793H18.6223C18.4373 29.9793 18.2599 29.9001 18.1291 29.7589C17.9983 29.6178 17.9248 29.4264 17.9248 29.2268C17.9248 29.0272 17.9983 28.8357 18.1291 28.6946C18.2599 28.5535 18.4373 28.4742 18.6223 28.4742H21.7194C21.9044 28.4742 22.0818 28.5535 22.2126 28.6946C22.3434 28.8357 22.4169 29.0272 22.4169 29.2268C22.4169 29.4264 22.3434 29.6178 22.2126 29.7589C22.0818 29.9001 21.9044 29.9793 21.7194 29.9793ZM40.1082 29.9793H24.6229C24.4379 29.9793 24.2605 29.9001 24.1297 29.7589C23.9989 29.6178 23.9254 29.4264 23.9254 29.2268C23.9254 29.0272 23.9989 28.8357 24.1297 28.6946C24.2605 28.5535 24.4379 28.4742 24.6229 28.4742H40.1082C40.2932 28.4742 40.4706 28.5535 40.6014 28.6946C40.7322 28.8357 40.8057 29.0272 40.8057 29.2268C40.8057 29.4264 40.7322 29.6178 40.6014 29.7589C40.4706 29.9001 40.2932 29.9793 40.1082 29.9793Z" fill="#E9D7FE"/>
    </g>
    <defs>
      <clipPath id="clip0_9003_11238">
        <rect width="47.6173" height="51.3765" fill="white" transform="translate(0.233643 -1.36914)"/>
      </clipPath>
    </defs>
  </svg>