<svg xmlns="http://www.w3.org/2000/svg" width="38" height="55" viewBox="0 0 38 55" fill="none">
    <path fill-rule="evenodd" clip-rule="evenodd" d="M15.4111 25.4149C15.4652 25.4229 15.5197 25.4277 15.5743 25.4293C15.9334 25.4302 16.2814 25.3046 16.5571 25.0746L27.681 15.7624C27.9929 15.5019 28.1884 15.1282 28.2247 14.7235C28.261 14.3187 28.1351 13.9162 27.8745 13.6044C27.614 13.2925 27.2403 13.0969 26.8356 13.0607C26.4309 13.0244 26.0283 13.1503 25.7165 13.4108L15.82 21.6983L12.0703 16.7917C11.9497 16.6297 11.7981 16.4932 11.6244 16.3902C11.4508 16.2871 11.2584 16.2195 11.0584 16.1913C10.8584 16.163 10.6548 16.1747 10.4594 16.2256C10.2639 16.2765 10.0805 16.3657 9.91977 16.4879C9.759 16.6102 9.62406 16.7631 9.52274 16.9378C9.42143 17.1125 9.35575 17.3056 9.32951 17.5058C9.30326 17.7061 9.31697 17.9095 9.36985 18.1044C9.42272 18.2994 9.51371 18.4819 9.63754 18.6414L14.359 24.8279C14.4832 24.9914 14.6396 25.1276 14.8186 25.2283C14.9975 25.329 15.1952 25.3919 15.3994 25.4132L15.4111 25.4149ZM37.3966 19.2432C37.3976 19.5961 37.3288 19.9457 37.1941 20.2718C37.0593 20.5979 36.8614 20.8942 36.6116 21.1434L34.4204 23.3392C33.8809 23.8694 33.4536 24.5027 33.164 25.2014C32.8743 25.9002 32.7283 26.6501 32.7344 27.4064V30.5043C32.7306 31.218 32.4455 31.9015 31.941 32.4064C31.4364 32.9113 30.7531 33.1968 30.0394 33.2011H26.9426C26.1861 33.1935 25.4357 33.3386 24.7365 33.6275C24.0372 33.9164 23.4034 34.3433 22.8728 34.8827L20.6816 37.0785C20.1757 37.5829 19.4905 37.8662 18.7762 37.8662C18.0618 37.8662 17.3766 37.5829 16.8707 37.0785L14.6795 34.8827C14.1489 34.3434 13.5151 33.9164 12.8159 33.6275C12.1166 33.3386 11.3663 33.1935 10.6098 33.2011H7.51304C6.79926 33.1969 6.11593 32.9114 5.61137 32.4065C5.1068 31.9016 4.82172 31.2181 4.81798 30.5043V27.4064C4.82424 26.65 4.67819 25.9 4.38855 25.2012C4.09891 24.5024 3.6716 23.869 3.13206 23.3387L0.940472 21.1424C0.437403 20.636 0.15513 19.951 0.155273 19.2372C0.155417 18.5233 0.437965 17.8385 0.941237 17.3322L3.13249 15.1456C3.67243 14.6158 4.09997 13.9826 4.38952 13.2838C4.67907 12.585 4.82468 11.8349 4.81766 11.0785V7.98079C4.81748 7.62674 4.88706 7.27611 5.02242 6.94895C5.15777 6.62179 5.35625 6.3245 5.60652 6.07406C5.85679 5.82362 6.15394 5.62493 6.48101 5.48935C6.80808 5.35377 7.15865 5.28395 7.51271 5.28388H10.6095C11.366 5.29142 12.1163 5.1464 12.8155 4.85749C13.5148 4.56857 14.1486 4.14168 14.6791 3.60233L16.8706 1.4068C17.3765 0.902393 18.0617 0.619141 18.776 0.619141C19.4904 0.619141 20.1756 0.902393 20.6815 1.4068L22.8727 3.60255C23.4033 4.14187 24.0372 4.56871 24.7364 4.85759C25.4357 5.14647 26.186 5.29145 26.9425 5.28388H30.0393C30.3933 5.28395 30.7439 5.35377 31.071 5.48935C31.3981 5.62493 31.6952 5.82361 31.9455 6.07405C32.1958 6.32449 32.3943 6.62178 32.5296 6.94894C32.665 7.27611 32.7346 7.62673 32.7344 7.98079V11.0785C32.7274 11.8349 32.873 12.585 33.1626 13.2838C33.4521 13.9826 33.8797 14.6158 34.4196 15.1456L36.6108 17.3322C36.8612 17.5831 37.0595 17.881 37.1944 18.2088C37.3292 18.5366 37.398 18.8878 37.3966 19.2423V19.2432Z" fill="#7F56D9"/>
    <path fill-rule="evenodd" clip-rule="evenodd" d="M19.856 47.9291L26.5064 54.658V36.459L26.0428 36.4659C25.7323 36.464 25.4247 36.5254 25.1388 36.6466C24.8529 36.7677 24.5948 36.946 24.3802 37.1705L22.4205 39.1277C21.9427 39.6076 21.3749 39.9884 20.7495 40.2482C20.1242 40.5081 19.4537 40.6418 18.7765 40.6418C18.0994 40.6418 17.4289 40.5081 16.8035 40.2482C16.1782 39.9884 15.6104 39.6076 15.1326 39.1277L13.1727 37.1705C12.9582 36.946 12.7001 36.7677 12.4142 36.6465C12.1283 36.5253 11.8207 36.4639 11.5102 36.4659L11.0466 36.459V54.7137L17.9193 47.9165C18.1764 47.6649 18.5222 47.5248 18.8819 47.5264H18.8934C19.0725 47.5267 19.2497 47.5624 19.4149 47.6315C19.5802 47.7007 19.7301 47.8018 19.856 47.9291Z" fill="url(#paint0_linear_9003_6149)"/>
    <defs>
      <linearGradient id="paint0_linear_9003_6149" x1="8.62436" y1="48.7809" x2="28.8937" y2="48.6919" gradientUnits="userSpaceOnUse">
        <stop stop-color="#6B7CF8"/>
        <stop offset="1" stop-color="#FBD0F8"/>
      </linearGradient>
    </defs>
  </svg>