<svg width="247" height="29" viewBox="0 0 247 29" fill="none" xmlns="http://www.w3.org/2000/svg">
<g clip-path="url(#clip0_6070_22265)">
<path fill-rule="evenodd" clip-rule="evenodd" d="M64.307 9.87905C83.241 6.47632 101.014 5.27289 118.167 5.03156C82.8077 1.16387 47.1931 2.39143 11.9933 8.69011C31.3036 10.4084 47.2788 10.4711 64.307 9.87905ZM8.86093 27.4268C8.69635 26.5678 9.05036 25.6844 9.65022 25.448C22.8426 20.2868 35.4204 16.3756 47.4975 13.4346C33.2171 13.425 18.5725 12.7992 0.957977 10.7945C0.385183 10.7286 -0.0601982 10.0609 -0.0793665 9.24355C-0.0996624 8.42464 0.316403 7.71675 0.883559 7.59769C43.8443 -1.38295 87.5219 -2.79714 130.705 3.38409C131.296 3.46936 131.733 4.18853 131.721 5.0203C140.462 5.11523 149.075 5.3823 157.63 5.64615C163.915 5.84082 170.416 6.04192 176.808 6.16742C177.428 6.17868 177.925 6.90266 177.92 7.78593C177.915 8.6708 177.413 9.38518 176.792 9.38518C139.054 9.38518 112.037 10.7784 90.3288 11.8966C81.1468 12.3712 72.7007 12.8072 64.4998 13.092C47.4784 16.1584 29.5199 21.0092 10.2467 28.553C10.1464 28.59 10.046 28.6094 9.94789 28.6094C9.45292 28.6094 8.99854 28.1412 8.86093 27.4268Z" fill="#7F56D9"/>
</g>
<defs>
<clipPath id="clip0_6070_22265">
<rect width="246.307" height="28.42" fill="white" transform="translate(0.041748)"/>
</clipPath>
</defs>
</svg>
