<svg width="39" height="39" viewBox="0 0 39 39" fill="none" xmlns="http://www.w3.org/2000/svg">
<rect x="3.52466" y="3.20312" width="32.5411" height="32.5411" rx="16.2706" fill="#F4EBFF"/>
<g clip-path="url(#clip0_6136_25540)">
<path d="M21.1511 18.7968H17.0835M18.4393 21.5085H17.0835M22.507 16.085H17.0835M25.2187 18.4578V15.9494C25.2187 14.8104 25.2187 14.2409 24.9971 13.8058C24.8021 13.4231 24.491 13.112 24.1083 12.917C23.6732 12.6953 23.1037 12.6953 21.9646 12.6953H17.6258C16.4868 12.6953 15.9172 12.6953 15.4822 12.917C15.0995 13.112 14.7884 13.4231 14.5934 13.8058C14.3717 14.2409 14.3717 14.8104 14.3717 15.9494V23C14.3717 24.1391 14.3717 24.7086 14.5934 25.1436C14.7884 25.5263 15.0995 25.8375 15.4822 26.0324C15.9172 26.2541 16.4868 26.2541 17.6258 26.2541H19.4563M26.5746 26.2541L25.5577 25.2372M26.2357 23.5424C26.2357 24.8528 25.1733 25.9151 23.8629 25.9151C22.5524 25.9151 21.4901 24.8528 21.4901 23.5424C21.4901 22.2319 22.5524 21.1696 23.8629 21.1696C25.1733 21.1696 26.2357 22.2319 26.2357 23.5424Z" stroke="#7F56D9" stroke-width="1.35588" stroke-linecap="round" stroke-linejoin="round"/>
</g>
<rect x="3.52466" y="3.20312" width="32.5411" height="32.5411" rx="16.2706" stroke="#F9F5FF" stroke-width="5.42352"/>
<defs>
<clipPath id="clip0_6136_25540">
<rect width="16.2706" height="16.2706" fill="white" transform="translate(11.6599 11.3389)"/>
</clipPath>
</defs>
</svg>
