<svg width="23" height="23" viewBox="0 0 23 23" fill="none" xmlns="http://www.w3.org/2000/svg">
<g id="file-02">
<path id="Icon" d="M13.375 10.5625H7.75M9.625 14.3125H7.75M15.25 6.8125H7.75M19 6.625V16.375C19 17.9501 19 18.7377 18.6935 19.3393C18.4238 19.8686 17.9936 20.2988 17.4643 20.5685C16.8627 20.875 16.0751 20.875 14.5 20.875H8.5C6.92485 20.875 6.13728 20.875 5.53565 20.5685C5.00645 20.2988 4.57619 19.8686 4.30654 19.3393C4 18.7377 4 17.9501 4 16.375V6.625C4 5.04985 4 4.26228 4.30654 3.66065C4.57619 3.13145 5.00645 2.70119 5.53565 2.43154C6.13728 2.125 6.92485 2.125 8.5 2.125H14.5C16.0751 2.125 16.8627 2.125 17.4643 2.43154C17.9936 2.70119 18.4238 3.13145 18.6935 3.66065C19 4.26228 19 5.04985 19 6.625Z" stroke="black" stroke-width="1.60714" stroke-linecap="round" stroke-linejoin="round"/>
</g>
</svg>
