<svg width="20" height="22" viewBox="0 0 20 22" fill="none" xmlns="http://www.w3.org/2000/svg">
<path d="M5.42982 1.54923C8.38761 0.361351 11.2633 0.463876 14.0714 1.93759C14.2701 2.04189 14.3564 2.01687 14.4571 1.82256C14.6328 1.48365 14.8363 1.1592 15.0542 0.783833C15.5884 2.01223 16.1026 3.19466 16.6321 4.41252C15.3223 4.56274 14.0517 4.70847 12.6979 4.86375C12.8975 4.51749 13.0505 4.2101 13.2434 3.93021C13.4139 3.68286 13.3804 3.56814 13.1065 3.42645C9.50987 1.56588 4.99491 2.67071 2.66251 5.99311C2.37674 6.40019 2.11878 6.82492 1.93042 7.28465C1.8449 7.4934 1.71905 7.55248 1.5146 7.53063C1.13316 7.48987 0.786379 7.37917 0.488853 7.11965C0.247556 6.90917 0.18782 6.71484 0.344976 6.40212C1.45899 4.18539 3.12698 2.55734 5.42982 1.54923Z" fill="#98A2B3"/>
<path d="M5.74831 20.2225C5.04291 19.8832 5.04322 19.8834 4.66416 20.5396C4.56156 20.7173 4.45645 20.8935 4.31312 21.1373C3.77893 19.911 3.26655 18.7347 2.73486 17.5142C4.04703 17.364 5.31877 17.2184 6.66008 17.0648C6.45887 17.4201 6.31059 17.7468 6.10312 18.0301C5.89389 18.3159 6.07197 18.3897 6.27685 18.4966C10.3199 20.6068 15.4563 18.8842 17.3789 14.7491C17.5453 14.3913 17.7484 14.3612 18.0511 14.4182C18.241 14.4539 18.427 14.5044 18.5984 14.6031C19.1612 14.9273 19.222 15.1236 18.9263 15.6962C16.424 20.5429 10.6271 22.5426 5.74831 20.2225Z" fill="#98A2B3"/>
<path d="M7.06295 14.6329C6.94157 14.9948 6.60251 15.2387 6.22076 15.2387C5.60818 15.2387 5.17946 14.6333 5.38288 14.0554L8.18276 6.10239C8.32116 5.70928 8.69255 5.44629 9.10931 5.44629H9.9084C10.325 5.44629 10.6963 5.70908 10.8348 6.10199L13.6386 14.0552C13.8423 14.633 13.4136 15.2387 12.801 15.2387C12.4194 15.2387 12.0805 14.9951 11.959 14.6334L9.55913 7.49075C9.55185 7.46909 9.53155 7.4545 9.50871 7.4545C9.48585 7.4545 9.46555 7.46911 9.45828 7.49078L7.06295 14.6329ZM6.92193 12.1116C6.92193 11.7182 7.24089 11.3992 7.63436 11.3992H11.3735C11.7669 11.3992 12.0859 11.7182 12.0859 12.1116C12.0859 12.5051 11.7669 12.8241 11.3735 12.8241H7.63436C7.2409 12.8241 6.92193 12.5051 6.92193 12.1116Z" fill="#98A2B3"/>
</svg>
