<svg width="17" height="17" viewBox="0 0 17 17" fill="none" xmlns="http://www.w3.org/2000/svg">
<g id="file-check-03">
<path id="Icon" d="M10.1511 1.87609V4.67635C10.1511 5.05603 10.1511 5.24587 10.225 5.39089C10.29 5.51845 10.3937 5.62216 10.5213 5.68716C10.6663 5.76105 10.8561 5.76105 11.2358 5.76105H14.0361M6.76141 11.1845L8.11729 12.5404L11.168 9.48967M10.1511 1.69336H6.62582C5.48677 1.69336 4.91725 1.69336 4.48219 1.91503C4.0995 2.11002 3.78837 2.42116 3.59338 2.80384C3.3717 3.2389 3.3717 3.80843 3.3717 4.94747V11.9981C3.3717 13.1371 3.3717 13.7066 3.59338 14.1417C3.78837 14.5244 4.0995 14.8355 4.48219 15.0305C4.91725 15.2522 5.48677 15.2522 6.62582 15.2522H10.9646C12.1037 15.2522 12.6732 15.2522 13.1083 15.0305C13.491 14.8355 13.8021 14.5244 13.9971 14.1417C14.2187 13.7066 14.2187 13.1371 14.2187 11.9981V5.761L10.1511 1.69336Z" stroke="#039855" stroke-width="1.35588" stroke-linecap="round" stroke-linejoin="round"/>
</g>
</svg>
