<svg width="21" height="20" viewBox="0 0 21 20" fill="none" xmlns="http://www.w3.org/2000/svg">
<path d="M3.3215 4.72239C2.69121 4.01796 2.37607 3.66574 2.36418 3.3664C2.35386 3.10636 2.4656 2.85643 2.66628 2.69074C2.89728 2.5 3.36991 2.5 4.31515 2.5H16.6843C17.6295 2.5 18.1021 2.5 18.3331 2.69074C18.5338 2.85643 18.6456 3.10636 18.6352 3.3664C18.6233 3.66574 18.3082 4.01796 17.6779 4.72239L12.9227 10.037C12.7971 10.1774 12.7343 10.2477 12.6895 10.3276C12.6497 10.3984 12.6206 10.4747 12.6029 10.554C12.583 10.6435 12.583 10.7377 12.583 10.9261V15.382C12.583 15.5449 12.583 15.6264 12.5568 15.6969C12.5335 15.7591 12.4958 15.8149 12.4466 15.8596C12.3909 15.9102 12.3153 15.9404 12.164 16.001L9.33063 17.1343C9.02435 17.2568 8.8712 17.3181 8.74827 17.2925C8.64076 17.2702 8.54642 17.2063 8.48575 17.1148C8.41637 17.0101 8.41637 16.8452 8.41637 16.5153V10.9261C8.41637 10.7377 8.41637 10.6435 8.39647 10.554C8.37883 10.4747 8.34968 10.3984 8.30995 10.3276C8.26516 10.2477 8.20233 10.1774 8.07669 10.037L3.3215 4.72239Z" stroke="#667085" stroke-width="1.66667" stroke-linecap="round" stroke-linejoin="round"/>
</svg>
