<svg width="32" height="32" viewBox="0 0 32 32" fill="none" xmlns="http://www.w3.org/2000/svg">
<path d="M6.34899 10.0403C6.6693 9.61744 7.27149 9.52775 7.69431 9.84807C8.11712 10.1684 8.2068 10.7706 7.88649 11.1934C6.50274 13.0384 5.77243 15.1909 5.77243 17.4203C5.77243 23.1731 10.449 27.8496 16.2018 27.8496C21.9547 27.8496 26.6312 23.1731 26.6312 17.4203C26.6312 11.6674 21.9547 7.00369 16.2018 7.00369C15.4587 7.00369 14.7027 7.09338 13.8827 7.28557C13.8443 7.29838 13.8059 7.28557 13.7546 7.28557C13.729 7.28557 13.6906 7.31119 13.6649 7.31119C13.6265 7.31119 13.6009 7.29838 13.5624 7.29838C13.5112 7.29838 13.4727 7.28557 13.4343 7.27275C13.3702 7.25994 13.3062 7.23432 13.2421 7.19588C13.2037 7.17025 13.1524 7.15744 13.114 7.13182C13.1012 7.119 13.0756 7.119 13.0627 7.10619C13.0243 7.08057 13.0115 7.04213 12.9859 7.0165C12.9346 6.96525 12.8962 6.92682 12.8577 6.86275C12.8193 6.8115 12.8065 6.74744 12.7809 6.69619C12.7681 6.65775 12.7424 6.61932 12.7296 6.58088C12.7296 6.55525 12.7296 6.54244 12.7296 6.51682C12.7168 6.45275 12.7168 6.38869 12.7296 6.32463C12.7296 6.26057 12.7296 6.20932 12.7424 6.14525C12.7552 6.094 12.7809 6.04275 12.8065 5.97869C12.8321 5.91463 12.8577 5.85057 12.8962 5.79932C12.909 5.77369 12.909 5.76088 12.9218 5.74807L15.4587 2.58338C15.7918 2.17338 16.394 2.10932 16.804 2.42963C17.214 2.76275 17.2781 3.36494 16.9577 3.77494L15.9071 5.08182C16.0096 5.08182 16.1121 5.069 16.2146 5.069C23.0181 5.069 28.5659 10.604 28.5659 17.4203C28.5659 24.2365 23.0309 29.7715 16.2146 29.7715C9.39837 29.7715 3.86337 24.2365 3.86337 17.4203C3.85056 14.7681 4.7218 12.2184 6.34899 10.0403Z" fill="#B3BAC2"/>
<path d="M13.0753 21.9845C12.55 21.9845 12.1143 21.5488 12.1143 21.0235V16.6801L11.8709 16.962C11.5121 17.3592 10.91 17.3848 10.5128 17.0388C10.1156 16.6801 10.09 16.0779 10.4359 15.6807L12.3578 13.541C12.6268 13.2464 13.0496 13.1439 13.4212 13.2848C13.7928 13.4257 14.0362 13.7845 14.0362 14.1817V21.0363C14.0362 21.5617 13.6134 21.9845 13.0753 21.9845Z" fill="#B3BAC2"/>
<path d="M18.7876 21.9838C16.8401 21.9838 15.2642 20.4079 15.2642 18.4604V16.7307C15.2642 14.7832 16.8401 13.2073 18.7876 13.2073C20.7351 13.2073 22.311 14.7832 22.311 16.7307V18.4604C22.311 20.4079 20.7351 21.9838 18.7876 21.9838ZM18.7876 15.142C17.9035 15.142 17.186 15.8595 17.186 16.7435V18.4732C17.186 19.3573 17.9035 20.0748 18.7876 20.0748C19.6717 20.0748 20.3892 19.3573 20.3892 18.4732V16.7435C20.3892 15.8595 19.6717 15.142 18.7876 15.142Z" fill="#B3BAC2"/>
</svg>
