<svg xmlns="http://www.w3.org/2000/svg" width="24" height="24" viewBox="0 0 24 24" fill="none">
    <g clip-path="url(#clip0_8920_28302)">
      <path d="M12.0001 23.8996C18.5723 23.8996 23.9001 18.5718 23.9001 11.9996C23.9001 5.42742 18.5723 0.0996094 12.0001 0.0996094C5.42791 0.0996094 0.100098 5.42742 0.100098 11.9996C0.100098 18.5718 5.42791 23.8996 12.0001 23.8996Z" fill="white"/>
      <path d="M20.8092 12.1609C20.8092 11.5609 20.7092 10.9609 20.7092 10.4609H12.2092V13.8609H17.1092C16.9092 14.9609 16.2092 15.9609 15.3092 16.5609V18.8609H18.2092C19.9092 17.2609 20.8092 14.9609 20.8092 12.1609Z" fill="#4285F4"/>
      <path d="M12.2091 21.0617C14.6091 21.0617 16.7091 20.2617 18.2091 18.8617L15.3091 16.5617C14.5091 17.0617 13.5091 17.4617 12.2091 17.4617C9.80913 17.4617 7.90913 15.8617 7.10913 13.7617H4.10913V16.0617C5.60913 18.9617 8.70913 21.0617 12.2091 21.0617Z" fill="#34A853"/>
      <path d="M7.10913 13.7605C6.90913 13.2605 6.80913 12.6605 6.80913 12.0605C6.80913 11.4605 6.90913 10.8605 7.10913 10.3605V8.06055H4.10913C3.50913 9.26055 3.10913 10.6605 3.10913 12.0605C3.10913 13.5605 3.50913 14.8605 4.10913 16.0605L7.10913 13.7605Z" fill="#FBBC05"/>
      <path d="M12.2092 6.56094C13.5092 6.56094 14.7092 7.06094 15.7092 7.96094L18.3092 5.36094C16.7092 3.86094 14.7092 2.96094 12.3092 2.96094C8.80923 2.96094 5.70923 4.96094 4.20923 7.96094L7.20923 10.2609C7.80923 8.16094 9.80923 6.56094 12.2092 6.56094Z" fill="#EA4335"/>
    </g>
    <defs>
      <clipPath id="clip0_8920_28302">
        <rect width="24" height="24" fill="white"/>
      </clipPath>
    </defs>
  </svg>