<svg xmlns="http://www.w3.org/2000/svg" width="76" height="76" viewBox="0 0 76 76" fill="none">
    <mask id="mask0_755_57063" style="mask-type:alpha" maskUnits="userSpaceOnUse" x="0" y="0" width="76" height="76">
      <path fill-rule="evenodd" clip-rule="evenodd" d="M0.356445 56.6347V75.5H75.3564V59.9232L60.3564 38.0001L75.3564 18V0.5H0.356445V21.0001L13.1064 38.0001L0.356445 56.6347Z" fill="black"/>
    </mask>
    <g mask="url(#mask0_755_57063)">
      <path fill-rule="evenodd" clip-rule="evenodd" d="M0.356445 56.6347V75.5H75.3564V59.9232L60.3564 38.0001L75.3564 18.0001V0.5H0.356445V21.0001L13.1064 38.0001L0.356445 56.6347Z" fill="black"/>
      <mask id="path-3-outside-1_755_57063" maskUnits="userSpaceOnUse" x="-7.54321" y="-17.9629" width="89" height="112" fill="black">
        <rect fill="white" x="-7.54321" y="-17.9629" width="89" height="112"/>
        <path fill-rule="evenodd" clip-rule="evenodd" d="M11.2557 -8.96289L1.45679 -2.03606L29.7585 38.0005L1.4568 78.037L11.2557 84.9639L37.1063 48.5004L62.9568 84.9639L72.7557 78.037L44.454 38.0005L72.7557 -2.03606L62.9568 -8.96289L37.1063 27.6061L37.1063 27.6062L11.2557 -8.96289Z"/>
      </mask>
      <path fill-rule="evenodd" clip-rule="evenodd" d="M11.2557 -8.96289L1.45679 -2.03606L29.7585 38.0005L1.4568 78.037L11.2557 84.9639L37.1063 48.5004L62.9568 84.9639L72.7557 78.037L44.454 38.0005L72.7557 -2.03606L62.9568 -8.96289L37.1063 27.6061L37.1063 27.6062L11.2557 -8.96289Z" fill="black"/>
      <path d="M1.45679 -2.03606L-2.00663 -6.93553L-6.90609 -3.47211L-3.44268 1.42735L1.45679 -2.03606ZM11.2557 -8.96289L16.1552 -12.4263L12.6918 -17.3258L7.7923 -13.8624L11.2557 -8.96289ZM29.7585 38.0005L34.658 41.4639L37.1062 38.0005L34.658 34.5371L29.7585 38.0005ZM1.4568 78.037L-3.44267 74.5736L-6.90608 79.4731L-2.00661 82.9365L1.4568 78.037ZM11.2557 84.9639L7.79232 89.8633L12.6851 93.322L16.1505 88.434L11.2557 84.9639ZM37.1063 48.5004L42.001 45.0303L37.1063 38.1261L32.2115 45.0303L37.1063 48.5004ZM62.9568 84.9639L58.0621 88.434L61.5274 93.322L66.4202 89.8633L62.9568 84.9639ZM72.7557 78.037L76.2192 82.9365L81.1186 79.4731L77.6552 74.5736L72.7557 78.037ZM44.454 38.0005L39.5546 34.5371L37.1063 38.0005L39.5546 41.4639L44.454 38.0005ZM72.7557 -2.03606L77.6552 1.42735L81.1186 -3.47211L76.2191 -6.93553L72.7557 -2.03606ZM62.9568 -8.96289L66.4202 -13.8624L61.5207 -17.3258L58.0573 -12.4263L62.9568 -8.96289ZM37.1063 27.6061L32.2068 24.1427L31.3841 25.3065L31.1726 26.716L37.1063 27.6061ZM37.1063 27.6062L32.2068 31.0696L40.8251 43.2613L43.0399 28.4962L37.1063 27.6062ZM4.9202 2.8634L14.7191 -4.06343L7.7923 -13.8624L-2.00663 -6.93553L4.9202 2.8634ZM34.658 34.5371L6.35625 -5.49948L-3.44268 1.42735L24.859 41.4639L34.658 34.5371ZM24.859 34.5371L-3.44267 74.5736L6.35627 81.5005L34.658 41.4639L24.859 34.5371ZM-2.00661 82.9365L7.79232 89.8633L14.7191 80.0644L4.92021 73.1376L-2.00661 82.9365ZM16.1505 88.434L42.001 51.9705L32.2115 45.0303L6.36099 81.4938L16.1505 88.434ZM32.2115 51.9705L58.0621 88.434L67.8515 81.4938L42.001 45.0303L32.2115 51.9705ZM66.4202 89.8633L76.2192 82.9365L69.2923 73.1376L59.4934 80.0644L66.4202 89.8633ZM77.6552 74.5736L49.3535 34.5371L39.5546 41.4639L67.8563 81.5005L77.6552 74.5736ZM67.8563 -5.49948L39.5546 34.5371L49.3535 41.4639L77.6552 1.42735L67.8563 -5.49948ZM59.4934 -4.06343L69.2923 2.8634L76.2191 -6.93553L66.4202 -13.8624L59.4934 -4.06343ZM42.0057 31.0695L67.8563 -5.49947L58.0573 -12.4263L32.2068 24.1427L42.0057 31.0695ZM31.1726 26.716L31.1726 26.7161L43.0399 28.4962L43.0399 28.4961L31.1726 26.716ZM6.35625 -5.49948L32.2068 31.0696L42.0057 24.1427L16.1552 -12.4263L6.35625 -5.49948Z" fill="white" mask="url(#path-3-outside-1_755_57063)"/>
      <path d="M37.1064 48.5L-1.89355 77.75L79.8564 77.75L37.1064 48.5Z" fill="white"/>
      <path d="M37.1064 28.25L-1.89355 -1L79.8564 -0.999998L37.1064 28.25Z" fill="white"/>
    </g>
  </svg>