<svg xmlns="http://www.w3.org/2000/svg" width="75" height="80" viewBox="0 0 75 80" fill="none">
    <path fill-rule="evenodd" clip-rule="evenodd" d="M11.4607 10.1615C18.0862 3.96379 27.4692 0 37.2145 0C57.7275 0 74.3565 16.7859 74.3565 37.4924H62.5858C62.047 25.088 52.0842 15.0725 39.7102 15.0725C33.3746 15.0725 27.6711 17.6981 23.541 21.9257L14.5997 13.1429C13.083 11.6263 11.4607 10.1615 11.4607 10.1615ZM59.6842 37.4924H49.5364C49.5374 37.4341 49.5379 37.3757 49.5379 37.3171C49.5379 31.8018 45.0669 27.3308 39.5516 27.3308C34.0363 27.3308 29.5653 31.8018 29.5653 37.3171C29.5653 37.3757 29.5658 37.4341 29.5668 37.4924H19.7362C20.2716 26.6184 29.0095 17.9711 39.7102 17.9711C50.4109 17.9711 59.1489 26.6184 59.6842 37.4924Z" fill="#004BFF"/>
    <path fill-rule="evenodd" clip-rule="evenodd" d="M8.19254 37.4922H0.00710079C-0.189209 48.4305 3.6849 59.4345 11.6294 67.7814C27.1354 84.0725 52.2754 84.0725 67.7814 67.7814L62.1916 61.9085C56.4634 67.7092 48.5066 71.3041 39.7101 71.3041C22.2611 71.3041 8.11592 57.1589 8.11592 39.7099C8.11592 38.9643 8.14174 38.2248 8.19254 37.4922ZM10.5175 37.4922C10.4627 38.2242 10.4348 38.9638 10.4348 39.7099C10.4348 55.8782 23.5418 68.9853 39.7101 68.9853C47.8868 68.9853 55.2806 65.633 60.5921 60.228L53.9064 53.2037C46.0634 61.4439 33.3474 61.4439 25.5044 53.2037C21.3913 48.8823 19.4353 43.1529 19.6362 37.4922H10.5175Z" fill="#004BFF"/>
  </svg>