<svg xmlns="http://www.w3.org/2000/svg" width="60" height="74" viewBox="0 0 60 74" fill="none">
    <path d="M6.56689 0.253906H12.7774V6.46443H6.56689V0.253906Z" fill="#F15626"/>
    <path d="M16.918 0.253906H23.1285V6.46443H16.918V0.253906Z" fill="#F15626"/>
    <path d="M27.2688 0.253906H33.4793V6.46443H27.2688V0.253906Z" fill="#F15626"/>
    <path d="M37.6196 0.253906H43.8302V6.46443H37.6196V0.253906Z" fill="#F15626"/>
    <rect x="0.356445" y="14.7441" width="59" height="59" fill="#F15626"/>
    <path d="M33.6484 38.2681L39.7358 31.824L46.4178 29.2363L52.6284 30.2253L47.777 35.0767L38.9388 43.5583L30.8205 51.3491L21.7236 60.0791L15.8326 61.3742L7.60205 58.4914L11.5293 54.5641L17.1278 55.4833L25.8578 46.3863L8.60479 35.7633L12.9498 31.4182L33.6484 38.2681Z" fill="white"/>
  </svg>