<svg xmlns="http://www.w3.org/2000/svg" width="24" height="24" viewBox="0 0 24 24" fill="none">
    <path d="M11.9998 23.0399C11.7214 23.0396 11.4477 22.9599 11.2047 22.8083L8.05247 20.8558C6.48528 19.8842 5.17939 18.4633 4.26995 16.7402C3.36052 15.017 2.88058 13.0541 2.8798 11.0546V5.63515C2.87975 5.18418 3.02969 4.74921 3.3006 4.41437C3.57152 4.07952 3.94417 3.8686 4.34648 3.8224C5.60067 3.67416 6.83502 3.36297 8.02441 2.89516C9.11491 2.46532 10.161 1.90656 11.1449 1.22843C11.4022 1.05281 11.6981 0.959875 11.9998 0.959875C12.3015 0.959875 12.5974 1.05281 12.8547 1.22843C13.8387 1.90637 14.8848 2.46512 15.9752 2.89516C17.1646 3.36297 18.3989 3.67416 19.6531 3.8224C20.0554 3.8686 20.4281 4.07952 20.699 4.41437C20.9699 4.74921 21.1198 5.18418 21.1198 5.63515V11.0546C21.119 13.0541 20.6391 15.017 19.7296 16.7402C18.8202 18.4633 17.5143 19.8842 15.9471 20.8558L12.7949 22.8094C12.5518 22.9606 12.2781 23.04 11.9998 23.0399ZM11.9998 2.52385C11.9586 2.52344 11.9182 2.53571 11.8829 2.55931C10.8137 3.29616 9.67701 3.90351 8.4921 4.37102C7.19964 4.87968 5.85821 5.21783 4.49521 5.37857C4.43731 5.38406 4.38337 5.41357 4.34405 5.46128C4.30473 5.50898 4.2829 5.5714 4.28287 5.63619V11.0557C4.28337 12.7761 4.69624 14.4652 5.47872 15.948C6.26121 17.4308 7.38489 18.6535 8.73343 19.4895L11.8857 21.442C11.9202 21.4636 11.9592 21.475 11.9989 21.475C12.0385 21.475 12.0775 21.4636 12.112 21.442L15.2662 19.4895C16.6147 18.6535 17.7384 17.4308 18.5209 15.948C19.3034 14.4652 19.7162 12.7761 19.7167 11.0557V5.63515C19.7167 5.57036 19.6949 5.50794 19.6555 5.46023C19.6162 5.41253 19.5623 5.38301 19.5044 5.37753C18.1414 5.21679 16.8 4.87864 15.5075 4.36998C14.3227 3.90313 13.186 3.29648 12.1167 2.56035C12.0816 2.53619 12.0411 2.52353 11.9998 2.52385Z" fill="#7F56D9"/>
    <path fill-rule="evenodd" clip-rule="evenodd" d="M11.9998 23.0399C11.7214 23.0396 11.4477 22.9599 11.2047 22.8083L8.05247 20.8558C6.48528 19.8842 5.17939 18.4633 4.26995 16.7402C3.36052 15.017 2.88058 13.0541 2.8798 11.0546V5.63515C2.87975 5.18418 3.02969 4.74921 3.3006 4.41437C3.57152 4.07952 3.94417 3.8686 4.34648 3.8224C5.60067 3.67416 6.83502 3.36297 8.02441 2.89516C9.11491 2.46532 10.161 1.90656 11.1449 1.22843C11.4022 1.05281 11.6981 0.959875 11.9998 0.959875C12.3015 0.959875 12.5974 1.05281 12.8547 1.22843C13.8387 1.90637 14.8848 2.46512 15.9752 2.89516C17.1646 3.36297 18.3989 3.67416 19.6531 3.8224C20.0554 3.8686 20.4281 4.07952 20.699 4.41437C20.9699 4.74921 21.1198 5.18418 21.1198 5.63515V11.0546C21.119 13.0541 20.6391 15.017 19.7296 16.7402C18.8202 18.4633 17.5143 19.8842 15.9471 20.8558L12.7949 22.8094C12.5518 22.9606 12.2781 23.04 11.9998 23.0399ZM12.9466 23.0542C12.6593 23.2328 12.3333 23.328 11.9997 23.3279C11.666 23.3275 11.3397 23.2319 11.0526 23.0528C11.0525 23.0528 11.0526 23.0529 11.0526 23.0528L7.90082 21.1006C6.28761 20.1006 4.94717 18.6404 4.01525 16.8746C3.08338 15.1089 2.59259 13.0997 2.5918 11.0547L2.5918 5.63518C2.5918 5.63517 2.5918 5.63519 2.5918 5.63518C2.59175 5.12161 2.76226 4.62187 3.07671 4.23322C3.39164 3.84397 3.83092 3.59186 4.31311 3.53634C5.5423 3.39102 6.75244 3.08597 7.91896 2.62716M12.9466 23.0542L16.0988 21.1006C17.712 20.1005 19.0524 18.6404 19.9843 16.8746C20.9162 15.1089 21.407 13.0997 21.4078 11.0547V5.63518C21.4078 5.63517 21.4078 5.63519 21.4078 5.63518C21.4078 5.12161 21.2373 4.62187 20.9229 4.23322C20.6079 3.84397 20.1687 3.59186 19.6865 3.53634C18.4574 3.39103 17.2473 3.08601 16.0808 2.62724C15.0112 2.20539 13.9844 1.65704 13.0181 0.991273L13.0171 0.990539C12.7135 0.783405 12.3614 0.671875 11.9998 0.671875C11.6382 0.671875 11.2861 0.783405 10.9825 0.990539L10.9814 0.991301C10.0153 1.6572 8.98861 2.20552 7.91896 2.62716M12.1167 2.56035C13.186 3.29648 14.3227 3.90313 15.5075 4.36998C16.8 4.87864 18.1414 5.21679 19.5044 5.37753C19.5623 5.38301 19.6162 5.41253 19.6555 5.46023C19.6949 5.50794 19.7167 5.57036 19.7167 5.63515V11.0557C19.7162 12.7761 19.3034 14.4652 18.5209 15.948C17.7384 17.4308 16.6147 18.6535 15.2662 19.4895L12.112 21.442C12.0775 21.4636 12.0385 21.475 11.9989 21.475C11.9592 21.475 11.9202 21.4636 11.8857 21.442L8.73343 19.4895C7.38489 18.6535 6.26121 17.4308 5.47872 15.948C4.69624 14.4652 4.28337 12.7761 4.28287 11.0557V5.63619C4.2829 5.5714 4.30473 5.50898 4.34405 5.46128C4.38337 5.41357 4.43731 5.38406 4.49521 5.37857C5.85821 5.21783 7.19964 4.87968 8.4921 4.37102C9.67701 3.90351 10.8137 3.29616 11.8829 2.55931C11.9182 2.53571 11.9586 2.52344 11.9998 2.52385C12.0411 2.52353 12.0816 2.53619 12.1167 2.56035ZM4.57087 5.65959C5.94433 5.49396 7.2956 5.15141 8.59758 4.63901C9.78576 4.1702 10.926 3.56332 11.9991 2.8289C13.0727 3.56309 14.2132 4.16955 15.4019 4.63793C16.7039 5.15033 18.0553 5.49292 19.4287 5.65854V11.0556C19.4287 11.0556 19.4287 11.0556 19.4287 11.0556C19.4282 12.7305 19.0262 14.3733 18.2662 15.8136C17.5062 17.2538 16.4169 18.4372 15.1144 19.2447L11.9989 21.1733L8.88518 19.2447C7.58265 18.4372 6.49343 17.2538 5.73343 15.8136C4.9734 14.3733 4.57138 12.7306 4.57087 11.0557C4.57087 11.0556 4.57087 11.0557 4.57087 11.0557V5.65959Z" fill="#7F56D9"/>
    <path d="M11.46 14.4299C11.2616 14.4301 11.0701 14.357 10.9222 14.2247L8.49217 12.0647C8.3415 11.9195 8.25284 11.7217 8.24477 11.5126C8.23671 11.3036 8.30985 11.0995 8.44889 10.9431C8.58793 10.7868 8.78207 10.6903 8.99066 10.6739C9.19924 10.6575 9.40608 10.7224 9.56785 10.8551L11.4082 12.4902L14.9193 8.74587C14.9915 8.66648 15.0789 8.60225 15.1762 8.55692C15.2736 8.5116 15.379 8.48607 15.4862 8.48184C15.5935 8.47761 15.7006 8.49475 15.8012 8.53227C15.9018 8.56979 15.994 8.62693 16.0723 8.70039C16.1506 8.77384 16.2135 8.86213 16.2574 8.96013C16.3013 9.05812 16.3253 9.16386 16.3279 9.2712C16.3306 9.37855 16.3119 9.48534 16.2729 9.58539C16.2339 9.68543 16.1754 9.77672 16.1008 9.85395L12.0508 14.174C11.9752 14.2549 11.8837 14.3194 11.782 14.3634C11.6804 14.4075 11.5708 14.4301 11.46 14.4299Z" fill="#7F56D9"/>
    <path fill-rule="evenodd" clip-rule="evenodd" d="M9.56785 10.8551L11.4082 12.4902L14.9193 8.74587C14.9915 8.66648 15.0789 8.60225 15.1762 8.55692C15.2736 8.5116 15.379 8.48607 15.4862 8.48184C15.5935 8.47761 15.7006 8.49475 15.8012 8.53227C15.9018 8.56979 15.994 8.62693 16.0723 8.70039C16.1506 8.77384 16.2135 8.86213 16.2574 8.96013C16.3013 9.05812 16.3253 9.16386 16.3279 9.2712C16.3306 9.37855 16.3119 9.48534 16.2729 9.58539C16.2339 9.68543 16.1754 9.77672 16.1008 9.85395L12.0508 14.174C11.9752 14.2549 11.8837 14.3194 11.782 14.3634C11.6804 14.4075 11.5708 14.4301 11.46 14.4299C11.2616 14.4301 11.0701 14.357 10.9222 14.2247L8.49217 12.0647C8.3415 11.9195 8.25284 11.7217 8.24477 11.5126C8.23671 11.3036 8.30985 11.0995 8.44889 10.9431C8.58793 10.7868 8.78207 10.6903 8.99066 10.6739C9.19924 10.6575 9.40608 10.7224 9.56785 10.8551ZM12.2612 14.3706L16.3096 10.0523C16.4099 9.94802 16.4886 9.82487 16.5412 9.68998C16.5941 9.55437 16.6194 9.4096 16.6158 9.26409C16.6122 9.11859 16.5798 8.97524 16.5203 8.84241C16.4608 8.70957 16.3755 8.58988 16.2693 8.49032C16.1631 8.39075 16.0382 8.31328 15.9018 8.26242C15.7655 8.21156 15.6203 8.18833 15.4749 8.19406C15.3295 8.1998 15.1866 8.2344 15.0547 8.29584C14.9234 8.35697 14.8055 8.44345 14.7078 8.55031L11.3899 12.0887L9.75914 10.6398L9.7505 10.6324C9.53121 10.4526 9.25082 10.3645 8.96807 10.3868C8.68533 10.409 8.42215 10.5398 8.23368 10.7517C8.0452 10.9637 7.94605 11.2403 7.95699 11.5237C7.96793 11.8071 8.0881 12.0753 8.29235 12.2721L10.7302 14.4394" fill="#7F56D9"/>
  </svg>