<svg width="23" height="23" viewBox="0 0 23 23" fill="none" xmlns="http://www.w3.org/2000/svg">
<g id="lightbulb-02">
<path id="Icon" d="M9.625 16.6643V18.8594C9.625 19.8949 10.4645 20.7344 11.5 20.7344C12.5355 20.7344 13.375 19.8949 13.375 18.8594V16.6643M11.5 1.98438V2.92187M3.0625 11.3594H2.125M5.40625 5.26562L4.84366 4.70303M17.5937 5.26562L18.1565 4.70303M20.875 11.3594H19.9375M17.125 11.3594C17.125 14.466 14.6066 16.9844 11.5 16.9844C8.3934 16.9844 5.875 14.466 5.875 11.3594C5.875 8.25277 8.3934 5.73437 11.5 5.73437C14.6066 5.73437 17.125 8.25277 17.125 11.3594Z" stroke="black" stroke-width="1.60714" stroke-linecap="round" stroke-linejoin="round"/>
</g>
</svg>
