<svg xmlns="http://www.w3.org/2000/svg" width="249" height="62" viewBox="0 0 249 62" fill="none">
    <path d="M66.0998 37.3639C64.737 37.3639 63.5694 37.0632 62.597 36.4651C61.6213 35.8669 60.8728 35.0384 60.3482 33.9827C59.8236 32.9271 59.5645 31.7083 59.5645 30.3296C59.5645 28.9445 59.83 27.7193 60.361 26.6573C60.8952 25.5953 61.6469 24.7668 62.6226 24.1718C63.595 23.5768 64.7498 23.2793 66.0806 23.2793C67.1874 23.2793 68.1694 23.4808 69.0235 23.8871C69.8776 24.2933 70.559 24.8627 71.0708 25.6017C71.5794 26.3374 71.8673 27.1979 71.9409 28.18H68.87C68.7452 27.5242 68.4509 26.974 67.9871 26.5326C67.5233 26.0911 66.9027 25.8704 66.1285 25.8704C65.4728 25.8704 64.8938 26.0463 64.3948 26.3982C63.8989 26.7501 63.5119 27.2555 63.2368 27.9113C62.9617 28.567 62.8241 29.3572 62.8241 30.272C62.8241 31.2029 62.9617 31.9994 63.2336 32.6648C63.5055 33.3302 63.8893 33.842 64.382 34.2003C64.8746 34.5585 65.4568 34.7377 66.1285 34.7377C66.602 34.7377 67.0274 34.6481 67.4017 34.4658C67.776 34.2866 68.0927 34.0243 68.3486 33.6788C68.6013 33.3366 68.7772 32.9175 68.8732 32.4281H71.9441C71.8673 33.3941 71.5826 34.2482 71.0932 34.9904C70.6006 35.7325 69.932 36.3147 69.0875 36.7306C68.2366 37.156 67.2418 37.3639 66.0998 37.3639Z" fill="#4140B0"/>
    <path d="M78.514 37.3742C77.6471 37.3742 76.8698 37.2207 76.182 36.9072C75.4943 36.5969 74.9473 36.1363 74.5474 35.5253C74.1476 34.9175 73.9492 34.1626 73.9492 33.2701C73.9492 32.4992 74.0932 31.8626 74.3747 31.3604C74.6594 30.8581 75.0464 30.4551 75.5359 30.1544C76.0285 29.8505 76.5851 29.6234 77.2025 29.4666C77.8199 29.3099 78.4628 29.1947 79.125 29.1243C79.9247 29.0412 80.5741 28.9644 81.0699 28.8972C81.5657 28.83 81.9304 28.7213 82.1575 28.5773C82.3846 28.4334 82.4998 28.2063 82.4998 27.8992V27.848C82.4998 27.1794 82.3015 26.6612 81.9048 26.2933C81.5082 25.9255 80.9388 25.7431 80.1902 25.7431C79.4033 25.7431 78.7795 25.9159 78.3221 26.2582C77.8646 26.6004 77.5544 27.0067 77.3944 27.4737L74.3907 27.0483C74.6274 26.2198 75.0176 25.5256 75.5647 24.9658C76.1085 24.406 76.7738 23.987 77.5639 23.7055C78.3509 23.424 79.221 23.2832 80.1742 23.2832C80.83 23.2832 81.4858 23.36 82.1351 23.5135C82.7877 23.6671 83.3827 23.9198 83.9201 24.2717C84.4575 24.6235 84.8894 25.1002 85.2188 25.7048C85.5483 26.3093 85.7115 27.0643 85.7115 27.9695V37.0959H82.6214V35.2214H82.5158C82.3207 35.6021 82.0488 35.9539 81.6937 36.2834C81.3418 36.6129 80.9004 36.8752 80.3694 37.0735C79.8415 37.2751 79.2242 37.3742 78.514 37.3742ZM79.3457 35.0103C79.9919 35.0103 80.5517 34.8823 81.0251 34.6232C81.4986 34.3673 81.8632 34.0218 82.1223 33.5964C82.3783 33.1709 82.5094 32.7071 82.5094 32.2017V30.5958C82.407 30.679 82.2375 30.7558 81.9976 30.8261C81.7577 30.8965 81.489 30.9573 81.1947 31.0117C80.8972 31.0661 80.6061 31.1108 80.315 31.1524C80.0239 31.194 79.7712 31.2292 79.56 31.258C79.0802 31.322 78.6516 31.4307 78.2709 31.5779C77.8902 31.725 77.5927 31.9329 77.372 32.1953C77.1545 32.4576 77.0425 32.7967 77.0425 33.2125C77.0425 33.8043 77.2601 34.2521 77.6919 34.5528C78.1269 34.8599 78.6772 35.0103 79.3457 35.0103Z" fill="#4140B0"/>
    <path d="M92.17 18.9121V37.0977H88.9551V18.9121H92.17Z" fill="#4140B0"/>
    <path d="M98.6875 18.9121V37.0977H95.4727V18.9121H98.6875Z" fill="#4140B0"/>
    <path d="M107.052 37.3376C105.98 37.3376 105.021 37.0625 104.176 36.5123C103.329 35.9621 102.66 35.1624 102.171 34.1131C101.681 33.0639 101.432 31.794 101.432 30.2937C101.432 28.7774 101.684 27.4979 102.183 26.4519C102.682 25.409 103.361 24.6189 104.215 24.0815C105.066 23.5441 106.016 23.2786 107.065 23.2786C107.861 23.2786 108.52 23.4129 109.035 23.6816C109.55 23.9503 109.957 24.2734 110.261 24.6509C110.561 25.0284 110.795 25.3802 110.964 25.7129H111.099V18.9121H114.32V37.0977H111.159V34.948H110.964C110.798 35.2807 110.558 35.6294 110.245 36.0005C109.931 36.3716 109.515 36.685 109 36.9473C108.482 37.2064 107.833 37.3376 107.052 37.3376ZM107.948 34.6985C108.626 34.6985 109.208 34.513 109.688 34.1451C110.168 33.7741 110.532 33.259 110.782 32.5969C111.031 31.9347 111.156 31.1606 111.156 30.2777C111.156 29.3948 111.031 28.6303 110.788 27.9777C110.542 27.3283 110.181 26.8197 109.704 26.4582C109.227 26.0968 108.642 25.9176 107.951 25.9176C107.234 25.9176 106.636 26.1032 106.156 26.4774C105.677 26.8517 105.318 27.3667 105.072 28.0225C104.829 28.6783 104.707 29.43 104.707 30.2777C104.707 31.1286 104.832 31.8899 105.078 32.5553C105.325 33.2207 105.686 33.7453 106.169 34.126C106.649 34.5098 107.244 34.6985 107.948 34.6985Z" fill="url(#paint0_linear_8893_17408)"/>
    <path d="M119.747 42.2127C119.308 42.2127 118.905 42.1775 118.534 42.1104C118.163 42.0432 117.869 41.9632 117.651 41.8768L118.4 39.3721C118.867 39.5097 119.283 39.5736 119.651 39.5672C120.018 39.5609 120.342 39.4489 120.623 39.225C120.905 39.0042 121.144 38.6332 121.34 38.1214L121.615 37.3856L116.666 23.4609H120.076L123.221 33.7613H123.364L126.519 23.4609H129.938L124.478 38.7515C124.225 39.4745 123.886 40.0951 123.467 40.6133C123.048 41.1315 122.533 41.5282 121.928 41.8033C121.311 42.072 120.588 42.2127 119.747 42.2127Z" fill="url(#paint1_linear_8893_17408)"/>
    <path d="M135.367 29.1083V37.0991H132.152V23.4591H135.223V25.7783H135.383C135.697 25.0138 136.199 24.4092 136.89 23.9582C137.578 23.5071 138.432 23.2832 139.452 23.2832C140.393 23.2832 141.215 23.4847 141.919 23.8878C142.619 24.2908 143.163 24.873 143.553 25.6376C143.94 26.4021 144.132 27.3298 144.126 28.4174V37.1023H140.911V28.9164C140.911 28.0047 140.674 27.2914 140.204 26.7764C139.734 26.2613 139.084 26.0022 138.256 26.0022C137.693 26.0022 137.194 26.1238 136.759 26.3701C136.324 26.6164 135.985 26.9683 135.738 27.4321C135.489 27.8896 135.367 28.4494 135.367 29.1083Z" fill="url(#paint2_linear_8893_17408)"/>
    <path d="M151.325 37.3742C150.461 37.3742 149.684 37.2207 148.996 36.9072C148.305 36.5969 147.761 36.1363 147.361 35.5253C146.961 34.9175 146.76 34.1626 146.76 33.2701C146.76 32.4992 146.904 31.8626 147.185 31.3604C147.47 30.8581 147.857 30.4551 148.35 30.1544C148.842 29.8505 149.396 29.6234 150.016 29.4666C150.634 29.3099 151.273 29.1947 151.936 29.1243C152.735 29.0412 153.385 28.9644 153.88 28.8972C154.379 28.83 154.741 28.7213 154.968 28.5773C155.198 28.4334 155.31 28.2063 155.31 27.8992V27.848C155.31 27.1794 155.112 26.6612 154.719 26.2933C154.322 25.9255 153.749 25.7431 153.004 25.7431C152.217 25.7431 151.593 25.9159 151.133 26.2582C150.675 26.6004 150.365 27.0067 150.205 27.4737L147.204 27.0483C147.441 26.2198 147.831 25.5256 148.375 24.9658C148.919 24.406 149.588 23.987 150.374 23.7055C151.161 23.424 152.032 23.2832 152.985 23.2832C153.641 23.2832 154.296 23.36 154.949 23.5135C155.598 23.6671 156.193 23.9198 156.734 24.2717C157.271 24.6235 157.706 25.1002 158.036 25.7048C158.365 26.3093 158.528 27.0643 158.528 27.9695V37.0959H155.438V35.2214H155.333C155.138 35.6021 154.863 35.9539 154.511 36.2834C154.159 36.6129 153.717 36.8752 153.186 37.0735C152.655 37.2751 152.035 37.3742 151.325 37.3742ZM152.159 35.0103C152.802 35.0103 153.362 34.8823 153.836 34.6232C154.309 34.3673 154.674 34.0218 154.933 33.5964C155.189 33.1709 155.317 32.7071 155.317 32.2017V30.5958C155.218 30.679 155.045 30.7558 154.805 30.8261C154.565 30.8965 154.3 30.9573 154.002 31.0117C153.708 31.0661 153.413 31.1108 153.122 31.1524C152.834 31.194 152.582 31.2292 152.367 31.258C151.888 31.322 151.459 31.4307 151.078 31.5779C150.701 31.725 150.4 31.9329 150.183 32.1953C149.962 32.4576 149.853 32.7967 149.853 33.2125C149.853 33.8043 150.067 34.2521 150.499 34.5528C150.937 34.8599 151.488 35.0103 152.159 35.0103Z" fill="url(#paint3_linear_8893_17408)"/>
    <path d="M161.766 37.0991V23.4591H164.84V25.7783H165C165.284 24.9978 165.755 24.3836 166.41 23.9454C167.066 23.5039 167.85 23.2832 168.762 23.2832C169.686 23.2832 170.463 23.5071 171.1 23.955C171.737 24.4028 172.184 25.0106 172.443 25.7815H172.587C172.891 25.0234 173.4 24.4188 174.12 23.9646C174.839 23.5103 175.694 23.2864 176.682 23.2864C177.939 23.2864 178.963 23.6831 179.756 24.4764C180.549 25.2697 180.946 26.4277 180.946 27.9504V37.1055H177.725V28.4398C177.725 27.5953 177.501 26.9747 177.05 26.5812C176.602 26.1878 176.049 25.9894 175.399 25.9894C174.622 25.9894 174.017 26.2294 173.582 26.7124C173.147 27.1954 172.93 27.8192 172.93 28.5901V37.0959H169.779V28.3054C169.779 27.6017 169.568 27.0387 169.145 26.6196C168.72 26.2006 168.17 25.9894 167.488 25.9894C167.028 25.9894 166.606 26.1046 166.228 26.3381C165.851 26.5716 165.55 26.9011 165.323 27.3234C165.099 27.7456 164.984 28.2383 164.984 28.8013V37.0959H161.766V37.0991Z" fill="url(#paint4_linear_8893_17408)"/>
    <path d="M185.828 21.5232C185.319 21.5232 184.881 21.3536 184.513 21.0114C184.148 20.6723 183.963 20.2628 183.963 19.783C183.963 19.2968 184.148 18.8841 184.513 18.545C184.881 18.2059 185.319 18.0332 185.828 18.0332C186.343 18.0332 186.781 18.2027 187.146 18.545C187.51 18.8873 187.693 19.3 187.693 19.783C187.693 20.2628 187.51 20.6723 187.146 21.0114C186.781 21.3536 186.343 21.5232 185.828 21.5232ZM184.212 37.0985V23.4585H187.427V37.0985H184.212Z" fill="url(#paint5_linear_8893_17408)"/>
    <path d="M196.678 37.3639C195.315 37.3639 194.148 37.0632 193.175 36.4651C192.199 35.8669 191.451 35.0384 190.926 33.9827C190.402 32.9271 190.143 31.7083 190.143 30.3296C190.143 28.9445 190.408 27.7193 190.939 26.6573C191.473 25.5953 192.225 24.7668 193.201 24.1718C194.173 23.5768 195.328 23.2793 196.659 23.2793C197.765 23.2793 198.748 23.4808 199.602 23.8871C200.456 24.2933 201.137 24.8627 201.649 25.6017C202.158 26.3374 202.445 27.1979 202.519 28.18H199.448C199.323 27.5242 199.029 26.974 198.565 26.5326C198.101 26.0911 197.481 25.8704 196.707 25.8704C196.051 25.8704 195.472 26.0463 194.973 26.3982C194.477 26.7501 194.09 27.2555 193.815 27.9113C193.54 28.567 193.402 29.3572 193.402 30.272C193.402 31.2029 193.54 31.9994 193.812 32.6648C194.084 33.3302 194.467 33.842 194.96 34.2003C195.453 34.5585 196.035 34.7377 196.707 34.7377C197.18 34.7377 197.606 34.6481 197.98 34.4658C198.354 34.2866 198.671 34.0243 198.927 33.6788C199.179 33.3366 199.355 32.9175 199.451 32.4281H202.522C202.445 33.3941 202.161 34.2482 201.671 34.9904C201.179 35.7325 200.51 36.3147 199.666 36.7306C198.815 37.156 197.823 37.3639 196.678 37.3639Z" fill="url(#paint6_linear_8893_17408)"/>
    <path d="M215.947 27.0636L213.017 27.3835C212.934 27.0892 212.793 26.8077 212.588 26.5485C212.384 26.2862 212.109 26.0783 211.766 25.9184C211.424 25.7584 211.002 25.6785 210.506 25.6785C209.837 25.6785 209.278 25.8224 208.823 26.1135C208.372 26.4046 208.148 26.7789 208.152 27.2395C208.145 27.6362 208.292 27.9592 208.59 28.2088C208.887 28.4583 209.383 28.663 210.077 28.8229L212.403 29.322C213.692 29.6003 214.655 30.0417 215.285 30.6463C215.915 31.2509 216.232 32.041 216.238 33.0167C216.232 33.8772 215.982 34.6321 215.487 35.2847C214.994 35.9404 214.306 36.4491 213.433 36.8169C212.556 37.1848 211.549 37.3671 210.413 37.3671C208.743 37.3671 207.4 37.0153 206.383 36.3147C205.362 35.6141 204.758 34.6353 204.562 33.3813L207.697 33.0774C207.838 33.6948 208.142 34.1587 208.603 34.4721C209.063 34.7856 209.665 34.9424 210.404 34.9424C211.168 34.9424 211.782 34.7856 212.246 34.4721C212.713 34.1587 212.944 33.7716 212.944 33.3078C212.944 32.9175 212.793 32.5944 212.496 32.3385C212.195 32.0826 211.734 31.8875 211.107 31.7531L208.782 31.2637C207.473 30.9918 206.504 30.5311 205.877 29.8818C205.25 29.2356 204.94 28.4135 204.946 27.4186C204.94 26.5773 205.17 25.848 205.634 25.2306C206.101 24.6132 206.747 24.1334 207.579 23.7911C208.411 23.4488 209.37 23.2793 210.458 23.2793C212.057 23.2793 213.315 23.6216 214.239 24.2997C215.157 24.9843 215.727 25.9024 215.947 27.0636Z" fill="url(#paint7_linear_8893_17408)"/>
    <path d="M220.875 37.2941C220.337 37.2941 219.877 37.1054 219.489 36.7247C219.106 36.3441 218.914 35.8834 218.92 35.3396C218.914 34.8086 219.106 34.3512 219.489 33.9737C219.873 33.593 220.337 33.4043 220.875 33.4043C221.396 33.4043 221.85 33.593 222.237 33.9737C222.628 34.3512 222.823 34.8086 222.829 35.3396C222.823 35.7011 222.73 36.0306 222.551 36.3249C222.372 36.6224 222.135 36.8559 221.841 37.0318C221.543 37.2078 221.223 37.2941 220.875 37.2941Z" fill="#4140B0"/>
    <path d="M230.084 37.3742C229.217 37.3742 228.44 37.2207 227.752 36.9072C227.065 36.5969 226.518 36.1363 226.118 35.5253C225.718 34.9175 225.52 34.1626 225.52 33.2701C225.52 32.4992 225.663 31.8626 225.945 31.3604C226.23 30.8581 226.617 30.4551 227.106 30.1544C227.599 29.8505 228.155 29.6234 228.773 29.4666C229.39 29.3099 230.033 29.1947 230.695 29.1243C231.495 29.0412 232.144 28.9644 232.64 28.8972C233.136 28.83 233.501 28.7213 233.728 28.5773C233.955 28.4334 234.07 28.2063 234.07 27.8992V27.848C234.07 27.1794 233.872 26.6612 233.475 26.2933C233.078 25.9255 232.509 25.7431 231.761 25.7431C230.974 25.7431 230.35 25.9159 229.892 26.2582C229.435 26.6004 229.125 27.0067 228.965 27.4737L225.961 27.0483C226.198 26.2198 226.588 25.5256 227.135 24.9658C227.679 24.406 228.344 23.987 229.134 23.7055C229.921 23.424 230.791 23.2832 231.745 23.2832C232.4 23.2832 233.056 23.36 233.705 23.5135C234.358 23.6671 234.953 23.9198 235.49 24.2717C236.028 24.6235 236.46 25.1002 236.789 25.7048C237.119 26.3093 237.282 27.0643 237.282 27.9695V37.0959H234.192V35.2214H234.086C233.891 35.6021 233.619 35.9539 233.264 36.2834C232.912 36.6129 232.471 36.8752 231.94 37.0735C231.412 37.2751 230.794 37.3742 230.084 37.3742ZM230.916 35.0103C231.562 35.0103 232.122 34.8823 232.595 34.6232C233.069 34.3641 233.434 34.0218 233.693 33.5964C233.949 33.1709 234.08 32.7071 234.08 32.2017V30.5958C233.977 30.679 233.808 30.7558 233.568 30.8261C233.328 30.8965 233.059 30.9573 232.765 31.0117C232.467 31.0661 232.176 31.1108 231.885 31.1524C231.594 31.194 231.341 31.2292 231.13 31.258C230.651 31.322 230.222 31.4307 229.841 31.5779C229.461 31.725 229.163 31.9329 228.942 32.1953C228.725 32.4576 228.613 32.7967 228.613 33.2125C228.613 33.8043 228.827 34.2521 229.262 34.5528C229.7 34.8599 230.251 35.0103 230.916 35.0103Z" fill="#4140B0"/>
    <path d="M242.14 21.5232C241.632 21.5232 241.193 21.3536 240.826 21.0114C240.461 20.6723 240.275 20.2628 240.275 19.783C240.275 19.2968 240.461 18.8841 240.826 18.545C241.193 18.2059 241.632 18.0332 242.14 18.0332C242.655 18.0332 243.094 18.2027 243.458 18.545C243.823 18.8873 244.005 19.3 244.005 19.783C244.005 20.2628 243.823 20.6723 243.458 21.0114C243.094 21.3536 242.655 21.5232 242.14 21.5232ZM240.525 37.0985V23.4585H243.74V37.0985H240.525Z" fill="#4140B0"/>
    <path d="M51.2817 25.9311C50.4628 25.6912 49.6023 26.171 49.372 26.99C48.4795 29.8274 46.9601 35.1919 44.3306 36.5098C44.0843 36.5834 43.9339 36.577 43.6972 36.5034C43.2142 36.3659 42.4785 35.7197 41.8803 34.9168C38.9853 31.0877 38.4063 26.1103 35.9559 21.9805C32.5076 16.0722 27.0823 16.8815 23.7043 22.2332C22.2712 24.3573 21.2411 26.9388 20.3678 29.178C19.5425 31.2093 18.5509 32.54 17.073 33.3941C15.6815 34.1938 15.2432 36.0172 16.1229 37.3607C16.9738 38.6722 18.7332 39.0369 20.0352 38.1732C22.5687 36.6186 24.4208 33.7716 25.3165 31.1005C26.1066 28.8229 26.7432 26.8588 27.9044 24.9011C28.5698 23.8455 29.2127 22.9018 30.102 22.5691C30.198 22.5499 30.2811 22.5371 30.5019 22.6331C30.9497 22.8186 31.6375 23.5224 32.1813 24.3573C33.416 26.1774 34.187 28.471 35.0507 30.5375C36.0839 32.9303 37.1971 35.2175 38.8893 37.3031C43.0542 42.3861 47.6414 40.2525 49.967 34.9264C51.0642 32.5592 51.7488 30.1664 52.3406 27.7705C52.5421 26.9804 52.0751 26.1614 51.2817 25.9311Z" fill="url(#paint8_linear_8893_17408)"/>
    <path d="M51.7673 19.8663C50.6893 19.9015 49.8448 20.8068 49.88 21.8848C49.9152 22.9628 50.8204 23.8073 51.8985 23.7721C52.9765 23.7369 53.821 22.8316 53.7858 21.7536C53.7506 20.6756 52.8453 19.8311 51.7673 19.8663Z" fill="url(#paint9_linear_8893_17408)"/>
    <path d="M41.5022 44.1208C40.6513 44.9173 39.7236 45.6403 38.748 46.2736C37.8587 46.8494 37.606 48.0394 38.1818 48.9287C38.5496 49.4949 39.1638 49.8052 39.794 49.8052C40.1523 49.8052 40.5137 49.706 40.8368 49.4949C42.0012 48.74 43.108 47.8763 44.1253 46.9262C44.8994 46.2033 44.941 44.9877 44.2148 44.2136C43.4887 43.4362 42.2731 43.3979 41.5022 44.1208Z" fill="#4140B0"/>
    <path d="M33.7421 48.5951C31.8995 49.1517 29.9834 49.4332 28.0385 49.4332C26.9796 49.4332 26.1191 50.2937 26.1191 51.3525C26.1191 52.4114 26.9796 53.2719 28.0385 53.2719C30.3576 53.2719 32.6512 52.936 34.8521 52.2706C35.8661 51.9635 36.4419 50.8919 36.1348 49.8779C35.8277 48.8638 34.7593 48.2912 33.7421 48.5951Z" fill="#4140B0"/>
    <path d="M46.2116 14.735C44.1035 12.1791 41.4229 10.0551 38.4607 8.58997C37.5106 8.11974 36.359 8.51 35.8888 9.46006C35.4186 10.4101 35.8088 11.5617 36.7589 12.032C39.238 13.2571 41.4836 15.0357 43.2494 17.1789C43.6301 17.6396 44.1771 17.8763 44.7305 17.8763C45.1591 17.8763 45.5942 17.7323 45.9525 17.438C46.7714 16.7631 46.8865 15.5539 46.2116 14.735Z" fill="#4140B0"/>
    <path d="M21.9675 48.4839C13.8071 45.8448 8.32107 38.3051 8.32107 29.7193C8.32107 18.8495 17.166 10.0047 28.0357 10.0047C29.2065 10.0047 30.3773 10.107 31.5193 10.3118C31.6345 10.3309 31.7464 10.3405 31.8584 10.3405C32.7701 10.3405 33.5794 9.68798 33.7457 8.7571C33.9312 7.71427 33.2371 6.71623 32.1911 6.53069C30.8283 6.28758 29.4304 6.16602 28.0357 6.16602C15.0483 6.16602 4.48242 16.7319 4.48242 29.7193C4.48242 39.9749 11.0337 48.9829 20.7839 52.1338C20.979 52.1978 21.1805 52.2266 21.3757 52.2266C22.185 52.2266 22.9399 51.7084 23.2022 50.8958C23.5317 49.8914 22.9783 48.807 21.9675 48.4839Z" fill="#4140B0"/>
    <defs>
      <linearGradient id="paint0_linear_8893_17408" x1="101.031" y1="28.0248" x2="216.152" y2="29.214" gradientUnits="userSpaceOnUse">
        <stop stop-color="#9695F8"/>
        <stop offset="1" stop-color="#D9BCF8"/>
      </linearGradient>
      <linearGradient id="paint1_linear_8893_17408" x1="100.982" y1="32.5885" x2="216.103" y2="33.7778" gradientUnits="userSpaceOnUse">
        <stop stop-color="#9695F8"/>
        <stop offset="1" stop-color="#D9BCF8"/>
      </linearGradient>
      <linearGradient id="paint2_linear_8893_17408" x1="101.011" y1="29.8306" x2="216.133" y2="31.0199" gradientUnits="userSpaceOnUse">
        <stop stop-color="#9695F8"/>
        <stop offset="1" stop-color="#D9BCF8"/>
      </linearGradient>
      <linearGradient id="paint3_linear_8893_17408" x1="101.012" y1="29.7994" x2="216.134" y2="30.9886" gradientUnits="userSpaceOnUse">
        <stop stop-color="#9695F8"/>
        <stop offset="1" stop-color="#D9BCF8"/>
      </linearGradient>
      <linearGradient id="paint4_linear_8893_17408" x1="101.015" y1="29.4854" x2="216.137" y2="30.6747" gradientUnits="userSpaceOnUse">
        <stop stop-color="#9695F8"/>
        <stop offset="1" stop-color="#D9BCF8"/>
      </linearGradient>
      <linearGradient id="paint5_linear_8893_17408" x1="101.044" y1="26.698" x2="216.167" y2="27.8873" gradientUnits="userSpaceOnUse">
        <stop stop-color="#9695F8"/>
        <stop offset="1" stop-color="#D9BCF8"/>
      </linearGradient>
      <linearGradient id="paint6_linear_8893_17408" x1="101.017" y1="29.3346" x2="216.139" y2="30.5239" gradientUnits="userSpaceOnUse">
        <stop stop-color="#9695F8"/>
        <stop offset="1" stop-color="#D9BCF8"/>
      </linearGradient>
      <linearGradient id="paint7_linear_8893_17408" x1="101.018" y1="29.1924" x2="216.14" y2="30.3817" gradientUnits="userSpaceOnUse">
        <stop stop-color="#9695F8"/>
        <stop offset="1" stop-color="#D9BCF8"/>
      </linearGradient>
      <linearGradient id="paint8_linear_8893_17408" x1="17.1445" y1="27.0228" x2="51.4658" y2="32.9183" gradientUnits="userSpaceOnUse">
        <stop stop-color="#9695F8"/>
        <stop offset="1" stop-color="#D9BCF8"/>
      </linearGradient>
      <linearGradient id="paint9_linear_8893_17408" x1="49.9065" y1="21.4977" x2="53.758" y2="22.1593" gradientUnits="userSpaceOnUse">
        <stop stop-color="#9695F8"/>
        <stop offset="1" stop-color="#D9BCF8"/>
      </linearGradient>
    </defs>
  </svg>