<svg width="39" height="37" viewBox="0 0 39 37" fill="none" xmlns="http://www.w3.org/2000/svg">
<g id="Design #2 Icon 2" clip-path="url(#clip0_1750_93038)">
<g id="Group">
<path id="Vector" d="M36.7574 15.525C36.1131 15.3385 35.4385 15.7116 35.2585 16.358C34.5578 18.5879 33.3626 22.8005 31.2997 23.8352C31.1066 23.8916 30.9873 23.8873 30.8008 23.8309C30.4212 23.7224 29.8442 23.217 29.3735 22.5836C27.098 19.5749 26.6446 15.666 24.7205 12.4209C22.0112 7.78101 17.7509 8.41658 15.098 12.6205C13.9722 14.2886 13.163 16.3168 12.4776 18.076C11.829 19.6704 11.0502 20.7159 9.88972 21.3884C8.79862 22.0153 8.45371 23.4491 9.14352 24.5033C9.81163 25.5337 11.1934 25.8201 12.2173 25.1411C14.2086 23.9198 15.662 21.6834 16.3648 19.5879C16.9873 17.7984 17.4863 16.2561 18.3973 14.7181C18.9201 13.8873 19.4233 13.1498 20.124 12.8873C20.1999 12.8721 20.2628 12.8613 20.4385 12.9372C20.7899 13.0825 21.3301 13.6357 21.7574 14.2908C22.727 15.7203 23.3322 17.5207 24.0112 19.1454C24.8225 21.024 25.6967 22.8222 27.0264 24.46C30.2975 28.4535 33.9027 26.7767 35.7292 22.5945C36.5925 20.7355 37.1283 18.8548 37.5947 16.9719C37.7487 16.3472 37.3843 15.7051 36.7596 15.5229L36.7574 15.525Z" fill="url(#paint0_linear_1750_93038)"/>
<path id="Vector_2" d="M37.1387 10.7616C36.2927 10.7898 35.6289 11.5013 35.6571 12.3473C35.6853 13.1933 36.3946 13.8571 37.2428 13.8289C38.0888 13.8007 38.7526 13.0913 38.7244 12.2432C38.6962 11.3972 37.9868 10.7334 37.1387 10.7616Z" fill="url(#paint1_linear_1750_93038)"/>
</g>
<g id="Group_2">
<path id="Vector_3" d="M29.0759 29.8134C28.4078 30.4381 27.679 31.0086 26.9132 31.5053C26.2148 31.9587 26.0152 32.8914 26.4686 33.5899C26.7571 34.0346 27.2408 34.2776 27.7354 34.2776C28.0174 34.2776 28.3015 34.1995 28.5532 34.0346C29.4686 33.4424 30.3362 32.7613 31.1345 32.0151C31.7419 31.4468 31.7744 30.4923 31.2061 29.8849C30.6378 29.2754 29.6833 29.245 29.0759 29.8134Z" fill="#4140B0"/>
<path id="Vector_4" d="M22.9831 33.3273C21.5362 33.7633 20.0286 33.9846 18.5037 33.9846C17.6707 33.9846 16.9961 34.6592 16.9961 35.4922C16.9961 36.3252 17.6707 36.9998 18.5037 36.9998C20.3258 36.9998 22.1262 36.7351 23.8551 36.2124C24.6534 35.9716 25.1024 35.1299 24.8638 34.3338C24.623 33.5377 23.7813 33.0866 22.9852 33.3252L22.9831 33.3273Z" fill="#4140B0"/>
<path id="Vector_5" d="M32.7765 6.73097C31.1193 4.72447 29.0151 3.05418 26.6876 1.90451C25.9414 1.53575 25.0368 1.8416 24.6681 2.58781C24.2993 3.33401 24.6052 4.23857 25.3514 4.60733C27.2993 5.57045 29.0629 6.96742 30.449 8.64854C30.7461 9.0108 31.1778 9.19735 31.6117 9.19735C31.9501 9.19735 32.2906 9.08455 32.5704 8.85245C33.2125 8.32316 33.3036 7.37306 32.7743 6.73097H32.7765Z" fill="#4140B0"/>
<path id="Vector_6" d="M13.7332 33.2388C7.32321 31.1672 3.01518 25.2431 3.01518 18.5012C3.01518 9.96111 9.96095 3.01533 18.5011 3.01533C19.4187 3.01533 20.3406 3.0956 21.2364 3.25612C21.3254 3.2713 21.4143 3.27998 21.5033 3.27998C22.2213 3.27998 22.8547 2.76588 22.9848 2.03703C23.1302 1.21707 22.5835 0.43399 21.7657 0.288654C20.6941 0.0977645 19.5965 0.00231976 18.5011 0.00231976C8.29935 0.000150564 0 8.2995 0 18.5012C0 26.5576 5.14534 33.6314 12.8048 36.1086C12.9588 36.1585 13.115 36.1824 13.269 36.1824C13.9046 36.1824 14.4967 35.7767 14.7028 35.139C14.9588 34.3472 14.5249 33.4969 13.7332 33.2409V33.2388Z" fill="#4140B0"/>
</g>
</g>
<defs>
<linearGradient id="paint0_linear_1750_93038" x1="9.94139" y1="16.3778" x2="36.8977" y2="21.0098" gradientUnits="userSpaceOnUse">
<stop stop-color="#9695F8"/>
<stop offset="1" stop-color="#D9BCF8"/>
</linearGradient>
<linearGradient id="paint1_linear_1750_93038" x1="35.6741" y1="12.0398" x2="38.6992" y2="12.5596" gradientUnits="userSpaceOnUse">
<stop stop-color="#9695F8"/>
<stop offset="1" stop-color="#D9BCF8"/>
</linearGradient>
<clipPath id="clip0_1750_93038">
<rect width="38.7267" height="37" fill="white"/>
</clipPath>
</defs>
</svg>
