<svg width="34" height="33" viewBox="0 0 34 33" fill="none" xmlns="http://www.w3.org/2000/svg">
<rect x="0.983887" y="0.264893" width="32.4761" height="32.4761" rx="16.2381" fill="#FEF3F2"/>
<path fill-rule="evenodd" clip-rule="evenodd" d="M15.0565 9.06055L15.0286 9.06055C14.4839 9.06054 14.0344 9.06053 13.6683 9.09045C13.288 9.12152 12.9384 9.18821 12.61 9.35552C12.1008 9.61499 11.6868 10.029 11.4273 10.5382C11.26 10.8666 11.1933 11.2162 11.1622 11.5965C11.1323 11.9627 11.1323 12.4122 11.1323 12.9568L11.1323 12.9847V20.0212L11.1323 20.0492C11.1323 20.5938 11.1323 21.0433 11.1622 21.4095C11.1933 21.7898 11.26 22.1394 11.4273 22.4677C11.6868 22.977 12.1008 23.391 12.61 23.6505C12.9384 23.8178 13.288 23.8845 13.6683 23.9155C14.0344 23.9454 14.4839 23.9454 15.0285 23.9454H15.0286H15.0565H16.4884C16.4367 23.6375 16.4098 23.3211 16.4098 22.9984C16.4098 22.8619 16.4146 22.7264 16.4241 22.5923H15.0565C14.477 22.5923 14.083 22.5917 13.7785 22.5669C13.4819 22.5426 13.3302 22.4987 13.2243 22.4448C12.9697 22.315 12.7627 22.108 12.633 21.8534C12.5791 21.7476 12.5351 21.5959 12.5109 21.2993C12.486 20.9948 12.4855 20.6008 12.4855 20.0212V12.9847C12.4855 12.4052 12.486 12.0112 12.5109 11.7067C12.5351 11.4101 12.5791 11.2584 12.633 11.1526C12.7627 10.8979 12.9697 10.6909 13.2243 10.5612C13.3302 10.5073 13.4819 10.4634 13.7785 10.4391C14.083 10.4142 14.477 10.4137 15.0565 10.4137H17.8982V12.7142L17.8982 12.7357C17.8982 12.9065 17.8981 13.0728 17.9096 13.2136C17.9223 13.3683 17.9521 13.5508 18.0457 13.7344C18.1754 13.9891 18.3824 14.1961 18.637 14.3258C18.8207 14.4194 19.0032 14.4492 19.1578 14.4618C19.2987 14.4733 19.465 14.4733 19.6357 14.4733L19.6573 14.4733H21.9577V17.3167C22.0027 17.3156 22.0479 17.3151 22.0931 17.3151C22.5111 17.3151 22.9186 17.3602 23.3109 17.4459V13.7966C23.3109 13.6172 23.2396 13.4451 23.1127 13.3182L19.0532 9.25871C18.9263 9.13183 18.7542 9.06055 18.5748 9.06055H15.0565ZM21.0009 13.1201L19.2514 11.3706V12.7142C19.2514 12.9148 19.2519 13.0246 19.2583 13.1034L19.2591 13.1124L19.268 13.1131C19.3469 13.1196 19.4567 13.1201 19.6573 13.1201H21.0009Z" fill="#B42318"/>
<path d="M24.2584 25.8399C24.2584 25.3678 24.2584 25.1317 24.2001 24.9396C24.0689 24.5072 23.7305 24.1687 23.298 24.0375C23.1059 23.9793 22.8699 23.9793 22.3978 23.9793H20.7063C20.2342 23.9793 19.9981 23.9793 19.8061 24.0375C19.3736 24.1687 19.0352 24.5072 18.904 24.9396C18.8457 25.1317 18.8457 25.3678 18.8457 25.8399M23.0744 21.2729C23.0744 22.1137 22.3928 22.7952 21.552 22.7952C20.7113 22.7952 20.0297 22.1137 20.0297 21.2729C20.0297 20.4322 20.7113 19.7506 21.552 19.7506C22.3928 19.7506 23.0744 20.4322 23.0744 21.2729Z" stroke="#B42318" stroke-width="1.05547" stroke-linecap="round" stroke-linejoin="round"/>
</svg>
