<svg xmlns="http://www.w3.org/2000/svg" width="25" height="24" viewBox="0 0 25 24" fill="none">
    <path d="M23.4464 9.2525L21.8686 7.67556C21.7858 7.5927 21.6875 7.52696 21.5793 7.48211C21.4711 7.43726 21.3551 7.41418 21.2379 7.41418C21.1208 7.41418 21.0048 7.43726 20.8965 7.48211C20.7883 7.52696 20.69 7.5927 20.6072 7.67556L16.8226 3.89096C16.9055 3.80816 16.9712 3.70983 17.016 3.60161C17.0609 3.49338 17.084 3.37738 17.084 3.26023C17.084 3.14308 17.0609 3.02708 17.016 2.91886C16.9712 2.81064 16.9055 2.71231 16.8226 2.6295L15.2457 1.05179C14.0277 -0.164398 12.0474 -0.164398 10.8294 1.05179L8.3064 3.57571C7.7166 4.16551 7.39164 4.94958 7.39164 5.78338C7.39164 6.61717 7.7166 7.40124 8.3064 7.99104L9.88334 9.56798C10.0575 9.74216 10.2858 9.82937 10.5141 9.82937C10.7423 9.82937 10.9706 9.74228 11.1448 9.56798L1.68251 19.0303C1.43316 19.2783 1.23548 19.5734 1.10089 19.8983C0.96631 20.2233 0.897502 20.5717 0.898447 20.9235C0.898447 21.6378 1.17723 22.3105 1.68251 22.8158C2.18779 23.321 2.86044 23.5998 3.57481 23.5998C4.29007 23.5998 4.96262 23.321 5.46711 22.8158L13.6678 14.615C14.0163 14.2666 14.0163 13.702 13.6678 13.3536C13.3193 13.0052 12.7547 13.0051 12.4064 13.3536L4.20476 21.5541C3.86932 21.8912 3.28298 21.8912 2.94408 21.5541C2.86111 21.4713 2.7953 21.373 2.75044 21.2648C2.70558 21.1566 2.68256 21.0405 2.68269 20.9233C2.68269 20.6846 2.77502 20.4616 2.94408 20.2926L12.4064 10.8295L14.9303 13.3535C14.8474 13.4363 14.7817 13.5346 14.7368 13.6428C14.692 13.7511 14.6689 13.8671 14.6689 13.9842C14.6689 14.1013 14.692 14.2174 14.7368 14.3256C14.7817 14.4338 14.8474 14.5321 14.9303 14.6149L16.5072 16.1919C17.097 16.7817 17.8811 17.1066 18.7149 17.1066C19.5487 17.1066 20.3328 16.7817 20.9226 16.1919L23.4465 13.6688C24.6625 12.4508 24.6625 10.4705 23.4464 9.2525ZM9.56797 6.72947C9.04608 6.20758 9.04608 5.35906 9.56797 4.83717L12.091 2.31325C12.2153 2.18892 12.363 2.09036 12.5255 2.02323C12.688 1.9561 12.8622 1.92171 13.038 1.92205C13.3803 1.92205 13.7228 2.05275 13.9841 2.31325L14.9302 3.26023L10.514 7.67556L9.56797 6.72947ZM12.4065 8.30652L15.5609 5.15253L19.3456 8.93725L16.1916 12.0917L12.4065 8.30652ZM22.1848 12.4072L19.6609 14.9302C19.1399 15.4512 18.2896 15.4512 17.7686 14.9302L16.8225 13.9841L21.2378 9.56786L22.1848 10.514C22.7058 11.0359 22.7058 11.8854 22.1848 12.4072Z" fill="#7F56D9"/>
  </svg>