<svg xmlns="http://www.w3.org/2000/svg" width="24" height="24" viewBox="0 0 24 24" fill="none">
    <path d="M22 10H2M22 11V8.2C22 7.0799 22 6.51984 21.782 6.09202C21.5903 5.7157 21.2843 5.40974 20.908 5.21799C20.4802 5 19.9201 5 18.8 5H5.2C4.0799 5 3.51984 5 3.09202 5.21799C2.7157 5.40973 2.40973 5.71569 2.21799 6.09202C2 6.51984 2 7.0799 2 8.2V15.8C2 16.9201 2 17.4802 2.21799 17.908C2.40973 18.2843 2.71569 18.5903 3.09202 18.782C3.51984 19 4.07989 19 5.2 19H11.5" stroke="#7F56D9" stroke-width="2" stroke-linecap="round" stroke-linejoin="round"/>
    <path fill-rule="evenodd" clip-rule="evenodd" d="M19.4976 16.7119C18.7978 15.9328 17.6309 15.7232 16.7541 16.4367C15.8774 17.1501 15.7539 18.343 16.4425 19.1868C17.131 20.0306 19.4976 22 19.4976 22C19.4976 22 21.8642 20.0306 22.5527 19.1868C23.2413 18.343 23.1329 17.1426 22.2411 16.4367C21.3492 15.7307 20.1974 15.9328 19.4976 16.7119Z" stroke="#7F56D9" stroke-width="1.8" stroke-linecap="round" stroke-linejoin="round"/>
  </svg>