<svg width="35" height="34" viewBox="0 0 35 34" fill="none" xmlns="http://www.w3.org/2000/svg">
<path d="M15.3746 12.7532C15.6242 12.0436 16.1168 11.4453 16.7653 11.0641C17.4138 10.683 18.1763 10.5437 18.9177 10.6709C19.659 10.798 20.3315 11.1835 20.8159 11.7589C21.3003 12.3344 21.5654 13.0627 21.5643 13.8149C21.5643 15.9383 18.3792 17 18.3792 17M18.4202 21.25H18.4344M18.2079 28.3333C24.8583 28.3333 30.2496 22.9421 30.2496 16.2917C30.2496 9.64124 24.8583 4.25 18.2079 4.25C11.5575 4.25 6.16622 9.64124 6.16622 16.2917C6.16622 17.6375 6.387 18.9318 6.79432 20.1402C6.94761 20.595 7.02425 20.8223 7.03807 20.997C7.05172 21.1695 7.04141 21.2905 6.99873 21.4582C6.95551 21.628 6.86009 21.8046 6.66927 22.1578L4.35209 26.4468C4.02156 27.0586 3.8563 27.3645 3.89329 27.6006C3.9255 27.8062 4.04653 27.9873 4.22421 28.0957C4.42822 28.2201 4.77406 28.1844 5.46573 28.1129L12.7205 27.3629C12.9402 27.3402 13.0501 27.3289 13.1502 27.3327C13.2487 27.3365 13.3182 27.3457 13.4142 27.3679C13.5119 27.3904 13.6346 27.4377 13.8802 27.5323C15.2233 28.0497 16.6824 28.3333 18.2079 28.3333Z" stroke="#475467" stroke-width="2.83333" stroke-linecap="round" stroke-linejoin="round"/>
</svg>
