<svg width="375" height="262" viewBox="0 0 375 262" fill="none" xmlns="http://www.w3.org/2000/svg">
<g filter="url(#filter0_d_6570_42827)">
<g clip-path="url(#clip0_6570_42827)">
<rect x="-5" y="10.8867" width="385" height="197.75" rx="13.125" fill="white"/>
<path d="M22.0512 36.6367V29.344H24.6507C25.2157 29.344 25.6845 29.4413 26.0572 29.636C26.4323 29.8306 26.7124 30.1001 26.8976 30.4443C27.0828 30.7862 27.1753 31.1814 27.1753 31.6301C27.1753 32.0764 27.0816 32.4693 26.894 32.8087C26.7089 33.1458 26.4287 33.4082 26.0537 33.5957C25.6809 33.7832 25.2121 33.877 24.6471 33.877H22.6779V32.9298H24.5474C24.9035 32.9298 25.1931 32.8788 25.4163 32.7767C25.6418 32.6746 25.8068 32.5263 25.9112 32.3316C26.0157 32.1369 26.0679 31.9031 26.0679 31.6301C26.0679 31.3547 26.0145 31.1161 25.9077 30.9143C25.8032 30.7126 25.6382 30.5583 25.4127 30.4514C25.1895 30.3422 24.8964 30.2876 24.5332 30.2876H23.1515V36.6367H22.0512ZM25.6513 33.3464L27.4531 36.6367H26.1997L24.4334 33.3464H25.6513ZM28.4288 36.6367V31.1672H29.4935V36.6367H28.4288ZM28.9665 30.3232C28.7813 30.3232 28.6223 30.2615 28.4893 30.1381C28.3587 30.0123 28.2935 29.8627 28.2935 29.6894C28.2935 29.5137 28.3587 29.3642 28.4893 29.2407C28.6223 29.1149 28.7813 29.052 28.9665 29.052C29.1516 29.052 29.3095 29.1149 29.4401 29.2407C29.573 29.3642 29.6395 29.5137 29.6395 29.6894C29.6395 29.8627 29.573 30.0123 29.4401 30.1381C29.3095 30.2615 29.1516 30.3232 28.9665 30.3232ZM35.0245 32.5025L34.0595 32.6734C34.0191 32.55 33.955 32.4325 33.8672 32.3209C33.7817 32.2093 33.6654 32.1179 33.5182 32.0467C33.371 31.9755 33.187 31.9399 32.9663 31.9399C32.6648 31.9399 32.4131 32.0075 32.2113 32.1429C32.0096 32.2758 31.9087 32.4479 31.9087 32.6592C31.9087 32.842 31.9763 32.9892 32.1116 33.1007C32.247 33.2123 32.4654 33.3037 32.7668 33.3749L33.6357 33.5743C34.139 33.6907 34.5141 33.8699 34.761 34.112C35.0078 34.3542 35.1313 34.6687 35.1313 35.0557C35.1313 35.3833 35.0363 35.6753 34.8464 35.9317C34.6589 36.1857 34.3966 36.3851 34.0595 36.5299C33.7247 36.6747 33.3366 36.7471 32.895 36.7471C32.2826 36.7471 31.7829 36.6165 31.3959 36.3554C31.009 36.0919 30.7716 35.718 30.6837 35.2337L31.7128 35.077C31.7769 35.3453 31.9087 35.5483 32.1081 35.686C32.3075 35.8213 32.5674 35.8889 32.8879 35.8889C33.2369 35.8889 33.5158 35.8165 33.7247 35.6717C33.9336 35.5245 34.0381 35.3453 34.0381 35.134C34.0381 34.9631 33.974 34.8195 33.8458 34.7031C33.72 34.5868 33.5265 34.499 33.2654 34.4396L32.3395 34.2367C31.8291 34.1203 31.4517 33.9352 31.2072 33.6812C30.965 33.4272 30.844 33.1055 30.844 32.7162C30.844 32.3933 30.9342 32.1108 31.1146 31.8687C31.295 31.6265 31.5443 31.4378 31.8624 31.3025C32.1805 31.1648 32.5449 31.096 32.9556 31.096C33.5467 31.096 34.012 31.2241 34.3515 31.4805C34.6909 31.7345 34.9153 32.0752 35.0245 32.5025ZM37.2812 34.7815L37.2741 33.4818H37.4592L39.6385 31.1672H40.9133L38.4278 33.8022H38.2604L37.2812 34.7815ZM36.3019 36.6367V29.344H37.3666V36.6367H36.3019ZM39.756 36.6367L37.7975 34.0373L38.5311 33.293L41.0629 36.6367H39.756ZM44.6229 36.6367V29.344H45.7232V32.5132H49.3589V29.344H50.4628V36.6367H49.3589V33.4568H45.7232V36.6367H44.6229ZM54.337 36.7471C53.7981 36.7471 53.334 36.632 52.9447 36.4017C52.5578 36.1691 52.2586 35.8426 52.0474 35.4225C51.8384 34.9999 51.734 34.5049 51.734 33.9376C51.734 33.3773 51.8384 32.8835 52.0474 32.4562C52.2586 32.0289 52.553 31.6954 52.9305 31.4556C53.3103 31.2158 53.7542 31.096 54.2622 31.096C54.5708 31.096 54.87 31.147 55.1596 31.2491C55.4492 31.3512 55.7091 31.5114 55.9394 31.7298C56.1697 31.9482 56.3513 32.2319 56.4842 32.5809C56.6172 32.9274 56.6836 33.3488 56.6836 33.845V34.2224H52.3358V33.4248H55.6403C55.6403 33.1447 55.5833 32.8966 55.4694 32.6806C55.3554 32.4622 55.1952 32.29 54.9887 32.1642C54.7845 32.0384 54.5447 31.9755 54.2694 31.9755C53.9702 31.9755 53.7091 32.0491 53.486 32.1963C53.2652 32.3411 53.0943 32.531 52.9732 32.766C52.8545 32.9987 52.7951 33.2515 52.7951 33.5245V34.1476C52.7951 34.5132 52.8592 34.8242 52.9874 35.0806C53.118 35.337 53.2996 35.5328 53.5323 35.6682C53.7649 35.8011 54.0367 35.8676 54.3477 35.8676C54.5495 35.8676 54.7335 35.8391 54.8996 35.7821C55.0658 35.7228 55.2094 35.6349 55.3305 35.5186C55.4516 35.4023 55.5442 35.2586 55.6083 35.0877L56.616 35.2693C56.5353 35.5661 56.3905 35.826 56.1816 36.0492C55.975 36.2699 55.7151 36.4421 55.4017 36.5655C55.0907 36.6866 54.7358 36.7471 54.337 36.7471ZM59.4567 36.7578C59.1101 36.7578 58.7967 36.6937 58.5166 36.5655C58.2365 36.4349 58.0145 36.2462 57.8507 35.9993C57.6893 35.7524 57.6086 35.4498 57.6086 35.0913C57.6086 34.7827 57.6679 34.5287 57.7866 34.3293C57.9053 34.1298 58.0656 33.972 58.2674 33.8557C58.4691 33.7393 58.6947 33.6515 58.9439 33.5921C59.1932 33.5328 59.4472 33.4877 59.706 33.4568C60.0336 33.4188 60.2995 33.388 60.5036 33.3642C60.7078 33.3381 60.8561 33.2966 60.9487 33.2396C61.0413 33.1826 61.0876 33.0901 61.0876 32.9619V32.9369C61.0876 32.626 60.9998 32.385 60.8241 32.2141C60.6508 32.0432 60.392 31.9577 60.0478 31.9577C59.6893 31.9577 59.4069 32.0372 59.2003 32.1963C58.9962 32.353 58.8549 32.5274 58.7766 32.7197L57.776 32.4918C57.8947 32.1595 58.068 31.8912 58.2958 31.6871C58.5261 31.4805 58.7908 31.331 59.0899 31.2384C59.389 31.1434 59.7036 31.096 60.0336 31.096C60.252 31.096 60.4834 31.1221 60.7279 31.1743C60.9748 31.2241 61.2051 31.3167 61.4188 31.452C61.6348 31.5874 61.8116 31.7808 61.9493 32.0325C62.087 32.2817 62.1559 32.6058 62.1559 33.0046V36.6367H61.1161V35.8889H61.0734C61.0045 36.0266 60.9012 36.1619 60.7636 36.2949C60.6259 36.4278 60.449 36.5382 60.233 36.626C60.017 36.7139 59.7582 36.7578 59.4567 36.7578ZM59.6882 35.9032C59.9825 35.9032 60.2342 35.845 60.4431 35.7287C60.6544 35.6124 60.8146 35.4604 60.9238 35.2729C61.0354 35.083 61.0912 34.88 61.0912 34.664V33.9589C61.0532 33.9969 60.9796 34.0325 60.8704 34.0657C60.7636 34.0966 60.6413 34.1239 60.5036 34.1476C60.3659 34.169 60.2318 34.1892 60.1012 34.2082C59.9707 34.2248 59.8615 34.239 59.7736 34.2509C59.5671 34.277 59.3784 34.3209 59.2074 34.3827C59.0389 34.4444 58.9036 34.5334 58.8015 34.6497C58.7018 34.7637 58.6519 34.9156 58.6519 35.1055C58.6519 35.369 58.7493 35.5684 58.9439 35.7038C59.1386 35.8367 59.3867 35.9032 59.6882 35.9032ZM66.1272 31.1672V32.0218H63.1396V31.1672H66.1272ZM63.9408 29.8568H65.0055V35.0308C65.0055 35.2373 65.0363 35.3928 65.0981 35.4972C65.1598 35.5993 65.2393 35.6693 65.3366 35.7073C65.4363 35.7429 65.5444 35.7607 65.6607 35.7607C65.7461 35.7607 65.8209 35.7548 65.885 35.7429C65.9491 35.7311 65.999 35.7216 66.0346 35.7144L66.2269 36.594C66.1651 36.6177 66.0773 36.6415 65.9634 36.6652C65.8494 36.6913 65.707 36.7056 65.5361 36.7079C65.2559 36.7127 64.9948 36.6628 64.7527 36.5584C64.5105 36.4539 64.3147 36.2925 64.1651 36.0741C64.0155 35.8557 63.9408 35.5815 63.9408 35.2515V29.8568ZM67.3049 36.6367V31.1672H68.3269V32.0574H68.3946C68.5085 31.7559 68.6949 31.5209 68.9536 31.3523C69.2124 31.1814 69.5222 31.096 69.883 31.096C70.2486 31.096 70.5548 31.1814 70.8017 31.3523C71.051 31.5233 71.235 31.7583 71.3537 32.0574H71.4107C71.5412 31.7654 71.7489 31.5328 72.0338 31.3595C72.3187 31.1838 72.6582 31.096 73.0522 31.096C73.5484 31.096 73.9531 31.2514 74.2665 31.5624C74.5822 31.8734 74.7401 32.3423 74.7401 32.969V36.6367H73.6754V33.0687C73.6754 32.6984 73.5745 32.4301 73.3727 32.2639C73.1709 32.0978 72.93 32.0147 72.6498 32.0147C72.3033 32.0147 72.0338 32.1215 71.8415 32.3351C71.6492 32.5464 71.5531 32.8182 71.5531 33.1506V36.6367H70.4919V33.001C70.4919 32.7043 70.3994 32.4657 70.2142 32.2853C70.029 32.1049 69.7881 32.0147 69.4913 32.0147C69.2895 32.0147 69.1032 32.0681 68.9323 32.1749C68.7637 32.2794 68.6272 32.4254 68.5228 32.6129C68.4207 32.8004 68.3696 33.0177 68.3696 33.2645V36.6367H67.3049ZM77.7589 36.7578C77.4123 36.7578 77.0989 36.6937 76.8188 36.5655C76.5386 36.4349 76.3167 36.2462 76.1529 35.9993C75.9915 35.7524 75.9107 35.4498 75.9107 35.0913C75.9107 34.7827 75.9701 34.5287 76.0888 34.3293C76.2075 34.1298 76.3677 33.972 76.5695 33.8557C76.7713 33.7393 76.9968 33.6515 77.2461 33.5921C77.4953 33.5328 77.7494 33.4877 78.0081 33.4568C78.3357 33.4188 78.6016 33.388 78.8058 33.3642C79.0099 33.3381 79.1583 33.2966 79.2509 33.2396C79.3435 33.1826 79.3897 33.0901 79.3897 32.9619V32.9369C79.3897 32.626 79.3019 32.385 79.1262 32.2141C78.9529 32.0432 78.6942 31.9577 78.35 31.9577C77.9915 31.9577 77.709 32.0372 77.5025 32.1963C77.2983 32.353 77.1571 32.5274 77.0787 32.7197L76.0781 32.4918C76.1968 32.1595 76.3701 31.8912 76.598 31.6871C76.8283 31.4805 77.093 31.331 77.3921 31.2384C77.6912 31.1434 78.0057 31.096 78.3357 31.096C78.5541 31.096 78.7856 31.1221 79.0301 31.1743C79.277 31.2241 79.5073 31.3167 79.7209 31.452C79.9369 31.5874 80.1138 31.7808 80.2515 32.0325C80.3892 32.2817 80.458 32.6058 80.458 33.0046V36.6367H79.4182V35.8889H79.3755C79.3067 36.0266 79.2034 36.1619 79.0657 36.2949C78.928 36.4278 78.7512 36.5382 78.5351 36.626C78.3191 36.7139 78.0603 36.7578 77.7589 36.7578ZM77.9903 35.9032C78.2847 35.9032 78.5363 35.845 78.7452 35.7287C78.9565 35.6124 79.1167 35.4604 79.2259 35.2729C79.3375 35.083 79.3933 34.88 79.3933 34.664V33.9589C79.3553 33.9969 79.2817 34.0325 79.1725 34.0657C79.0657 34.0966 78.9434 34.1239 78.8058 34.1476C78.6681 34.169 78.5339 34.1892 78.4034 34.2082C78.2728 34.2248 78.1636 34.239 78.0758 34.2509C77.8692 34.277 77.6805 34.3209 77.5096 34.3827C77.341 34.4444 77.2057 34.5334 77.1036 34.6497C77.0039 34.7637 76.9541 34.9156 76.9541 35.1055C76.9541 35.369 77.0514 35.5684 77.2461 35.7038C77.4407 35.8367 77.6888 35.9032 77.9903 35.9032ZM81.8761 38.6878V31.1672H82.9159V32.0538H83.005C83.0667 31.9399 83.1557 31.8081 83.272 31.6586C83.3883 31.509 83.5498 31.3785 83.7563 31.2669C83.9628 31.1529 84.2358 31.096 84.5753 31.096C85.0169 31.096 85.4109 31.2075 85.7575 31.4307C86.1041 31.6538 86.3759 31.9755 86.573 32.3957C86.7724 32.8159 86.8721 33.3215 86.8721 33.9126C86.8721 34.5037 86.7736 35.0106 86.5765 35.4331C86.3795 35.8533 86.1089 36.1774 85.7647 36.4053C85.4204 36.6308 85.0275 36.7435 84.586 36.7435C84.2536 36.7435 83.9818 36.6878 83.7705 36.5762C83.5616 36.4646 83.3978 36.334 83.2791 36.1845C83.1604 36.0349 83.069 35.902 83.005 35.7857H82.9409V38.6878H81.8761ZM82.9195 33.9019C82.9195 34.2865 82.9753 34.6236 83.0869 34.9132C83.1984 35.2029 83.3599 35.4296 83.5711 35.5934C83.7824 35.7548 84.0412 35.8355 84.3474 35.8355C84.6655 35.8355 84.9314 35.7512 85.1451 35.5827C85.3587 35.4118 85.5201 35.1803 85.6293 34.8883C85.7409 34.5963 85.7967 34.2675 85.7967 33.9019C85.7967 33.5411 85.7421 33.2171 85.6329 32.9298C85.5261 32.6426 85.3646 32.4159 85.1486 32.2497C84.935 32.0835 84.6679 32.0004 84.3474 32.0004C84.0388 32.0004 83.7777 32.08 83.564 32.239C83.3527 32.3981 83.1925 32.62 83.0833 32.9049C82.9741 33.1898 82.9195 33.5221 82.9195 33.9019Z" fill="#475467"/>
<mask id="path-4-inside-1_6570_42827" fill="white">
<path d="M69.375 51.1367C69.375 50.1702 70.1585 49.3867 71.125 49.3867H81.625C82.5915 49.3867 83.375 50.1702 83.375 51.1367V61.6367C83.375 62.6032 82.5915 63.3867 81.625 63.3867H71.125C70.1585 63.3867 69.375 62.6032 69.375 61.6367V51.1367Z"/>
</mask>
<path d="M69.375 51.1367C69.375 50.1702 70.1585 49.3867 71.125 49.3867H81.625C82.5915 49.3867 83.375 50.1702 83.375 51.1367V61.6367C83.375 62.6032 82.5915 63.3867 81.625 63.3867H71.125C70.1585 63.3867 69.375 62.6032 69.375 61.6367V51.1367Z" fill="#597393" fill-opacity="0.04"/>
<path d="M69.375 51.1367C69.375 49.2037 70.942 47.6367 72.875 47.6367H79.875C81.808 47.6367 83.375 49.2037 83.375 51.1367C83.375 51.1367 82.5915 51.1367 81.625 51.1367H71.125C70.1585 51.1367 69.375 51.1367 69.375 51.1367ZM83.375 63.3867H69.375H83.375ZM69.375 63.3867V49.3867V63.3867ZM83.375 49.3867V63.3867V49.3867Z" fill="#E0E4E8" mask="url(#path-4-inside-1_6570_42827)"/>
<rect x="69.375" y="65.1367" width="14" height="14" rx="1.75" fill="#597393" fill-opacity="0.04"/>
<rect x="69.375" y="80.8867" width="14" height="14" rx="1.75" fill="#C5ECB2"/>
<rect x="69.375" y="96.6367" width="14" height="14" rx="1.75" fill="#C5ECB2"/>
<rect x="69.375" y="112.387" width="14" height="14" rx="1.75" fill="#C5ECB2"/>
<rect x="69.375" y="128.137" width="14" height="14" rx="1.75" fill="#C5ECB2"/>
<rect x="69.375" y="143.887" width="14" height="14" rx="1.75" fill="#597393" fill-opacity="0.04"/>
<rect x="85.125" y="49.3867" width="14" height="14" rx="1.75" fill="#597393" fill-opacity="0.04"/>
<rect x="85.125" y="65.1367" width="14" height="14" rx="1.75" fill="#597393" fill-opacity="0.04"/>
<rect x="85.125" y="80.8867" width="14" height="14" rx="1.75" fill="#C5ECB2"/>
<rect x="85.125" y="96.6367" width="14" height="14" rx="1.75" fill="#56C364"/>
<rect x="85.125" y="112.387" width="14" height="14" rx="1.75" fill="#C5ECB2"/>
<rect x="85.125" y="128.137" width="14" height="14" rx="1.75" fill="#597393" fill-opacity="0.04"/>
<rect x="85.125" y="143.887" width="14" height="14" rx="1.75" fill="#597393" fill-opacity="0.04"/>
<rect x="100.875" y="49.3867" width="14" height="14" rx="1.75" fill="#597393" fill-opacity="0.04"/>
<rect x="100.875" y="65.1367" width="14" height="14" rx="1.75" fill="#C5ECB2"/>
<rect x="100.875" y="80.8867" width="14" height="14" rx="1.75" fill="#C5ECB2"/>
<rect x="100.875" y="96.6367" width="14" height="14" rx="1.75" fill="#597393" fill-opacity="0.04"/>
<rect x="100.875" y="112.387" width="14" height="14" rx="1.75" fill="#597393" fill-opacity="0.04"/>
<rect x="100.875" y="128.137" width="14" height="14" rx="1.75" fill="#597393" fill-opacity="0.04"/>
<rect x="100.875" y="143.887" width="14" height="14" rx="1.75" fill="#597393" fill-opacity="0.04"/>
<rect x="116.625" y="49.3867" width="14" height="14" rx="1.75" fill="#597393" fill-opacity="0.04"/>
<rect x="116.625" y="65.1367" width="14" height="14" rx="1.75" fill="#597393" fill-opacity="0.04"/>
<rect x="116.625" y="80.8867" width="14" height="14" rx="1.75" fill="#597393" fill-opacity="0.04"/>
<rect x="116.625" y="96.6367" width="14" height="14" rx="1.75" fill="#597393" fill-opacity="0.04"/>
<rect x="116.625" y="112.387" width="14" height="14" rx="1.75" fill="#597393" fill-opacity="0.04"/>
<rect x="116.625" y="128.137" width="14" height="14" rx="1.75" fill="#597393" fill-opacity="0.04"/>
<rect x="116.625" y="143.887" width="14" height="14" rx="1.75" fill="#C5ECB2"/>
<rect x="132.375" y="49.3867" width="14" height="14" rx="1.75" fill="#597393" fill-opacity="0.04"/>
<rect x="132.375" y="65.1367" width="14" height="14" rx="1.75" fill="#C5ECB2"/>
<rect x="132.375" y="80.8867" width="14" height="14" rx="1.75" fill="#C5ECB2"/>
<mask id="path-36-inside-2_6570_42827" fill="white">
<path d="M132.375 98.3867C132.375 97.4202 133.158 96.6367 134.125 96.6367H144.625C145.591 96.6367 146.375 97.4202 146.375 98.3867V108.887C146.375 109.853 145.591 110.637 144.625 110.637H134.125C133.158 110.637 132.375 109.853 132.375 108.887V98.3867Z"/>
</mask>
<path d="M132.375 98.3867C132.375 97.4202 133.158 96.6367 134.125 96.6367H144.625C145.591 96.6367 146.375 97.4202 146.375 98.3867V108.887C146.375 109.853 145.591 110.637 144.625 110.637H134.125C133.158 110.637 132.375 109.853 132.375 108.887V98.3867Z" fill="#C5ECB2"/>
<path d="M132.375 98.3867C132.375 96.4537 133.942 94.8867 135.875 94.8867H142.875C144.808 94.8867 146.375 96.4537 146.375 98.3867C146.375 98.3867 145.591 98.3867 144.625 98.3867H134.125C133.158 98.3867 132.375 98.3867 132.375 98.3867ZM146.375 110.637H132.375H146.375ZM132.375 110.637V96.6367V110.637ZM146.375 96.6367V110.637V96.6367Z" fill="#E0E4E8" mask="url(#path-36-inside-2_6570_42827)"/>
<rect x="132.375" y="112.387" width="14" height="14" rx="1.75" fill="#C5ECB2"/>
<rect x="132.375" y="128.137" width="14" height="14" rx="1.75" fill="#C5ECB2"/>
<rect x="132.375" y="143.887" width="14" height="14" rx="1.75" fill="#597393" fill-opacity="0.04"/>
<rect x="148.125" y="49.3867" width="14" height="14" rx="1.75" fill="#597393" fill-opacity="0.04"/>
<rect x="148.125" y="65.1367" width="14" height="14" rx="1.75" fill="#597393" fill-opacity="0.04"/>
<rect x="148.125" y="80.8867" width="14" height="14" rx="1.75" fill="#597393" fill-opacity="0.04"/>
<rect x="148.125" y="96.6367" width="14" height="14" rx="1.75" fill="#11865B"/>
<rect x="148.125" y="112.387" width="14" height="14" rx="1.75" fill="#11865B"/>
<rect x="148.125" y="128.137" width="14" height="14" rx="1.75" fill="#597393" fill-opacity="0.04"/>
<rect x="148.125" y="143.887" width="14" height="14" rx="1.75" fill="#597393" fill-opacity="0.04"/>
<rect x="163.875" y="49.3867" width="14" height="14" rx="1.75" fill="#597393" fill-opacity="0.04"/>
<rect x="163.875" y="65.1367" width="14" height="14" rx="1.75" fill="#597393" fill-opacity="0.04"/>
<rect x="163.875" y="80.8867" width="14" height="14" rx="1.75" fill="#56C364"/>
<rect x="163.875" y="96.6367" width="14" height="14" rx="1.75" fill="#597393" fill-opacity="0.04"/>
<rect x="163.875" y="112.387" width="14" height="14" rx="1.75" fill="#C5ECB2"/>
<rect x="163.875" y="128.137" width="14" height="14" rx="1.75" fill="#56C364"/>
<rect x="163.875" y="143.887" width="14" height="14" rx="1.75" fill="#597393" fill-opacity="0.04"/>
<rect x="179.625" y="49.3867" width="14" height="14" rx="1.75" fill="#597393" fill-opacity="0.04"/>
<rect x="179.625" y="65.1367" width="14" height="14" rx="1.75" fill="#C5ECB2"/>
<rect x="179.625" y="80.8867" width="14" height="14" rx="1.75" fill="#597393" fill-opacity="0.04"/>
<rect x="179.625" y="96.6367" width="14" height="14" rx="1.75" fill="#C5ECB2"/>
<rect x="179.625" y="112.387" width="14" height="14" rx="1.75" fill="#C5ECB2"/>
<rect x="179.625" y="128.137" width="14" height="14" rx="1.75" fill="#597393" fill-opacity="0.04"/>
<rect x="179.625" y="143.887" width="14" height="14" rx="1.75" fill="#597393" fill-opacity="0.04"/>
<rect x="195.375" y="49.3867" width="14" height="14" rx="1.75" fill="#597393" fill-opacity="0.04"/>
<rect x="195.375" y="65.1367" width="14" height="14" rx="1.75" fill="#597393" fill-opacity="0.04"/>
<rect x="195.375" y="80.8867" width="14" height="14" rx="1.75" fill="#C5ECB2"/>
<mask id="path-65-inside-3_6570_42827" fill="white">
<path d="M195.375 98.3867C195.375 97.4202 196.158 96.6367 197.125 96.6367H207.625C208.591 96.6367 209.375 97.4202 209.375 98.3867V108.887C209.375 109.853 208.591 110.637 207.625 110.637H197.125C196.158 110.637 195.375 109.853 195.375 108.887V98.3867Z"/>
</mask>
<path d="M195.375 98.3867C195.375 97.4202 196.158 96.6367 197.125 96.6367H207.625C208.591 96.6367 209.375 97.4202 209.375 98.3867V108.887C209.375 109.853 208.591 110.637 207.625 110.637H197.125C196.158 110.637 195.375 109.853 195.375 108.887V98.3867Z" fill="#597393" fill-opacity="0.04"/>
<path d="M195.375 98.3867C195.375 96.4537 196.942 94.8867 198.875 94.8867H205.875C207.808 94.8867 209.375 96.4537 209.375 98.3867C209.375 98.3867 208.591 98.3867 207.625 98.3867H197.125C196.158 98.3867 195.375 98.3867 195.375 98.3867ZM209.375 110.637H195.375H209.375ZM195.375 110.637V96.6367V110.637ZM209.375 96.6367V110.637V96.6367Z" fill="#E0E4E8" mask="url(#path-65-inside-3_6570_42827)"/>
<rect x="195.375" y="112.387" width="14" height="14" rx="1.75" fill="#597393" fill-opacity="0.04"/>
<rect x="195.375" y="128.137" width="14" height="14" rx="1.75" fill="#597393" fill-opacity="0.04"/>
<rect x="195.375" y="143.887" width="14" height="14" rx="1.75" fill="#597393" fill-opacity="0.04"/>
<rect x="211.125" y="49.3867" width="14" height="14" rx="1.75" fill="#597393" fill-opacity="0.04"/>
<rect x="211.125" y="65.1367" width="14" height="14" rx="1.75" fill="#C5ECB2"/>
<rect x="211.125" y="80.8867" width="14" height="14" rx="1.75" fill="#597393" fill-opacity="0.04"/>
<rect x="211.125" y="96.6367" width="14" height="14" rx="1.75" fill="#597393" fill-opacity="0.04"/>
<rect x="211.125" y="112.387" width="14" height="14" rx="1.75" fill="#56C364"/>
<rect x="211.125" y="128.137" width="14" height="14" rx="1.75" fill="#597393" fill-opacity="0.04"/>
<rect x="211.125" y="143.887" width="14" height="14" rx="1.75" fill="#597393" fill-opacity="0.04"/>
<rect x="226.875" y="49.3867" width="14" height="14" rx="1.75" fill="#597393" fill-opacity="0.04"/>
<rect x="226.875" y="65.1367" width="14" height="14" rx="1.75" fill="#FDB022"/>
<rect x="226.875" y="80.8867" width="14" height="14" rx="1.75" fill="#FEC84B"/>
<rect x="226.875" y="96.6367" width="14" height="14" rx="1.75" fill="#FEC84B"/>
<rect x="226.875" y="112.387" width="14" height="14" rx="1.75" fill="#597393" fill-opacity="0.04"/>
<rect x="226.875" y="128.137" width="14" height="14" rx="1.75" fill="#C5ECB2"/>
<rect x="226.875" y="143.887" width="14" height="14" rx="1.75" fill="#597393" fill-opacity="0.04"/>
<rect x="242.625" y="49.3867" width="14" height="14" rx="1.75" fill="#597393" fill-opacity="0.04"/>
<rect x="242.625" y="65.1367" width="14" height="14" rx="1.75" fill="#FDB022"/>
<rect x="242.625" y="80.8867" width="14" height="14" rx="1.75" fill="#597393" fill-opacity="0.04"/>
<rect x="242.625" y="96.6367" width="14" height="14" rx="1.75" fill="#597393" fill-opacity="0.04"/>
<rect x="242.625" y="112.387" width="14" height="14" rx="1.75" fill="#597393" fill-opacity="0.04"/>
<rect x="242.625" y="128.137" width="14" height="14" rx="1.75" fill="#C5ECB2"/>
<rect x="242.625" y="143.887" width="14" height="14" rx="1.75" fill="#597393" fill-opacity="0.04"/>
<rect x="258.375" y="49.3867" width="14" height="14" rx="1.75" fill="#597393" fill-opacity="0.04"/>
<rect x="258.375" y="65.1367" width="14" height="14" rx="1.75" fill="#597393" fill-opacity="0.04"/>
<rect x="258.375" y="80.8867" width="14" height="14" rx="1.75" fill="#FDB022"/>
<rect x="258.375" y="96.6367" width="14" height="14" rx="1.75" fill="#597393" fill-opacity="0.04"/>
<rect x="258.375" y="112.387" width="14" height="14" rx="1.75" fill="#56C364"/>
<rect x="258.375" y="128.137" width="14" height="14" rx="1.75" fill="#597393" fill-opacity="0.04"/>
<mask id="path-97-inside-4_6570_42827" fill="white">
<path d="M258.375 145.637C258.375 144.67 259.159 143.887 260.125 143.887H270.625C271.592 143.887 272.375 144.67 272.375 145.637V156.137C272.375 157.103 271.592 157.887 270.625 157.887H260.125C259.159 157.887 258.375 157.103 258.375 156.137V145.637Z"/>
</mask>
<path d="M258.375 145.637C258.375 144.67 259.159 143.887 260.125 143.887H270.625C271.592 143.887 272.375 144.67 272.375 145.637V156.137C272.375 157.103 271.592 157.887 270.625 157.887H260.125C259.159 157.887 258.375 157.103 258.375 156.137V145.637Z" fill="#597393" fill-opacity="0.04"/>
<path d="M258.375 145.637C258.375 143.704 259.942 142.137 261.875 142.137H268.875C270.808 142.137 272.375 143.704 272.375 145.637C272.375 145.637 271.592 145.637 270.625 145.637H260.125C259.159 145.637 258.375 145.637 258.375 145.637ZM272.375 157.887H258.375H272.375ZM258.375 157.887V143.887V157.887ZM272.375 143.887V157.887V143.887Z" fill="#E0E4E8" mask="url(#path-97-inside-4_6570_42827)"/>
<rect x="274.125" y="49.3867" width="14" height="14" rx="1.75" fill="#597393" fill-opacity="0.04"/>
<rect x="274.125" y="65.1367" width="14" height="14" rx="1.75" fill="#597393" fill-opacity="0.04"/>
<rect x="274.125" y="80.8867" width="14" height="14" rx="1.75" fill="#D92D20"/>
<rect x="274.125" y="96.6367" width="14" height="14" rx="1.75" fill="#597393" fill-opacity="0.04"/>
<rect x="274.125" y="112.387" width="14" height="14" rx="1.75" fill="#597393" fill-opacity="0.04"/>
<rect x="274.125" y="128.137" width="14" height="14" rx="1.75" fill="#C5ECB2"/>
<rect x="274.125" y="143.887" width="14" height="14" rx="1.75" fill="#597393" fill-opacity="0.04"/>
<rect x="289.875" y="49.3867" width="14" height="14" rx="1.75" fill="#597393" fill-opacity="0.04"/>
<rect x="289.875" y="65.1367" width="14" height="14" rx="1.75" fill="#912018"/>
<rect x="289.875" y="80.8867" width="14" height="14" rx="1.75" fill="#D92D20"/>
<rect x="289.875" y="96.6367" width="14" height="14" rx="1.75" fill="#597393" fill-opacity="0.04"/>
<rect x="289.875" y="112.387" width="14" height="14" rx="1.75" fill="#597393" fill-opacity="0.04"/>
<rect x="289.875" y="128.137" width="14" height="14" rx="1.75" fill="#C5ECB2"/>
<rect x="289.875" y="143.887" width="14" height="14" rx="1.75" fill="#597393" fill-opacity="0.04"/>
<rect x="305.625" y="49.3867" width="14" height="14" rx="1.75" fill="#597393" fill-opacity="0.04"/>
<rect x="305.625" y="65.1367" width="14" height="14" rx="1.75" fill="#597393" fill-opacity="0.04"/>
<rect x="305.625" y="80.8867" width="14" height="14" rx="1.75" fill="#597393" fill-opacity="0.04"/>
<rect x="305.625" y="96.6367" width="14" height="14" rx="1.75" fill="#F97066"/>
<rect x="305.625" y="112.387" width="14" height="14" rx="1.75" fill="#597393" fill-opacity="0.04"/>
<rect x="305.625" y="128.137" width="14" height="14" rx="1.75" fill="#11865B"/>
<rect x="305.625" y="143.887" width="14" height="14" rx="1.75" fill="#597393" fill-opacity="0.04"/>
<rect x="321.375" y="49.3867" width="14" height="14" rx="1.75" fill="#597393" fill-opacity="0.04"/>
<rect x="321.375" y="65.1367" width="14" height="14" rx="1.75" fill="#597393" fill-opacity="0.04"/>
<rect x="321.375" y="80.8867" width="14" height="14" rx="1.75" fill="#597393" fill-opacity="0.04"/>
<rect x="321.375" y="96.6367" width="14" height="14" rx="1.75" fill="#597393" fill-opacity="0.04"/>
<rect x="321.375" y="112.387" width="14" height="14" rx="1.75" fill="#597393" fill-opacity="0.04"/>
<rect x="321.375" y="128.137" width="14" height="14" rx="1.75" fill="#597393" fill-opacity="0.04"/>
<rect x="321.375" y="143.887" width="14" height="14" rx="1.75" fill="#597393" fill-opacity="0.04"/>
<rect x="337.125" y="49.3867" width="14" height="14" rx="1.75" fill="#597393" fill-opacity="0.04"/>
<mask id="path-128-inside-5_6570_42827" fill="white">
<path d="M337.125 66.8867C337.125 65.9202 337.909 65.1367 338.875 65.1367H349.375C350.342 65.1367 351.125 65.9202 351.125 66.8867V77.3867C351.125 78.3532 350.342 79.1367 349.375 79.1367H338.875C337.909 79.1367 337.125 78.3532 337.125 77.3867V66.8867Z"/>
</mask>
<path d="M337.125 66.8867C337.125 65.9202 337.909 65.1367 338.875 65.1367H349.375C350.342 65.1367 351.125 65.9202 351.125 66.8867V77.3867C351.125 78.3532 350.342 79.1367 349.375 79.1367H338.875C337.909 79.1367 337.125 78.3532 337.125 77.3867V66.8867Z" fill="#597393" fill-opacity="0.04"/>
<path d="M337.125 66.8867C337.125 64.9537 338.692 63.3867 340.625 63.3867H347.625C349.558 63.3867 351.125 64.9537 351.125 66.8867C351.125 66.8867 350.342 66.8867 349.375 66.8867H338.875C337.909 66.8867 337.125 66.8867 337.125 66.8867ZM351.125 79.1367H337.125H351.125ZM337.125 79.1367V65.1367V79.1367ZM351.125 65.1367V79.1367V65.1367Z" fill="#E0E4E8" mask="url(#path-128-inside-5_6570_42827)"/>
<rect x="337.125" y="80.8867" width="14" height="14" rx="1.75" fill="#597393" fill-opacity="0.04"/>
<rect x="337.125" y="96.6367" width="14" height="14" rx="1.75" fill="#597393" fill-opacity="0.04"/>
<rect x="337.125" y="112.387" width="14" height="14" rx="1.75" fill="#597393" fill-opacity="0.04"/>
<rect x="337.125" y="128.137" width="14" height="14" rx="1.75" fill="#597393" fill-opacity="0.04"/>
<rect x="337.125" y="143.887" width="14" height="14" rx="1.75" fill="#597393" fill-opacity="0.04"/>
<rect x="352.875" y="49.3867" width="14" height="14" rx="1.75" fill="#597393" fill-opacity="0.04"/>
<rect x="352.875" y="65.1367" width="14" height="14" rx="1.75" fill="#597393" fill-opacity="0.04"/>
<rect x="352.875" y="80.8867" width="14" height="14" rx="1.75" fill="#597393" fill-opacity="0.04"/>
<rect x="352.875" y="96.6367" width="14" height="14" rx="1.75" fill="#597393" fill-opacity="0.04"/>
<rect x="352.875" y="112.387" width="14" height="14" rx="1.75" fill="#597393" fill-opacity="0.04"/>
<rect x="352.875" y="128.137" width="14" height="14" rx="1.75" fill="#597393" fill-opacity="0.04"/>
<rect x="352.875" y="143.887" width="14" height="14" rx="1.75" fill="#597393" fill-opacity="0.04"/>
<rect x="368.625" y="49.3867" width="14" height="14" rx="1.75" fill="#597393" fill-opacity="0.04"/>
<rect x="368.625" y="65.1367" width="14" height="14" rx="1.75" fill="#597393" fill-opacity="0.04"/>
<rect x="368.625" y="80.8867" width="14" height="14" rx="1.75" fill="#597393" fill-opacity="0.04"/>
<rect x="368.625" y="96.6367" width="14" height="14" rx="1.75" fill="#597393" fill-opacity="0.04"/>
<rect x="368.625" y="112.387" width="14" height="14" rx="1.75" fill="#597393" fill-opacity="0.04"/>
<rect x="368.625" y="128.137" width="14" height="14" rx="1.75" fill="#597393" fill-opacity="0.04"/>
<rect x="368.625" y="143.887" width="14" height="14" rx="1.75" fill="#597393" fill-opacity="0.04"/>
<path d="M32.8527 58.114C32.8154 57.7991 32.6642 57.5547 32.399 57.3807C32.1339 57.2067 31.8087 57.1197 31.4234 57.1197C31.1416 57.1197 30.8951 57.1652 30.6838 57.2564C30.4746 57.3475 30.311 57.4729 30.1929 57.6324C30.0769 57.7919 30.0189 57.9731 30.0189 58.1761C30.0189 58.346 30.0593 58.492 30.1401 58.6143C30.2229 58.7344 30.3286 58.8349 30.457 58.9157C30.5854 58.9944 30.7201 59.0596 30.861 59.1114C31.0018 59.1611 31.1313 59.2015 31.2494 59.2326L31.8957 59.4066C32.0614 59.4501 32.2458 59.5102 32.4488 59.5868C32.6538 59.6635 32.8496 59.7681 33.036 59.9007C33.2245 60.0312 33.3799 60.199 33.5021 60.404C33.6243 60.6091 33.6854 60.8608 33.6854 61.1591C33.6854 61.503 33.5953 61.8137 33.4151 62.0913C33.237 62.3688 32.976 62.5895 32.6321 62.7531C32.2903 62.9168 31.875 62.9986 31.3861 62.9986C30.9303 62.9986 30.5357 62.925 30.2022 62.778C29.8708 62.6309 29.6098 62.4258 29.4192 62.1627C29.2307 61.8997 29.124 61.5941 29.0991 61.2461H29.8946C29.9153 61.4864 29.9961 61.6853 30.137 61.8427C30.2799 61.998 30.4601 62.1141 30.6776 62.1907C30.8972 62.2653 31.1334 62.3026 31.3861 62.3026C31.6802 62.3026 31.9443 62.2549 32.1784 62.1596C32.4125 62.0623 32.5979 61.9276 32.7346 61.7557C32.8713 61.5817 32.9397 61.3787 32.9397 61.1467C32.9397 60.9354 32.8807 60.7634 32.7626 60.6309C32.6445 60.4983 32.4892 60.3906 32.2965 60.3077C32.1039 60.2248 31.8957 60.1523 31.6719 60.0902L30.8889 59.8665C30.3918 59.7235 29.9982 59.5195 29.7082 59.2543C29.4182 58.9892 29.2732 58.6422 29.2732 58.2134C29.2732 57.8571 29.3695 57.5464 29.5621 57.2812C29.7568 57.014 30.0179 56.8069 30.3452 56.6598C30.6745 56.5107 31.0422 56.4361 31.4482 56.4361C31.8584 56.4361 32.223 56.5096 32.542 56.6567C32.861 56.8017 33.1137 57.0006 33.3001 57.2533C33.4886 57.506 33.5881 57.7929 33.5984 58.114H32.8527ZM36.8541 62.9862C36.3942 62.9862 35.9975 62.8846 35.664 62.6816C35.3325 62.4766 35.0767 62.1907 34.8965 61.824C34.7183 61.4553 34.6293 61.0265 34.6293 60.5376C34.6293 60.0488 34.7183 59.6179 34.8965 59.245C35.0767 58.8701 35.3274 58.578 35.6484 58.3688C35.9716 58.1575 36.3486 58.0518 36.7795 58.0518C37.0281 58.0518 37.2735 58.0933 37.5159 58.1761C37.7583 58.259 37.9789 58.3936 38.1777 58.5801C38.3766 58.7644 38.5351 59.0089 38.6531 59.3134C38.7712 59.6179 38.8303 59.9928 38.8303 60.4382V60.7489H35.1513V60.1151H38.0845C38.0845 59.8458 38.0307 59.6055 37.9229 59.3942C37.8173 59.1829 37.6661 59.0161 37.4693 58.8939C37.2746 58.7717 37.0446 58.7106 36.7795 58.7106C36.4874 58.7106 36.2347 58.7831 36.0213 58.9281C35.81 59.071 35.6474 59.2575 35.5335 59.4874C35.4195 59.7173 35.3626 59.9638 35.3626 60.2269V60.6495C35.3626 61.0099 35.4247 61.3155 35.549 61.5661C35.6754 61.8147 35.8504 62.0043 36.0741 62.1348C36.2979 62.2632 36.5578 62.3274 36.8541 62.3274C37.0467 62.3274 37.2207 62.3005 37.3761 62.2466C37.5335 62.1907 37.6692 62.1078 37.7831 61.998C37.8971 61.8862 37.9851 61.7474 38.0472 61.5817L38.7557 61.7805C38.6811 62.0208 38.5558 62.2321 38.3797 62.4144C38.2036 62.5946 37.9861 62.7355 37.7272 62.837C37.4683 62.9364 37.1772 62.9862 36.8541 62.9862ZM43.7032 58.114L41.9383 62.8867H41.1925L39.4276 58.114H40.2231L41.5406 61.9173H41.5903L42.9077 58.114H43.7032ZM46.5013 62.9862C46.0414 62.9862 45.6447 62.8846 45.3112 62.6816C44.9798 62.4766 44.7239 62.1907 44.5437 61.824C44.3656 61.4553 44.2765 61.0265 44.2765 60.5376C44.2765 60.0488 44.3656 59.6179 44.5437 59.245C44.7239 58.8701 44.9746 58.578 45.2957 58.3688C45.6188 58.1575 45.9958 58.0518 46.4267 58.0518C46.6753 58.0518 46.9207 58.0933 47.1631 58.1761C47.4055 58.259 47.6261 58.3936 47.825 58.5801C48.0238 58.7644 48.1823 59.0089 48.3004 59.3134C48.4184 59.6179 48.4775 59.9928 48.4775 60.4382V60.7489H44.7985V60.1151H47.7317C47.7317 59.8458 47.6779 59.6055 47.5702 59.3942C47.4645 59.1829 47.3133 59.0161 47.1165 58.8939C46.9218 58.7717 46.6918 58.7106 46.4267 58.7106C46.1346 58.7106 45.8819 58.7831 45.6685 58.9281C45.4572 59.071 45.2946 59.2575 45.1807 59.4874C45.0668 59.7173 45.0098 59.9638 45.0098 60.2269V60.6495C45.0098 61.0099 45.0719 61.3155 45.1962 61.5661C45.3226 61.8147 45.4976 62.0043 45.7214 62.1348C45.9451 62.2632 46.205 62.3274 46.5013 62.3274C46.6939 62.3274 46.8679 62.3005 47.0233 62.2466C47.1807 62.1907 47.3164 62.1078 47.4303 61.998C47.5443 61.8862 47.6323 61.7474 47.6945 61.5817L48.4029 61.7805C48.3283 62.0208 48.203 62.2321 48.0269 62.4144C47.8509 62.5946 47.6333 62.7355 47.3744 62.837C47.1155 62.9364 46.8244 62.9862 46.5013 62.9862ZM49.593 62.8867V58.114H50.3014V58.8349H50.3511C50.4381 58.5987 50.5956 58.4071 50.8234 58.26C51.0513 58.113 51.3082 58.0394 51.594 58.0394C51.6479 58.0394 51.7152 58.0405 51.796 58.0425C51.8768 58.0446 51.9379 58.0477 51.9793 58.0518V58.7976C51.9545 58.7914 51.8975 58.782 51.8084 58.7696C51.7214 58.7551 51.6293 58.7479 51.5319 58.7479C51.2999 58.7479 51.0927 58.7965 50.9105 58.8939C50.7302 58.9892 50.5873 59.1218 50.4817 59.2916C50.3781 59.4594 50.3263 59.651 50.3263 59.8665V62.8867H49.593ZM54.7044 62.9862C54.2445 62.9862 53.8478 62.8846 53.5143 62.6816C53.1829 62.4766 52.9271 62.1907 52.7468 61.824C52.5687 61.4553 52.4796 61.0265 52.4796 60.5376C52.4796 60.0488 52.5687 59.6179 52.7468 59.245C52.9271 58.8701 53.1777 58.578 53.4988 58.3688C53.8219 58.1575 54.199 58.0518 54.6298 58.0518C54.8784 58.0518 55.1239 58.0933 55.3662 58.1761C55.6086 58.259 55.8292 58.3936 56.0281 58.5801C56.2269 58.7644 56.3854 59.0089 56.5035 59.3134C56.6216 59.6179 56.6806 59.9928 56.6806 60.4382V60.7489H53.0016V60.1151H55.9349C55.9349 59.8458 55.881 59.6055 55.7733 59.3942C55.6676 59.1829 55.5164 59.0161 55.3196 58.8939C55.1249 58.7717 54.895 58.7106 54.6298 58.7106C54.3377 58.7106 54.085 58.7831 53.8717 58.9281C53.6604 59.071 53.4977 59.2575 53.3838 59.4874C53.2699 59.7173 53.2129 59.9638 53.2129 60.2269V60.6495C53.2129 61.0099 53.2751 61.3155 53.3994 61.5661C53.5257 61.8147 53.7008 62.0043 53.9245 62.1348C54.1482 62.2632 54.4082 62.3274 54.7044 62.3274C54.897 62.3274 55.0711 62.3005 55.2264 62.2466C55.3838 62.1907 55.5195 62.1078 55.6335 61.998C55.7474 61.8862 55.8354 61.7474 55.8976 61.5817L56.606 61.7805C56.5315 62.0208 56.4061 62.2321 56.2301 62.4144C56.054 62.5946 55.8365 62.7355 55.5775 62.837C55.3186 62.9364 55.0275 62.9862 54.7044 62.9862Z" fill="#597393" fill-opacity="0.5"/>
<path d="M34.6277 81.0231H35.5474L37.7101 86.3054H37.7847L39.9473 81.0231H40.867V87.3867H40.1462V82.5518H40.084L38.0954 87.3867H37.3994L35.4107 82.5518H35.3486V87.3867H34.6277V81.0231ZM43.7172 87.4986C43.4147 87.4986 43.1403 87.4416 42.8937 87.3277C42.6472 87.2117 42.4515 87.0449 42.3065 86.8274C42.1615 86.6078 42.089 86.3427 42.089 86.032C42.089 85.7585 42.1428 85.5369 42.2505 85.367C42.3583 85.1951 42.5022 85.0604 42.6825 84.9631C42.8627 84.8657 43.0615 84.7932 43.279 84.7456C43.4986 84.6958 43.7192 84.6565 43.9409 84.6275C44.2309 84.5902 44.466 84.5622 44.6462 84.5436C44.8285 84.5229 44.9611 84.4887 45.044 84.4411C45.1289 84.3934 45.1714 84.3105 45.1714 84.1925V84.1676C45.1714 83.861 45.0875 83.6228 44.9197 83.4529C44.7539 83.2831 44.5023 83.1982 44.1646 83.1982C43.8145 83.1982 43.5401 83.2748 43.3412 83.4281C43.1423 83.5814 43.0025 83.745 42.9217 83.919L42.2257 83.6705C42.35 83.3804 42.5157 83.1547 42.7228 82.9931C42.9321 82.8294 43.1599 82.7155 43.4064 82.6513C43.655 82.585 43.8995 82.5518 44.1398 82.5518C44.293 82.5518 44.4691 82.5705 44.668 82.6078C44.8689 82.643 45.0626 82.7165 45.249 82.8284C45.4375 82.9403 45.5939 83.1091 45.7182 83.3349C45.8425 83.5607 45.9047 83.8631 45.9047 84.2422V87.3867H45.1714V86.7404H45.1341C45.0844 86.844 45.0015 86.9548 44.8855 87.0729C44.7695 87.191 44.6152 87.2914 44.4225 87.3743C44.2299 87.4571 43.9947 87.4986 43.7172 87.4986ZM43.829 86.8398C44.119 86.8398 44.3635 86.7829 44.5623 86.6689C44.7633 86.555 44.9145 86.4079 45.016 86.2277C45.1196 86.0475 45.1714 85.858 45.1714 85.6591V84.9879C45.1403 85.0252 45.0719 85.0594 44.9663 85.0905C44.8627 85.1195 44.7426 85.1454 44.6058 85.1681C44.4712 85.1889 44.3396 85.2075 44.2112 85.2241C44.0849 85.2386 43.9823 85.251 43.9036 85.2614C43.713 85.2862 43.5349 85.3266 43.3692 85.3825C43.2055 85.4364 43.0729 85.5182 42.9714 85.628C42.872 85.7357 42.8223 85.8828 42.8223 86.0692C42.8223 86.324 42.9165 86.5167 43.105 86.6472C43.2956 86.7756 43.5369 86.8398 43.829 86.8398ZM47.2431 82.614H47.9764V87.7347C47.9764 88.0289 47.9257 88.2837 47.8242 88.4991C47.7247 88.7145 47.5735 88.8813 47.3705 88.9994C47.1696 89.1175 46.9158 89.1765 46.6092 89.1765C46.5844 89.1765 46.5595 89.1765 46.5347 89.1765C46.5098 89.1765 46.4849 89.1765 46.4601 89.1765V88.4929C46.4849 88.4929 46.5077 88.4929 46.5284 88.4929C46.5492 88.4929 46.5719 88.4929 46.5968 88.4929C46.8205 88.4929 46.9842 88.4266 47.0877 88.294C47.1913 88.1635 47.2431 87.9771 47.2431 87.7347V82.614ZM47.6036 81.8185C47.4606 81.8185 47.3374 81.7699 47.2338 81.6725C47.1323 81.5751 47.0815 81.4581 47.0815 81.3214C47.0815 81.1847 47.1323 81.0676 47.2338 80.9703C47.3374 80.8729 47.4606 80.8242 47.6036 80.8242C47.7465 80.8242 47.8687 80.8729 47.9702 80.9703C48.0738 81.0676 48.1256 81.1847 48.1256 81.3214C48.1256 81.4581 48.0738 81.5751 47.9702 81.6725C47.8687 81.7699 47.7465 81.8185 47.6036 81.8185ZM51.2584 87.4862C50.8276 87.4862 50.4495 87.3836 50.1243 87.1785C49.8011 86.9735 49.5484 86.6866 49.3661 86.3178C49.1859 85.9491 49.0958 85.5182 49.0958 85.0252C49.0958 84.5281 49.1859 84.0941 49.3661 83.7233C49.5484 83.3525 49.8011 83.0645 50.1243 82.8595C50.4495 82.6544 50.8276 82.5518 51.2584 82.5518C51.6893 82.5518 52.0663 82.6544 52.3895 82.8595C52.7147 83.0645 52.9674 83.3525 53.1477 83.7233C53.3299 84.0941 53.4211 84.5281 53.4211 85.0252C53.4211 85.5182 53.3299 85.9491 53.1477 86.3178C52.9674 86.6866 52.7147 86.9735 52.3895 87.1785C52.0663 87.3836 51.6893 87.4862 51.2584 87.4862ZM51.2584 86.8274C51.5857 86.8274 51.855 86.7435 52.0663 86.5757C52.2776 86.4079 52.434 86.1873 52.5355 85.9139C52.637 85.6404 52.6878 85.3442 52.6878 85.0252C52.6878 84.7062 52.637 84.4089 52.5355 84.1334C52.434 83.8579 52.2776 83.6352 52.0663 83.4654C51.855 83.2955 51.5857 83.2106 51.2584 83.2106C50.9312 83.2106 50.6619 83.2955 50.4506 83.4654C50.2393 83.6352 50.0829 83.8579 49.9814 84.1334C49.8799 84.4089 49.8291 84.7062 49.8291 85.0252C49.8291 85.3442 49.8799 85.6404 49.9814 85.9139C50.0829 86.1873 50.2393 86.4079 50.4506 86.5757C50.6619 86.7435 50.9312 86.8274 51.2584 86.8274ZM54.5405 87.3867V82.614H55.2489V83.3349H55.2986C55.3856 83.0987 55.5431 82.9071 55.7709 82.76C55.9988 82.613 56.2557 82.5394 56.5415 82.5394C56.5954 82.5394 56.6627 82.5405 56.7435 82.5425C56.8243 82.5446 56.8854 82.5477 56.9268 82.5518V83.2976C56.902 83.2914 56.845 83.282 56.7559 83.2696C56.6689 83.2551 56.5768 83.2479 56.4794 83.2479C56.2474 83.2479 56.0402 83.2965 55.8579 83.3939C55.6777 83.4892 55.5348 83.6218 55.4291 83.7916C55.3256 83.9594 55.2738 84.151 55.2738 84.3665V87.3867H54.5405Z" fill="#597393" fill-opacity="0.5"/>
<path d="M17.9566 105.523H18.8763L21.0389 110.805H21.1135L23.2762 105.523H24.1959V111.887H23.475V107.052H23.4129L21.4242 111.887H20.7282L18.7396 107.052H18.6774V111.887H17.9566V105.523ZM27.5805 111.986C27.1496 111.986 26.7715 111.884 26.4463 111.679C26.1232 111.473 25.8704 111.187 25.6882 110.818C25.5079 110.449 25.4178 110.018 25.4178 109.525C25.4178 109.028 25.5079 108.594 25.6882 108.223C25.8704 107.852 26.1232 107.565 26.4463 107.359C26.7715 107.154 27.1496 107.052 27.5805 107.052C28.0113 107.052 28.3883 107.154 28.7115 107.359C29.0367 107.565 29.2894 107.852 29.4697 108.223C29.652 108.594 29.7431 109.028 29.7431 109.525C29.7431 110.018 29.652 110.449 29.4697 110.818C29.2894 111.187 29.0367 111.473 28.7115 111.679C28.3883 111.884 28.0113 111.986 27.5805 111.986ZM27.5805 111.327C27.9078 111.327 28.1771 111.244 28.3883 111.076C28.5996 110.908 28.756 110.687 28.8575 110.414C28.959 110.14 29.0098 109.844 29.0098 109.525C29.0098 109.206 28.959 108.909 28.8575 108.633C28.756 108.358 28.5996 108.135 28.3883 107.965C28.1771 107.796 27.9078 107.711 27.5805 107.711C27.2532 107.711 26.9839 107.796 26.7726 107.965C26.5613 108.135 26.4049 108.358 26.3034 108.633C26.2019 108.909 26.1511 109.206 26.1511 109.525C26.1511 109.844 26.2019 110.14 26.3034 110.414C26.4049 110.687 26.5613 110.908 26.7726 111.076C26.9839 111.244 27.2532 111.327 27.5805 111.327ZM32.6647 111.986C32.267 111.986 31.9158 111.886 31.6113 111.685C31.3068 111.482 31.0686 111.196 30.8967 110.827C30.7247 110.456 30.6388 110.018 30.6388 109.513C30.6388 109.011 30.7247 108.576 30.8967 108.208C31.0686 107.839 31.3079 107.554 31.6144 107.353C31.921 107.152 32.2753 107.052 32.6771 107.052C32.9878 107.052 33.2333 107.104 33.4135 107.207C33.5958 107.309 33.7346 107.425 33.8299 107.555C33.9273 107.684 34.0029 107.789 34.0567 107.872H34.1189V105.523H34.8522V111.887H34.1437V111.153H34.0567C34.0029 111.24 33.9262 111.35 33.8268 111.483C33.7274 111.613 33.5855 111.73 33.4011 111.834C33.2167 111.935 32.9713 111.986 32.6647 111.986ZM32.7641 111.327C33.0583 111.327 33.3069 111.251 33.5099 111.097C33.7129 110.942 33.8672 110.728 33.9728 110.454C34.0785 110.179 34.1313 109.861 34.1313 109.5C34.1313 109.144 34.0795 108.832 33.976 108.565C33.8724 108.296 33.7191 108.087 33.5161 107.937C33.3131 107.786 33.0624 107.711 32.7641 107.711C32.4534 107.711 32.1945 107.79 31.9873 107.95C31.7822 108.107 31.6279 108.322 31.5243 108.593C31.4228 108.862 31.3721 109.165 31.3721 109.5C31.3721 109.84 31.4239 110.149 31.5274 110.426C31.6331 110.702 31.7885 110.921 31.9935 111.085C32.2007 111.247 32.4575 111.327 32.7641 111.327ZM38.2981 111.986C37.8383 111.986 37.4416 111.885 37.1081 111.682C36.7766 111.477 36.5208 111.191 36.3406 110.824C36.1624 110.455 36.0733 110.027 36.0733 109.538C36.0733 109.049 36.1624 108.618 36.3406 108.245C36.5208 107.87 36.7714 107.578 37.0925 107.369C37.4157 107.157 37.7927 107.052 38.2236 107.052C38.4721 107.052 38.7176 107.093 38.96 107.176C39.2023 107.259 39.423 107.394 39.6218 107.58C39.8207 107.764 39.9791 108.009 40.0972 108.313C40.2153 108.618 40.2743 108.993 40.2743 109.438V109.749H36.5954V109.115H39.5286C39.5286 108.846 39.4747 108.605 39.367 108.394C39.2614 108.183 39.1102 108.016 38.9134 107.894C38.7186 107.772 38.4887 107.711 38.2236 107.711C37.9315 107.711 37.6788 107.783 37.4654 107.928C37.2541 108.071 37.0915 108.257 36.9775 108.487C36.8636 108.717 36.8067 108.964 36.8067 109.227V109.65C36.8067 110.01 36.8688 110.315 36.9931 110.566C37.1194 110.815 37.2945 111.004 37.5182 111.135C37.7419 111.263 38.0019 111.327 38.2981 111.327C38.4908 111.327 38.6648 111.3 38.8201 111.247C38.9776 111.191 39.1133 111.108 39.2272 110.998C39.3411 110.886 39.4292 110.747 39.4913 110.582L40.1998 110.781C40.1252 111.021 39.9999 111.232 39.8238 111.414C39.6477 111.595 39.4302 111.735 39.1713 111.837C38.9123 111.936 38.6213 111.986 38.2981 111.986ZM41.3898 111.887V107.114H42.0983V107.835H42.148C42.235 107.599 42.3924 107.407 42.6203 107.26C42.8482 107.113 43.105 107.039 43.3909 107.039C43.4448 107.039 43.5121 107.04 43.5929 107.043C43.6737 107.045 43.7348 107.048 43.7762 107.052V107.798C43.7513 107.791 43.6944 107.782 43.6053 107.77C43.5183 107.755 43.4261 107.748 43.3288 107.748C43.0968 107.748 42.8896 107.797 42.7073 107.894C42.5271 107.989 42.3842 108.122 42.2785 108.292C42.1749 108.459 42.1231 108.651 42.1231 108.866V111.887H41.3898ZM46.0499 111.999C45.7475 111.999 45.473 111.942 45.2265 111.828C44.98 111.712 44.7842 111.545 44.6392 111.327C44.4942 111.108 44.4217 110.843 44.4217 110.532C44.4217 110.259 44.4756 110.037 44.5833 109.867C44.691 109.695 44.835 109.56 45.0152 109.463C45.1954 109.366 45.3943 109.293 45.6118 109.246C45.8314 109.196 46.052 109.156 46.2737 109.127C46.5637 109.09 46.7988 109.062 46.979 109.044C47.1613 109.023 47.2939 108.989 47.3767 108.941C47.4617 108.893 47.5041 108.811 47.5041 108.692V108.668C47.5041 108.361 47.4202 108.123 47.2524 107.953C47.0867 107.783 46.835 107.698 46.4974 107.698C46.1473 107.698 45.8728 107.775 45.674 107.928C45.4751 108.081 45.3353 108.245 45.2545 108.419L44.5585 108.17C44.6827 107.88 44.8485 107.655 45.0556 107.493C45.2648 107.329 45.4927 107.215 45.7392 107.151C45.9878 107.085 46.2322 107.052 46.4725 107.052C46.6258 107.052 46.8019 107.07 47.0007 107.108C47.2017 107.143 47.3954 107.217 47.5818 107.328C47.7703 107.44 47.9267 107.609 48.051 107.835C48.1753 108.061 48.2374 108.363 48.2374 108.742V111.887H47.5041V111.24H47.4668C47.4171 111.344 47.3343 111.455 47.2183 111.573C47.1022 111.691 46.9479 111.791 46.7553 111.874C46.5626 111.957 46.3275 111.999 46.0499 111.999ZM46.1618 111.34C46.4518 111.34 46.6962 111.283 46.8951 111.169C47.096 111.055 47.2473 110.908 47.3488 110.728C47.4523 110.547 47.5041 110.358 47.5041 110.159V109.488C47.473 109.525 47.4047 109.559 47.299 109.59C47.1955 109.619 47.0753 109.645 46.9386 109.668C46.804 109.689 46.6724 109.708 46.544 109.724C46.4176 109.739 46.3151 109.751 46.2364 109.761C46.0458 109.786 45.8676 109.827 45.7019 109.883C45.5383 109.936 45.4057 110.018 45.3042 110.128C45.2048 110.236 45.155 110.383 45.155 110.569C45.155 110.824 45.2493 111.017 45.4378 111.147C45.6284 111.276 45.8697 111.34 46.1618 111.34ZM51.6515 107.114V107.735H49.1781V107.114H51.6515ZM49.899 105.971H50.6323V110.52C50.6323 110.727 50.6624 110.882 50.7224 110.986C50.7846 111.087 50.8633 111.155 50.9586 111.191C51.056 111.224 51.1585 111.24 51.2662 111.24C51.347 111.24 51.4133 111.236 51.4651 111.228C51.5169 111.218 51.5583 111.209 51.5894 111.203L51.7385 111.862C51.6888 111.881 51.6194 111.899 51.5303 111.918C51.4413 111.939 51.3284 111.949 51.1916 111.949C50.9845 111.949 50.7815 111.904 50.5826 111.815C50.3858 111.726 50.2222 111.59 50.0917 111.408C49.9632 111.226 49.899 110.996 49.899 110.718V105.971ZM54.7044 111.986C54.2445 111.986 53.8478 111.885 53.5143 111.682C53.1829 111.477 52.927 111.191 52.7468 110.824C52.5687 110.455 52.4796 110.027 52.4796 109.538C52.4796 109.049 52.5687 108.618 52.7468 108.245C52.927 107.87 53.1777 107.578 53.4988 107.369C53.8219 107.157 54.1989 107.052 54.6298 107.052C54.8784 107.052 55.1239 107.093 55.3662 107.176C55.6086 107.259 55.8292 107.394 56.0281 107.58C56.2269 107.764 56.3854 108.009 56.5035 108.313C56.6216 108.618 56.6806 108.993 56.6806 109.438V109.749H53.0016V109.115H55.9348C55.9348 108.846 55.881 108.605 55.7733 108.394C55.6676 108.183 55.5164 108.016 55.3196 107.894C55.1249 107.772 54.895 107.711 54.6298 107.711C54.3377 107.711 54.085 107.783 53.8716 107.928C53.6603 108.071 53.4977 108.257 53.3838 108.487C53.2699 108.717 53.2129 108.964 53.2129 109.227V109.65C53.2129 110.01 53.275 110.315 53.3993 110.566C53.5257 110.815 53.7007 111.004 53.9245 111.135C54.1482 111.263 54.4082 111.327 54.7044 111.327C54.897 111.327 55.071 111.3 55.2264 111.247C55.3838 111.191 55.5195 111.108 55.6334 110.998C55.7474 110.886 55.8354 110.747 55.8976 110.582L56.606 110.781C56.5314 111.021 56.4061 111.232 56.23 111.414C56.054 111.595 55.8365 111.735 55.5775 111.837C55.3186 111.936 55.0275 111.986 54.7044 111.986Z" fill="#597393" fill-opacity="0.5"/>
<path d="M8.7125 130.023V136.387H7.9419V130.023H8.7125ZM10.8915 133.516V136.387H10.1581V131.614H10.8666V132.36H10.9287C11.0406 132.117 11.2105 131.923 11.4383 131.776C11.6662 131.626 11.9603 131.552 12.3208 131.552C12.6439 131.552 12.9267 131.618 13.1691 131.751C13.4114 131.881 13.5999 132.08 13.7346 132.347C13.8692 132.612 13.9366 132.948 13.9366 133.354V136.387H13.2032V133.404C13.2032 133.029 13.1059 132.737 12.9112 132.528C12.7164 132.316 12.4492 132.211 12.1095 132.211C11.8754 132.211 11.6662 132.261 11.4818 132.363C11.2995 132.464 11.1556 132.612 11.0499 132.807C10.9443 133.002 10.8915 133.238 10.8915 133.516ZM18.6572 132.683L17.9985 132.869C17.9571 132.76 17.896 132.653 17.8152 132.549C17.7365 132.444 17.6287 132.357 17.492 132.288C17.3553 132.22 17.1803 132.186 16.9669 132.186C16.6748 132.186 16.4314 132.253 16.2367 132.388C16.044 132.52 15.9477 132.689 15.9477 132.894C15.9477 133.076 16.014 133.22 16.1466 133.326C16.2792 133.432 16.4863 133.52 16.768 133.59L17.4765 133.764C17.9032 133.868 18.2212 134.026 18.4304 134.24C18.6396 134.451 18.7442 134.723 18.7442 135.057C18.7442 135.33 18.6655 135.575 18.5081 135.79C18.3527 136.006 18.1352 136.175 17.8556 136.3C17.5759 136.424 17.2507 136.486 16.8799 136.486C16.3931 136.486 15.9902 136.381 15.6712 136.169C15.3522 135.958 15.1502 135.649 15.0653 135.243L15.7613 135.069C15.8276 135.326 15.9529 135.519 16.1373 135.647C16.3237 135.776 16.5671 135.84 16.8675 135.84C17.2093 135.84 17.4806 135.767 17.6816 135.622C17.8846 135.475 17.9861 135.299 17.9861 135.094C17.9861 134.928 17.9281 134.79 17.8121 134.678C17.6961 134.564 17.5179 134.479 17.2776 134.423L16.4822 134.237C16.0451 134.133 15.724 133.972 15.5189 133.755C15.3159 133.535 15.2144 133.261 15.2144 132.931C15.2144 132.662 15.29 132.424 15.4412 132.217C15.5945 132.01 15.8027 131.847 16.0658 131.729C16.3309 131.611 16.6313 131.552 16.9669 131.552C17.4392 131.552 17.81 131.655 18.0793 131.863C18.3507 132.07 18.5433 132.343 18.6572 132.683ZM19.8481 136.387V131.614H20.5814V136.387H19.8481ZM20.221 130.819C20.078 130.819 19.9548 130.77 19.8512 130.672C19.7497 130.575 19.6989 130.458 19.6989 130.321C19.6989 130.185 19.7497 130.068 19.8512 129.97C19.9548 129.873 20.078 129.824 20.221 129.824C20.3639 129.824 20.4861 129.873 20.5876 129.97C20.6912 130.068 20.743 130.185 20.743 130.321C20.743 130.458 20.6912 130.575 20.5876 130.672C20.4861 130.77 20.3639 130.819 20.221 130.819ZM23.851 138.276C23.4968 138.276 23.1923 138.23 22.9375 138.139C22.6827 138.05 22.4703 137.932 22.3005 137.785C22.1327 137.64 21.9991 137.485 21.8996 137.319L22.4838 136.909C22.5501 136.996 22.634 137.095 22.7355 137.207C22.837 137.321 22.9758 137.419 23.1519 137.502C23.33 137.587 23.5631 137.63 23.851 137.63C24.2363 137.63 24.5543 137.536 24.8049 137.35C25.0556 137.164 25.1809 136.871 25.1809 136.474V135.504H25.1188C25.0649 135.591 24.9882 135.699 24.8888 135.827C24.7915 135.954 24.6506 136.067 24.4662 136.166C24.2839 136.263 24.0374 136.312 23.7267 136.312C23.3414 136.312 22.9955 136.221 22.6889 136.039C22.3844 135.856 22.143 135.591 21.9649 135.243C21.7888 134.895 21.7008 134.473 21.7008 133.975C21.7008 133.487 21.7868 133.061 21.9587 132.698C22.1306 132.334 22.3699 132.052 22.6765 131.853C22.983 131.652 23.3373 131.552 23.7391 131.552C24.0499 131.552 24.2964 131.604 24.4787 131.707C24.663 131.809 24.8039 131.925 24.9012 132.055C25.0007 132.184 25.0773 132.289 25.1312 132.372H25.2058V131.614H25.9142V136.523C25.9142 136.934 25.821 137.267 25.6346 137.524C25.4502 137.783 25.2016 137.972 24.8888 138.093C24.5781 138.215 24.2322 138.276 23.851 138.276ZM23.8261 135.653C24.1203 135.653 24.3689 135.586 24.5719 135.451C24.7749 135.317 24.9292 135.123 25.0349 134.87C25.1405 134.618 25.1933 134.315 25.1933 133.963C25.1933 133.619 25.1415 133.316 25.038 133.053C24.9344 132.79 24.7811 132.583 24.5781 132.434C24.3751 132.285 24.1244 132.211 23.8261 132.211C23.5154 132.211 23.2565 132.289 23.0493 132.447C22.8442 132.604 22.6899 132.815 22.5863 133.081C22.4848 133.346 22.4341 133.64 22.4341 133.963C22.4341 134.295 22.4859 134.588 22.5895 134.842C22.6951 135.095 22.8505 135.294 23.0555 135.439C23.2627 135.582 23.5196 135.653 23.8261 135.653ZM27.9898 133.516V136.387H27.2565V131.614H27.965V132.36H28.0271C28.139 132.117 28.3089 131.923 28.5367 131.776C28.7646 131.626 29.0587 131.552 29.4192 131.552C29.7423 131.552 30.0251 131.618 30.2675 131.751C30.5098 131.881 30.6983 132.08 30.833 132.347C30.9676 132.612 31.0349 132.948 31.0349 133.354V136.387H30.3016V133.404C30.3016 133.029 30.2043 132.737 30.0096 132.528C29.8148 132.316 29.5476 132.211 29.2079 132.211C28.9738 132.211 28.7646 132.261 28.5802 132.363C28.3979 132.464 28.254 132.612 28.1483 132.807C28.0427 133.002 27.9898 133.238 27.9898 133.516ZM32.3749 136.387V131.614H33.1083V136.387H32.3749ZM32.7478 130.819C32.6049 130.819 32.4816 130.77 32.3781 130.672C32.2765 130.575 32.2258 130.458 32.2258 130.321C32.2258 130.185 32.2765 130.068 32.3781 129.97C32.4816 129.873 32.6049 129.824 32.7478 129.824C32.8907 129.824 33.013 129.873 33.1145 129.97C33.218 130.068 33.2698 130.185 33.2698 130.321C33.2698 130.458 33.218 130.575 33.1145 130.672C33.013 130.77 32.8907 130.819 32.7478 130.819ZM36.5767 131.614V132.235H34.0039V131.614H36.5767ZM34.7745 136.387V130.955C34.7745 130.682 34.8387 130.454 34.9672 130.272C35.0956 130.089 35.2624 129.953 35.4674 129.862C35.6725 129.77 35.889 129.725 36.1168 129.725C36.2971 129.725 36.4441 129.739 36.5581 129.768C36.672 129.797 36.7569 129.824 36.8129 129.849L36.6016 130.483C36.5643 130.471 36.5125 130.455 36.4462 130.436C36.382 130.418 36.2971 130.408 36.1914 130.408C35.9491 130.408 35.774 130.469 35.6663 130.592C35.5606 130.714 35.5078 130.893 35.5078 131.129V136.387H34.7745ZM37.6044 136.387V131.614H38.3377V136.387H37.6044ZM37.9773 130.819C37.8344 130.819 37.7111 130.77 37.6075 130.672C37.506 130.575 37.4553 130.458 37.4553 130.321C37.4553 130.185 37.506 130.068 37.6075 129.97C37.7111 129.873 37.8344 129.824 37.9773 129.824C38.1202 129.824 38.2425 129.873 38.344 129.97C38.4475 130.068 38.4993 130.185 38.4993 130.321C38.4993 130.458 38.4475 130.575 38.344 130.672C38.2425 130.77 38.1202 130.819 37.9773 130.819ZM41.6198 136.486C41.1723 136.486 40.787 136.381 40.4639 136.169C40.1407 135.958 39.8921 135.667 39.7181 135.296C39.5441 134.925 39.4571 134.502 39.4571 134.025C39.4571 133.54 39.5462 133.113 39.7244 132.742C39.9046 132.369 40.1552 132.078 40.4763 131.869C40.7995 131.657 41.1765 131.552 41.6073 131.552C41.9429 131.552 42.2454 131.614 42.5147 131.738C42.784 131.863 43.0046 132.037 43.1765 132.26C43.3484 132.484 43.4551 132.745 43.4966 133.043H42.7632C42.7073 132.826 42.583 132.633 42.3904 132.465C42.1998 132.296 41.9429 132.211 41.6198 132.211C41.3339 132.211 41.0833 132.285 40.8678 132.434C40.6545 132.581 40.4877 132.79 40.3676 133.059C40.2495 133.326 40.1904 133.64 40.1904 134C40.1904 134.369 40.2484 134.69 40.3644 134.964C40.4825 135.237 40.6482 135.449 40.8616 135.601C41.077 135.752 41.3298 135.827 41.6198 135.827C41.8104 135.827 41.9833 135.794 42.1387 135.728C42.294 135.662 42.4256 135.566 42.5333 135.442C42.641 135.318 42.7177 135.169 42.7632 134.995H43.4966C43.4551 135.276 43.3526 135.53 43.1889 135.756C43.0274 135.98 42.813 136.158 42.5457 136.29C42.2806 136.421 41.9719 136.486 41.6198 136.486ZM45.973 136.499C45.6706 136.499 45.3961 136.442 45.1496 136.328C44.9031 136.212 44.7073 136.045 44.5623 135.827C44.4173 135.608 44.3448 135.343 44.3448 135.032C44.3448 134.759 44.3987 134.537 44.5064 134.367C44.6141 134.195 44.7581 134.06 44.9383 133.963C45.1185 133.866 45.3174 133.793 45.5349 133.746C45.7545 133.696 45.9751 133.656 46.1967 133.627C46.4868 133.59 46.7219 133.562 46.9021 133.544C47.0844 133.523 47.217 133.489 47.2998 133.441C47.3847 133.393 47.4272 133.311 47.4272 133.192V133.168C47.4272 132.861 47.3433 132.623 47.1755 132.453C47.0098 132.283 46.7581 132.198 46.4205 132.198C46.0704 132.198 45.7959 132.275 45.597 132.428C45.3982 132.581 45.2584 132.745 45.1776 132.919L44.4815 132.67C44.6058 132.38 44.7716 132.155 44.9787 131.993C45.1879 131.829 45.4158 131.715 45.6623 131.651C45.9109 131.585 46.1553 131.552 46.3956 131.552C46.5489 131.552 46.725 131.57 46.9238 131.608C47.1248 131.643 47.3185 131.717 47.5049 131.828C47.6934 131.94 47.8498 132.109 47.9741 132.335C48.0984 132.561 48.1605 132.863 48.1605 133.242V136.387H47.4272V135.74H47.3899C47.3402 135.844 47.2574 135.955 47.1413 136.073C47.0253 136.191 46.871 136.291 46.6784 136.374C46.4857 136.457 46.2506 136.499 45.973 136.499ZM46.0849 135.84C46.3749 135.84 46.6193 135.783 46.8182 135.669C47.0191 135.555 47.1703 135.408 47.2719 135.228C47.3754 135.047 47.4272 134.858 47.4272 134.659V133.988C47.3961 134.025 47.3278 134.059 47.2221 134.09C47.1186 134.119 46.9984 134.145 46.8617 134.168C46.727 134.189 46.5955 134.208 46.4671 134.224C46.3407 134.239 46.2382 134.251 46.1595 134.261C45.9689 134.286 45.7907 134.327 45.625 134.383C45.4614 134.436 45.3288 134.518 45.2273 134.628C45.1279 134.736 45.0781 134.883 45.0781 135.069C45.0781 135.324 45.1724 135.517 45.3609 135.647C45.5515 135.776 45.7928 135.84 46.0849 135.84ZM50.2323 133.516V136.387H49.499V131.614H50.2074V132.36H50.2696C50.3814 132.117 50.5513 131.923 50.7792 131.776C51.007 131.626 51.3012 131.552 51.6616 131.552C51.9848 131.552 52.2675 131.618 52.5099 131.751C52.7523 131.881 52.9408 132.08 53.0754 132.347C53.2101 132.612 53.2774 132.948 53.2774 133.354V136.387H52.5441V133.404C52.5441 133.029 52.4467 132.737 52.252 132.528C52.0573 132.316 51.79 132.211 51.4503 132.211C51.2162 132.211 51.007 132.261 50.8227 132.363C50.6404 132.464 50.4964 132.612 50.3907 132.807C50.2851 133.002 50.2323 133.238 50.2323 133.516ZM56.693 131.614V132.235H54.2197V131.614H56.693ZM54.9405 130.471H55.6738V135.02C55.6738 135.227 55.7039 135.382 55.764 135.486C55.8261 135.587 55.9048 135.655 56.0001 135.691C56.0975 135.724 56.2 135.74 56.3077 135.74C56.3885 135.74 56.4548 135.736 56.5066 135.728C56.5584 135.718 56.5998 135.709 56.6309 135.703L56.78 136.362C56.7303 136.381 56.6609 136.399 56.5718 136.418C56.4828 136.439 56.3699 136.449 56.2331 136.449C56.026 136.449 55.823 136.404 55.6241 136.315C55.4273 136.226 55.2637 136.09 55.1332 135.908C55.0047 135.726 54.9405 135.496 54.9405 135.218V130.471Z" fill="#597393" fill-opacity="0.5"/>
<path d="M70.665 178.387V172.023H72.8152C73.3124 172.023 73.7205 172.108 74.0395 172.278C74.3585 172.446 74.5947 172.677 74.748 172.971C74.9012 173.265 74.9779 173.599 74.9779 173.974C74.9779 174.349 74.9012 174.682 74.748 174.972C74.5947 175.262 74.3596 175.49 74.0426 175.655C73.7257 175.819 73.3207 175.901 72.8277 175.901H71.0876V175.205H72.8028C73.1425 175.205 73.416 175.155 73.6231 175.056C73.8324 174.956 73.9836 174.815 74.0768 174.633C74.1721 174.449 74.2197 174.229 74.2197 173.974C74.2197 173.72 74.1721 173.497 74.0768 173.306C73.9815 173.116 73.8292 172.969 73.62 172.865C73.4108 172.759 73.1343 172.707 72.7904 172.707H71.4356V178.387H70.665ZM73.6604 175.528L75.2265 178.387H74.3316L72.7904 175.528H73.6604ZM77.567 178.499C77.2646 178.499 76.9901 178.442 76.7436 178.328C76.4971 178.212 76.3013 178.045 76.1563 177.827C76.0113 177.608 75.9388 177.343 75.9388 177.032C75.9388 176.759 75.9927 176.537 76.1004 176.367C76.2081 176.195 76.3521 176.06 76.5323 175.963C76.7125 175.866 76.9114 175.793 77.1289 175.746C77.3485 175.696 77.5691 175.656 77.7907 175.627C78.0807 175.59 78.3158 175.562 78.4961 175.544C78.6784 175.523 78.8109 175.489 78.8938 175.441C78.9787 175.393 79.0212 175.311 79.0212 175.192V175.168C79.0212 174.861 78.9373 174.623 78.7695 174.453C78.6038 174.283 78.3521 174.198 78.0144 174.198C77.6644 174.198 77.3899 174.275 77.191 174.428C76.9922 174.581 76.8523 174.745 76.7715 174.919L76.0755 174.67C76.1998 174.38 76.3655 174.155 76.5727 173.993C76.7819 173.829 77.0098 173.715 77.2563 173.651C77.5049 173.585 77.7493 173.552 77.9896 173.552C78.1429 173.552 78.319 173.57 78.5178 173.608C78.7188 173.643 78.9124 173.717 79.0989 173.828C79.2874 173.94 79.4438 174.109 79.5681 174.335C79.6924 174.561 79.7545 174.863 79.7545 175.242V178.387H79.0212V177.74H78.9839C78.9342 177.844 78.8513 177.955 78.7353 178.073C78.6193 178.191 78.465 178.291 78.2723 178.374C78.0797 178.457 77.8446 178.499 77.567 178.499ZM77.6789 177.84C77.9689 177.84 78.2133 177.783 78.4122 177.669C78.6131 177.555 78.7643 177.408 78.8658 177.228C78.9694 177.047 79.0212 176.858 79.0212 176.659V175.988C78.9901 176.025 78.9218 176.059 78.8161 176.09C78.7125 176.119 78.5924 176.145 78.4557 176.168C78.321 176.189 78.1895 176.208 78.0611 176.224C77.9347 176.239 77.8322 176.251 77.7534 176.261C77.5629 176.286 77.3847 176.327 77.219 176.383C77.0553 176.436 76.9228 176.518 76.8213 176.628C76.7218 176.736 76.6721 176.883 76.6721 177.069C76.6721 177.324 76.7664 177.517 76.9549 177.647C77.1455 177.776 77.3868 177.84 77.6789 177.84ZM81.0929 178.387V173.614H81.8014V174.335H81.8511C81.9381 174.099 82.0956 173.907 82.3234 173.76C82.5513 173.613 82.8081 173.539 83.094 173.539C83.1479 173.539 83.2152 173.54 83.296 173.543C83.3768 173.545 83.4379 173.548 83.4793 173.552V174.298C83.4545 174.291 83.3975 174.282 83.3084 174.27C83.2214 174.255 83.1292 174.248 83.0319 174.248C82.7999 174.248 82.5927 174.297 82.4104 174.394C82.2302 174.489 82.0873 174.622 81.9816 174.792C81.878 174.959 81.8263 175.151 81.8263 175.366V178.387H81.0929ZM86.2044 178.486C85.7445 178.486 85.3478 178.385 85.0143 178.182C84.6829 177.977 84.427 177.691 84.2468 177.324C84.0687 176.955 83.9796 176.527 83.9796 176.038C83.9796 175.549 84.0687 175.118 84.2468 174.745C84.427 174.37 84.6777 174.078 84.9988 173.869C85.3219 173.657 85.6989 173.552 86.1298 173.552C86.3784 173.552 86.6238 173.593 86.8662 173.676C87.1086 173.759 87.3292 173.894 87.5281 174.08C87.7269 174.264 87.8854 174.509 88.0035 174.813C88.1215 175.118 88.1806 175.493 88.1806 175.938V176.249H84.5016V175.615H87.4348C87.4348 175.346 87.381 175.105 87.2733 174.894C87.1676 174.683 87.0164 174.516 86.8196 174.394C86.6249 174.272 86.3949 174.211 86.1298 174.211C85.8377 174.211 85.585 174.283 85.3716 174.428C85.1603 174.571 84.9977 174.757 84.8838 174.987C84.7699 175.217 84.7129 175.464 84.7129 175.727V176.15C84.7129 176.51 84.775 176.815 84.8993 177.066C85.0257 177.315 85.2007 177.504 85.4244 177.635C85.6482 177.763 85.9081 177.827 86.2044 177.827C86.397 177.827 86.571 177.8 86.7264 177.747C86.8838 177.691 87.0195 177.608 87.1334 177.498C87.2474 177.386 87.3354 177.247 87.3975 177.082L88.106 177.281C88.0314 177.521 87.9061 177.732 87.73 177.914C87.5539 178.095 87.3364 178.235 87.0775 178.337C86.8186 178.436 86.5275 178.486 86.2044 178.486Z" fill="#597393" fill-opacity="0.5"/>
<path d="M113.712 172.023H114.483V176.237C114.483 176.672 114.38 177.06 114.175 177.402C113.972 177.741 113.685 178.01 113.314 178.206C112.943 178.401 112.508 178.499 112.009 178.499C111.51 178.499 111.075 178.401 110.704 178.206C110.333 178.01 110.045 177.741 109.84 177.402C109.637 177.06 109.536 176.672 109.536 176.237V172.023H110.306V176.174C110.306 176.485 110.375 176.762 110.512 177.004C110.648 177.244 110.843 177.434 111.096 177.573C111.35 177.709 111.655 177.778 112.009 177.778C112.363 177.778 112.668 177.709 112.923 177.573C113.178 177.434 113.372 177.244 113.507 177.004C113.644 176.762 113.712 176.485 113.712 176.174V172.023ZM116.655 175.516V178.387H115.922V173.614H116.63V174.36H116.693C116.804 174.117 116.974 173.923 117.202 173.776C117.43 173.626 117.724 173.552 118.085 173.552C118.408 173.552 118.691 173.618 118.933 173.751C119.175 173.881 119.364 174.08 119.498 174.347C119.633 174.612 119.7 174.948 119.7 175.354V178.387H118.967V175.404C118.967 175.029 118.87 174.737 118.675 174.528C118.48 174.316 118.213 174.211 117.873 174.211C117.639 174.211 117.43 174.261 117.246 174.363C117.063 174.464 116.919 174.612 116.814 174.807C116.708 175.002 116.655 175.238 116.655 175.516ZM121.774 172.023V178.387H121.04V172.023H121.774ZM123.117 178.387V173.614H123.85V178.387H123.117ZM123.49 172.819C123.347 172.819 123.224 172.77 123.12 172.672C123.018 172.575 122.968 172.458 122.968 172.321C122.968 172.185 123.018 172.068 123.12 171.97C123.224 171.873 123.347 171.824 123.49 171.824C123.633 171.824 123.755 171.873 123.856 171.97C123.96 172.068 124.012 172.185 124.012 172.321C124.012 172.458 123.96 172.575 123.856 172.672C123.755 172.77 123.633 172.819 123.49 172.819ZM125.877 176.647L125.864 175.739H126.014L128.102 173.614H129.009L126.784 175.864H126.722L125.877 176.647ZM125.193 178.387V172.023H125.927V178.387H125.193ZM128.226 178.387L126.362 176.025L126.884 175.516L129.158 178.387H128.226ZM131.757 178.486C131.297 178.486 130.901 178.385 130.567 178.182C130.236 177.977 129.98 177.691 129.8 177.324C129.622 176.955 129.533 176.527 129.533 176.038C129.533 175.549 129.622 175.118 129.8 174.745C129.98 174.37 130.231 174.078 130.552 173.869C130.875 173.657 131.252 173.552 131.683 173.552C131.931 173.552 132.177 173.593 132.419 173.676C132.662 173.759 132.882 173.894 133.081 174.08C133.28 174.264 133.438 174.509 133.556 174.813C133.674 175.118 133.734 175.493 133.734 175.938V176.249H130.055V175.615H132.988C132.988 175.346 132.934 175.105 132.826 174.894C132.721 174.683 132.569 174.516 132.373 174.394C132.178 174.272 131.948 174.211 131.683 174.211C131.391 174.211 131.138 174.283 130.925 174.428C130.713 174.571 130.551 174.757 130.437 174.987C130.323 175.217 130.266 175.464 130.266 175.727V176.15C130.266 176.51 130.328 176.815 130.452 177.066C130.579 177.315 130.754 177.504 130.977 177.635C131.201 177.763 131.461 177.827 131.757 177.827C131.95 177.827 132.124 177.8 132.279 177.747C132.437 177.691 132.572 177.608 132.686 177.498C132.8 177.386 132.888 177.247 132.95 177.082L133.659 177.281C133.584 177.521 133.459 177.732 133.283 177.914C133.107 178.095 132.889 178.235 132.63 178.337C132.372 178.436 132.08 178.486 131.757 178.486ZM135.582 172.023V178.387H134.849V172.023H135.582ZM137.398 180.176C137.273 180.176 137.163 180.166 137.065 180.145C136.968 180.127 136.901 180.108 136.863 180.089L137.05 179.443C137.228 179.489 137.385 179.505 137.522 179.493C137.659 179.48 137.78 179.419 137.886 179.31C137.993 179.202 138.092 179.027 138.181 178.784L138.317 178.412L136.553 173.614H137.348L138.665 177.417H138.715L140.033 173.614H140.828L138.802 179.083C138.711 179.329 138.598 179.533 138.464 179.695C138.329 179.859 138.172 179.98 137.994 180.058C137.818 180.137 137.619 180.176 137.398 180.176Z" fill="#597393" fill-opacity="0.5"/>
<path d="M154.457 172.023H155.376L157.539 177.305H157.613L159.776 172.023H160.696V178.387H159.975V173.552H159.913L157.924 178.387H157.228L155.24 173.552H155.177V178.387H154.457V172.023ZM164.08 178.486C163.65 178.486 163.272 178.384 162.946 178.179C162.623 177.973 162.37 177.687 162.188 177.318C162.008 176.949 161.918 176.518 161.918 176.025C161.918 175.528 162.008 175.094 162.188 174.723C162.37 174.352 162.623 174.065 162.946 173.859C163.272 173.654 163.65 173.552 164.08 173.552C164.511 173.552 164.888 173.654 165.211 173.859C165.537 174.065 165.789 174.352 165.97 174.723C166.152 175.094 166.243 175.528 166.243 176.025C166.243 176.518 166.152 176.949 165.97 177.318C165.789 177.687 165.537 177.973 165.211 178.179C164.888 178.384 164.511 178.486 164.08 178.486ZM164.08 177.827C164.408 177.827 164.677 177.744 164.888 177.576C165.1 177.408 165.256 177.187 165.358 176.914C165.459 176.64 165.51 176.344 165.51 176.025C165.51 175.706 165.459 175.409 165.358 175.133C165.256 174.858 165.1 174.635 164.888 174.465C164.677 174.296 164.408 174.211 164.08 174.211C163.753 174.211 163.484 174.296 163.273 174.465C163.061 174.635 162.905 174.858 162.803 175.133C162.702 175.409 162.651 175.706 162.651 176.025C162.651 176.344 162.702 176.64 162.803 176.914C162.905 177.187 163.061 177.408 163.273 177.576C163.484 177.744 163.753 177.827 164.08 177.827ZM169.165 178.486C168.767 178.486 168.416 178.386 168.111 178.185C167.807 177.982 167.569 177.696 167.397 177.327C167.225 176.956 167.139 176.518 167.139 176.013C167.139 175.511 167.225 175.076 167.397 174.708C167.569 174.339 167.808 174.054 168.114 173.853C168.421 173.652 168.775 173.552 169.177 173.552C169.488 173.552 169.733 173.604 169.914 173.707C170.096 173.809 170.235 173.925 170.33 174.055C170.427 174.184 170.503 174.289 170.557 174.372H170.619V172.023H171.352V178.387H170.644V177.653H170.557C170.503 177.74 170.426 177.85 170.327 177.983C170.227 178.113 170.085 178.23 169.901 178.334C169.717 178.435 169.471 178.486 169.165 178.486ZM169.264 177.827C169.558 177.827 169.807 177.751 170.01 177.597C170.213 177.442 170.367 177.228 170.473 176.954C170.578 176.679 170.631 176.361 170.631 176C170.631 175.644 170.58 175.332 170.476 175.065C170.372 174.796 170.219 174.587 170.016 174.437C169.813 174.286 169.562 174.211 169.264 174.211C168.953 174.211 168.694 174.29 168.487 174.45C168.282 174.607 168.128 174.822 168.024 175.093C167.923 175.362 167.872 175.665 167.872 176C167.872 176.34 167.924 176.649 168.027 176.926C168.133 177.202 168.288 177.421 168.494 177.585C168.701 177.747 168.958 177.827 169.264 177.827ZM174.798 178.486C174.338 178.486 173.942 178.385 173.608 178.182C173.277 177.977 173.021 177.691 172.841 177.324C172.662 176.955 172.573 176.527 172.573 176.038C172.573 175.549 172.662 175.118 172.841 174.745C173.021 174.37 173.271 174.078 173.593 173.869C173.916 173.657 174.293 173.552 174.724 173.552C174.972 173.552 175.218 173.593 175.46 173.676C175.702 173.759 175.923 173.894 176.122 174.08C176.321 174.264 176.479 174.509 176.597 174.813C176.715 175.118 176.774 175.493 176.774 175.938V176.249H173.095V175.615H176.029C176.029 175.346 175.975 175.105 175.867 174.894C175.761 174.683 175.61 174.516 175.413 174.394C175.219 174.272 174.989 174.211 174.724 174.211C174.431 174.211 174.179 174.283 173.965 174.428C173.754 174.571 173.591 174.757 173.478 174.987C173.364 175.217 173.307 175.464 173.307 175.727V176.15C173.307 176.51 173.369 176.815 173.493 177.066C173.619 177.315 173.794 177.504 174.018 177.635C174.242 177.763 174.502 177.827 174.798 177.827C174.991 177.827 175.165 177.8 175.32 177.747C175.478 177.691 175.613 177.608 175.727 177.498C175.841 177.386 175.929 177.247 175.991 177.082L176.7 177.281C176.625 177.521 176.5 177.732 176.324 177.914C176.148 178.095 175.93 178.235 175.671 178.337C175.412 178.436 175.121 178.486 174.798 178.486ZM177.89 178.387V173.614H178.598V174.335H178.648C178.735 174.099 178.892 173.907 179.12 173.76C179.348 173.613 179.605 173.539 179.891 173.539C179.945 173.539 180.012 173.54 180.093 173.543C180.174 173.545 180.235 173.548 180.276 173.552V174.298C180.251 174.291 180.194 174.282 180.105 174.27C180.018 174.255 179.926 174.248 179.829 174.248C179.597 174.248 179.39 174.297 179.207 174.394C179.027 174.489 178.884 174.622 178.778 174.792C178.675 174.959 178.623 175.151 178.623 175.366V178.387H177.89ZM182.55 178.499C182.247 178.499 181.973 178.442 181.726 178.328C181.48 178.212 181.284 178.045 181.139 177.827C180.994 177.608 180.922 177.343 180.922 177.032C180.922 176.759 180.976 176.537 181.083 176.367C181.191 176.195 181.335 176.06 181.515 175.963C181.695 175.866 181.894 175.793 182.112 175.746C182.331 175.696 182.552 175.656 182.774 175.627C183.064 175.59 183.299 175.562 183.479 175.544C183.661 175.523 183.794 175.489 183.877 175.441C183.962 175.393 184.004 175.311 184.004 175.192V175.168C184.004 174.861 183.92 174.623 183.752 174.453C183.587 174.283 183.335 174.198 182.997 174.198C182.647 174.198 182.373 174.275 182.174 174.428C181.975 174.581 181.835 174.745 181.754 174.919L181.058 174.67C181.183 174.38 181.348 174.155 181.556 173.993C181.765 173.829 181.993 173.715 182.239 173.651C182.488 173.585 182.732 173.552 182.972 173.552C183.126 173.552 183.302 173.57 183.501 173.608C183.702 173.643 183.895 173.717 184.082 173.828C184.27 173.94 184.427 174.109 184.551 174.335C184.675 174.561 184.737 174.863 184.737 175.242V178.387H184.004V177.74H183.967C183.917 177.844 183.834 177.955 183.718 178.073C183.602 178.191 183.448 178.291 183.255 178.374C183.063 178.457 182.827 178.499 182.55 178.499ZM182.662 177.84C182.952 177.84 183.196 177.783 183.395 177.669C183.596 177.555 183.747 177.408 183.849 177.228C183.952 177.047 184.004 176.858 184.004 176.659V175.988C183.973 176.025 183.905 176.059 183.799 176.09C183.695 176.119 183.575 176.145 183.439 176.168C183.304 176.189 183.172 176.208 183.044 176.224C182.918 176.239 182.815 176.251 182.736 176.261C182.546 176.286 182.368 176.327 182.202 176.383C182.038 176.436 181.906 176.518 181.804 176.628C181.705 176.736 181.655 176.883 181.655 177.069C181.655 177.324 181.749 177.517 181.938 177.647C182.128 177.776 182.37 177.84 182.662 177.84ZM188.151 173.614V174.235H185.678V173.614H188.151ZM186.399 172.471H187.132V177.02C187.132 177.227 187.162 177.382 187.222 177.486C187.285 177.587 187.363 177.655 187.459 177.691C187.556 177.724 187.658 177.74 187.766 177.74C187.847 177.74 187.913 177.736 187.965 177.728C188.017 177.718 188.058 177.709 188.089 177.703L188.239 178.362C188.189 178.381 188.119 178.399 188.03 178.418C187.941 178.439 187.828 178.449 187.692 178.449C187.484 178.449 187.281 178.404 187.083 178.315C186.886 178.226 186.722 178.09 186.592 177.908C186.463 177.726 186.399 177.496 186.399 177.218V172.471ZM191.204 178.486C190.744 178.486 190.348 178.385 190.014 178.182C189.683 177.977 189.427 177.691 189.247 177.324C189.069 176.955 188.98 176.527 188.98 176.038C188.98 175.549 189.069 175.118 189.247 174.745C189.427 174.37 189.678 174.078 189.999 173.869C190.322 173.657 190.699 173.552 191.13 173.552C191.378 173.552 191.624 173.593 191.866 173.676C192.109 173.759 192.329 173.894 192.528 174.08C192.727 174.264 192.885 174.509 193.003 174.813C193.122 175.118 193.181 175.493 193.181 175.938V176.249H189.502V175.615H192.435C192.435 175.346 192.381 175.105 192.273 174.894C192.168 174.683 192.016 174.516 191.82 174.394C191.625 174.272 191.395 174.211 191.13 174.211C190.838 174.211 190.585 174.283 190.372 174.428C190.16 174.571 189.998 174.757 189.884 174.987C189.77 175.217 189.713 175.464 189.713 175.727V176.15C189.713 176.51 189.775 176.815 189.899 177.066C190.026 177.315 190.201 177.504 190.424 177.635C190.648 177.763 190.908 177.827 191.204 177.827C191.397 177.827 191.571 177.8 191.726 177.747C191.884 177.691 192.019 177.608 192.133 177.498C192.247 177.386 192.335 177.247 192.398 177.082L193.106 177.281C193.031 177.521 192.906 177.732 192.73 177.914C192.554 178.095 192.336 178.235 192.078 178.337C191.819 178.436 191.528 178.486 191.204 178.486Z" fill="#597393" fill-opacity="0.5"/>
<path d="M216.294 178.387V172.023H217.065V177.703H220.023V178.387H216.294ZM221.117 178.387V173.614H221.85V178.387H221.117ZM221.49 172.819C221.347 172.819 221.224 172.77 221.12 172.672C221.018 172.575 220.968 172.458 220.968 172.321C220.968 172.185 221.018 172.068 221.12 171.97C221.224 171.873 221.347 171.824 221.49 171.824C221.633 171.824 221.755 171.873 221.856 171.97C221.96 172.068 222.012 172.185 222.012 172.321C222.012 172.458 221.96 172.575 221.856 172.672C221.755 172.77 221.633 172.819 221.49 172.819ZM223.877 176.647L223.864 175.739H224.014L226.102 173.614H227.009L224.784 175.864H224.722L223.877 176.647ZM223.193 178.387V172.023H223.927V178.387H223.193ZM226.226 178.387L224.362 176.025L224.884 175.516L227.158 178.387H226.226ZM229.757 178.486C229.297 178.486 228.901 178.385 228.567 178.182C228.236 177.977 227.98 177.691 227.8 177.324C227.622 176.955 227.533 176.527 227.533 176.038C227.533 175.549 227.622 175.118 227.8 174.745C227.98 174.37 228.231 174.078 228.552 173.869C228.875 173.657 229.252 173.552 229.683 173.552C229.931 173.552 230.177 173.593 230.419 173.676C230.662 173.759 230.882 173.894 231.081 174.08C231.28 174.264 231.438 174.509 231.556 174.813C231.674 175.118 231.734 175.493 231.734 175.938V176.249H228.055V175.615H230.988C230.988 175.346 230.934 175.105 230.826 174.894C230.721 174.683 230.569 174.516 230.373 174.394C230.178 174.272 229.948 174.211 229.683 174.211C229.391 174.211 229.138 174.283 228.925 174.428C228.713 174.571 228.551 174.757 228.437 174.987C228.323 175.217 228.266 175.464 228.266 175.727V176.15C228.266 176.51 228.328 176.815 228.452 177.066C228.579 177.315 228.754 177.504 228.977 177.635C229.201 177.763 229.461 177.827 229.757 177.827C229.95 177.827 230.124 177.8 230.279 177.747C230.437 177.691 230.572 177.608 230.686 177.498C230.8 177.386 230.888 177.247 230.95 177.082L231.659 177.281C231.584 177.521 231.459 177.732 231.283 177.914C231.107 178.095 230.889 178.235 230.63 178.337C230.372 178.436 230.08 178.486 229.757 178.486ZM233.582 172.023V178.387H232.849V172.023H233.582ZM235.398 180.176C235.273 180.176 235.163 180.166 235.065 180.145C234.968 180.127 234.901 180.108 234.863 180.089L235.05 179.443C235.228 179.489 235.385 179.505 235.522 179.493C235.659 179.48 235.78 179.419 235.886 179.31C235.993 179.202 236.092 179.027 236.181 178.784L236.317 178.412L234.553 173.614H235.348L236.665 177.417H236.715L238.033 173.614H238.828L236.802 179.083C236.711 179.329 236.598 179.533 236.464 179.695C236.329 179.859 236.172 179.98 235.994 180.058C235.818 180.137 235.619 180.176 235.398 180.176Z" fill="#597393" fill-opacity="0.5"/>
<path d="M265.437 178.387H264.63L266.966 172.023H267.762L270.098 178.387H269.29L267.389 173.03H267.339L265.437 178.387ZM265.736 175.901H268.992V176.585H265.736V175.901ZM271.723 172.023V178.387H270.99V172.023H271.723ZM273.067 178.387V173.614H273.775V174.36H273.837C273.937 174.105 274.097 173.907 274.319 173.766C274.54 173.623 274.807 173.552 275.117 173.552C275.432 173.552 275.694 173.623 275.903 173.766C276.115 173.907 276.279 174.105 276.398 174.36H276.447C276.569 174.113 276.753 173.917 276.997 173.772C277.242 173.625 277.535 173.552 277.877 173.552C278.303 173.552 278.652 173.685 278.924 173.953C279.195 174.218 279.331 174.631 279.331 175.192V178.387H278.597V175.192C278.597 174.84 278.501 174.589 278.308 174.437C278.116 174.286 277.889 174.211 277.628 174.211C277.292 174.211 277.032 174.312 276.848 174.515C276.664 174.716 276.572 174.971 276.572 175.279V178.387H275.826V175.118C275.826 174.847 275.738 174.628 275.562 174.462C275.386 174.294 275.159 174.211 274.881 174.211C274.691 174.211 274.512 174.261 274.347 174.363C274.183 174.464 274.051 174.605 273.949 174.785C273.85 174.964 273.8 175.17 273.8 175.404V178.387H273.067ZM282.61 178.486C282.18 178.486 281.802 178.384 281.476 178.179C281.153 177.973 280.9 177.687 280.718 177.318C280.538 176.949 280.448 176.518 280.448 176.025C280.448 175.528 280.538 175.094 280.718 174.723C280.9 174.352 281.153 174.065 281.476 173.859C281.802 173.654 282.18 173.552 282.61 173.552C283.041 173.552 283.418 173.654 283.741 173.859C284.067 174.065 284.319 174.352 284.5 174.723C284.682 175.094 284.773 175.528 284.773 176.025C284.773 176.518 284.682 176.949 284.5 177.318C284.319 177.687 284.067 177.973 283.741 178.179C283.418 178.384 283.041 178.486 282.61 178.486ZM282.61 177.827C282.938 177.827 283.207 177.744 283.418 177.576C283.63 177.408 283.786 177.187 283.888 176.914C283.989 176.64 284.04 176.344 284.04 176.025C284.04 175.706 283.989 175.409 283.888 175.133C283.786 174.858 283.63 174.635 283.418 174.465C283.207 174.296 282.938 174.211 282.61 174.211C282.283 174.211 282.014 174.296 281.803 174.465C281.591 174.635 281.435 174.858 281.333 175.133C281.232 175.409 281.181 175.706 281.181 176.025C281.181 176.344 281.232 176.64 281.333 176.914C281.435 177.187 281.591 177.408 281.803 177.576C282.014 177.744 282.283 177.827 282.61 177.827ZM289.273 174.683L288.614 174.869C288.573 174.76 288.512 174.653 288.431 174.549C288.352 174.444 288.245 174.357 288.108 174.288C287.971 174.22 287.796 174.186 287.583 174.186C287.291 174.186 287.047 174.253 286.853 174.388C286.66 174.52 286.564 174.689 286.564 174.894C286.564 175.076 286.63 175.22 286.762 175.326C286.895 175.432 287.102 175.52 287.384 175.59L288.092 175.764C288.519 175.868 288.837 176.026 289.046 176.24C289.256 176.451 289.36 176.723 289.36 177.057C289.36 177.33 289.281 177.575 289.124 177.79C288.969 178.006 288.751 178.175 288.471 178.3C288.192 178.424 287.867 178.486 287.496 178.486C287.009 178.486 286.606 178.381 286.287 178.169C285.968 177.958 285.766 177.649 285.681 177.243L286.377 177.069C286.443 177.326 286.569 177.519 286.753 177.647C286.94 177.776 287.183 177.84 287.483 177.84C287.825 177.84 288.097 177.767 288.297 177.622C288.5 177.475 288.602 177.299 288.602 177.094C288.602 176.928 288.544 176.79 288.428 176.678C288.312 176.564 288.134 176.479 287.894 176.423L287.098 176.237C286.661 176.133 286.34 175.972 286.135 175.755C285.932 175.535 285.83 175.261 285.83 174.931C285.83 174.662 285.906 174.424 286.057 174.217C286.21 174.01 286.419 173.847 286.682 173.729C286.947 173.611 287.247 173.552 287.583 173.552C288.055 173.552 288.426 173.655 288.695 173.863C288.967 174.07 289.159 174.343 289.273 174.683ZM292.54 173.614V174.235H290.066V173.614H292.54ZM290.787 172.471H291.52V177.02C291.52 177.227 291.551 177.382 291.611 177.486C291.673 177.587 291.751 177.655 291.847 177.691C291.944 177.724 292.047 177.74 292.154 177.74C292.235 177.74 292.301 177.736 292.353 177.728C292.405 177.718 292.446 177.709 292.477 177.703L292.627 178.362C292.577 178.381 292.508 178.399 292.418 178.418C292.329 178.439 292.216 178.449 292.08 178.449C291.873 178.449 291.67 178.404 291.471 178.315C291.274 178.226 291.11 178.09 290.98 177.908C290.851 177.726 290.787 177.496 290.787 177.218V172.471ZM301.324 174.012H300.553C300.508 173.79 300.428 173.595 300.314 173.428C300.202 173.26 300.065 173.119 299.904 173.005C299.744 172.889 299.567 172.802 299.372 172.744C299.178 172.686 298.975 172.657 298.763 172.657C298.378 172.657 298.029 172.754 297.716 172.949C297.406 173.144 297.158 173.431 296.974 173.81C296.791 174.189 296.7 174.654 296.7 175.205C296.7 175.756 296.791 176.221 296.974 176.6C297.158 176.979 297.406 177.266 297.716 177.461C298.029 177.655 298.378 177.753 298.763 177.753C298.975 177.753 299.178 177.724 299.372 177.666C299.567 177.608 299.744 177.522 299.904 177.408C300.065 177.292 300.202 177.15 300.314 176.982C300.428 176.812 300.508 176.618 300.553 176.398H301.324C301.266 176.723 301.16 177.014 301.007 177.271C300.854 177.528 300.663 177.747 300.435 177.927C300.207 178.105 299.951 178.241 299.668 178.334C299.386 178.427 299.085 178.474 298.763 178.474C298.221 178.474 297.738 178.341 297.315 178.076C296.893 177.811 296.56 177.434 296.318 176.945C296.076 176.456 295.955 175.876 295.955 175.205C295.955 174.534 296.076 173.954 296.318 173.465C296.56 172.976 296.893 172.599 297.315 172.334C297.738 172.069 298.221 171.936 298.763 171.936C299.085 171.936 299.386 171.983 299.668 172.076C299.951 172.169 300.207 172.306 300.435 172.486C300.663 172.664 300.854 172.882 301.007 173.139C301.16 173.393 301.266 173.684 301.324 174.012ZM304.471 178.486C304.011 178.486 303.614 178.385 303.281 178.182C302.949 177.977 302.693 177.691 302.513 177.324C302.335 176.955 302.246 176.527 302.246 176.038C302.246 175.549 302.335 175.118 302.513 174.745C302.693 174.37 302.944 174.078 303.265 173.869C303.588 173.657 303.965 173.552 304.396 173.552C304.645 173.552 304.89 173.593 305.133 173.676C305.375 173.759 305.596 173.894 305.794 174.08C305.993 174.264 306.152 174.509 306.27 174.813C306.388 175.118 306.447 175.493 306.447 175.938V176.249H302.768V175.615H305.701C305.701 175.346 305.647 175.105 305.54 174.894C305.434 174.683 305.283 174.516 305.086 174.394C304.891 174.272 304.661 174.211 304.396 174.211C304.104 174.211 303.851 174.283 303.638 174.428C303.427 174.571 303.264 174.757 303.15 174.987C303.036 175.217 302.979 175.464 302.979 175.727V176.15C302.979 176.51 303.041 176.815 303.166 177.066C303.292 177.315 303.467 177.504 303.691 177.635C303.914 177.763 304.174 177.827 304.471 177.827C304.663 177.827 304.837 177.8 304.993 177.747C305.15 177.691 305.286 177.608 305.4 177.498C305.514 177.386 305.602 177.247 305.664 177.082L306.372 177.281C306.298 177.521 306.172 177.732 305.996 177.914C305.82 178.095 305.603 178.235 305.344 178.337C305.085 178.436 304.794 178.486 304.471 178.486ZM307.562 178.387V173.614H308.271V174.335H308.321C308.408 174.099 308.565 173.907 308.793 173.76C309.021 173.613 309.278 173.539 309.563 173.539C309.617 173.539 309.685 173.54 309.765 173.543C309.846 173.545 309.907 173.548 309.949 173.552V174.298C309.924 174.291 309.867 174.282 309.778 174.27C309.691 174.255 309.599 174.248 309.501 174.248C309.269 174.248 309.062 174.297 308.88 174.394C308.7 174.489 308.557 174.622 308.451 174.792C308.347 174.959 308.296 175.151 308.296 175.366V178.387H307.562ZM313.193 173.614V174.235H310.719V173.614H313.193ZM311.44 172.471H312.174V177.02C312.174 177.227 312.204 177.382 312.264 177.486C312.326 177.587 312.405 177.655 312.5 177.691C312.597 177.724 312.7 177.74 312.807 177.74C312.888 177.74 312.955 177.736 313.006 177.728C313.058 177.718 313.1 177.709 313.131 177.703L313.28 178.362C313.23 178.381 313.161 178.399 313.072 178.418C312.982 178.439 312.87 178.449 312.733 178.449C312.526 178.449 312.323 178.404 312.124 178.315C311.927 178.226 311.763 178.09 311.633 177.908C311.504 177.726 311.44 177.496 311.44 177.218V172.471ZM315.7 178.499C315.398 178.499 315.123 178.442 314.877 178.328C314.63 178.212 314.435 178.045 314.29 177.827C314.145 177.608 314.072 177.343 314.072 177.032C314.072 176.759 314.126 176.537 314.234 176.367C314.341 176.195 314.485 176.06 314.666 175.963C314.846 175.866 315.045 175.793 315.262 175.746C315.482 175.696 315.702 175.656 315.924 175.627C316.214 175.59 316.449 175.562 316.629 175.544C316.812 175.523 316.944 175.489 317.027 175.441C317.112 175.393 317.154 175.311 317.154 175.192V175.168C317.154 174.861 317.071 174.623 316.903 174.453C316.737 174.283 316.485 174.198 316.148 174.198C315.798 174.198 315.523 174.275 315.324 174.428C315.125 174.581 314.986 174.745 314.905 174.919L314.209 174.67C314.333 174.38 314.499 174.155 314.706 173.993C314.915 173.829 315.143 173.715 315.39 173.651C315.638 173.585 315.883 173.552 316.123 173.552C316.276 173.552 316.452 173.57 316.651 173.608C316.852 173.643 317.046 173.717 317.232 173.828C317.421 173.94 317.577 174.109 317.701 174.335C317.826 174.561 317.888 174.863 317.888 175.242V178.387H317.154V177.74H317.117C317.067 177.844 316.985 177.955 316.869 178.073C316.753 178.191 316.598 178.291 316.406 178.374C316.213 178.457 315.978 178.499 315.7 178.499ZM315.812 177.84C316.102 177.84 316.347 177.783 316.545 177.669C316.746 177.555 316.898 177.408 316.999 177.228C317.103 177.047 317.154 176.858 317.154 176.659V175.988C317.123 176.025 317.055 176.059 316.949 176.09C316.846 176.119 316.726 176.145 316.589 176.168C316.454 176.189 316.323 176.208 316.194 176.224C316.068 176.239 315.965 176.251 315.887 176.261C315.696 176.286 315.518 176.327 315.352 176.383C315.189 176.436 315.056 176.518 314.955 176.628C314.855 176.736 314.805 176.883 314.805 177.069C314.805 177.324 314.9 177.517 315.088 177.647C315.279 177.776 315.52 177.84 315.812 177.84ZM319.226 178.387V173.614H319.96V178.387H319.226ZM319.599 172.819C319.456 172.819 319.333 172.77 319.229 172.672C319.128 172.575 319.077 172.458 319.077 172.321C319.077 172.185 319.128 172.068 319.229 171.97C319.333 171.873 319.456 171.824 319.599 171.824C319.742 171.824 319.864 171.873 319.966 171.97C320.069 172.068 320.121 172.185 320.121 172.321C320.121 172.458 320.069 172.575 319.966 172.672C319.864 172.77 319.742 172.819 319.599 172.819ZM322.036 175.516V178.387H321.303V173.614H322.011V174.36H322.073C322.185 174.117 322.355 173.923 322.583 173.776C322.811 173.626 323.105 173.552 323.465 173.552C323.788 173.552 324.071 173.618 324.314 173.751C324.556 173.881 324.744 174.08 324.879 174.347C325.014 174.612 325.081 174.948 325.081 175.354V178.387H324.348V175.404C324.348 175.029 324.25 174.737 324.056 174.528C323.861 174.316 323.594 174.211 323.254 174.211C323.02 174.211 322.811 174.261 322.626 174.363C322.444 174.464 322.3 174.612 322.194 174.807C322.089 175.002 322.036 175.238 322.036 175.516Z" fill="#597393" fill-opacity="0.5"/>
</g>
<rect x="-4.5625" y="11.3242" width="384.125" height="196.875" rx="12.6875" stroke="#EAECF0" stroke-width="0.875"/>
</g>
<defs>
<filter id="filter0_d_6570_42827" x="-36.5" y="0.386717" width="448" height="260.75" filterUnits="userSpaceOnUse" color-interpolation-filters="sRGB">
<feFlood flood-opacity="0" result="BackgroundImageFix"/>
<feColorMatrix in="SourceAlpha" type="matrix" values="0 0 0 0 0 0 0 0 0 0 0 0 0 0 0 0 0 0 127 0" result="hardAlpha"/>
<feMorphology radius="10.5" operator="erode" in="SourceAlpha" result="effect1_dropShadow_6570_42827"/>
<feOffset dy="21"/>
<feGaussianBlur stdDeviation="21"/>
<feColorMatrix type="matrix" values="0 0 0 0 0.0625882 0 0 0 0 0.0926346 0 0 0 0 0.15702 0 0 0 0.18 0"/>
<feBlend mode="normal" in2="BackgroundImageFix" result="effect1_dropShadow_6570_42827"/>
<feBlend mode="normal" in="SourceGraphic" in2="effect1_dropShadow_6570_42827" result="shape"/>
</filter>
<clipPath id="clip0_6570_42827">
<rect x="-5" y="10.8867" width="385" height="197.75" rx="13.125" fill="white"/>
</clipPath>
</defs>
</svg>
