<svg width="23" height="23" viewBox="0 0 23 23" fill="none" xmlns="http://www.w3.org/2000/svg">
<g clip-path="url(#clip0_2602_92313)">
<path d="M7.17793 0L2.74023 4.4377V23H20.2598V0H7.17793ZM6.7832 2.30058V4.04297H5.04082L6.7832 2.30058ZM18.9121 21.6523H4.08789V5.39062H8.13086V1.34766H18.9121V21.6523Z" fill="black"/>
<path d="M9.47852 9.69592V16.4797C9.08419 16.3121 8.62527 16.2166 8.13086 16.2166C6.61946 16.2166 5.43555 17.1045 5.43555 18.2381C5.43555 19.3716 6.61946 20.2596 8.13086 20.2596C9.64226 20.2596 10.8262 19.3716 10.8262 18.2381V13.3037L16.2168 11.1474V13.7844C15.8225 13.6168 15.3636 13.5213 14.8691 13.5213C13.3577 13.5213 12.1738 14.4092 12.1738 15.5428C12.1738 16.6763 13.3577 17.5643 14.8691 17.5643C16.3805 17.5643 17.5645 16.6763 17.5645 15.5428V6.46155L9.47852 9.69592ZM8.13086 18.9119C7.30821 18.9119 6.7832 18.5128 6.7832 18.2381C6.7832 17.9633 7.30821 17.5643 8.13086 17.5643C8.95351 17.5643 9.47852 17.9633 9.47852 18.2381C9.47852 18.5128 8.95351 18.9119 8.13086 18.9119ZM14.8691 16.2166C14.0465 16.2166 13.5215 15.8175 13.5215 15.5428C13.5215 15.268 14.0465 14.8689 14.8691 14.8689C15.6918 14.8689 16.2168 15.268 16.2168 15.5428C16.2168 15.8175 15.6918 16.2166 14.8691 16.2166ZM16.2168 9.69597L10.8262 11.8522V10.6084L16.2168 8.45213V9.69597Z" fill="black"/>
</g>
<defs>
<clipPath id="clip0_2602_92313">
<rect width="23" height="23" fill="white"/>
</clipPath>
</defs>
</svg>
