<svg width="23" height="23" viewBox="0 0 23 23" fill="none" xmlns="http://www.w3.org/2000/svg">
<g id="navigation-pointer-01">
<path id="Icon" d="M3.45011 10.4626C2.89198 10.2455 2.61291 10.137 2.53143 9.98064C2.4608 9.84508 2.46071 9.68359 2.53118 9.54795C2.61247 9.39148 2.89141 9.28262 3.44929 9.06491L19.2816 2.88647C19.7852 2.68994 20.037 2.59167 20.1979 2.64543C20.3376 2.69211 20.4473 2.80176 20.4939 2.9415C20.5477 3.1024 20.4494 3.3542 20.2529 3.85781L14.0745 19.6901C13.8567 20.248 13.7479 20.5269 13.5914 20.6082C13.4558 20.6787 13.2943 20.6786 13.1587 20.6079C13.0023 20.5265 12.8938 20.2474 12.6768 19.6892L10.2129 13.3536C10.1688 13.2403 10.1468 13.1837 10.1128 13.136C10.0826 13.0937 10.0457 13.0567 10.0034 13.0266C9.95568 12.9925 9.89904 12.9705 9.78574 12.9265L3.45011 10.4626Z" stroke="black" stroke-width="1.60714" stroke-linecap="round" stroke-linejoin="round"/>
</g>
</svg>
