<svg width="704" height="107" viewBox="0 0 704 107" fill="none" xmlns="http://www.w3.org/2000/svg">
<g clip-path="url(#clip0_6070_22290)">
<path d="M703.13 1.66992C703.13 1.25571 702.794 0.919922 702.38 0.919922C701.966 0.919922 701.63 1.25571 701.63 1.66992H703.13ZM5.84957 106.2C6.14246 106.493 6.61734 106.493 6.91023 106.2L11.6832 101.427C11.9761 101.134 11.9761 100.66 11.6832 100.367C11.3903 100.074 10.9154 100.074 10.6225 100.367L6.3799 104.609L2.13726 100.367C1.84437 100.074 1.3695 100.074 1.0766 100.367C0.78371 100.66 0.78371 101.134 1.0766 101.427L5.84957 106.2ZM7.1299 105.67V103.337H5.6299V105.67H7.1299ZM7.1299 98.6699V94.0032H5.6299V98.6699H7.1299ZM7.1299 89.3366V84.6699H5.6299V89.3366H7.1299ZM7.1299 80.0032V77.6699H5.6299V80.0032H7.1299ZM7.1299 77.6699C7.1299 76.9002 7.16728 76.1394 7.24029 75.3892L5.74734 75.2439C5.66964 76.0423 5.6299 76.8516 5.6299 77.6699H7.1299ZM8.1252 70.9182C8.57057 69.4482 9.15767 68.0397 9.87068 66.7085L8.54839 66.0002C7.78925 67.4176 7.164 68.9175 6.68964 70.4832L8.1252 70.9182ZM12.4064 62.9203C13.3733 61.7435 14.4535 60.6633 15.6304 59.6964L14.6781 58.5374C13.4258 59.5664 12.2764 60.7158 11.2475 61.9681L12.4064 62.9203ZM19.4185 57.1607C20.7497 56.4477 22.1582 55.8606 23.6282 55.4152L23.1933 53.9796C21.6276 54.454 20.1276 55.0792 18.7103 55.8384L19.4185 57.1607ZM28.0992 54.5303C28.8494 54.4573 29.6102 54.4199 30.3799 54.4199V52.9199C29.5616 52.9199 28.7523 52.9596 27.9539 53.0373L28.0992 54.5303ZM30.3799 54.4199H32.8722V52.9199H30.3799V54.4199ZM37.8568 54.4199H42.8415V52.9199H37.8568V54.4199ZM47.8261 54.4199H52.8107V52.9199H47.8261V54.4199ZM57.7953 54.4199H62.7799V52.9199H57.7953V54.4199ZM67.7645 54.4199H72.7491V52.9199H67.7645V54.4199ZM77.7338 54.4199H82.7184V52.9199H77.7338V54.4199ZM87.703 54.4199H92.6876V52.9199H87.703V54.4199ZM97.6722 54.4199H102.657V52.9199H97.6722V54.4199ZM107.642 54.4199H112.626V52.9199H107.642V54.4199ZM117.611 54.4199H122.595V52.9199H117.611V54.4199ZM127.58 54.4199H132.565V52.9199H127.58V54.4199ZM137.549 54.4199H142.534V52.9199H137.549V54.4199ZM147.519 54.4199H152.503V52.9199H147.519V54.4199ZM157.488 54.4199H162.472V52.9199H157.488V54.4199ZM167.457 54.4199H172.442V52.9199H167.457V54.4199ZM177.426 54.4199H182.411V52.9199H177.426V54.4199ZM187.395 54.4199H192.38V52.9199H187.395V54.4199ZM197.365 54.4199H202.349V52.9199H197.365V54.4199ZM207.334 54.4199H212.319V52.9199H207.334V54.4199ZM217.303 54.4199H222.288V52.9199H217.303V54.4199ZM227.272 54.4199H232.257V52.9199H227.272V54.4199ZM237.242 54.4199H242.226V52.9199H237.242V54.4199ZM247.211 54.4199H252.196V52.9199H247.211V54.4199ZM257.18 54.4199H262.165V52.9199H257.18V54.4199ZM267.149 54.4199H272.134V52.9199H267.149V54.4199ZM277.119 54.4199H282.103V52.9199H277.119V54.4199ZM287.088 54.4199H292.072V52.9199H287.088V54.4199ZM297.057 54.4199H302.042V52.9199H297.057V54.4199ZM307.026 54.4199H312.011V52.9199H307.026V54.4199ZM316.996 54.4199H321.98V52.9199H316.996V54.4199ZM326.965 54.4199H331.949V52.9199H326.965V54.4199ZM336.934 54.4199H341.919V52.9199H336.934V54.4199ZM346.903 54.4199H351.888V52.9199H346.903V54.4199ZM356.873 54.4199H361.857V52.9199H356.873V54.4199ZM366.842 54.4199H371.826V52.9199H366.842V54.4199ZM376.811 54.4199H381.796V52.9199H376.811V54.4199ZM386.78 54.4199H391.765V52.9199H386.78V54.4199ZM396.749 54.4199H401.734V52.9199H396.749V54.4199ZM406.719 54.4199H411.703V52.9199H406.719V54.4199ZM416.688 54.4199H421.673V52.9199H416.688V54.4199ZM426.657 54.4199H431.642V52.9199H426.657V54.4199ZM436.626 54.4199H441.611V52.9199H436.626V54.4199ZM446.596 54.4199H451.58V52.9199H446.596V54.4199ZM456.565 54.4199H461.549V52.9199H456.565V54.4199ZM466.534 54.4199H471.519V52.9199H466.534V54.4199ZM476.503 54.4199H481.488V52.9199H476.503V54.4199ZM486.473 54.4199H491.457V52.9199H486.473V54.4199ZM496.442 54.4199H501.426V52.9199H496.442V54.4199ZM506.411 54.4199H511.396V52.9199H506.411V54.4199ZM516.38 54.4199H521.365V52.9199H516.38V54.4199ZM526.35 54.4199H531.334V52.9199H526.35V54.4199ZM536.319 54.4199H541.303V52.9199H536.319V54.4199ZM546.288 54.4199H551.273V52.9199H546.288V54.4199ZM556.257 54.4199H561.242V52.9199H556.257V54.4199ZM566.227 54.4199H571.211V52.9199H566.227V54.4199ZM576.196 54.4199H581.18V52.9199H576.196V54.4199ZM586.165 54.4199H591.15V52.9199H586.165V54.4199ZM596.134 54.4199H601.119V52.9199H596.134V54.4199ZM606.103 54.4199H611.088V52.9199H606.103V54.4199ZM616.073 54.4199H621.057V52.9199H616.073V54.4199ZM626.042 54.4199H631.027V52.9199H626.042V54.4199ZM636.011 54.4199H640.996V52.9199H636.011V54.4199ZM645.98 54.4199H650.965V52.9199H645.98V54.4199ZM655.95 54.4199H660.934V52.9199H655.95V54.4199ZM665.919 54.4199H670.904V52.9199H665.919V54.4199ZM675.888 54.4199H678.38V52.9199H675.888V54.4199ZM678.38 54.4199C679.198 54.4199 680.008 54.3802 680.806 54.3025L680.661 52.8095C679.911 52.8825 679.15 52.9199 678.38 52.9199V54.4199ZM685.567 53.3602C687.132 52.8858 688.632 52.2606 690.05 51.5014L689.341 50.1791C688.01 50.8921 686.602 51.4792 685.132 51.9246L685.567 53.3602ZM694.082 48.8024C695.334 47.7734 696.484 46.624 697.512 45.3717L696.353 44.4195C695.387 45.5963 694.306 46.6765 693.13 47.6434L694.082 48.8024ZM700.212 41.3396C700.971 39.9222 701.596 38.4222 702.07 36.8566L700.635 36.4216C700.189 37.8916 699.602 39.3001 698.889 40.6313L700.212 41.3396ZM703.013 32.0959C703.09 31.2975 703.13 30.4882 703.13 29.6699H701.63C701.63 30.4396 701.593 31.2004 701.52 31.9506L703.013 32.0959ZM703.13 29.6699V27.3366H701.63V29.6699H703.13ZM703.13 22.6699V18.0032H701.63V22.6699H703.13ZM703.13 13.3366V8.66992H701.63V13.3366H703.13ZM703.13 4.00325V1.66992H701.63V4.00325H703.13Z" fill="#101828"/>
</g>
<defs>
<clipPath id="clip0_6070_22290">
<rect width="703" height="106" fill="white" transform="translate(0.379883 0.669922)"/>
</clipPath>
</defs>
</svg>
