<svg width="704" height="107" viewBox="0 0 704 107" fill="none" xmlns="http://www.w3.org/2000/svg">
<g clip-path="url(#clip0_6070_22306)">
<path d="M2.12988 1.77344C2.12988 1.35922 1.79409 1.02344 1.37988 1.02344C0.965669 1.02344 0.629883 1.35922 0.629883 1.77344H2.12988ZM696.85 106.303C697.143 106.596 697.617 106.596 697.91 106.303L702.683 101.53C702.976 101.237 702.976 100.763 702.683 100.47C702.39 100.177 701.916 100.177 701.623 100.47L697.38 104.712L693.137 100.47C692.844 100.177 692.37 100.177 692.077 100.47C691.784 100.763 691.784 101.237 692.077 101.53L696.85 106.303ZM0.629883 1.77344V4.10677H2.12988V1.77344H0.629883ZM0.629883 8.77344V13.4401H2.12988V8.77344H0.629883ZM0.629883 18.1067V22.7734H2.12988V18.1067H0.629883ZM0.629883 27.4401V29.7734H2.12988V27.4401H0.629883ZM0.629883 29.7734C0.629883 30.5917 0.669624 31.401 0.747322 32.1994L2.24027 32.0541C2.16726 31.3039 2.12988 30.5431 2.12988 29.7734H0.629883ZM1.68962 36.9601C2.16398 38.5258 2.78923 40.0257 3.54837 41.4431L4.87064 40.7348C4.15764 39.4036 3.57054 37.9951 3.12518 36.5251L1.68962 36.9601ZM6.24743 45.4752C7.27634 46.7275 8.42579 47.8769 9.67809 48.9059L10.6303 47.7469C9.45351 46.78 8.3733 45.6998 7.40641 44.523L6.24743 45.4752ZM13.7103 51.6049C15.1276 52.3641 16.6276 52.9893 18.1932 53.4637L18.6282 52.0281C17.1582 51.5827 15.7497 50.9956 14.4185 50.2826L13.7103 51.6049ZM22.9539 54.406C23.7523 54.4837 24.5616 54.5234 25.3799 54.5234V53.0234C24.6102 53.0234 23.8494 52.986 23.0992 52.913L22.9539 54.406ZM25.3799 54.5234H27.8722V53.0234H25.3799V54.5234ZM32.8568 54.5234H37.8414V53.0234H32.8568V54.5234ZM42.8261 54.5234H47.8107V53.0234H42.8261V54.5234ZM52.7953 54.5234H57.7799V53.0234H52.7953V54.5234ZM62.7645 54.5234H67.7491V53.0234H62.7645V54.5234ZM72.7337 54.5234H77.7184V53.0234H72.7337V54.5234ZM82.703 54.5234H87.6876V53.0234H82.703V54.5234ZM92.6722 54.5234H97.6568V53.0234H92.6722V54.5234ZM102.642 54.5234H107.626V53.0234H102.642V54.5234ZM112.611 54.5234H117.595V53.0234H112.611V54.5234ZM122.58 54.5234H127.565V53.0234H122.58V54.5234ZM132.549 54.5234H137.534V53.0234H132.549V54.5234ZM142.519 54.5234H147.503V53.0234H142.519V54.5234ZM152.488 54.5234H157.472V53.0234H152.488V54.5234ZM162.457 54.5234H167.442V53.0234H162.457V54.5234ZM172.426 54.5234H177.411V53.0234H172.426V54.5234ZM182.395 54.5234H187.38V53.0234H182.395V54.5234ZM192.365 54.5234H197.349V53.0234H192.365V54.5234ZM202.334 54.5234H207.319V53.0234H202.334V54.5234ZM212.303 54.5234H217.288V53.0234H212.303V54.5234ZM222.272 54.5234H227.257V53.0234H222.272V54.5234ZM232.242 54.5234H237.226V53.0234H232.242V54.5234ZM242.211 54.5234H247.195V53.0234H242.211V54.5234ZM252.18 54.5234H257.165V53.0234H252.18V54.5234ZM262.149 54.5234H267.134V53.0234H262.149V54.5234ZM272.119 54.5234H277.103V53.0234H272.119V54.5234ZM282.088 54.5234H287.072V53.0234H282.088V54.5234ZM292.057 54.5234H297.042V53.0234H292.057V54.5234ZM302.026 54.5234H307.011V53.0234H302.026V54.5234ZM311.996 54.5234H316.98V53.0234H311.996V54.5234ZM321.965 54.5234H326.949V53.0234H321.965V54.5234ZM331.934 54.5234H336.919V53.0234H331.934V54.5234ZM341.903 54.5234H346.888V53.0234H341.903V54.5234ZM351.873 54.5234H356.857V53.0234H351.873V54.5234ZM361.842 54.5234H366.826V53.0234H361.842V54.5234ZM371.811 54.5234H376.796V53.0234H371.811V54.5234ZM381.78 54.5234H386.765V53.0234H381.78V54.5234ZM391.749 54.5234H396.734V53.0234H391.749V54.5234ZM401.719 54.5234H406.703V53.0234H401.719V54.5234ZM411.688 54.5234H416.673V53.0234H411.688V54.5234ZM421.657 54.5234H426.642V53.0234H421.657V54.5234ZM431.626 54.5234H436.611V53.0234H431.626V54.5234ZM441.596 54.5234H446.58V53.0234H441.596V54.5234ZM451.565 54.5234H456.549V53.0234H451.565V54.5234ZM461.534 54.5234H466.519V53.0234H461.534V54.5234ZM471.503 54.5234H476.488V53.0234H471.503V54.5234ZM481.473 54.5234H486.457V53.0234H481.473V54.5234ZM491.442 54.5234H496.426V53.0234H491.442V54.5234ZM501.411 54.5234H506.396V53.0234H501.411V54.5234ZM511.38 54.5234H516.365V53.0234H511.38V54.5234ZM521.35 54.5234H526.334V53.0234H521.35V54.5234ZM531.319 54.5234H536.303V53.0234H531.319V54.5234ZM541.288 54.5234H546.273V53.0234H541.288V54.5234ZM551.257 54.5234H556.242V53.0234H551.257V54.5234ZM561.226 54.5234H566.211V53.0234H561.226V54.5234ZM571.196 54.5234H576.18V53.0234H571.196V54.5234ZM581.165 54.5234H586.15V53.0234H581.165V54.5234ZM591.134 54.5234H596.119V53.0234H591.134V54.5234ZM601.103 54.5234H606.088V53.0234H601.103V54.5234ZM611.073 54.5234H616.057V53.0234H611.073V54.5234ZM621.042 54.5234H626.027V53.0234H621.042V54.5234ZM631.011 54.5234H635.996V53.0234H631.011V54.5234ZM640.98 54.5234H645.965V53.0234H640.98V54.5234ZM650.95 54.5234H655.934V53.0234H650.95V54.5234ZM660.919 54.5234H665.903V53.0234H660.919V54.5234ZM670.888 54.5234H673.38V53.0234H670.888V54.5234ZM673.38 54.5234C674.15 54.5234 674.911 54.5608 675.661 54.6338L675.806 53.1408C675.008 53.0631 674.198 53.0234 673.38 53.0234V54.5234ZM680.132 55.5187C681.602 55.9641 683.01 56.5512 684.341 57.2642L685.05 55.9419C683.632 55.1827 682.132 54.5575 680.567 54.0831L680.132 55.5187ZM688.13 59.7999C689.306 60.7668 690.387 61.847 691.353 63.0238L692.512 62.0716C691.484 60.8193 690.334 59.6699 689.082 58.6409L688.13 59.7999ZM693.889 66.812C694.602 68.1432 695.189 69.5517 695.635 71.0217L697.07 70.5867C696.596 69.0211 695.971 67.5211 695.212 66.1038L693.889 66.812ZM696.52 75.4927C696.593 76.2429 696.63 77.0037 696.63 77.7734H698.13C698.13 76.9551 698.09 76.1458 698.013 75.3474L696.52 75.4927ZM696.63 77.7734V80.1067H698.13V77.7734H696.63ZM696.63 84.7734V89.4401H698.13V84.7734H696.63ZM696.63 94.1067V98.7734H698.13V94.1067H696.63ZM696.63 103.44V105.773H698.13V103.44H696.63Z" fill="#101828"/>
</g>
<defs>
<clipPath id="clip0_6070_22306">
<rect width="703" height="106" fill="white" transform="translate(0.379883 0.773438)"/>
</clipPath>
</defs>
</svg>
