<svg width="19" height="19" viewBox="0 0 19 19" fill="none" xmlns="http://www.w3.org/2000/svg">
<g id="phone">
<path id="Icon" d="M6.91812 7.23312C7.45473 8.35078 8.18625 9.39829 9.11267 10.3247C10.0391 11.2511 11.0866 11.9827 12.2043 12.5193C12.3004 12.5654 12.3485 12.5885 12.4093 12.6062C12.6254 12.6692 12.8909 12.624 13.0739 12.4929C13.1254 12.456 13.1695 12.412 13.2576 12.3238C13.5272 12.0543 13.662 11.9195 13.7975 11.8314C14.3086 11.4991 14.9675 11.4991 15.4786 11.8314C15.6141 11.9195 15.7489 12.0543 16.0184 12.3238L16.1686 12.4741C16.5784 12.8838 16.7833 13.0887 16.8946 13.3087C17.1159 13.7463 17.1159 14.2631 16.8946 14.7007C16.7833 14.9207 16.5784 15.1256 16.1686 15.5353L16.0471 15.6568C15.6388 16.0652 15.4346 16.2694 15.157 16.4253C14.849 16.5983 14.3706 16.7227 14.0173 16.7217C13.6989 16.7207 13.4813 16.659 13.0461 16.5354C10.7074 15.8716 8.50049 14.6192 6.65935 12.778C4.81822 10.9369 3.56574 8.73 2.90193 6.39125C2.77841 5.95606 2.71665 5.73846 2.7157 5.42008C2.71465 5.06679 2.83906 4.58839 3.01209 4.28037C3.16803 4.00278 3.3722 3.79861 3.78054 3.39027L3.90207 3.26873C4.31182 2.85899 4.51669 2.65412 4.73672 2.54283C5.17431 2.3215 5.69109 2.3215 6.12868 2.54283C6.34871 2.65412 6.55358 2.85899 6.96332 3.26873L7.11357 3.41898C7.38311 3.68853 7.51789 3.8233 7.606 3.95883C7.9383 4.46992 7.9383 5.1288 7.606 5.63989C7.51789 5.77542 7.38311 5.91019 7.11357 6.17974C7.02543 6.26787 6.98136 6.31194 6.94448 6.36345C6.8134 6.54651 6.76814 6.81193 6.83115 7.02809C6.84888 7.08891 6.87196 7.13698 6.91812 7.23312Z" stroke="#7F56D9" stroke-width="1.542" stroke-linecap="round" stroke-linejoin="round"/>
</g>
</svg>
