<svg width="25" height="25" viewBox="0 0 25 25" fill="none" xmlns="http://www.w3.org/2000/svg">
<path d="M11.15 15.9468L16.025 12.8218C16.2583 12.6718 16.375 12.4634 16.375 12.1968C16.375 11.9301 16.2583 11.7218 16.025 11.5718L11.15 8.44678C10.9 8.28011 10.6457 8.26744 10.387 8.40878C10.1283 8.55011 9.99933 8.77111 10 9.07178V15.3218C10 15.6218 10.1293 15.8428 10.388 15.9848C10.6467 16.1268 10.9007 16.1141 11.15 15.9468ZM12.5 22.1968C11.1167 22.1968 9.81667 21.9341 8.6 21.4088C7.38333 20.8834 6.325 20.1711 5.425 19.2718C4.525 18.3718 3.81267 17.3134 3.288 16.0968C2.76333 14.8801 2.50067 13.5801 2.5 12.1968C2.5 10.8134 2.76267 9.51344 3.288 8.29678C3.81333 7.08011 4.52567 6.02178 5.425 5.12178C6.325 4.22178 7.38333 3.50944 8.6 2.98478C9.81667 2.46011 11.1167 2.19744 12.5 2.19678C13.8833 2.19678 15.1833 2.45944 16.4 2.98478C17.6167 3.51011 18.675 4.22244 19.575 5.12178C20.475 6.02178 21.1877 7.08011 21.713 8.29678C22.2383 9.51344 22.5007 10.8134 22.5 12.1968C22.5 13.5801 22.2373 14.8801 21.712 16.0968C21.1867 17.3134 20.4743 18.3718 19.575 19.2718C18.675 20.1718 17.6167 20.8844 16.4 21.4098C15.1833 21.9351 13.8833 22.1974 12.5 22.1968ZM12.5 20.1968C14.7333 20.1968 16.625 19.4218 18.175 17.8718C19.725 16.3218 20.5 14.4301 20.5 12.1968C20.5 9.96344 19.725 8.07178 18.175 6.52178C16.625 4.97178 14.7333 4.19678 12.5 4.19678C10.2667 4.19678 8.375 4.97178 6.825 6.52178C5.275 8.07178 4.5 9.96344 4.5 12.1968C4.5 14.4301 5.275 16.3218 6.825 17.8718C8.375 19.4218 10.2667 20.1968 12.5 20.1968Z" fill="#7F56D9"/>
</svg>
