<svg width="42" height="42" viewBox="0 0 42 42" fill="none" xmlns="http://www.w3.org/2000/svg">
<path fill-rule="evenodd" clip-rule="evenodd" d="M21.0001 41.4C26.4105 41.4 31.5993 39.2507 35.4251 35.425C39.2508 31.5992 41.4001 26.4104 41.4001 21C41.4001 15.5896 39.2508 10.4007 35.4251 6.575C31.5993 2.74926 26.4105 0.599976 21.0001 0.599976C15.5897 0.599976 10.4009 2.74926 6.57512 6.575C2.74938 10.4007 0.600098 15.5896 0.600098 21C0.600098 26.4104 2.74938 31.5992 6.57512 35.425C10.4009 39.2507 15.5897 41.4 21.0001 41.4ZM19.8653 13.7784C19.4813 13.5222 19.0349 13.375 18.5738 13.3526C18.1127 13.3302 17.6542 13.4334 17.2471 13.6512C16.84 13.869 16.4997 14.1932 16.2625 14.5893C16.0253 14.9853 15.9 15.4383 15.9001 15.9V26.1C15.9 26.5616 16.0253 27.0147 16.2625 27.4107C16.4997 27.8067 16.84 28.131 17.2471 28.3488C17.6542 28.5665 18.1127 28.6698 18.5738 28.6474C19.0349 28.625 19.4813 28.4778 19.8653 28.2216L27.5153 23.1216C27.8646 22.8887 28.1509 22.5732 28.349 22.2031C28.547 21.833 28.6507 21.4197 28.6507 21C28.6507 20.5802 28.547 20.1669 28.349 19.7968C28.1509 19.4267 27.8646 19.1112 27.5153 18.8784L19.8653 13.7784Z" fill="#7F56D9"/>
</svg>
