<svg width="41" height="41" viewBox="0 0 41 41" fill="none" xmlns="http://www.w3.org/2000/svg">
<path fill-rule="evenodd" clip-rule="evenodd" d="M34.825 35.0249C30.9992 38.8507 25.8104 41 20.4 41C14.9896 41 9.80076 38.8507 5.97502 35.0249C2.14928 31.1992 0 26.0104 0 20.6C0 15.1895 2.14928 10.0007 5.97502 6.17497C9.80076 2.34923 14.9896 0.199951 20.4 0.199951C25.8104 0.199951 30.9992 2.34923 34.825 6.17497C38.6507 10.0007 40.8 15.1895 40.8 20.6C40.8 26.0104 38.6507 31.1992 34.825 35.0249ZM28 28.2V14.109C28 13.7353 27.8515 13.3769 27.5873 13.1127C27.323 12.8484 26.9646 12.7 26.5909 12.7H23.0682C22.6945 12.7 22.3361 12.8484 22.0718 13.1127C21.8075 13.3769 21.6591 13.7353 21.6591 14.109V28.2C21.6591 28.5737 21.8075 28.9321 22.0718 29.1963C22.3361 29.4606 22.6945 29.609 23.0682 29.609H26.5909C26.9646 29.609 27.323 29.4606 27.5873 29.1963C27.8515 28.9321 28 28.5737 28 28.2ZM13.9091 12.7H17.4318C17.8055 12.7 18.1639 12.8484 18.4282 13.1127C18.6925 13.3769 18.8409 13.7353 18.8409 14.109V28.2C18.8409 28.5737 18.6925 28.9321 18.4282 29.1963C18.1639 29.4606 17.8055 29.609 17.4318 29.609H13.9091C13.5354 29.609 13.177 29.4606 12.9127 29.1963C12.6485 28.9321 12.5 28.5737 12.5 28.2V14.109C12.5 13.7353 12.6485 13.3769 12.9127 13.1127C13.177 12.8484 13.5354 12.7 13.9091 12.7Z" fill="#5D39AE"/>
</svg>
