<svg xmlns="http://www.w3.org/2000/svg" width="372" height="323" viewBox="0 0 372 323" fill="none">
    <path opacity="0.1" d="M515.292 207.344C503.443 210.831 490.993 203.857 487.66 191.954C474.747 150.713 452.762 72.7416 414.716 53.5858C411.152 52.5164 408.977 52.6092 405.552 53.6786C398.563 55.6778 387.918 65.0699 379.263 76.7401C337.376 132.394 328.998 204.74 293.544 264.765C243.65 350.641 165.152 338.878 116.276 261.092C95.541 230.219 80.6375 192.698 68.002 160.152C56.0607 130.627 41.7126 111.286 20.3293 98.8716C0.195733 87.2479 -6.1452 60.7458 6.58294 41.218C18.8945 22.1551 44.3508 16.8548 63.1884 29.4084C99.8454 52.0049 126.644 93.3851 139.604 132.208C151.036 165.313 160.246 193.86 177.047 222.315C186.674 237.658 195.978 251.374 208.845 256.21C210.233 256.489 211.436 256.675 214.63 255.28C221.11 252.583 231.061 242.354 238.929 230.219C256.795 203.764 267.949 170.427 280.446 140.391C295.396 105.613 311.503 72.3694 335.987 42.0549C396.249 -31.8253 462.62 -0.813345 496.269 76.6004C512.144 111.007 522.049 145.785 530.612 180.609C533.528 192.094 526.77 203.996 515.292 207.344Z" fill="url(#paint0_linear_3848_101020)"/>
    <defs>
      <linearGradient id="paint0_linear_3848_101020" x1="21.3634" y1="191.476" x2="518.083" y2="106.54" gradientUnits="userSpaceOnUse">
        <stop stop-color="#9695F8"/>
        <stop offset="1" stop-color="#D9BCF8"/>
      </linearGradient>
    </defs>
  </svg>