<svg xmlns="http://www.w3.org/2000/svg" width="29" height="29" viewBox="0 0 29 29" fill="none">
    <path d="M12.2869 1.50977C18.2355 1.50977 23.064 6.33947 23.064 12.2869C23.064 18.2355 18.2355 23.064 12.2869 23.064C6.33947 23.064 1.50977 18.2355 1.50977 12.2869C1.50977 6.33947 6.33947 1.50977 12.2869 1.50977ZM12.2869 3.32227C7.33877 3.32227 3.32227 7.33877 3.32227 12.2869C3.32227 17.235 7.33877 21.2515 12.2869 21.2515C17.235 21.2515 21.2515 17.235 21.2515 12.2869C21.2515 7.33877 17.235 3.32227 12.2869 3.32227Z" fill="#7F56D9"/>
    <path d="M7.20391 12.9291C7.03875 12.7583 6.9473 12.5294 6.94925 12.2918C6.9512 12.0542 7.0464 11.8268 7.21435 11.6587C7.3823 11.4906 7.60955 11.3952 7.84717 11.393C8.08479 11.3908 8.31375 11.4821 8.48475 11.6471L10.806 13.9671L16.0876 8.68544C16.2576 8.51543 16.4882 8.41992 16.7286 8.41992C16.969 8.41992 17.1996 8.51543 17.3696 8.68544C17.5396 8.85545 17.6351 9.08603 17.6351 9.32646C17.6351 9.56689 17.5396 9.79747 17.3696 9.96748L11.4464 15.8895C11.3622 15.9737 11.2623 16.0405 11.1523 16.0861C11.0423 16.1317 10.9244 16.1552 10.8054 16.1552C10.6863 16.1552 10.5684 16.1317 10.4584 16.0861C10.3484 16.0405 10.2485 15.9737 10.1643 15.8895L7.20391 12.9291ZM19.6655 18.7678C19.4954 18.5978 19.3999 18.3672 19.3999 18.1268C19.3999 17.8863 19.4954 17.6557 19.6655 17.4857C19.8355 17.3157 20.066 17.2202 20.3065 17.2202C20.5469 17.2202 20.7775 17.3157 20.9475 17.4857L26.8611 23.3993C27.2617 23.8011 27.4866 24.3454 27.4866 24.9128C27.4866 25.4801 27.2617 26.0244 26.8611 26.4262L26.4249 26.8624C26.2262 27.0613 25.9903 27.2192 25.7306 27.3268C25.4709 27.4345 25.1926 27.4899 24.9114 27.4899C24.6303 27.4899 24.3519 27.4345 24.0922 27.3268C23.8326 27.2192 23.5966 27.0613 23.398 26.8624L17.4844 20.9488C17.4002 20.8646 17.3335 20.7647 17.2879 20.6547C17.2423 20.5447 17.2189 20.4268 17.2189 20.3078C17.2189 20.1887 17.2423 20.0709 17.2879 19.9609C17.3335 19.8509 17.4002 19.751 17.4844 19.6668C17.5686 19.5826 17.6685 19.5158 17.7785 19.4703C17.8885 19.4247 18.0064 19.4013 18.1254 19.4013C18.2445 19.4013 18.3624 19.4247 18.4724 19.4703C18.5823 19.5158 18.6823 19.5826 18.7665 19.6668L24.68 25.5816C24.7421 25.6421 24.8254 25.676 24.912 25.676C24.9987 25.676 25.082 25.6421 25.144 25.5816L25.5802 25.1454C25.6408 25.0833 25.6746 25 25.6746 24.9134C25.6746 24.8267 25.6408 24.7434 25.5802 24.6814L19.6655 18.7678Z" fill="#7F56D9"/>
  </svg>