<svg width="16" height="16" viewBox="0 0 16 16" fill="none" xmlns="http://www.w3.org/2000/svg">
<g clip-path="url(#clip0_10916_6574)">
<path d="M8.24984 14.6549C11.8167 14.6549 14.7082 11.7635 14.7082 8.19661C14.7082 4.62978 11.8167 1.73828 8.24984 1.73828C4.683 1.73828 1.7915 4.62978 1.7915 8.19661C1.7915 11.7635 4.683 14.6549 8.24984 14.6549Z" stroke="#6D648A" stroke-width="1.29167" stroke-linecap="round" stroke-linejoin="round"/>
<path d="M7.5691 9.56593V9.4847C7.57119 9.1077 7.6066 8.80777 7.67533 8.5849C7.74615 8.36203 7.84613 8.1829 7.97527 8.04751C8.1044 7.91004 8.26166 7.78403 8.44704 7.66947C8.57409 7.59032 8.68761 7.50388 8.78759 7.41015C8.88965 7.31434 8.96984 7.20811 9.02816 7.09147C9.08648 6.97275 9.11564 6.84048 9.11564 6.69468C9.11564 6.53013 9.07711 6.38746 9.00004 6.26665C8.92298 6.14584 8.81883 6.05211 8.68761 5.98546C8.55847 5.91881 8.41371 5.88548 8.25333 5.88548C8.10545 5.88548 7.96485 5.91777 7.83155 5.98234C7.70033 6.04482 7.59097 6.14063 7.50349 6.26977C7.41809 6.39683 7.37019 6.55825 7.35977 6.75404H6.24751C6.25793 6.3583 6.35374 6.02712 6.53495 5.76051C6.71825 5.4939 6.95986 5.29394 7.2598 5.16064C7.56181 5.02733 7.89507 4.96068 8.25958 4.96068C8.65741 4.96068 9.00733 5.03046 9.30935 5.17001C9.61345 5.30956 9.84986 5.50848 10.0186 5.76676C10.1894 6.02295 10.2748 6.32705 10.2748 6.67906C10.2748 6.91651 10.2362 7.12896 10.1592 7.31642C10.0842 7.50388 9.97692 7.67051 9.83736 7.81631C9.69781 7.96212 9.53222 8.0923 9.3406 8.20685C9.17188 8.311 9.03337 8.41931 8.92506 8.53178C8.81883 8.64426 8.73968 8.77652 8.68761 8.92857C8.63762 9.07854 8.61159 9.26392 8.6095 9.4847V9.56593H7.5691ZM8.11274 11.5155C7.92528 11.5155 7.76385 11.4489 7.62847 11.3156C7.49308 11.1823 7.42538 11.0198 7.42538 10.8282C7.42538 10.6407 7.49308 10.4803 7.62847 10.347C7.76385 10.2137 7.92528 10.1471 8.11274 10.1471C8.29811 10.1471 8.45849 10.2137 8.59388 10.347C8.73135 10.4803 8.80009 10.6407 8.80009 10.8282C8.80009 10.9552 8.7678 11.0708 8.70323 11.175C8.64075 11.2791 8.55743 11.3624 8.45329 11.4249C8.35123 11.4853 8.23771 11.5155 8.11274 11.5155Z" fill="#6D648A"/>
</g>
<defs>
<clipPath id="clip0_10916_6574">
<rect width="15.5" height="15.5" fill="white" transform="translate(0.5 0.446777)"/>
</clipPath>
</defs>
</svg>
