<svg width="16" height="17" viewBox="0 0 16 17" fill="none" xmlns="http://www.w3.org/2000/svg">
<path d="M6.05967 6.40885C6.21641 5.9633 6.52578 5.58759 6.93298 5.34828C7.34018 5.10896 7.81894 5.02148 8.28446 5.10133C8.74998 5.18118 9.17222 5.4232 9.47639 5.78454C9.78057 6.14588 9.94705 6.6032 9.94634 7.07552C9.94634 8.40885 7.94634 9.07552 7.94634 9.07552M7.99967 11.7422H8.00634M14.6663 8.40885C14.6663 12.0908 11.6816 15.0755 7.99967 15.0755C4.31778 15.0755 1.33301 12.0908 1.33301 8.40885C1.33301 4.72696 4.31778 1.74219 7.99967 1.74219C11.6816 1.74219 14.6663 4.72696 14.6663 8.40885Z" stroke="#98A2B3" stroke-width="1.33333" stroke-linecap="round" stroke-linejoin="round"/>
</svg>
