<svg width="75" height="42" viewBox="0 0 75 42" fill="none" xmlns="http://www.w3.org/2000/svg">
<g clip-path="url(#clip0_328_29439)">
<path d="M74.7379 29.0377C74.738 25.4829 74.7357 15.9688 74.7071 14.4194C74.6709 12.4519 73.0929 11.7256 71.6619 11.3747C71.2309 11.269 39.2549 5.13983 39.2549 5.13983C38.2449 4.95339 37.2093 4.95339 36.1992 5.13983C36.1992 5.13983 4.18682 11.2655 3.74205 11.3747C2.31096 11.7256 0.732999 12.4519 0.696712 14.4194C0.665876 16.0902 0.665685 27.0236 0.666089 29.7577V31.7129C0.6664 32.2835 0.86972 32.8353 1.23967 33.2697C1.60962 33.704 2.12205 33.9926 2.68529 34.0837L17.6075 37.5308C20.9386 38.3394 24.3536 39.1722 27.2413 39.8748C27.2413 39.8748 34.4331 41.608 34.5745 41.6312C35.4517 41.7757 35.666 41.941 37.1027 42.0003L37.1289 41.9987C37.3461 41.9861 38.0578 41.9861 38.275 41.9987L38.3012 42.0003C39.738 41.941 39.9523 41.7757 40.8294 41.6312C41.026 41.5989 42.4042 41.2706 44.4784 40.769C44.4784 40.769 54.0833 38.4322 57.7964 37.5308L72.7188 34.0837C73.282 33.9926 73.7944 33.704 74.1643 33.2696C74.5342 32.8352 74.7375 32.2834 74.7378 31.7129V31.1048L74.763 31.0966L74.7379 29.0377ZM39.0772 11.5818C38.7085 11.8514 38.268 12.0055 37.8116 12.0247C37.3553 12.0439 36.9034 11.9274 36.5133 11.6898C36.1231 11.4522 35.8122 11.1043 35.6198 10.69C35.4274 10.2757 35.3622 9.81371 35.4324 9.36235C35.5026 8.91099 35.705 8.49059 36.0142 8.1543C36.3233 7.81801 36.7252 7.58094 37.1691 7.47307C37.6129 7.3652 38.0788 7.39137 38.5078 7.54828C38.9368 7.70519 39.3096 7.98579 39.5791 8.35459C39.9405 8.84911 40.0907 9.46693 39.9965 10.0722C39.9024 10.6774 39.5717 11.2204 39.0772 11.5818Z" fill="#00C0EB"/>
<path d="M7.33203 16.5498H9.80043C11.6068 16.5498 12.5099 17.5984 12.5098 19.6957C12.5238 20.2445 12.4238 20.7903 12.2163 21.2986C12.0039 21.7634 11.6406 22.1427 11.1853 22.3748L12.841 27.2667H11.2157L9.78569 22.6909H8.86753V27.2667H7.33203V16.5498ZM8.86753 21.3362H9.74055C9.96191 21.3454 10.1827 21.3069 10.3878 21.2233C10.5405 21.1551 10.669 21.0423 10.7564 20.8997C10.8483 20.74 10.9072 20.5634 10.9296 20.3804C10.9898 19.9057 10.9898 19.4252 10.9296 18.9505C10.9062 18.7632 10.8419 18.5833 10.7412 18.4236C10.6448 18.2774 10.5056 18.1645 10.3427 18.1003C10.1256 18.0223 9.89553 17.9865 9.66497 17.9948H8.86753V21.3362Z" fill="white"/>
<path d="M14.873 16.5498H19.4492V17.9948H16.4086V21.1406H19.0576V22.5856H16.4086V25.7315H19.4492V27.2667H14.873V16.5498Z" fill="white"/>
<path d="M22.5806 17.9948H20.8047V16.5498H25.8922V17.9948H24.1162V27.2667H22.5806V17.9948Z" fill="white"/>
<path d="M27.6973 16.5498H30.1656C31.9721 16.5498 32.8752 17.5984 32.875 19.6957C32.889 20.2445 32.7891 20.7903 32.5816 21.2986C32.3692 21.7634 32.0058 22.1427 31.5505 22.3748L33.2063 27.2667H31.581L30.1509 22.6909H29.2328V27.2667H27.6973V16.5498ZM29.2328 21.3362H30.1058C30.3271 21.3454 30.5479 21.3069 30.7531 21.2233C30.9057 21.1551 31.0342 21.0423 31.1216 20.8997C31.2136 20.74 31.2725 20.5634 31.2948 20.3804C31.355 19.9057 31.355 19.4252 31.2948 18.9505C31.2715 18.7631 31.2071 18.5833 31.1064 18.4236C31.01 18.2774 30.8708 18.1645 30.7079 18.1003C30.4908 18.0223 30.2608 17.9865 30.0302 17.9948H29.2328V21.3362Z" fill="white"/>
<path d="M35.2393 16.5498H39.8154V17.9948H36.7748V21.1406H39.4238V22.5856H36.7748V25.7315H39.8154V27.2667H35.2393V16.5498Z" fill="white"/>
<path d="M43.6375 16.5498H44.9169L47.3102 27.2667H45.7752L45.3232 24.9637H43.2312L42.7797 27.2667H41.2441L43.6375 16.5498ZM44.2848 19.6355H44.2548L43.502 23.5187H45.0376L44.2848 19.6355Z" fill="white"/>
<path d="M51.6447 27.2667H50.2897L48.1074 16.5498H49.7327L50.9522 24.0306H50.9822L52.2164 16.5498H53.8422L51.6447 27.2667Z" fill="white"/>
<path d="M55.8896 16.5498H60.4658V17.9948H57.4252V21.1406H60.0742V22.5856H57.4252V25.7315H60.4658V27.2667H55.8896V16.5498Z" fill="white"/>
<path d="M62.5879 16.5498H65.0563C66.8627 16.5498 67.7658 17.5984 67.7656 19.6957C67.7796 20.2445 67.6797 20.7903 67.4722 21.2986C67.2598 21.7634 66.8964 22.1427 66.4411 22.3748L68.0969 27.2667H66.4716L65.0416 22.6909H64.1234V27.2667H62.5879V16.5498ZM64.1234 21.3362H64.9964C65.2178 21.3454 65.4385 21.3069 65.6437 21.2233C65.7964 21.1551 65.9248 21.0423 66.0123 20.8997C66.1042 20.74 66.1631 20.5634 66.1855 20.3804C66.2456 19.9057 66.2456 19.4252 66.1855 18.9505C66.1621 18.7632 66.0977 18.5833 65.997 18.4236C65.9006 18.2774 65.7615 18.1645 65.5986 18.1003C65.3815 18.0223 65.1514 17.9865 64.9208 17.9948H64.1234V21.3362Z" fill="white"/>
<path d="M23.4305 31.6999H22.8594V31.2354H24.4947V31.6999H23.924V34.6802H23.4305V31.6999Z" fill="white"/>
<path d="M25.1075 31.2354H25.5185L26.2876 34.6802H25.7942L25.6492 33.94H24.9768L24.8314 34.6802H24.3379L25.1075 31.2354ZM25.3153 32.2273H25.3059L25.0639 33.4754H25.5574L25.3153 32.2273Z" fill="white"/>
<path d="M26.387 32.0478C26.3845 31.9215 26.4092 31.7961 26.4594 31.6801C26.5036 31.5796 26.5687 31.4898 26.6505 31.4166C26.7286 31.3479 26.8189 31.2946 26.9167 31.2593C27.1088 31.1883 27.3199 31.1883 27.512 31.2593C27.6098 31.2946 27.7001 31.3479 27.7781 31.4166C27.8599 31.4898 27.925 31.5796 27.9692 31.6801C28.0194 31.7961 28.0441 31.9215 28.0417 32.0478V32.2221H27.5482V32.0478C27.5523 31.9993 27.5455 31.9504 27.5283 31.9048C27.5111 31.8591 27.484 31.8179 27.449 31.784C27.383 31.7294 27.3 31.6995 27.2143 31.6995C27.1286 31.6995 27.0457 31.7294 26.9797 31.784C26.9446 31.8179 26.9175 31.8591 26.9003 31.9048C26.8832 31.9504 26.8764 31.9993 26.8804 32.0478V33.8669C26.8763 33.9154 26.8831 33.9643 26.9003 34.0099C26.9174 34.0556 26.9446 34.0968 26.9797 34.1306C27.0456 34.1854 27.1286 34.2154 27.2143 34.2154C27.3 34.2154 27.3831 34.1854 27.449 34.1306C27.4841 34.0968 27.5112 34.0556 27.5284 34.0099C27.5455 33.9643 27.5523 33.9154 27.5482 33.8669V33.2188H27.156V32.7833H28.0417V33.8669C28.0447 33.994 28.0199 34.1203 27.9692 34.2369C27.9247 34.3366 27.8596 34.4257 27.7781 34.4984C27.7 34.567 27.6098 34.6204 27.512 34.6556C27.3199 34.7267 27.1088 34.7267 26.9167 34.6556C26.8189 34.6204 26.7286 34.567 26.6505 34.4984C26.5691 34.4257 26.5039 34.3366 26.4594 34.2369C26.4087 34.1203 26.384 33.994 26.387 33.8669V32.0478Z" fill="white"/>
<path d="M29.2568 33.2057C29.2566 33.1683 29.2641 33.1312 29.2789 33.0968C29.3067 33.0298 29.3599 32.9766 29.4269 32.9488C29.4614 32.9342 29.4984 32.9268 29.5358 32.9268C29.5732 32.9268 29.6103 32.9342 29.6447 32.9488C29.6777 32.9627 29.7076 32.9829 29.733 33.0081C29.7584 33.0336 29.7787 33.0637 29.7928 33.0968C29.8074 33.1313 29.8149 33.1684 29.8149 33.2058C29.8149 33.2432 29.8074 33.2802 29.7928 33.3147C29.7644 33.3813 29.7113 33.4343 29.6447 33.4628C29.6102 33.4771 29.5732 33.4845 29.5358 33.4845C29.4984 33.4845 29.4614 33.4771 29.4269 33.4628C29.3938 33.4487 29.3637 33.4284 29.3382 33.4032C29.3129 33.3777 29.2928 33.3477 29.2789 33.3147C29.2641 33.2803 29.2566 33.2432 29.2568 33.2057Z" fill="white"/>
<path d="M31.3837 31.6999H30.8125V31.2354H32.4478V31.6999H31.8772V34.6802H31.3837V31.6999Z" fill="white"/>
<path d="M32.7344 31.2354H33.5282C34.1087 31.2354 34.399 31.5725 34.3991 32.2467C34.4035 32.4231 34.3714 32.5986 34.3046 32.7619C34.2362 32.9112 34.1195 33.0331 33.9733 33.1079L34.5051 34.6802H33.9828L33.5234 33.2095H33.2279V34.6802H32.7344V31.2354ZM33.2279 32.774H33.5087C33.5798 32.777 33.6507 32.7646 33.7166 32.7378C33.7656 32.7157 33.807 32.6794 33.8352 32.6336C33.8648 32.5822 33.8838 32.5255 33.8909 32.4666C33.9105 32.3141 33.9105 32.1596 33.8909 32.007C33.8834 31.9469 33.8628 31.8891 33.8305 31.8378C33.7994 31.7909 33.7547 31.7546 33.7024 31.7338C33.6326 31.7087 33.5587 31.6972 33.4845 31.6999H33.2279V32.774Z" fill="white"/>
<path d="M35.4747 31.2354H35.8857L36.6548 34.6802H36.1614L36.0165 33.94H35.344L35.1986 34.6802H34.7051L35.4747 31.2354ZM35.6826 32.2273H35.6731L35.4311 33.4754H35.9246L35.6826 32.2273Z" fill="white"/>
<path d="M38.3968 33.9105C38.3972 34.0151 38.3767 34.1189 38.3364 34.2155C38.2975 34.31 38.2408 34.3961 38.1695 34.4693C38.098 34.5423 38.0137 34.6014 37.9206 34.6436C37.824 34.6874 37.7191 34.7097 37.613 34.709C37.5167 34.7085 37.4209 34.6954 37.3279 34.6701C37.2322 34.6451 37.1431 34.5997 37.0665 34.537C36.9851 34.4693 36.9198 34.3842 36.8754 34.2879C36.8214 34.1646 36.7957 34.0307 36.8003 33.8961V31.9996C36.7993 31.892 36.8191 31.7852 36.8586 31.6851C36.8955 31.5908 36.9514 31.5051 37.0229 31.4334C37.0956 31.3613 37.182 31.3045 37.277 31.2665C37.3809 31.2252 37.4918 31.2047 37.6035 31.2061C37.7113 31.2052 37.8183 31.2257 37.918 31.2665C38.0124 31.3054 38.0979 31.3629 38.1695 31.4358C38.2419 31.511 38.2987 31.5998 38.3364 31.6972C38.3775 31.8027 38.398 31.9152 38.3968 32.0284V32.2222H37.9033V32.0576C37.9053 31.9668 37.8764 31.8781 37.8214 31.8059C37.7956 31.7716 37.7619 31.744 37.7231 31.7255C37.6844 31.707 37.6417 31.6981 37.5988 31.6996C37.5514 31.6932 37.5033 31.7006 37.4599 31.7207C37.4166 31.7409 37.3799 31.773 37.3542 31.8133C37.3108 31.9028 37.2901 32.0017 37.2938 32.1012V33.8622C37.2908 33.9506 37.3136 34.038 37.3594 34.1137C37.3861 34.1497 37.4218 34.1781 37.4629 34.1959C37.504 34.2138 37.549 34.2205 37.5936 34.2155C37.629 34.215 37.6642 34.2092 37.6981 34.1984C37.7378 34.1866 37.7744 34.1659 37.8049 34.1378C37.8355 34.1097 37.8593 34.0751 37.8744 34.0365C37.8953 33.9825 37.9051 33.9248 37.9033 33.8669V33.6976H38.3968V33.9105Z" fill="white"/>
<path d="M38.665 31.2354H39.1585V32.8079H39.1685L39.8893 31.2354H40.3828L39.7103 32.6144L40.5087 34.6802H39.9859L39.4247 33.1512L39.1585 33.6497V34.6802H38.665V31.2354Z" fill="white"/>
<path d="M41.5068 33.2058C41.5066 33.1683 41.5141 33.1312 41.5289 33.0968C41.5567 33.0298 41.6099 32.9766 41.6769 32.9488C41.7112 32.934 41.7482 32.9265 41.7856 32.9268C41.8231 32.9265 41.8603 32.934 41.8948 32.9488C41.9277 32.9627 41.9577 32.9829 41.983 33.0081C42.0084 33.0336 42.0287 33.0637 42.0428 33.0968C42.0574 33.1313 42.0649 33.1684 42.0649 33.2058C42.0649 33.2432 42.0574 33.2802 42.0428 33.3147C42.0144 33.3813 41.9614 33.4343 41.8948 33.4628C41.8603 33.4775 41.8231 33.4849 41.7856 33.4845C41.7482 33.4849 41.7112 33.4775 41.6769 33.4628C41.6439 33.4487 41.6137 33.4284 41.5882 33.4032C41.563 33.3777 41.5428 33.3477 41.5289 33.3147C41.5141 33.2803 41.5066 33.2432 41.5068 33.2058Z" fill="white"/>
<path d="M43.3086 31.2354H44.1024C44.683 31.2354 44.9733 31.5725 44.9733 32.2467C44.9778 32.4231 44.9456 32.5986 44.8788 32.7619C44.8105 32.9113 44.6937 33.0332 44.5475 33.1079L45.0793 34.6802H44.557L44.0976 33.2095H43.8021V34.6802H43.3086V31.2354ZM43.8021 32.774H44.0829C44.154 32.777 44.2249 32.7646 44.2908 32.7378C44.3399 32.7157 44.3812 32.6794 44.4095 32.6336C44.4391 32.5822 44.458 32.5255 44.4651 32.4666C44.4847 32.3141 44.4847 32.1596 44.4651 32.007C44.4576 31.9469 44.437 31.8891 44.4048 31.8378C44.3737 31.7908 44.3289 31.7546 44.2766 31.7338C44.2068 31.7087 44.1329 31.6972 44.0588 31.6999H43.8021V32.774Z" fill="white"/>
<path d="M45.2571 32.0478C45.2546 31.9215 45.2793 31.7961 45.3295 31.6801C45.3737 31.5796 45.4388 31.4898 45.5206 31.4166C45.5987 31.3479 45.689 31.2946 45.7868 31.2593C45.9789 31.1883 46.19 31.1883 46.3821 31.2593C46.4799 31.2946 46.5702 31.3479 46.6483 31.4166C46.73 31.4898 46.7952 31.5796 46.8394 31.6801C46.8895 31.7961 46.9142 31.9215 46.9118 32.0478V33.8669C46.9148 33.994 46.89 34.1203 46.8394 34.2369C46.7948 34.3366 46.7297 34.4257 46.6483 34.4984C46.5702 34.567 46.4799 34.6203 46.3821 34.6556C46.19 34.7267 45.9789 34.7267 45.7868 34.6556C45.689 34.6203 45.5987 34.567 45.5206 34.4984C45.4392 34.4257 45.374 34.3366 45.3295 34.2369C45.2788 34.1203 45.2541 33.994 45.2571 33.8669V32.0478ZM45.7506 33.8669C45.7465 33.9154 45.7533 33.9643 45.7704 34.0099C45.7876 34.0556 45.8147 34.0968 45.8497 34.1306C45.9157 34.1854 45.9987 34.2154 46.0844 34.2154C46.1701 34.2154 46.2532 34.1854 46.3191 34.1306C46.3542 34.0968 46.3813 34.0556 46.3984 34.0099C46.4156 33.9643 46.4224 33.9154 46.4183 33.8669V32.0478C46.4223 31.9993 46.4155 31.9504 46.3984 31.9048C46.3812 31.8592 46.3541 31.8179 46.3191 31.784C46.2531 31.7294 46.1701 31.6995 46.0844 31.6995C45.9987 31.6995 45.9157 31.7294 45.8497 31.784C45.8147 31.8179 45.7876 31.8592 45.7705 31.9048C45.7533 31.9504 45.7465 31.9993 45.7506 32.0478V33.8669Z" fill="white"/>
<path d="M48.8128 33.8915C48.8138 33.9995 48.7923 34.1066 48.7498 34.2059C48.6682 34.3975 48.5156 34.5501 48.3241 34.6317C48.2261 34.6732 48.1207 34.6947 48.0143 34.6947C47.9079 34.6947 47.8026 34.6732 47.7046 34.6317C47.513 34.5501 47.3605 34.3975 47.2789 34.2059C47.2363 34.1066 47.2149 33.9995 47.2159 33.8915V31.2207H47.7093V33.8432C47.7053 33.8918 47.7109 33.9408 47.7259 33.9873C47.7408 34.0338 47.7648 34.0769 47.7965 34.114C47.8552 34.17 47.9332 34.2012 48.0143 34.2012C48.0954 34.2012 48.1734 34.17 48.2322 34.114C48.2638 34.0769 48.2878 34.0338 48.3028 33.9873C48.3177 33.9408 48.3233 33.8918 48.3193 33.8432V31.2207H48.8128V33.8915Z" fill="white"/>
<path d="M49.6776 31.6999H49.1064V31.2354H50.7417V31.6999H50.1711V34.6802H49.6776V31.6999Z" fill="white"/>
<path d="M51.0986 31.2354H52.5696V31.6999H51.5921V32.711H52.4436V33.1756H51.5921V34.1867H52.5696V34.6802H51.0986V31.2354Z" fill="white"/>
</g>
<defs>
<clipPath id="clip0_328_29439">
<rect width="74" height="42" fill="white" transform="translate(0.333008)"/>
</clipPath>
</defs>
</svg>
