<svg width="52" height="52" viewBox="0 0 52 52" fill="none" xmlns="http://www.w3.org/2000/svg">
<rect width="52" height="52" rx="8" fill="white"/>
<path d="M1.9306 21.5654C14.6356 20.6661 15.96 37.3118 22.4024 37.3118C30.6108 37.3118 33.4232 22.2522 40.1109 22.2522C45.3597 22.2522 46.0791 29.7902 51.2135 26.0784C51.2135 26.0784 51.5405 25.8331 51.7694 26.0948C52.0147 26.3891 51.6549 26.6998 51.6549 26.6998C45.9647 30.6077 44.8364 23.3477 40.0946 23.3477C34.2735 23.3477 31.2158 39.1595 22.4024 39.1595C13.8998 39.1431 12.8533 22.2031 1.09668 22.5138L1.9306 21.5654Z" fill="url(#paint0_linear_328_29081)"/>
<path d="M21.3563 39.0615C21.6997 39.1269 22.0594 39.1596 22.4191 39.1596C23.0568 39.1596 23.7109 39.0778 24.3322 38.898C23.7926 38.8326 23.3021 37.8842 23.1876 37.2628C22.926 37.2956 22.6808 37.3119 22.4191 37.3119C21.9286 37.3119 21.4217 37.2138 20.9639 37.0176C21.3563 37.4591 21.7651 38.6691 21.3563 39.0615Z" fill="#1CB0E7"/>
<path d="M1.09651 21.5647C23.7758 14.5172 20.2766 42.6906 27.3894 42.6906C34.6167 42.6906 31.0848 14.9424 39.9145 14.9424C46.8638 14.9424 44.4765 29.3806 51.295 26.0286C51.7038 25.816 52.2107 26.3883 51.2296 26.8788C43.5609 30.4761 44.313 17.2152 39.8982 17.2152C34.0935 17.2152 35.8267 43.7861 27.3731 43.7861C18.805 43.7861 22.3696 19.8805 1.43988 22.4803C0.834885 22.6111 0.687723 22.4149 0.622318 22.186C0.556913 21.9571 0.63867 21.7282 1.09651 21.5647Z" fill="url(#paint1_linear_328_29081)"/>
<path d="M2.82983 21.0905C2.27388 21.2213 1.70158 21.3848 1.11294 21.581C0.6551 21.7446 0.589695 21.9571 0.638749 22.186C0.687803 22.415 0.851316 22.6275 1.47267 22.4804C22.3696 19.8969 18.8214 43.7861 27.3895 43.7861C19.0176 43.7861 22.2225 19.7333 2.82983 21.0905Z" fill="url(#paint2_linear_328_29081)"/>
<path d="M25.9668 42.2333C21.0778 38.963 21.9117 18.7038 5.74023 20.5515C21.7155 18.9981 20.947 39.2574 25.9668 42.2333Z" fill="url(#paint3_linear_328_29081)"/>
<path d="M21.2579 37.1155C16.794 35.6602 14.6846 25.7677 7.70263 22.5465C5.64237 22.2194 3.53305 22.1867 1.45643 22.4811C1.35832 22.4974 1.26022 22.5138 1.16211 22.5138C2.29035 22.4811 3.41859 22.6282 4.49778 22.9552C14.6519 21.6471 15.911 37.8349 22.0591 38.9141C21.7975 38.3582 21.5358 37.7532 21.2579 37.1155Z" fill="url(#paint4_linear_328_29081)"/>
<path d="M34.7965 20.5836C32.2457 28.6939 32.5237 42.6906 27.3894 42.6906C22.3368 42.6906 22.6475 28.5304 15.1586 22.8074C15.0605 22.742 14.9624 22.6603 14.8643 22.5948C23.0563 29.0373 21.3557 43.5736 27.4711 43.5736C33.5538 43.5736 32.5073 27.8436 34.8946 20.3057C34.8456 20.3711 34.8292 20.4855 34.7965 20.5836Z" fill="url(#paint5_linear_328_29081)"/>
<path d="M39.8335 15.4336C36.1381 15.4336 35.8274 24.018 34.6338 30.5259C34.6338 30.5095 34.6501 30.4768 34.6501 30.4441C35.9909 23.8218 37.0047 17.2159 39.8989 17.2159C43.9867 17.2159 43.6434 28.8253 49.7097 27.4191L49.8569 27.3864C50.3801 26.7978 50.6908 26.438 50.6908 26.438C42.8749 29.9045 44.9024 15.4336 39.8335 15.4336Z" fill="url(#paint6_linear_328_29081)"/>
<path d="M51.671 26.5682C51.5893 26.1921 51.4421 25.9632 51.295 26.0286C51.2623 26.045 51.2132 26.0613 51.1805 26.094C48.1882 28.1543 46.0952 26.7644 44.8525 24.9004C46.1116 27.0261 47.8612 28.4813 51.2296 26.8953C51.4094 26.7971 51.5566 26.699 51.671 26.5682Z" fill="#DAA300"/>
<path d="M51.2954 26.0286C44.4606 29.3806 46.8642 14.9424 39.9149 14.9424C39.0483 14.9424 38.2143 15.2367 37.5439 15.7927C38.1816 15.3512 38.9338 15.1059 39.7023 15.1059C46.6516 15.1059 44.2643 29.5441 51.0828 26.1921C51.4099 26.0286 51.7696 26.372 51.4262 26.748C52.0966 26.3065 51.6715 25.8324 51.2954 26.0286Z" fill="url(#paint7_linear_328_29081)"/>
<path d="M32.9984 29.1685C32.8348 30.1496 32.6713 31.1633 32.5078 32.1281C33.0474 30.4439 34.3719 28.0729 35.1731 27.7459C35.3366 26.912 35.5001 26.0944 35.68 25.3096C34.797 26.5032 33.914 27.844 32.9984 29.1685Z" fill="#DAA300"/>
<path d="M51.7695 26.0945C51.5406 25.8329 51.2135 26.0782 51.2135 26.0782C46.0792 29.7899 45.3434 22.252 40.111 22.252C36.0232 22.252 33.3906 27.8932 30.0713 32.259V34.5154C33.7667 29.8553 36.3665 23.3475 40.111 23.3475C44.8529 23.3475 45.9811 30.6075 51.6714 26.6995C51.655 26.6832 52.0148 26.3725 51.7695 26.0945Z" fill="url(#paint8_linear_328_29081)"/>
<path d="M23.6777 38.8813C27.5039 38.031 30.2837 32.1936 33.2433 27.7461C33.2433 27.7297 33.2596 27.7134 33.2596 27.6807C30.3818 31.8012 27.5367 36.8047 23.04 37.2625C23.2363 37.8348 23.4488 38.3744 23.6777 38.8813Z" fill="url(#paint9_linear_328_29081)"/>
<path d="M34.0771 28.6446C35.9903 25.7341 37.8543 23.3468 40.1108 23.3468C44.6237 23.3468 45.8664 30.0509 50.9026 27.173C45.752 30.0999 43.986 22.3984 40.2579 22.3984C38.492 22.3984 36.6934 24.3606 34.0771 28.6446Z" fill="url(#paint10_linear_328_29081)"/>
<defs>
<linearGradient id="paint0_linear_328_29081" x1="1.10159" y1="30.3474" x2="51.8568" y2="30.3474" gradientUnits="userSpaceOnUse">
<stop offset="0.15" stop-color="#0046D3"/>
<stop offset="0.59" stop-color="#0093FF"/>
<stop offset="1" stop-color="#0068CA"/>
</linearGradient>
<linearGradient id="paint1_linear_328_29081" x1="0.605296" y1="29.3585" x2="51.7922" y2="29.3585" gradientUnits="userSpaceOnUse">
<stop stop-color="#008915"/>
<stop offset="0.59" stop-color="#1DFC4D"/>
<stop offset="1" stop-color="#008D07"/>
</linearGradient>
<linearGradient id="paint2_linear_328_29081" x1="-8.69622" y1="32.4123" x2="18.0799" y2="32.4123" gradientUnits="userSpaceOnUse">
<stop stop-color="#F0F6FF"/>
<stop offset="0.5" stop-color="#27CEB5"/>
<stop offset="1" stop-color="#F0F6FF"/>
</linearGradient>
<linearGradient id="paint3_linear_328_29081" x1="19.2383" y1="26.1005" x2="14.0648" y2="34.1895" gradientUnits="userSpaceOnUse">
<stop stop-color="white"/>
<stop offset="1" stop-color="#FFC435" stop-opacity="0"/>
</linearGradient>
<linearGradient id="paint4_linear_328_29081" x1="1.17029" y1="30.6054" x2="22.0656" y2="30.6054" gradientUnits="userSpaceOnUse">
<stop stop-color="#1C75BC"/>
<stop offset="0.47" stop-color="white"/>
<stop offset="1" stop-color="#72A9D5"/>
</linearGradient>
<linearGradient id="paint5_linear_328_29081" x1="18.5319" y1="31.9233" x2="33.6585" y2="31.9233" gradientUnits="userSpaceOnUse">
<stop stop-color="#F0F6FF"/>
<stop offset="0.5" stop-color="#27CEB5"/>
<stop offset="1" stop-color="#F0F6FF"/>
</linearGradient>
<linearGradient id="paint6_linear_328_29081" x1="34.6354" y1="22.9773" x2="46.6455" y2="22.9773" gradientUnits="userSpaceOnUse">
<stop stop-color="#F0F6FF"/>
<stop offset="0.5" stop-color="#27CEB5"/>
<stop offset="1" stop-color="#F0F6FF"/>
</linearGradient>
<linearGradient id="paint7_linear_328_29081" x1="48.4291" y1="17.6601" x2="44.0273" y2="21.7054" gradientUnits="userSpaceOnUse">
<stop stop-color="white"/>
<stop offset="1" stop-color="#FFC435" stop-opacity="0"/>
</linearGradient>
<linearGradient id="paint8_linear_328_29081" x1="1.10494" y1="28.3812" x2="51.8545" y2="28.3812" gradientUnits="userSpaceOnUse">
<stop offset="0.15" stop-color="#0046D3"/>
<stop offset="0.59" stop-color="#0093FF"/>
<stop offset="1" stop-color="#0068CA"/>
</linearGradient>
<linearGradient id="paint9_linear_328_29081" x1="23.0351" y1="33.2867" x2="33.2465" y2="33.2867" gradientUnits="userSpaceOnUse">
<stop stop-color="#1C75BC"/>
<stop offset="1" stop-color="white"/>
</linearGradient>
<linearGradient id="paint10_linear_328_29081" x1="32.8017" y1="25.5175" x2="49.6305" y2="25.5175" gradientUnits="userSpaceOnUse">
<stop stop-color="white"/>
<stop offset="0.46" stop-color="#0076D4"/>
<stop offset="1" stop-color="white"/>
</linearGradient>
</defs>
</svg>
