<svg width="23" height="23" viewBox="0 0 23 23" fill="none" xmlns="http://www.w3.org/2000/svg">
<g id="rocket-02">
<path id="Icon" d="M11.5 14.3127L8.6875 11.5002M11.5 14.3127C12.8095 13.8147 14.0658 13.1865 15.25 12.4377M11.5 14.3127V19.0002C11.5 19.0002 14.3406 18.4846 15.25 17.1252C16.2625 15.6065 15.25 12.4377 15.25 12.4377M8.6875 11.5002C9.18639 10.2059 9.81457 8.96529 10.5625 7.79711C11.6549 6.05053 13.1759 4.61247 14.9809 3.61969C16.786 2.62692 18.815 2.11246 20.875 2.12523C20.875 4.67523 20.1437 9.15648 15.25 12.4377M8.6875 11.5002H4C4 11.5002 4.51562 8.65961 5.875 7.75023C7.39375 6.73773 10.5625 7.75023 10.5625 7.75023M4.46875 15.719C3.0625 16.9002 2.59375 20.4065 2.59375 20.4065C2.59375 20.4065 6.1 19.9377 7.28125 18.5315C7.94687 17.744 7.9375 16.5346 7.19687 15.8034C6.83247 15.4556 6.35246 15.2546 5.84896 15.239C5.34546 15.2234 4.85395 15.3944 4.46875 15.719Z" stroke="black" stroke-width="1.60714" stroke-linecap="round" stroke-linejoin="round"/>
</g>
</svg>
