<svg xmlns="http://www.w3.org/2000/svg" width="82" height="72" viewBox="0 0 82 72" fill="none">
    <path fill-rule="evenodd" clip-rule="evenodd" d="M44.2797 0.489953C43.4506 0.440893 42.615 0.416016 41.7736 0.416016C18.7027 0.416016 0 19.1187 0 42.1896C0 52.5386 3.76333 62.0087 9.99615 69.3059L25.5284 51.4726L28.6227 63.85L40.2265 65.3971L56.4717 53.7934L51.0567 41.416L30.1699 30.5858L28.6227 15.1141L42.5472 5.05752L44.2797 0.489953Z" fill="#004BFF"/>
    <path fill-rule="evenodd" clip-rule="evenodd" d="M68.571 1.35742L53.3776 18.9818L49.5096 12.0196L34.0379 9.6988L24.7549 29.0384L49.5096 39.8686L53.3776 51.4724L37.9059 66.9441L24.2803 67.5929C29.5696 70.1513 35.5042 71.5856 41.7738 71.5856C63.9902 71.5856 82.0002 53.5756 82.0002 31.3592C82.0002 19.4356 76.8125 8.72372 68.571 1.35742Z" fill="#004BFF"/>
    <path d="M63.3401 7.49473C57.7085 2.42484 50.4813 0.416016 42.9725 0.416016C29.9261 0.416016 17.6305 7.97302 17.6305 22.4174C17.6305 44.9928 48.7918 38.2967 48.7918 50.7323C48.7918 55.5152 43.4418 57.811 38.655 57.811C33.7743 57.811 28.8936 55.4196 25.8901 51.4019L15.4717 63.0722C21.7603 69.003 29.269 71.5858 37.8103 71.5858C51.5138 71.5858 63.4339 64.4114 63.4339 49.2974C63.4339 25.5742 32.8357 33.5138 32.8357 21.1739C32.8357 16.104 38.5611 14.1908 42.691 14.1908C46.2576 14.1908 50.9506 15.6257 53.2971 18.6868L63.3401 7.49473Z" fill="white"/>
  </svg>