<svg width="21" height="21" viewBox="0 0 21 21" fill="none" xmlns="http://www.w3.org/2000/svg">
<path d="M19.7986 16.7211L19.7995 16.7219C20.794 17.5672 20.8413 19.0534 19.9 19.9452L19.8999 19.9452L19.8954 19.9497C19.0036 20.8415 17.5138 20.7941 16.6677 19.7988C16.6677 19.7988 16.6676 19.7988 16.6676 19.7987L12.562 14.9562L13.1185 14.6021H12.3092C12.2519 14.6021 12.1998 14.6177 12.1553 14.6443C12.1484 14.6484 12.1419 14.6528 12.1358 14.6571H11.6905L11.8462 14.8407C8.9509 16.4733 5.15301 16.0352 2.68936 13.5722C-0.299532 10.5291 -0.297432 5.67474 2.68789 2.68862C5.73119 -0.300509 10.5861 -0.298164 13.5722 2.68789C16.0356 5.15129 16.4751 8.89994 14.8401 11.8421L14.6579 11.6856V12.1351C14.6535 12.1412 14.6492 12.1477 14.645 12.1546C14.6184 12.199 14.6029 12.2511 14.6029 12.3085V13.1302L14.957 12.5636L19.7986 16.7211ZM1.95644 8.12968C1.95644 11.5589 4.7012 14.3036 8.13041 14.3036C11.5596 14.3036 14.3044 11.5589 14.3044 8.12968C14.3044 4.70046 11.5596 1.95571 8.13041 1.95571C4.7012 1.95571 1.95644 4.70046 1.95644 8.12968Z" fill="black" stroke="#1D2939" stroke-width="0.471295"/>
<path d="M4.73711 6.76956H5.36551V10.3671H4.73711V6.76956ZM6.77154 5.01006H7.39993V10.3121H6.77154V5.01006ZM8.86095 7.48436H9.48934V10.3671H8.86095V7.48436ZM10.8954 6.38467H11.5238V10.3671H10.8954V6.38467Z" fill="black" stroke="#1D2939" stroke-width="0.471295"/>
</svg>
