<svg width="21" height="12" viewBox="0 0 21 12" fill="none" xmlns="http://www.w3.org/2000/svg">
<path d="M7.74268 6.10156L7.7483 6.09594M2.79805 7.89961L5.31223 10.4138C5.5871 10.6887 5.72453 10.8261 5.88491 10.9244C6.02711 11.0115 6.18213 11.0757 6.34429 11.1147C6.5272 11.1586 6.72156 11.1586 7.11028 11.1586L15.7281 11.1586C17.0632 11.1586 17.7308 11.1586 18.2407 10.8987C18.6893 10.6702 19.054 10.3055 19.2825 9.85694C19.5424 9.347 19.5424 8.67944 19.5424 7.34433V4.85879C19.5424 3.52368 19.5424 2.85613 19.2825 2.34619C19.054 1.89763 18.6893 1.53294 18.2407 1.30439C17.7308 1.04456 17.0632 1.04456 15.7281 1.04456L7.11028 1.04456C6.72156 1.04456 6.5272 1.04456 6.34429 1.08847C6.18213 1.1274 6.02711 1.19161 5.88491 1.27875C5.72453 1.37703 5.5871 1.51447 5.31223 1.78933L2.79805 4.30352C2.16867 4.93289 1.85398 5.24758 1.73608 5.61045C1.63237 5.92965 1.63237 6.27348 1.73608 6.59267C1.85398 6.95555 2.16867 7.27023 2.79805 7.89961ZM8.02362 5.82062C8.17878 5.97578 8.17878 6.22734 8.02362 6.38251C7.86846 6.53767 7.61689 6.53767 7.46173 6.38251C7.30657 6.22734 7.30657 5.97578 7.46173 5.82062C7.61689 5.66546 7.86846 5.66546 8.02362 5.82062Z" stroke="#494C6C" stroke-width="1.58926" stroke-linecap="round" stroke-linejoin="round"/>
</svg>
