<svg width="21" height="20" viewBox="0 0 21 20" fill="none" xmlns="http://www.w3.org/2000/svg">
<path d="M9.49952 11.2501L18.2495 2.50014M9.60584 11.5235L11.7959 17.1552C11.9889 17.6513 12.0853 17.8994 12.2243 17.9718C12.3448 18.0346 12.4884 18.0347 12.609 17.972C12.748 17.8998 12.8448 17.6518 13.0383 17.1559L18.5303 3.08281C18.705 2.63516 18.7923 2.41133 18.7445 2.26831C18.703 2.1441 18.6056 2.04663 18.4814 2.00514C18.3383 1.95736 18.1145 2.0447 17.6669 2.21939L3.59373 7.71134C3.09784 7.90486 2.84989 8.00163 2.77763 8.14071C2.71499 8.26129 2.71508 8.40483 2.77786 8.52533C2.85028 8.66433 3.09834 8.7608 3.59446 8.95373L9.22613 11.1438C9.32684 11.183 9.37719 11.2026 9.41959 11.2328C9.45717 11.2596 9.49004 11.2925 9.51685 11.3301C9.54709 11.3725 9.56667 11.4228 9.60584 11.5235Z" stroke="white" stroke-width="1.66667" stroke-linecap="round" stroke-linejoin="round"/>
</svg>
