<svg width="23" height="23" viewBox="0 0 23 23" fill="none" xmlns="http://www.w3.org/2000/svg">
<g id="settings-04">
<path id="Icon" d="M3.0625 7.60937L14.3125 7.60938M14.3125 7.60938C14.3125 9.16268 15.5717 10.4219 17.125 10.4219C18.6783 10.4219 19.9375 9.16268 19.9375 7.60937C19.9375 6.05607 18.6783 4.79688 17.125 4.79688C15.5717 4.79688 14.3125 6.05607 14.3125 7.60938ZM8.6875 15.1094L19.9375 15.1094M8.6875 15.1094C8.6875 16.6627 7.4283 17.9219 5.875 17.9219C4.3217 17.9219 3.0625 16.6627 3.0625 15.1094C3.0625 13.5561 4.3217 12.2969 5.875 12.2969C7.4283 12.2969 8.6875 13.5561 8.6875 15.1094Z" stroke="black" stroke-width="1.60714" stroke-linecap="round" stroke-linejoin="round"/>
</g>
</svg>
