<svg width="23" height="23" viewBox="0 0 23 23" fill="none" xmlns="http://www.w3.org/2000/svg">
<path d="M12.4375 7.28L9.625 10.0925L13.375 11.9675L10.5625 14.78M19 11.4987C19 16.1004 13.9807 19.4472 12.1544 20.5127C11.9468 20.6338 11.843 20.6943 11.6966 20.7257C11.5829 20.7501 11.4171 20.7501 11.3034 20.7257C11.157 20.6943 11.0532 20.6338 10.8456 20.5127C9.01934 19.4472 4 16.1004 4 11.4987V7.01525C4 6.26571 4 5.89094 4.12259 5.56878C4.23088 5.28419 4.40686 5.03026 4.6353 4.82893C4.8939 4.60104 5.24481 4.46945 5.94663 4.20626L10.9733 2.32126C11.1682 2.24817 11.2657 2.21162 11.3659 2.19714C11.4548 2.18429 11.5452 2.18429 11.6341 2.19714C11.7343 2.21162 11.8318 2.24817 12.0267 2.32126L17.0534 4.20626C17.7552 4.46945 18.1061 4.60104 18.3647 4.82893C18.5931 5.03026 18.7691 5.28419 18.8774 5.56878C19 5.89094 19 6.26571 19 7.01525V11.4987Z" stroke="black" stroke-width="1.60714" stroke-linecap="round" stroke-linejoin="round"/>
</svg>
