<svg width="23" height="23" viewBox="0 0 23 23" fill="none" xmlns="http://www.w3.org/2000/svg">
<g id="shield-dollar">
<path id="Icon" d="M8.88715 13.8445C9.17984 14.4018 9.76428 14.782 10.4375 14.782H12.4375C13.473 14.782 14.3125 13.9425 14.3125 12.907C14.3125 11.8714 13.473 11.032 12.4375 11.032H10.5625C9.52697 11.032 8.6875 10.1925 8.6875 9.15695C8.6875 8.12142 9.52697 7.28195 10.5625 7.28195H12.5625C13.2357 7.28195 13.8202 7.6621 14.1129 8.21945M11.5 5.8757V7.28195M11.5 14.782V16.1882M19 11.5007C19 16.1024 13.9807 19.4492 12.1544 20.5147C11.9468 20.6357 11.843 20.6963 11.6966 20.7277C11.5829 20.7521 11.4171 20.7521 11.3034 20.7277C11.157 20.6963 11.0532 20.6357 10.8456 20.5147C9.01934 19.4492 4 16.1024 4 11.5007V7.0172C4 6.26766 4 5.89289 4.12259 5.57074C4.23088 5.28615 4.40686 5.03221 4.6353 4.83089C4.8939 4.60299 5.24481 4.4714 5.94663 4.20822L10.9733 2.32321C11.1682 2.25012 11.2657 2.21358 11.3659 2.19909C11.4548 2.18624 11.5452 2.18624 11.6341 2.19909C11.7343 2.21358 11.8318 2.25012 12.0267 2.32321L17.0534 4.20822C17.7552 4.4714 18.1061 4.60299 18.3647 4.83089C18.5931 5.03221 18.7691 5.28615 18.8774 5.57074C19 5.89289 19 6.26766 19 7.0172V11.5007Z" stroke="black" stroke-width="1.60714" stroke-linecap="round" stroke-linejoin="round"/>
</g>
</svg>
