<svg width="21" height="21" viewBox="0 0 21 21" fill="none" xmlns="http://www.w3.org/2000/svg">
<g clip-path="url(#clip0_1201_90775)">
<path d="M5.54211 14.667H14.5665C15.3581 14.667 15.7539 14.667 16.0765 14.524C16.3609 14.3979 16.6044 14.1947 16.7793 13.9375C16.9777 13.6456 17.0485 13.2562 17.1901 12.4774L18.3158 6.28625C18.3648 6.0163 18.3894 5.88133 18.3515 5.77594C18.3182 5.68348 18.2533 5.60575 18.1683 5.55648C18.0714 5.50033 17.9342 5.50033 17.6599 5.50033H4.29211M1.79199 2.16699H2.889C3.09124 2.16699 3.19236 2.16699 3.27414 2.20393C3.34622 2.23649 3.40755 2.28889 3.45095 2.35502C3.50019 2.43004 3.51596 2.52992 3.54751 2.72968L5.86981 17.4376C5.90136 17.6374 5.91713 17.7373 5.96637 17.8123C6.00977 17.8784 6.0711 17.9308 6.14318 17.9634C6.22496 18.0003 6.32608 18.0003 6.52832 18.0003H15.9587" stroke="#53389E" stroke-width="1.66667" stroke-linecap="round" stroke-linejoin="round"/>
</g>
<defs>
<clipPath id="clip0_1201_90775">
<rect width="20" height="20" fill="white" transform="translate(0.125 0.5)"/>
</clipPath>
</defs>
</svg>
