<svg width="23" height="23" viewBox="0 0 23 23" fill="none" xmlns="http://www.w3.org/2000/svg">
<g id="shopping-bag-03">
<path id="Icon" d="M15.2496 7.75C15.2496 8.74456 14.8545 9.69839 14.1513 10.4017C13.448 11.1049 12.4942 11.5 11.4996 11.5C10.5051 11.5 9.55123 11.1049 8.84796 10.4017C8.1447 9.69839 7.74961 8.74456 7.74961 7.75M3.65576 7.1888L2.99951 15.0638C2.85853 16.7555 2.78804 17.6014 3.07401 18.2539C3.32526 18.8272 3.76058 19.3003 4.31104 19.5983C4.93756 19.9375 5.78636 19.9375 7.48396 19.9375H15.5153C17.2129 19.9375 18.0617 19.9375 18.6882 19.5983C19.2386 19.3003 19.674 18.8272 19.9252 18.2539C20.2112 17.6014 20.1407 16.7555 19.9997 15.0638L19.3435 7.1888C19.2222 5.7332 19.1615 5.00541 18.8392 4.45455C18.5553 3.96948 18.1327 3.58057 17.6257 3.33798C17.05 3.0625 16.3197 3.0625 14.859 3.0625L8.14021 3.0625C6.67957 3.0625 5.94925 3.0625 5.37354 3.33798C4.86656 3.58056 4.44389 3.96947 4.16004 4.45455C3.83771 5.00541 3.77706 5.7332 3.65576 7.1888Z" stroke="black" stroke-width="1.60714" stroke-linecap="round" stroke-linejoin="round"/>
</g>
</svg>
