<svg width="19" height="19" viewBox="0 0 19 19" fill="none" xmlns="http://www.w3.org/2000/svg">
<g id="speedometer-03" clip-path="url(#clip0_1579_94146)">
<path id="Icon" d="M3.95898 9.49967C3.95898 6.4391 6.44007 3.95801 9.50065 3.95801M13.0631 5.93717L9.50058 9.49967M17.4173 9.49967C17.4173 13.8719 13.8729 17.4163 9.50065 17.4163C5.1284 17.4163 1.58398 13.8719 1.58398 9.49967C1.58398 5.12742 5.1284 1.58301 9.50065 1.58301C13.8729 1.58301 17.4173 5.12742 17.4173 9.49967ZM10.2923 9.49967C10.2923 9.9369 9.93788 10.2913 9.50065 10.2913C9.06343 10.2913 8.70898 9.9369 8.70898 9.49967C8.70898 9.06245 9.06343 8.70801 9.50065 8.70801C9.93788 8.70801 10.2923 9.06245 10.2923 9.49967Z" stroke="black" stroke-width="1.1875" stroke-linecap="round" stroke-linejoin="round"/>
</g>
<defs>
<clipPath id="clip0_1579_94146">
<rect width="19" height="19" fill="white"/>
</clipPath>
</defs>
</svg>
