<svg width="19" height="19" viewBox="0 0 19 19" fill="none" xmlns="http://www.w3.org/2000/svg">
<g id="speedometer-03" clip-path="url(#clip0_10693_24986)">
<path id="Icon" d="M4.31191 9.65924C4.31191 6.67855 6.72824 4.26223 9.70893 4.26223M13.1784 6.18973L9.70885 9.65924M17.4189 9.65924C17.4189 13.9174 13.9671 17.3693 9.70893 17.3693C5.4508 17.3693 1.9989 13.9174 1.9989 9.65924C1.9989 5.40111 5.4508 1.94922 9.70893 1.94922C13.9671 1.94922 17.4189 5.40111 17.4189 9.65924ZM10.4799 9.65924C10.4799 10.0851 10.1347 10.4302 9.70893 10.4302C9.28311 10.4302 8.93792 10.0851 8.93792 9.65924C8.93792 9.23343 9.28311 8.88824 9.70893 8.88824C10.1347 8.88824 10.4799 9.23343 10.4799 9.65924Z" stroke="#7F56D9" stroke-width="1.542" stroke-linecap="round" stroke-linejoin="round"/>
</g>
<defs>
<clipPath id="clip0_10693_24986">
<rect width="18.5041" height="18.5041" fill="white" transform="translate(0.456909 0.407227)"/>
</clipPath>
</defs>
</svg>
