<svg width="19" height="19" viewBox="0 0 19 19" fill="none" xmlns="http://www.w3.org/2000/svg">
<rect width="19" height="19" fill="#2F2D2D"/>
<g id="Use Case/Call Center Agents" clip-path="url(#clip0_0_1)">
<rect width="1512" height="3837" transform="translate(-115 -996)" fill="white"/>
<g id="div.products-content-row">
<g id="div.products-content-item-left">
<g id="Frame 24234628">
<g id="Frame 24234629">
<g id="Frame 24234631">
<g id="Featured icon" filter="url(#filter0_d_0_1)">
<rect x="-13" y="-12" width="45" height="45" rx="9.64286" fill="white"/>
<g id="AI -2">
<g id="Frame" clip-path="url(#clip1_0_1)">
<g id="Group">
<g id="Vector">
<mask id="path-3-outside-1_0_1" maskUnits="userSpaceOnUse" x="0.255371" y="-0.81543" width="18" height="21" fill="black">
<rect fill="white" x="0.255371" y="-0.81543" width="18" height="21"/>
<path d="M5.39839 18.977C5.26949 18.9771 5.14417 18.9346 5.04184 18.8562C4.93951 18.7778 4.86589 18.6679 4.83237 18.5434L4.39351 16.9134C4.28423 16.5049 4.07468 16.1302 3.78388 15.8232C3.49308 15.5162 3.13024 15.2867 2.72827 15.1555L1.65835 14.8046C1.54112 14.766 1.43905 14.6915 1.36669 14.5915C1.29433 14.4916 1.25537 14.3713 1.25537 14.2479C1.25537 14.1245 1.29433 14.0043 1.36669 13.9043C1.43905 13.8044 1.54112 13.7298 1.65835 13.6913L2.72827 13.3397C3.13024 13.2085 3.49308 12.979 3.78388 12.6721C4.07468 12.3651 4.28423 11.9904 4.39351 11.5819L4.83296 9.953C4.86669 9.82888 4.94033 9.7193 5.04252 9.64118C5.14471 9.56305 5.26976 9.52073 5.39839 9.52073C5.52702 9.52073 5.65207 9.56305 5.75426 9.64118C5.85645 9.7193 5.93009 9.82888 5.96382 9.953L6.40327 11.5819C6.51255 11.9904 6.7221 12.3651 7.0129 12.6721C7.30369 12.979 7.66654 13.2085 8.06851 13.3397L9.13843 13.6913C9.25566 13.7298 9.35773 13.8044 9.43009 13.9043C9.50245 14.0043 9.54141 14.1245 9.54141 14.2479C9.54141 14.3713 9.50245 14.4916 9.43009 14.5915C9.35773 14.6915 9.25566 14.766 9.13843 14.8046L8.06851 15.1561C7.66654 15.2873 7.30369 15.5168 7.0129 15.8238C6.7221 16.1307 6.51255 16.5055 6.40327 16.9139L5.96382 18.5434C5.93033 18.6678 5.85679 18.7777 5.75459 18.8561C5.65238 18.9344 5.52719 18.9769 5.39839 18.977ZM3.59487 14.2479C4.42109 14.6584 5.06427 15.3626 5.39839 16.2225C5.73261 15.3627 6.37576 14.6585 7.2019 14.2479C6.37569 13.8374 5.73251 13.1333 5.39839 12.2733C5.06417 13.1332 4.42102 13.8374 3.59487 14.2479ZM11.8437 14.2479C11.7148 14.248 11.5895 14.2055 11.4872 14.1271C11.3848 14.0487 11.3112 13.9388 11.2777 13.8143L10.5951 11.2796C10.4112 10.5917 10.0585 9.96066 9.56884 9.44371C9.07922 8.92677 8.46823 8.54031 7.79136 8.31941L6.1273 7.77332C6.01007 7.73478 5.908 7.66023 5.83564 7.56027C5.76327 7.46032 5.72432 7.34007 5.72432 7.21667C5.72432 7.09328 5.76327 6.97303 5.83564 6.87308C5.908 6.77312 6.01007 6.69857 6.1273 6.66003L7.79136 6.11394C8.46821 5.89299 9.07917 5.50652 9.56878 4.98958C10.0584 4.47265 10.4112 3.84162 10.5951 3.15378L11.2777 0.619018C11.311 0.494391 11.3846 0.384257 11.4869 0.305703C11.5893 0.22715 11.7147 0.18457 11.8437 0.18457C11.9727 0.18457 12.0981 0.22715 12.2005 0.305703C12.3028 0.384257 12.3764 0.494391 12.4097 0.619018L13.0923 3.15378C13.2762 3.84156 13.6289 4.47254 14.1184 4.98947C14.6079 5.5064 15.2187 5.89291 15.8955 6.11394L17.5595 6.66003C17.6767 6.69857 17.7788 6.77312 17.8512 6.87308C17.9235 6.97303 17.9625 7.09328 17.9625 7.21667C17.9625 7.34007 17.9235 7.46032 17.8512 7.56027C17.7788 7.66023 17.6767 7.73478 17.5595 7.77332L15.8955 8.31941C15.2187 8.54044 14.6079 8.92695 14.1184 9.44388C13.6289 9.96081 13.2762 10.5918 13.0923 11.2796L12.4097 13.8143C12.3762 13.9388 12.3026 14.0487 12.2003 14.1271C12.0979 14.2055 11.9726 14.248 11.8437 14.2479ZM8.18862 7.21667C9.04325 7.5014 9.81388 7.99373 10.4314 8.64953C11.049 9.30533 11.4942 10.1041 11.7271 10.9743L11.8437 11.4079L11.9609 10.9743C12.1936 10.1043 12.6386 9.30566 13.2558 8.64987C13.873 7.99408 14.6433 7.50165 15.4976 7.21667C14.6433 6.9317 13.873 6.43927 13.2558 5.78348C12.6386 5.12769 12.1936 4.32904 11.9609 3.45906L11.8437 3.02546L11.7265 3.45906C11.4937 4.3291 11.0487 5.1278 10.4313 5.78359C9.81401 6.43938 9.04303 6.93178 8.18862 7.21667ZM3.64058 3.70105C3.48518 3.70105 3.33614 3.63932 3.22626 3.52943C3.11637 3.41955 3.05464 3.27051 3.05464 3.11511V2.52917C3.05464 2.37377 3.11637 2.22474 3.22626 2.11485C3.33614 2.00497 3.48518 1.94324 3.64058 1.94324C3.79598 1.94324 3.94501 2.00497 4.0549 2.11485C4.16478 2.22474 4.22651 2.37377 4.22651 2.52917V3.11511C4.22651 3.27051 4.16478 3.41955 4.0549 3.52943C3.94501 3.63932 3.79598 3.70105 3.64058 3.70105ZM2.4687 4.87292H1.88276C1.72736 4.87292 1.57833 4.81119 1.46844 4.70131C1.35856 4.59142 1.29683 4.44239 1.29683 4.28699C1.29683 4.13159 1.35856 3.98255 1.46844 3.87267C1.57833 3.76278 1.72736 3.70105 1.88276 3.70105H2.4687C2.6241 3.70105 2.77314 3.76278 2.88302 3.87267C2.99291 3.98255 3.05464 4.13159 3.05464 4.28699C3.05464 4.44239 2.99291 4.59142 2.88302 4.70131C2.77314 4.81119 2.6241 4.87292 2.4687 4.87292ZM3.64058 6.62957C3.48518 6.62957 3.33614 6.56783 3.22626 6.45795C3.11637 6.34806 3.05464 6.19903 3.05464 6.04363V5.45769C3.05464 5.30229 3.11637 5.15325 3.22626 5.04337C3.33614 4.93349 3.48518 4.87175 3.64058 4.87175C3.79598 4.87175 3.94501 4.93349 4.0549 5.04337C4.16478 5.15325 4.22651 5.30229 4.22651 5.45769V6.04363C4.22651 6.19903 4.16478 6.34806 4.0549 6.45795C3.94501 6.56783 3.79598 6.62957 3.64058 6.62957ZM5.39839 4.87292H4.81245C4.65705 4.87292 4.50802 4.81119 4.39813 4.70131C4.28825 4.59142 4.22651 4.44239 4.22651 4.28699C4.22651 4.13159 4.28825 3.98255 4.39813 3.87267C4.50802 3.76278 4.65705 3.70105 4.81245 3.70105H5.39839C5.55379 3.70105 5.70282 3.76278 5.81271 3.87267C5.92259 3.98255 5.98433 4.13159 5.98433 4.28699C5.98433 4.44239 5.92259 4.59142 5.81271 4.70131C5.70282 4.81119 5.55379 4.87292 5.39839 4.87292ZM15.3593 15.4198C15.2039 15.4198 15.0549 15.3581 14.945 15.2482C14.8351 15.1383 14.7734 14.9893 14.7734 14.8339V14.2479C14.7734 14.0925 14.8351 13.9435 14.945 13.8336C15.0549 13.7237 15.2039 13.662 15.3593 13.662C15.5147 13.662 15.6638 13.7237 15.7736 13.8336C15.8835 13.9435 15.9453 14.0925 15.9453 14.2479V14.8339C15.9453 14.9893 15.8835 15.1383 15.7736 15.2482C15.6638 15.3581 15.5147 15.4198 15.3593 15.4198ZM14.188 16.5917H13.6021C13.4467 16.5917 13.2977 16.5299 13.1878 16.4201C13.0779 16.3102 13.0162 16.1611 13.0162 16.0057C13.0162 15.8503 13.0779 15.7013 13.1878 15.5914C13.2977 15.4815 13.4467 15.4198 13.6021 15.4198H14.188C14.3434 15.4198 14.4925 15.4815 14.6024 15.5914C14.7122 15.7013 14.774 15.8503 14.774 16.0057C14.774 16.1611 14.7122 16.3102 14.6024 16.4201C14.4925 16.5299 14.3434 16.5917 14.188 16.5917ZM15.3593 18.3483C15.2039 18.3483 15.0549 18.2866 14.945 18.1767C14.8351 18.0668 14.7734 17.9178 14.7734 17.7624V17.1764C14.7734 17.021 14.8351 16.872 14.945 16.7621C15.0549 16.6522 15.2039 16.5905 15.3593 16.5905C15.5147 16.5905 15.6638 16.6522 15.7736 16.7621C15.8835 16.872 15.9453 17.021 15.9453 17.1764V17.7624C15.9453 17.9178 15.8835 18.0668 15.7736 18.1767C15.6638 18.2866 15.5147 18.3483 15.3593 18.3483ZM17.1166 16.5917H16.5306C16.3752 16.5917 16.2262 16.5299 16.1163 16.4201C16.0064 16.3102 15.9447 16.1611 15.9447 16.0057C15.9447 15.8503 16.0064 15.7013 16.1163 15.5914C16.2262 15.4815 16.3752 15.4198 16.5306 15.4198H17.1166C17.272 15.4198 17.421 15.4815 17.5309 15.5914C17.6408 15.7013 17.7025 15.8503 17.7025 16.0057C17.7025 16.1611 17.6408 16.3102 17.5309 16.4201C17.421 16.5299 17.272 16.5917 17.1166 16.5917Z"/>
</mask>
<path d="M5.39839 18.977C5.26949 18.9771 5.14417 18.9346 5.04184 18.8562C4.93951 18.7778 4.86589 18.6679 4.83237 18.5434L4.39351 16.9134C4.28423 16.5049 4.07468 16.1302 3.78388 15.8232C3.49308 15.5162 3.13024 15.2867 2.72827 15.1555L1.65835 14.8046C1.54112 14.766 1.43905 14.6915 1.36669 14.5915C1.29433 14.4916 1.25537 14.3713 1.25537 14.2479C1.25537 14.1245 1.29433 14.0043 1.36669 13.9043C1.43905 13.8044 1.54112 13.7298 1.65835 13.6913L2.72827 13.3397C3.13024 13.2085 3.49308 12.979 3.78388 12.6721C4.07468 12.3651 4.28423 11.9904 4.39351 11.5819L4.83296 9.953C4.86669 9.82888 4.94033 9.7193 5.04252 9.64118C5.14471 9.56305 5.26976 9.52073 5.39839 9.52073C5.52702 9.52073 5.65207 9.56305 5.75426 9.64118C5.85645 9.7193 5.93009 9.82888 5.96382 9.953L6.40327 11.5819C6.51255 11.9904 6.7221 12.3651 7.0129 12.6721C7.30369 12.979 7.66654 13.2085 8.06851 13.3397L9.13843 13.6913C9.25566 13.7298 9.35773 13.8044 9.43009 13.9043C9.50245 14.0043 9.54141 14.1245 9.54141 14.2479C9.54141 14.3713 9.50245 14.4916 9.43009 14.5915C9.35773 14.6915 9.25566 14.766 9.13843 14.8046L8.06851 15.1561C7.66654 15.2873 7.30369 15.5168 7.0129 15.8238C6.7221 16.1307 6.51255 16.5055 6.40327 16.9139L5.96382 18.5434C5.93033 18.6678 5.85679 18.7777 5.75459 18.8561C5.65238 18.9344 5.52719 18.9769 5.39839 18.977ZM3.59487 14.2479C4.42109 14.6584 5.06427 15.3626 5.39839 16.2225C5.73261 15.3627 6.37576 14.6585 7.2019 14.2479C6.37569 13.8374 5.73251 13.1333 5.39839 12.2733C5.06417 13.1332 4.42102 13.8374 3.59487 14.2479ZM11.8437 14.2479C11.7148 14.248 11.5895 14.2055 11.4872 14.1271C11.3848 14.0487 11.3112 13.9388 11.2777 13.8143L10.5951 11.2796C10.4112 10.5917 10.0585 9.96066 9.56884 9.44371C9.07922 8.92677 8.46823 8.54031 7.79136 8.31941L6.1273 7.77332C6.01007 7.73478 5.908 7.66023 5.83564 7.56027C5.76327 7.46032 5.72432 7.34007 5.72432 7.21667C5.72432 7.09328 5.76327 6.97303 5.83564 6.87308C5.908 6.77312 6.01007 6.69857 6.1273 6.66003L7.79136 6.11394C8.46821 5.89299 9.07917 5.50652 9.56878 4.98958C10.0584 4.47265 10.4112 3.84162 10.5951 3.15378L11.2777 0.619018C11.311 0.494391 11.3846 0.384257 11.4869 0.305703C11.5893 0.22715 11.7147 0.18457 11.8437 0.18457C11.9727 0.18457 12.0981 0.22715 12.2005 0.305703C12.3028 0.384257 12.3764 0.494391 12.4097 0.619018L13.0923 3.15378C13.2762 3.84156 13.6289 4.47254 14.1184 4.98947C14.6079 5.5064 15.2187 5.89291 15.8955 6.11394L17.5595 6.66003C17.6767 6.69857 17.7788 6.77312 17.8512 6.87308C17.9235 6.97303 17.9625 7.09328 17.9625 7.21667C17.9625 7.34007 17.9235 7.46032 17.8512 7.56027C17.7788 7.66023 17.6767 7.73478 17.5595 7.77332L15.8955 8.31941C15.2187 8.54044 14.6079 8.92695 14.1184 9.44388C13.6289 9.96081 13.2762 10.5918 13.0923 11.2796L12.4097 13.8143C12.3762 13.9388 12.3026 14.0487 12.2003 14.1271C12.0979 14.2055 11.9726 14.248 11.8437 14.2479ZM8.18862 7.21667C9.04325 7.5014 9.81388 7.99373 10.4314 8.64953C11.049 9.30533 11.4942 10.1041 11.7271 10.9743L11.8437 11.4079L11.9609 10.9743C12.1936 10.1043 12.6386 9.30566 13.2558 8.64987C13.873 7.99408 14.6433 7.50165 15.4976 7.21667C14.6433 6.9317 13.873 6.43927 13.2558 5.78348C12.6386 5.12769 12.1936 4.32904 11.9609 3.45906L11.8437 3.02546L11.7265 3.45906C11.4937 4.3291 11.0487 5.1278 10.4313 5.78359C9.81401 6.43938 9.04303 6.93178 8.18862 7.21667ZM3.64058 3.70105C3.48518 3.70105 3.33614 3.63932 3.22626 3.52943C3.11637 3.41955 3.05464 3.27051 3.05464 3.11511V2.52917C3.05464 2.37377 3.11637 2.22474 3.22626 2.11485C3.33614 2.00497 3.48518 1.94324 3.64058 1.94324C3.79598 1.94324 3.94501 2.00497 4.0549 2.11485C4.16478 2.22474 4.22651 2.37377 4.22651 2.52917V3.11511C4.22651 3.27051 4.16478 3.41955 4.0549 3.52943C3.94501 3.63932 3.79598 3.70105 3.64058 3.70105ZM2.4687 4.87292H1.88276C1.72736 4.87292 1.57833 4.81119 1.46844 4.70131C1.35856 4.59142 1.29683 4.44239 1.29683 4.28699C1.29683 4.13159 1.35856 3.98255 1.46844 3.87267C1.57833 3.76278 1.72736 3.70105 1.88276 3.70105H2.4687C2.6241 3.70105 2.77314 3.76278 2.88302 3.87267C2.99291 3.98255 3.05464 4.13159 3.05464 4.28699C3.05464 4.44239 2.99291 4.59142 2.88302 4.70131C2.77314 4.81119 2.6241 4.87292 2.4687 4.87292ZM3.64058 6.62957C3.48518 6.62957 3.33614 6.56783 3.22626 6.45795C3.11637 6.34806 3.05464 6.19903 3.05464 6.04363V5.45769C3.05464 5.30229 3.11637 5.15325 3.22626 5.04337C3.33614 4.93349 3.48518 4.87175 3.64058 4.87175C3.79598 4.87175 3.94501 4.93349 4.0549 5.04337C4.16478 5.15325 4.22651 5.30229 4.22651 5.45769V6.04363C4.22651 6.19903 4.16478 6.34806 4.0549 6.45795C3.94501 6.56783 3.79598 6.62957 3.64058 6.62957ZM5.39839 4.87292H4.81245C4.65705 4.87292 4.50802 4.81119 4.39813 4.70131C4.28825 4.59142 4.22651 4.44239 4.22651 4.28699C4.22651 4.13159 4.28825 3.98255 4.39813 3.87267C4.50802 3.76278 4.65705 3.70105 4.81245 3.70105H5.39839C5.55379 3.70105 5.70282 3.76278 5.81271 3.87267C5.92259 3.98255 5.98433 4.13159 5.98433 4.28699C5.98433 4.44239 5.92259 4.59142 5.81271 4.70131C5.70282 4.81119 5.55379 4.87292 5.39839 4.87292ZM15.3593 15.4198C15.2039 15.4198 15.0549 15.3581 14.945 15.2482C14.8351 15.1383 14.7734 14.9893 14.7734 14.8339V14.2479C14.7734 14.0925 14.8351 13.9435 14.945 13.8336C15.0549 13.7237 15.2039 13.662 15.3593 13.662C15.5147 13.662 15.6638 13.7237 15.7736 13.8336C15.8835 13.9435 15.9453 14.0925 15.9453 14.2479V14.8339C15.9453 14.9893 15.8835 15.1383 15.7736 15.2482C15.6638 15.3581 15.5147 15.4198 15.3593 15.4198ZM14.188 16.5917H13.6021C13.4467 16.5917 13.2977 16.5299 13.1878 16.4201C13.0779 16.3102 13.0162 16.1611 13.0162 16.0057C13.0162 15.8503 13.0779 15.7013 13.1878 15.5914C13.2977 15.4815 13.4467 15.4198 13.6021 15.4198H14.188C14.3434 15.4198 14.4925 15.4815 14.6024 15.5914C14.7122 15.7013 14.774 15.8503 14.774 16.0057C14.774 16.1611 14.7122 16.3102 14.6024 16.4201C14.4925 16.5299 14.3434 16.5917 14.188 16.5917ZM15.3593 18.3483C15.2039 18.3483 15.0549 18.2866 14.945 18.1767C14.8351 18.0668 14.7734 17.9178 14.7734 17.7624V17.1764C14.7734 17.021 14.8351 16.872 14.945 16.7621C15.0549 16.6522 15.2039 16.5905 15.3593 16.5905C15.5147 16.5905 15.6638 16.6522 15.7736 16.7621C15.8835 16.872 15.9453 17.021 15.9453 17.1764V17.7624C15.9453 17.9178 15.8835 18.0668 15.7736 18.1767C15.6638 18.2866 15.5147 18.3483 15.3593 18.3483ZM17.1166 16.5917H16.5306C16.3752 16.5917 16.2262 16.5299 16.1163 16.4201C16.0064 16.3102 15.9447 16.1611 15.9447 16.0057C15.9447 15.8503 16.0064 15.7013 16.1163 15.5914C16.2262 15.4815 16.3752 15.4198 16.5306 15.4198H17.1166C17.272 15.4198 17.421 15.4815 17.5309 15.5914C17.6408 15.7013 17.7025 15.8503 17.7025 16.0057C17.7025 16.1611 17.6408 16.3102 17.5309 16.4201C17.421 16.5299 17.272 16.5917 17.1166 16.5917Z" fill="black"/>
<path d="M5.39839 18.977C5.26949 18.9771 5.14417 18.9346 5.04184 18.8562C4.93951 18.7778 4.86589 18.6679 4.83237 18.5434L4.39351 16.9134C4.28423 16.5049 4.07468 16.1302 3.78388 15.8232C3.49308 15.5162 3.13024 15.2867 2.72827 15.1555L1.65835 14.8046C1.54112 14.766 1.43905 14.6915 1.36669 14.5915C1.29433 14.4916 1.25537 14.3713 1.25537 14.2479C1.25537 14.1245 1.29433 14.0043 1.36669 13.9043C1.43905 13.8044 1.54112 13.7298 1.65835 13.6913L2.72827 13.3397C3.13024 13.2085 3.49308 12.979 3.78388 12.6721C4.07468 12.3651 4.28423 11.9904 4.39351 11.5819L4.83296 9.953C4.86669 9.82888 4.94033 9.7193 5.04252 9.64118C5.14471 9.56305 5.26976 9.52073 5.39839 9.52073C5.52702 9.52073 5.65207 9.56305 5.75426 9.64118C5.85645 9.7193 5.93009 9.82888 5.96382 9.953L6.40327 11.5819C6.51255 11.9904 6.7221 12.3651 7.0129 12.6721C7.30369 12.979 7.66654 13.2085 8.06851 13.3397L9.13843 13.6913C9.25566 13.7298 9.35773 13.8044 9.43009 13.9043C9.50245 14.0043 9.54141 14.1245 9.54141 14.2479C9.54141 14.3713 9.50245 14.4916 9.43009 14.5915C9.35773 14.6915 9.25566 14.766 9.13843 14.8046L8.06851 15.1561C7.66654 15.2873 7.30369 15.5168 7.0129 15.8238C6.7221 16.1307 6.51255 16.5055 6.40327 16.9139L5.96382 18.5434C5.93033 18.6678 5.85679 18.7777 5.75459 18.8561C5.65238 18.9344 5.52719 18.9769 5.39839 18.977ZM3.59487 14.2479C4.42109 14.6584 5.06427 15.3626 5.39839 16.2225C5.73261 15.3627 6.37576 14.6585 7.2019 14.2479C6.37569 13.8374 5.73251 13.1333 5.39839 12.2733C5.06417 13.1332 4.42102 13.8374 3.59487 14.2479ZM11.8437 14.2479C11.7148 14.248 11.5895 14.2055 11.4872 14.1271C11.3848 14.0487 11.3112 13.9388 11.2777 13.8143L10.5951 11.2796C10.4112 10.5917 10.0585 9.96066 9.56884 9.44371C9.07922 8.92677 8.46823 8.54031 7.79136 8.31941L6.1273 7.77332C6.01007 7.73478 5.908 7.66023 5.83564 7.56027C5.76327 7.46032 5.72432 7.34007 5.72432 7.21667C5.72432 7.09328 5.76327 6.97303 5.83564 6.87308C5.908 6.77312 6.01007 6.69857 6.1273 6.66003L7.79136 6.11394C8.46821 5.89299 9.07917 5.50652 9.56878 4.98958C10.0584 4.47265 10.4112 3.84162 10.5951 3.15378L11.2777 0.619018C11.311 0.494391 11.3846 0.384257 11.4869 0.305703C11.5893 0.22715 11.7147 0.18457 11.8437 0.18457C11.9727 0.18457 12.0981 0.22715 12.2005 0.305703C12.3028 0.384257 12.3764 0.494391 12.4097 0.619018L13.0923 3.15378C13.2762 3.84156 13.6289 4.47254 14.1184 4.98947C14.6079 5.5064 15.2187 5.89291 15.8955 6.11394L17.5595 6.66003C17.6767 6.69857 17.7788 6.77312 17.8512 6.87308C17.9235 6.97303 17.9625 7.09328 17.9625 7.21667C17.9625 7.34007 17.9235 7.46032 17.8512 7.56027C17.7788 7.66023 17.6767 7.73478 17.5595 7.77332L15.8955 8.31941C15.2187 8.54044 14.6079 8.92695 14.1184 9.44388C13.6289 9.96081 13.2762 10.5918 13.0923 11.2796L12.4097 13.8143C12.3762 13.9388 12.3026 14.0487 12.2003 14.1271C12.0979 14.2055 11.9726 14.248 11.8437 14.2479ZM8.18862 7.21667C9.04325 7.5014 9.81388 7.99373 10.4314 8.64953C11.049 9.30533 11.4942 10.1041 11.7271 10.9743L11.8437 11.4079L11.9609 10.9743C12.1936 10.1043 12.6386 9.30566 13.2558 8.64987C13.873 7.99408 14.6433 7.50165 15.4976 7.21667C14.6433 6.9317 13.873 6.43927 13.2558 5.78348C12.6386 5.12769 12.1936 4.32904 11.9609 3.45906L11.8437 3.02546L11.7265 3.45906C11.4937 4.3291 11.0487 5.1278 10.4313 5.78359C9.81401 6.43938 9.04303 6.93178 8.18862 7.21667ZM3.64058 3.70105C3.48518 3.70105 3.33614 3.63932 3.22626 3.52943C3.11637 3.41955 3.05464 3.27051 3.05464 3.11511V2.52917C3.05464 2.37377 3.11637 2.22474 3.22626 2.11485C3.33614 2.00497 3.48518 1.94324 3.64058 1.94324C3.79598 1.94324 3.94501 2.00497 4.0549 2.11485C4.16478 2.22474 4.22651 2.37377 4.22651 2.52917V3.11511C4.22651 3.27051 4.16478 3.41955 4.0549 3.52943C3.94501 3.63932 3.79598 3.70105 3.64058 3.70105ZM2.4687 4.87292H1.88276C1.72736 4.87292 1.57833 4.81119 1.46844 4.70131C1.35856 4.59142 1.29683 4.44239 1.29683 4.28699C1.29683 4.13159 1.35856 3.98255 1.46844 3.87267C1.57833 3.76278 1.72736 3.70105 1.88276 3.70105H2.4687C2.6241 3.70105 2.77314 3.76278 2.88302 3.87267C2.99291 3.98255 3.05464 4.13159 3.05464 4.28699C3.05464 4.44239 2.99291 4.59142 2.88302 4.70131C2.77314 4.81119 2.6241 4.87292 2.4687 4.87292ZM3.64058 6.62957C3.48518 6.62957 3.33614 6.56783 3.22626 6.45795C3.11637 6.34806 3.05464 6.19903 3.05464 6.04363V5.45769C3.05464 5.30229 3.11637 5.15325 3.22626 5.04337C3.33614 4.93349 3.48518 4.87175 3.64058 4.87175C3.79598 4.87175 3.94501 4.93349 4.0549 5.04337C4.16478 5.15325 4.22651 5.30229 4.22651 5.45769V6.04363C4.22651 6.19903 4.16478 6.34806 4.0549 6.45795C3.94501 6.56783 3.79598 6.62957 3.64058 6.62957ZM5.39839 4.87292H4.81245C4.65705 4.87292 4.50802 4.81119 4.39813 4.70131C4.28825 4.59142 4.22651 4.44239 4.22651 4.28699C4.22651 4.13159 4.28825 3.98255 4.39813 3.87267C4.50802 3.76278 4.65705 3.70105 4.81245 3.70105H5.39839C5.55379 3.70105 5.70282 3.76278 5.81271 3.87267C5.92259 3.98255 5.98433 4.13159 5.98433 4.28699C5.98433 4.44239 5.92259 4.59142 5.81271 4.70131C5.70282 4.81119 5.55379 4.87292 5.39839 4.87292ZM15.3593 15.4198C15.2039 15.4198 15.0549 15.3581 14.945 15.2482C14.8351 15.1383 14.7734 14.9893 14.7734 14.8339V14.2479C14.7734 14.0925 14.8351 13.9435 14.945 13.8336C15.0549 13.7237 15.2039 13.662 15.3593 13.662C15.5147 13.662 15.6638 13.7237 15.7736 13.8336C15.8835 13.9435 15.9453 14.0925 15.9453 14.2479V14.8339C15.9453 14.9893 15.8835 15.1383 15.7736 15.2482C15.6638 15.3581 15.5147 15.4198 15.3593 15.4198ZM14.188 16.5917H13.6021C13.4467 16.5917 13.2977 16.5299 13.1878 16.4201C13.0779 16.3102 13.0162 16.1611 13.0162 16.0057C13.0162 15.8503 13.0779 15.7013 13.1878 15.5914C13.2977 15.4815 13.4467 15.4198 13.6021 15.4198H14.188C14.3434 15.4198 14.4925 15.4815 14.6024 15.5914C14.7122 15.7013 14.774 15.8503 14.774 16.0057C14.774 16.1611 14.7122 16.3102 14.6024 16.4201C14.4925 16.5299 14.3434 16.5917 14.188 16.5917ZM15.3593 18.3483C15.2039 18.3483 15.0549 18.2866 14.945 18.1767C14.8351 18.0668 14.7734 17.9178 14.7734 17.7624V17.1764C14.7734 17.021 14.8351 16.872 14.945 16.7621C15.0549 16.6522 15.2039 16.5905 15.3593 16.5905C15.5147 16.5905 15.6638 16.6522 15.7736 16.7621C15.8835 16.872 15.9453 17.021 15.9453 17.1764V17.7624C15.9453 17.9178 15.8835 18.0668 15.7736 18.1767C15.6638 18.2866 15.5147 18.3483 15.3593 18.3483ZM17.1166 16.5917H16.5306C16.3752 16.5917 16.2262 16.5299 16.1163 16.4201C16.0064 16.3102 15.9447 16.1611 15.9447 16.0057C15.9447 15.8503 16.0064 15.7013 16.1163 15.5914C16.2262 15.4815 16.3752 15.4198 16.5306 15.4198H17.1166C17.272 15.4198 17.421 15.4815 17.5309 15.5914C17.6408 15.7013 17.7025 15.8503 17.7025 16.0057C17.7025 16.1611 17.6408 16.3102 17.5309 16.4201C17.421 16.5299 17.272 16.5917 17.1166 16.5917Z" stroke="#1D2939" stroke-width="0.482143" mask="url(#path-3-outside-1_0_1)"/>
</g>
</g>
</g>
</g>
<rect x="-12.5982" y="-11.5982" width="44.1964" height="44.1964" rx="9.24107" stroke="#EAECF0" stroke-width="0.803571"/>
</g>
</g>
</g>
</g>
</g>
</g>
</g>
<defs>
<filter id="filter0_d_0_1" x="-14.6071" y="-12.8036" width="48.2143" height="48.2143" filterUnits="userSpaceOnUse" color-interpolation-filters="sRGB">
<feFlood flood-opacity="0" result="BackgroundImageFix"/>
<feColorMatrix in="SourceAlpha" type="matrix" values="0 0 0 0 0 0 0 0 0 0 0 0 0 0 0 0 0 0 127 0" result="hardAlpha"/>
<feOffset dy="0.803571"/>
<feGaussianBlur stdDeviation="0.803571"/>
<feColorMatrix type="matrix" values="0 0 0 0 0.0627451 0 0 0 0 0.0941176 0 0 0 0 0.156863 0 0 0 0.05 0"/>
<feBlend mode="normal" in2="BackgroundImageFix" result="effect1_dropShadow_0_1"/>
<feBlend mode="normal" in="SourceGraphic" in2="effect1_dropShadow_0_1" result="shape"/>
</filter>
<clipPath id="clip0_0_1">
<rect width="1512" height="3837" fill="white" transform="translate(-115 -996)"/>
</clipPath>
<clipPath id="clip1_0_1">
<rect width="18.75" height="18.75" fill="white" transform="translate(0.125 0.186523)"/>
</clipPath>
</defs>
</svg>
