<svg width="36" height="36" viewBox="0 0 36 36" fill="none" xmlns="http://www.w3.org/2000/svg">
<g style="mix-blend-mode:multiply">
<rect x="2" y="2" width="32" height="32" rx="16" fill="#F4EBFF"/>
<rect x="2" y="2" width="32" height="32" rx="16" stroke="#F9F5FF" stroke-width="4"/>
<g clip-path="url(#clip0_11728_15639)">
<path d="M15.6663 19.7775C15.6663 20.6366 16.3628 21.333 17.2219 21.333H18.6663C19.5868 21.333 20.333 20.5868 20.333 19.6663C20.333 18.7459 19.5868 17.9997 18.6663 17.9997H17.333C16.4125 17.9997 15.6663 17.2535 15.6663 16.333C15.6663 15.4125 16.4125 14.6663 17.333 14.6663H18.7775C19.6366 14.6663 20.333 15.3628 20.333 16.2219M17.9997 13.6663V14.6663M17.9997 21.333V22.333M24.6663 17.9997C24.6663 21.6816 21.6816 24.6663 17.9997 24.6663C14.3178 24.6663 11.333 21.6816 11.333 17.9997C11.333 14.3178 14.3178 11.333 17.9997 11.333C21.6816 11.333 24.6663 14.3178 24.6663 17.9997Z" stroke="#7F56D9" stroke-width="1.33333" stroke-linecap="round" stroke-linejoin="round"/>
</g>
</g>
<defs>
<clipPath id="clip0_11728_15639">
<rect width="16" height="16" fill="white" transform="translate(10 10)"/>
</clipPath>
</defs>
</svg>
