<svg width="16" height="16" viewBox="0 0 16 16" fill="none" xmlns="http://www.w3.org/2000/svg">
<g id="Icons Set">
<path id="Vector" d="M7.10016 10.5002L10.3502 8.41683C10.5057 8.31683 10.5835 8.17794 10.5835 8.00016C10.5835 7.82239 10.5057 7.6835 10.3502 7.5835L7.10016 5.50016C6.9335 5.38905 6.76394 5.38061 6.5915 5.47483C6.41905 5.56905 6.33305 5.71638 6.3335 5.91683V10.0835C6.3335 10.2835 6.41972 10.4308 6.59216 10.5255C6.76461 10.6202 6.93394 10.6117 7.10016 10.5002ZM8.00016 14.6668C7.07794 14.6668 6.21127 14.4917 5.40016 14.1415C4.58905 13.7913 3.8835 13.3164 3.2835 12.7168C2.6835 12.1168 2.20861 11.4113 1.85883 10.6002C1.50905 9.78905 1.33394 8.92239 1.3335 8.00016C1.3335 7.07794 1.50861 6.21127 1.85883 5.40016C2.20905 4.58905 2.68394 3.8835 3.2835 3.2835C3.8835 2.6835 4.58905 2.20861 5.40016 1.85883C6.21127 1.50905 7.07794 1.33394 8.00016 1.3335C8.92239 1.3335 9.78905 1.50861 10.6002 1.85883C11.4113 2.20905 12.1168 2.68394 12.7168 3.2835C13.3168 3.8835 13.7919 4.58905 14.1422 5.40016C14.4924 6.21127 14.6673 7.07794 14.6668 8.00016C14.6668 8.92239 14.4917 9.78905 14.1415 10.6002C13.7913 11.4113 13.3164 12.1168 12.7168 12.7168C12.1168 13.3168 11.4113 13.7919 10.6002 14.1422C9.78905 14.4924 8.92239 14.6673 8.00016 14.6668ZM8.00016 13.3335C9.48905 13.3335 10.7502 12.8168 11.7835 11.7835C12.8168 10.7502 13.3335 9.48905 13.3335 8.00016C13.3335 6.51127 12.8168 5.25016 11.7835 4.21683C10.7502 3.1835 9.48905 2.66683 8.00016 2.66683C6.51127 2.66683 5.25016 3.1835 4.21683 4.21683C3.1835 5.25016 2.66683 6.51127 2.66683 8.00016C2.66683 9.48905 3.1835 10.7502 4.21683 11.7835C5.25016 12.8168 6.51127 13.3335 8.00016 13.3335Z" fill="#7F56D9"/>
</g>
</svg>
