<svg width="23" height="23" viewBox="0 0 23 23" fill="none" xmlns="http://www.w3.org/2000/svg">
<g clip-path="url(#clip0_6689_5234)">
<path d="M18.2241 3.48511H22.0191V0.982954H18.2241V5.9873" stroke="#1D2939" stroke-width="1.60714" stroke-miterlimit="10"/>
<path d="M20.7265 8.53105C20.7265 9.91295 19.6062 11.0332 18.2243 11.0332C16.8424 11.0332 15.7222 9.91295 15.7222 8.53105C15.7222 7.14915 16.8424 5.98719 18.2243 5.98719C19.6062 5.98719 20.7265 7.14915 20.7265 8.53105Z" stroke="#1D2939" stroke-width="1.60714" stroke-miterlimit="10"/>
<path d="M6.92276 18.5809C6.92276 19.9628 5.80251 21.083 4.42061 21.083C3.03871 21.083 1.91846 19.9628 1.91846 18.5809C1.91846 17.199 3.03871 16.0787 4.42061 16.0787C5.80251 16.0787 6.92276 17.199 6.92276 18.5809Z" stroke="#1D2939" stroke-width="1.60714" stroke-miterlimit="10"/>
<path d="M4.42065 16.0791V12.2842C4.42065 10.2113 6.10102 8.53094 8.17389 8.53094H13.2199" stroke="#1D2939" stroke-width="1.60714" stroke-miterlimit="10"/>
<path d="M11.3433 6.65399L13.2199 8.53061L11.3433 10.4072" stroke="#1D2939" stroke-width="1.60714" stroke-miterlimit="10"/>
<path d="M11.969 13.5768L15.7222 17.3301" stroke="#1D2939" stroke-width="1.60714" stroke-miterlimit="10"/>
<path d="M15.7222 13.5768L11.969 17.3301" stroke="#1D2939" stroke-width="1.60714" stroke-miterlimit="10"/>
<path d="M3.16968 1.02411L6.92291 4.77734" stroke="#1D2939" stroke-width="1.60714" stroke-miterlimit="10"/>
<path d="M6.92291 1.02411L3.16968 4.77734" stroke="#1D2939" stroke-width="1.60714" stroke-miterlimit="10"/>
</g>
<defs>
<clipPath id="clip0_6689_5234">
<rect width="22.5" height="22.5" fill="white" transform="translate(0.25 0.25)"/>
</clipPath>
</defs>
</svg>
