<svg xmlns="http://www.w3.org/2000/svg" width="54" height="70" viewBox="0 0 54 70" fill="none">
    <path fill-rule="evenodd" clip-rule="evenodd" d="M18.4969 39.6599C15.4864 47.0147 14.0193 50.5987 13.7806 56.2429C13.6172 60.1062 13.6355 63.3157 13.684 65.8194C17.7527 68.1658 22.1991 69.3391 27.023 69.3391C31.6381 69.3391 35.9013 68.2652 39.8126 66.1175C40.3611 63.0556 40.7097 59.5638 40.2275 56.2429C40.152 55.7227 40.0782 55.2001 40.0041 54.6753C39.1172 48.3938 38.1847 41.7892 33.6647 35.0987C28.7671 27.8493 27.102 26.8424 25.4368 27.2452C23.7716 27.6479 22.2044 30.4833 20.8331 33.8905C19.9695 36.0625 19.1921 37.9617 18.4969 39.6599ZM50.2103 56.1573C52.7368 52.0022 54 47.4457 54 42.4879V26.6151C54 19.4487 51.3606 13.1361 46.0818 7.67748C42.3965 4.15877 38.3244 1.82032 33.8656 0.662109C33.8647 0.72941 33.863 0.797138 33.8606 0.865293C33.7903 2.8882 33.367 5.13142 32.939 7.39968C32.174 11.4537 31.3939 15.5878 32.5873 18.6868C33.6677 21.4925 36.2666 25.4519 38.6402 29.0679C40.3552 31.6807 41.9525 34.1141 42.7742 35.8035C42.873 36.0066 42.9783 36.222 43.0893 36.4491C45.0301 40.4202 48.7242 47.9789 50.2103 56.1573ZM18.913 1.02415C18.8123 1.42148 18.733 1.83808 18.6781 2.2749C18.0669 7.14404 18.5284 12.3807 18.8075 15.5482C18.8862 16.4416 18.9504 17.1704 18.972 17.6799C19.0699 19.9957 18.3843 23.0163 16.5232 26.1376C15.7645 27.4101 14.9569 28.4316 14.0673 29.5568C12.7748 31.1916 11.3092 33.0455 9.56863 36.2063C6.63009 41.5426 4.18129 48.5907 3.69154 54.1285C3.64171 54.6918 3.60405 55.2499 3.57763 55.8025C1.19254 51.7432 0 47.305 0 42.4879V26.6151C0 19.4487 2.63939 13.1361 7.91816 7.67748C11.272 4.49305 14.937 2.27527 18.913 1.02415Z" fill="#ED1B24"/>
  </svg>