<svg width="54" height="55" viewBox="0 0 54 55" fill="none" xmlns="http://www.w3.org/2000/svg">
<path d="M27 52.8125C40.9797 52.8125 52.3125 41.4797 52.3125 27.5C52.3125 13.5203 40.9797 2.1875 27 2.1875C13.0203 2.1875 1.6875 13.5203 1.6875 27.5C1.6875 41.4797 13.0203 52.8125 27 52.8125Z" fill="#4ECD90"/>
<path d="M37.6192 17.8692L23.6247 31.8636L18.0678 26.3067C17.9111 26.15 17.7251 26.0257 17.5204 25.9409C17.3157 25.8561 17.0963 25.8125 16.8747 25.8125C16.6532 25.8125 16.4338 25.8561 16.2291 25.9409C16.0244 26.0257 15.8384 26.15 15.6817 26.3067C15.525 26.4634 15.4007 26.6494 15.3159 26.8541C15.2311 27.0588 15.1875 27.2782 15.1875 27.4997C15.1875 27.7213 15.2311 27.9407 15.3159 28.1454C15.4007 28.3501 15.525 28.5361 15.6817 28.6928L22.4317 35.4428C22.588 35.6001 22.7739 35.7248 22.9787 35.81C23.1834 35.8952 23.403 35.939 23.6247 35.939C23.8465 35.939 24.0661 35.8952 24.2708 35.81C24.4756 35.7248 24.6615 35.6001 24.8178 35.4428L40.0053 20.2553C40.162 20.0986 40.2863 19.9126 40.3711 19.7079C40.4559 19.5032 40.4995 19.2838 40.4995 19.0622C40.4995 18.8407 40.4559 18.6213 40.3711 18.4166C40.2863 18.2119 40.162 18.0259 40.0053 17.8692C39.8486 17.7125 39.6626 17.5882 39.4579 17.5034C39.2532 17.4186 39.0338 17.375 38.8122 17.375C38.5907 17.375 38.3713 17.4186 38.1666 17.5034C37.9619 17.5882 37.7759 17.7125 37.6192 17.8692Z" fill="#ECF7FD"/>
</svg>
