<svg width="34" height="33" viewBox="0 0 34 33" fill="none" xmlns="http://www.w3.org/2000/svg">
<rect x="0.524658" y="0.203125" width="32.5411" height="32.5411" rx="16.2706" fill="#ECFDF3"/>
<g clip-path="url(#clip0_6136_25529)">
<path d="M23.5747 16.4747H20.8629M12.7276 16.4747H10.0159M16.7953 12.4071V9.69531M16.7953 23.2541V20.5424M22.2188 16.4747C22.2188 19.47 19.7906 21.8982 16.7953 21.8982C13.7999 21.8982 11.3717 19.47 11.3717 16.4747C11.3717 13.4794 13.7999 11.0512 16.7953 11.0512C19.7906 11.0512 22.2188 13.4794 22.2188 16.4747ZM18.8291 16.4747C18.8291 17.598 17.9185 18.5085 16.7953 18.5085C15.672 18.5085 14.7615 17.598 14.7615 16.4747C14.7615 15.3515 15.672 14.4409 16.7953 14.4409C17.9185 14.4409 18.8291 15.3515 18.8291 16.4747Z" stroke="#4ECD90" stroke-width="1.35588" stroke-linecap="round" stroke-linejoin="round"/>
</g>
<defs>
<clipPath id="clip0_6136_25529">
<rect width="16.2706" height="16.2706" fill="white" transform="translate(8.65991 8.33887)"/>
</clipPath>
</defs>
</svg>
