<svg width="105" height="105" viewBox="0 0 105 105" fill="none" xmlns="http://www.w3.org/2000/svg">
<g id="Group">
<path id="Vector" d="M49.7607 105C77.2428 105 99.5214 82.7214 99.5214 55.2393C99.5214 27.7572 77.2428 5.47852 49.7607 5.47852C22.2785 5.47852 -0.00012207 27.7572 -0.00012207 55.2393C-0.00012207 82.7214 22.2785 105 49.7607 105Z" fill="#7F56D9"/>
<path id="Vector_2" d="M99.5221 55.238C99.5221 82.7196 77.2425 104.999 49.7609 104.999C48.3921 104.999 47.0355 104.943 45.6934 104.836C71.2719 102.767 91.3871 81.3507 91.3871 55.238C91.3871 29.1253 71.2717 7.70924 45.6932 5.64001C47.0464 5.53147 48.4033 5.47694 49.7607 5.47656C77.2425 5.47656 99.5221 27.7562 99.5221 55.238Z" fill="#7F56D9"/>
<path id="Vector_3" d="M49.7608 93.7994C71.0568 93.7994 88.3207 76.5356 88.3207 55.2396C88.3207 33.9435 71.0568 16.6797 49.7608 16.6797C28.4648 16.6797 11.2009 33.9435 11.2009 55.2396C11.2009 76.5356 28.4648 93.7994 49.7608 93.7994Z" fill="#EEF4F5"/>
<path id="Vector_4" d="M88.32 55.2389C88.32 76.5352 71.057 93.7982 49.7607 93.7982C48.3869 93.7982 47.0303 93.7274 45.6932 93.5859C65.0765 91.5534 80.185 75.1616 80.185 55.2389C80.185 35.3163 65.0767 18.9245 45.6932 16.8919C47.0303 16.7504 48.3869 16.6797 49.7607 16.6797C71.057 16.6797 88.32 33.9427 88.32 55.2389Z" fill="#CBE5E7"/>
<path id="Vector_5" d="M49.7607 82.5984C64.8706 82.5984 77.1195 70.3494 77.1195 55.2396C77.1195 40.1298 64.8706 27.8809 49.7607 27.8809C34.6509 27.8809 22.402 40.1298 22.402 55.2396C22.402 70.3494 34.6509 82.5984 49.7607 82.5984Z" fill="#7F56D9"/>
<path id="Vector_6" d="M77.1204 55.2385C77.1204 70.3494 64.8716 82.598 49.7609 82.598C48.3799 82.598 47.0208 82.4955 45.6934 82.298C58.8743 80.3313 68.9832 68.9659 68.9832 55.2385C68.9832 41.511 58.8743 30.1456 45.6934 28.1789C47.0399 27.9788 48.3995 27.8785 49.7609 27.8789C64.8716 27.8787 77.1204 40.1276 77.1204 55.2385Z" fill="#7F56D9"/>
<path id="Vector_7" d="M49.7608 71.2782C58.6194 71.2782 65.8008 64.0969 65.8008 55.2382C65.8008 46.3796 58.6194 39.1982 49.7608 39.1982C40.9022 39.1982 33.7208 46.3796 33.7208 55.2382C33.7208 64.0969 40.9022 71.2782 49.7608 71.2782Z" fill="#EEF4F5"/>
<path id="Vector_8" d="M65.8013 55.2388C65.8013 64.0984 58.6203 71.2794 49.7607 71.2794C48.4725 71.2805 47.1887 71.1264 45.9373 70.8207C52.9499 69.1054 58.1519 62.7808 58.1519 55.2388C58.1519 47.6967 52.9499 41.3723 45.9373 39.657C47.1887 39.3512 48.4724 39.1971 49.7607 39.1982C58.6205 39.1982 65.8013 46.3791 65.8013 55.2388Z" fill="#CBE5E7"/>
<path id="Vector_9" d="M49.7609 61.0879C52.991 61.0879 55.6095 58.4693 55.6095 55.2392C55.6095 52.0091 52.991 49.3906 49.7609 49.3906C46.5307 49.3906 43.9122 52.0091 43.9122 55.2392C43.9122 58.4693 46.5307 61.0879 49.7609 61.0879Z" fill="#7F56D9"/>
<path id="Vector_10" d="M55.6095 55.2393C55.6095 58.4699 52.9913 61.0879 49.7609 61.0879C48.8017 61.0899 47.8569 60.8544 47.011 60.4023C49.4412 59.9411 51.2785 57.8038 51.2785 55.2393C51.2785 52.6748 49.4412 50.5374 47.011 50.0762C47.8569 49.6241 48.8017 49.3886 49.7609 49.3906C52.9913 49.3904 55.6095 52.0087 55.6095 55.2393Z" fill="#7F56D9"/>
<path id="Vector_11" d="M49.7608 56.8231C49.4474 56.8231 49.141 56.7301 48.8804 56.556C48.6199 56.3819 48.4168 56.1344 48.2969 55.8448C48.1769 55.5553 48.1456 55.2366 48.2067 54.9293C48.2679 54.6219 48.4188 54.3395 48.6404 54.1179L91.8621 10.8963C92.009 10.748 92.1837 10.6301 92.3763 10.5496C92.5689 10.469 92.7755 10.4273 92.9842 10.4268C93.1929 10.4263 93.3997 10.467 93.5927 10.5467C93.7856 10.6263 93.9609 10.7433 94.1085 10.8909C94.2561 11.0385 94.3731 11.2139 94.4527 11.4068C94.5324 11.5998 94.5731 11.8066 94.5726 12.0153C94.5721 12.224 94.5303 12.4306 94.4497 12.6232C94.3691 12.8158 94.2513 12.9905 94.103 13.1374L50.8813 56.359C50.7343 56.5064 50.5596 56.6232 50.3673 56.7029C50.1751 56.7825 49.9689 56.8234 49.7608 56.8231Z" fill="url(#paint0_linear_6136_25449)"/>
<path id="Vector_12" d="M73.0301 11.4526C72.6652 11.8176 72.3967 12.2675 72.2488 12.7619C72.1009 13.2563 72.0782 13.7798 72.1828 14.2852L75.3592 29.6398L80.6285 24.3705L78.2812 13.0237C77.7791 10.5975 74.7821 9.70065 73.0301 11.4526Z" fill="#D6BBFB"/>
<path id="Vector_13" d="M78.2997 6.18414C77.9347 6.54906 77.6662 6.99897 77.5183 7.49341C77.3704 7.98785 77.3477 8.5113 77.4523 9.01668L80.6287 24.3713L85.898 19.102L83.5507 7.75504C83.0489 5.32876 80.0517 4.43216 78.2997 6.18414Z" fill="#B692F6"/>
<path id="Vector_14" d="M83.569 0.914609C83.204 1.27953 82.9355 1.72944 82.7876 2.22388C82.6397 2.71832 82.617 3.24177 82.7216 3.74715L85.898 19.1018L91.1673 13.8325L88.8198 2.48551C88.318 0.0592276 85.3207 -0.837374 83.569 0.914609Z" fill="#D6BBFB"/>
<path id="Vector_15" d="M93.5463 31.9694C93.1814 32.3344 92.7314 32.6029 92.237 32.7508C91.7426 32.8987 91.2191 32.9214 90.7137 32.8168L75.3591 29.6404L80.6284 24.3711L91.9752 26.7184C94.4015 27.2204 95.2983 30.2175 93.5463 31.9694Z" fill="#D6BBFB"/>
<path id="Vector_16" d="M98.8158 26.6999C98.4509 27.0649 98.001 27.3334 97.5065 27.4813C97.0121 27.6292 96.4887 27.6519 95.9833 27.5473L80.6287 24.3708L85.8979 19.1016L97.2449 21.4489C99.6712 21.9507 100.568 24.9479 98.8158 26.6999Z" fill="#B692F6"/>
<path id="Vector_17" d="M104.085 21.4304C103.72 21.7953 103.27 22.0638 102.776 22.2117C102.281 22.3597 101.758 22.3823 101.253 22.2778L85.8979 19.1013L91.1672 13.832L102.514 16.1794C104.94 16.6814 105.837 19.6786 104.085 21.4304Z" fill="#D6BBFB"/>
</g>
<defs>
<linearGradient id="paint0_linear_6136_25449" x1="40.9068" y1="41.7443" x2="101.737" y2="41.429" gradientUnits="userSpaceOnUse">
<stop stop-color="#6B7CF8"/>
<stop offset="1" stop-color="#FBD0F8"/>
</linearGradient>
</defs>
</svg>
