<svg width="23" height="23" viewBox="0 0 23 23" fill="none" xmlns="http://www.w3.org/2000/svg">
<g id="target-03">
<path id="Icon" d="M20.875 11.3594H17.125M5.875 11.3594H2.125M11.5 5.73437V1.98438M11.5 20.7344V16.9844M19 11.3594C19 15.5015 15.6421 18.8594 11.5 18.8594C7.35786 18.8594 4 15.5015 4 11.3594C4 7.21724 7.35786 3.85937 11.5 3.85937C15.6421 3.85937 19 7.21724 19 11.3594ZM14.3125 11.3594C14.3125 12.9127 13.0533 14.1719 11.5 14.1719C9.9467 14.1719 8.6875 12.9127 8.6875 11.3594C8.6875 9.80607 9.9467 8.54687 11.5 8.54687C13.0533 8.54687 14.3125 9.80607 14.3125 11.3594Z" stroke="black" stroke-width="1.60714" stroke-linecap="round" stroke-linejoin="round"/>
</g>
</svg>
