<svg width="54" height="54" viewBox="0 0 54 54" fill="none" xmlns="http://www.w3.org/2000/svg">
<path d="M27 52.3125C40.9797 52.3125 52.3125 40.9797 52.3125 27C52.3125 13.0203 40.9797 1.6875 27 1.6875C13.0203 1.6875 1.6875 13.0203 1.6875 27C1.6875 40.9797 13.0203 52.3125 27 52.3125Z" fill="#EFCE57"/>
<path d="M17.876 33.1155C17.922 32.702 17.945 32.4952 18.0075 32.302C18.063 32.1305 18.1414 31.9674 18.2406 31.8169C18.3525 31.6474 18.4995 31.5003 18.7937 31.2061L32 17.9998C33.1046 16.8952 34.8955 16.8952 36 17.9998C37.1046 19.1044 37.1046 20.8952 36 21.9998L22.7937 35.2061C22.4995 35.5003 22.3525 35.6474 22.1829 35.7592C22.0324 35.8584 21.8693 35.9368 21.6978 35.9923C21.5046 36.0549 21.2979 36.0778 20.8844 36.1238L17.5 36.4998L17.876 33.1155Z" stroke="white" stroke-width="2" stroke-linecap="round" stroke-linejoin="round"/>
</svg>
