<svg width="19" height="19" viewBox="0 0 19 19" fill="none" xmlns="http://www.w3.org/2000/svg">
<g id="file-search-03">
<path id="Subtract" fill-rule="evenodd" clip-rule="evenodd" d="M6.9308 0.900635L6.89896 0.900635C6.27832 0.900625 5.7661 0.900617 5.34884 0.934709C4.91546 0.970117 4.51708 1.04611 4.14288 1.23677C3.56259 1.53245 3.0908 2.00424 2.79512 2.58453C2.60446 2.95873 2.52847 3.35711 2.49306 3.79049C2.45897 4.20775 2.45897 4.71997 2.45898 5.34061L2.45899 5.37245V13.3909L2.45898 13.4227C2.45897 14.0433 2.45897 14.5556 2.49306 14.9728C2.52847 15.4062 2.60446 15.8046 2.79512 16.1788C3.0908 16.7591 3.56259 17.2309 4.14288 17.5265C4.51708 17.7172 4.91546 17.7932 5.34884 17.8286C5.76606 17.8627 6.27824 17.8627 6.8988 17.8627H6.8989H6.9308H8.56327C8.50439 17.5117 8.47374 17.1511 8.47374 16.7834C8.47374 16.6278 8.47923 16.4735 8.49001 16.3207H6.9308C6.27037 16.3207 5.82142 16.3201 5.4744 16.2917C5.13638 16.2641 4.96352 16.2141 4.84294 16.1526C4.55279 16.0048 4.3169 15.7689 4.16906 15.4787C4.10762 15.3581 4.05756 15.1853 4.02994 14.8473C4.00159 14.5002 4.00099 14.0513 4.00099 13.3909V5.37245C4.00099 4.71202 4.00159 4.26307 4.02994 3.91605C4.05756 3.57804 4.10762 3.40517 4.16906 3.28459C4.3169 2.99444 4.55279 2.75855 4.84294 2.61071C4.96352 2.54927 5.13638 2.49921 5.4744 2.47159C5.82142 2.44324 6.27037 2.44264 6.9308 2.44264H10.169V5.0641L10.169 5.08869C10.169 5.28328 10.169 5.47279 10.1821 5.63328C10.1965 5.80953 10.2304 6.01749 10.3371 6.22676C10.4849 6.51691 10.7208 6.7528 11.011 6.90064C11.2202 7.00727 11.4282 7.04124 11.6044 7.05564C11.7649 7.06876 11.9544 7.06873 12.149 7.06871L12.1736 7.06871H14.795V10.3088C14.8466 10.3075 14.8983 10.3069 14.9502 10.3069C15.4262 10.3069 15.8902 10.3583 16.337 10.4558V6.29765C16.337 6.09317 16.2558 5.89706 16.1112 5.75247L11.4852 1.12646C11.3406 0.981866 11.1445 0.900635 10.94 0.900635H6.9308ZM13.7047 5.5267L11.711 3.533V5.0641C11.711 5.29273 11.7116 5.41782 11.719 5.50771L11.7198 5.51788L11.73 5.51876C11.8199 5.5261 11.945 5.5267 12.1736 5.5267H13.7047Z" fill="#B42318"/>
</g>
</svg>
