<svg width="120" height="120" viewBox="0 0 120 120" fill="none" xmlns="http://www.w3.org/2000/svg">
<path d="M120 60C120 93.1371 93.1371 120 60 120C26.8629 120 0 93.1371 0 60C0 26.8629 26.8629 0 60 0C93.1371 0 120 26.8629 120 60ZM15 60C15 84.8528 35.1472 105 60 105C84.8528 105 105 84.8528 105 60C105 35.1472 84.8528 15 60 15C35.1472 15 15 35.1472 15 60Z" fill="#EAECF0"/>
<path d="M60 4C60 1.79086 61.7928 -0.0138831 63.9971 0.133285C67.6799 0.379174 71.3322 0.964382 74.9075 1.88145C77.0474 2.43033 78.1866 4.70488 77.4964 6.80342L75.3094 13.453C74.6191 15.5515 72.3609 16.6746 70.2093 16.1734C68.1636 15.6969 66.087 15.3641 63.9948 15.1777C61.7943 14.9816 60 13.2091 60 11V4Z" fill="#7F56D9"/>
<path d="M37.7238 69.2088C36.6698 69.2088 35.7302 69.0149 34.9049 68.6271C34.0846 68.2393 33.4333 67.7049 32.951 67.0238C32.4688 66.3427 32.2177 65.5621 32.1978 64.6822H35.3299C35.3647 65.2738 35.6133 65.7536 36.0757 66.1214C36.538 66.4893 37.0874 66.6733 37.7238 66.6733C38.2309 66.6733 38.6783 66.5614 39.0661 66.3377C39.4589 66.109 39.7646 65.7933 39.9834 65.3906C40.2071 64.983 40.3189 64.5156 40.3189 63.9886C40.3189 63.4517 40.2046 62.9794 39.9759 62.5717C39.7522 62.1641 39.4415 61.8459 39.0437 61.6172C38.646 61.3885 38.1911 61.2717 37.679 61.2667C37.2316 61.2667 36.7966 61.3587 36.374 61.5426C35.9564 61.7266 35.6307 61.9776 35.3971 62.2958L32.526 61.7812L33.2493 53.7273H42.586V56.3672H35.9116L35.5164 60.1928H35.6059C35.8743 59.815 36.2795 59.5018 36.8214 59.2532C37.3633 59.0046 37.9699 58.8803 38.641 58.8803C39.5608 58.8803 40.3811 59.0966 41.102 59.5291C41.8228 59.9616 42.3921 60.5558 42.8097 61.3114C43.2273 62.0621 43.4336 62.9272 43.4287 63.9066C43.4336 64.9357 43.195 65.8505 42.7128 66.6509C42.2355 67.4464 41.5668 68.0728 40.7067 68.5302C39.8516 68.9826 38.8573 69.2088 37.7238 69.2088ZM47.0753 69.1939C46.5831 69.1939 46.1606 69.0199 45.8076 68.6719C45.4596 68.3189 45.2856 67.8963 45.2856 67.4041C45.2856 66.9169 45.4596 66.4993 45.8076 66.1513C46.1606 65.8033 46.5831 65.6293 47.0753 65.6293C47.5526 65.6293 47.9702 65.8033 48.3282 66.1513C48.6861 66.4993 48.8651 66.9169 48.8651 67.4041C48.8651 67.7322 48.7806 68.033 48.6116 68.3065C48.4475 68.5749 48.2312 68.7912 47.9628 68.9553C47.6943 69.1143 47.3985 69.1939 47.0753 69.1939ZM56.5965 69.2088C55.4829 69.2088 54.4911 69.0174 53.621 68.6346C52.756 68.2468 52.0724 67.7148 51.5703 67.0387C51.0731 66.3576 50.8171 65.5721 50.8022 64.6822H54.0536C54.0735 65.055 54.1953 65.3832 54.419 65.6665C54.6477 65.945 54.9509 66.1612 55.3288 66.3153C55.7066 66.4695 56.1317 66.5465 56.604 66.5465C57.0962 66.5465 57.5312 66.4595 57.909 66.2855C58.2869 66.1115 58.5827 65.8704 58.7965 65.5621C59.0103 65.2539 59.1171 64.8984 59.1171 64.4957C59.1171 64.0881 59.0028 63.7276 58.7741 63.4144C58.5504 63.0962 58.2272 62.8477 57.8046 62.6687C57.387 62.4897 56.8899 62.4002 56.3132 62.4002H54.8888V60.0288H56.3132C56.8004 60.0288 57.2304 59.9442 57.6033 59.7752C57.9811 59.6062 58.2745 59.3725 58.4833 59.0742C58.6921 58.771 58.7965 58.418 58.7965 58.0153C58.7965 57.6325 58.7045 57.2969 58.5206 57.0085C58.3416 56.7152 58.088 56.4865 57.7599 56.3224C57.4367 56.1584 57.0589 56.0763 56.6264 56.0763C56.1889 56.0763 55.7887 56.1559 55.4257 56.315C55.0628 56.4691 54.772 56.6903 54.5532 56.9787C54.3345 57.267 54.2176 57.6051 54.2027 57.9929H51.1079C51.1228 57.1129 51.3739 56.3374 51.8611 55.6662C52.3483 54.995 53.0046 54.4705 53.8299 54.0927C54.6601 53.7099 55.5973 53.5185 56.6413 53.5185C57.6953 53.5185 58.6175 53.7099 59.408 54.0927C60.1985 54.4755 60.8125 54.9925 61.25 55.6438C61.6924 56.2901 61.9112 57.016 61.9062 57.8214C61.9112 58.6765 61.6452 59.3899 61.1083 59.9616C60.5763 60.5334 59.8828 60.8963 59.0277 61.0504V61.1697C60.1512 61.3139 61.0063 61.7042 61.593 62.3406C62.1846 62.9719 62.4779 63.7624 62.473 64.712C62.4779 65.582 62.2269 66.3551 61.7198 67.0312C61.2176 67.7074 60.5241 68.2393 59.6392 68.6271C58.7542 69.0149 57.74 69.2088 56.5965 69.2088ZM65.3981 69L71.7294 56.4716V56.3672H64.3541V53.7273H75.0704V56.4045L68.7316 69H65.3981ZM85.6431 66.1364V65.331C85.6431 64.7195 85.7723 64.1577 86.0309 63.6456C86.2943 63.1286 86.6747 62.7159 87.1718 62.4077C87.674 62.0945 88.2855 61.9379 89.0063 61.9379C89.7372 61.9379 90.3512 62.092 90.8483 62.4002C91.3505 62.7085 91.7283 63.1211 91.9818 63.6381C92.2404 64.1502 92.3696 64.7145 92.3696 65.331V66.1364C92.3696 66.7479 92.2404 67.3121 91.9818 67.8292C91.7233 68.3413 91.343 68.7514 90.8409 69.0597C90.3387 69.3729 89.7272 69.5295 89.0063 69.5295C88.2755 69.5295 87.6615 69.3729 87.1644 69.0597C86.6672 68.7514 86.2894 68.3413 86.0309 67.8292C85.7723 67.3121 85.6431 66.7479 85.6431 66.1364ZM87.8132 65.331V66.1364C87.8132 66.4893 87.8977 66.8224 88.0667 67.1357C88.2407 67.4489 88.5539 67.6055 89.0063 67.6055C89.4588 67.6055 89.767 67.4513 89.9311 67.1431C90.1001 66.8349 90.1846 66.4993 90.1846 66.1364V65.331C90.1846 64.968 90.1051 64.63 89.946 64.3168C89.7869 64.0036 89.4737 63.8469 89.0063 63.8469C88.5589 63.8469 88.2482 64.0036 88.0742 64.3168C87.9002 64.63 87.8132 64.968 87.8132 65.331ZM77.8054 57.3963V56.5909C77.8054 55.9744 77.9371 55.4102 78.2006 54.8981C78.4641 54.381 78.8444 53.9684 79.3416 53.6602C79.8437 53.3519 80.4502 53.1978 81.1612 53.1978C81.897 53.1978 82.5135 53.3519 83.0106 53.6602C83.5078 53.9684 83.8856 54.381 84.1441 54.8981C84.4027 55.4102 84.5319 55.9744 84.5319 56.5909V57.3963C84.5319 58.0128 84.4002 58.5771 84.1367 59.0891C83.8782 59.6012 83.4978 60.0114 82.9957 60.3196C82.4985 60.6229 81.887 60.7745 81.1612 60.7745C80.4353 60.7745 79.8213 60.6204 79.3192 60.3121C78.822 59.9989 78.4442 59.5888 78.1857 59.0817C77.9321 58.5696 77.8054 58.0078 77.8054 57.3963ZM79.9904 56.5909V57.3963C79.9904 57.7592 80.0749 58.0948 80.2439 58.4031C80.4179 58.7113 80.7237 58.8654 81.1612 58.8654C81.6186 58.8654 81.9293 58.7113 82.0934 58.4031C82.2624 58.0948 82.3469 57.7592 82.3469 57.3963V56.5909C82.3469 56.228 82.2674 55.8899 82.1083 55.5767C81.9492 55.2635 81.6335 55.1069 81.1612 55.1069C80.7187 55.1069 80.413 55.266 80.2439 55.5842C80.0749 55.9023 79.9904 56.2379 79.9904 56.5909ZM78.7897 69L89.2897 53.7273H91.2436L80.7436 69H78.7897Z" fill="#344054"/>
</svg>
