<svg width="19" height="19" viewBox="0 0 19 19" fill="none" xmlns="http://www.w3.org/2000/svg">
<g id="file-check-03" clip-path="url(#clip0_10364_18733)">
<path id="Icon" d="M11.2509 2.23711V5.42176C11.2509 5.85356 11.2509 6.06947 11.335 6.23439C11.4089 6.37947 11.5268 6.49741 11.6719 6.57133C11.8368 6.65537 12.0527 6.65537 12.4845 6.65537H15.6692M7.39591 12.8233L8.93791 14.3653L12.4074 10.8958M11.2509 2.0293H7.24171C5.9463 2.0293 5.2986 2.0293 4.80382 2.2814C4.3686 2.50316 4.01475 2.857 3.793 3.29222C3.54089 3.787 3.54089 4.4347 3.54089 5.73011V13.7485C3.54089 15.0439 3.54089 15.6916 3.793 16.1864C4.01475 16.6216 4.3686 16.9755 4.80382 17.1972C5.2986 17.4493 5.9463 17.4493 7.24171 17.4493H12.1761C13.4715 17.4493 14.1192 17.4493 14.614 17.1972C15.0492 16.9755 15.4031 16.6216 15.6248 16.1864C15.8769 15.6916 15.8769 15.0439 15.8769 13.7485V6.65531L11.2509 2.0293Z" stroke="#039855" stroke-width="1.85041" stroke-linecap="round" stroke-linejoin="round"/>
</g>
<defs>
<clipPath id="clip0_10364_18733">
<rect width="18.5041" height="18.5041" fill="white" transform="translate(0.456909 0.487305)"/>
</clipPath>
</defs>
</svg>
