<svg width="19" height="19" viewBox="0 0 19 19" fill="none" xmlns="http://www.w3.org/2000/svg">
<g id="file-search-03" clip-path="url(#clip0_10364_22454)">
<path id="Icon" d="M11.2509 2.15703V5.34169C11.2509 5.77349 11.2509 5.98939 11.335 6.15431C11.4089 6.29939 11.5268 6.41734 11.6719 6.49125C11.8368 6.57529 12.0527 6.57529 12.4845 6.57529H15.6692M12.7929 14.6708L11.6364 13.5143M11.2509 1.94922H7.24171C5.9463 1.94922 5.2986 1.94922 4.80382 2.20132C4.3686 2.42308 4.01475 2.77692 3.793 3.21214C3.54089 3.70692 3.54089 4.35462 3.54089 5.65003V13.6685C3.54089 14.9639 3.54089 15.6116 3.793 16.1063C4.01475 16.5416 4.3686 16.8954 4.80382 17.1172C5.2986 17.3693 5.9463 17.3693 7.24171 17.3693H12.1761C13.4715 17.3693 14.1192 17.3693 14.614 17.1172C15.0492 16.8954 15.4031 16.5416 15.6248 16.1063C15.8769 15.6116 15.8769 14.9639 15.8769 13.6685V6.57523L11.2509 1.94922ZM12.4074 11.5867C12.4074 13.0771 11.1993 14.2853 9.70891 14.2853C8.21857 14.2853 7.0104 13.0771 7.0104 11.5867C7.0104 10.0964 8.21857 8.88824 9.70891 8.88824C11.1993 8.88824 12.4074 10.0964 12.4074 11.5867Z" stroke="#7F56D9" stroke-width="1.542" stroke-linecap="round" stroke-linejoin="round"/>
</g>
<defs>
<clipPath id="clip0_10364_22454">
<rect width="18.5041" height="18.5041" fill="white" transform="translate(0.456909 0.407227)"/>
</clipPath>
</defs>
</svg>
