<svg width="19" height="19" viewBox="0 0 19 19" fill="none" xmlns="http://www.w3.org/2000/svg">
<g id="file-search-03" clip-path="url(#clip0_10364_11612)">
<path id="Icon" d="M10.9406 2.21635V5.40101C10.9406 5.83281 10.9406 6.04871 11.0246 6.21364C11.0985 6.35871 11.2165 6.47666 11.3615 6.55058C11.5265 6.63461 11.7424 6.63461 12.1742 6.63461H15.3588M12.4826 14.7301L11.3261 13.5736M10.9406 2.00854H6.93134C5.63594 2.00854 4.98823 2.00854 4.49345 2.26065C4.05823 2.4824 3.70439 2.83625 3.48263 3.27147C3.23053 3.76625 3.23053 4.41395 3.23053 5.70936V13.7278C3.23053 15.0232 3.23053 15.6709 3.48263 16.1657C3.70439 16.6009 4.05823 16.9547 4.49345 17.1765C4.98823 17.4286 5.63594 17.4286 6.93134 17.4286H11.8658C13.1612 17.4286 13.8089 17.4286 14.3036 17.1765C14.7389 16.9547 15.0927 16.6009 15.3145 16.1657C15.5666 15.6709 15.5666 15.0232 15.5666 13.7278V6.63456L10.9406 2.00854ZM12.0971 11.6461C12.0971 13.1364 10.8889 14.3446 9.39855 14.3446C7.9082 14.3446 6.70004 13.1364 6.70004 11.6461C6.70004 10.1557 7.9082 8.94757 9.39855 8.94757C10.8889 8.94757 12.0971 10.1557 12.0971 11.6461Z" stroke="#FF692E" stroke-width="1.542" stroke-linecap="round" stroke-linejoin="round"/>
</g>
<defs>
<clipPath id="clip0_10364_11612">
<rect width="18.5041" height="18.5041" fill="white" transform="translate(0.146515 0.466553)"/>
</clipPath>
</defs>
</svg>
