<svg width="21" height="21" viewBox="0 0 21 21" fill="none" xmlns="http://www.w3.org/2000/svg">
<g id="Frame" clip-path="url(#clip0_10693_27810)">
<path id="Vector" d="M7.92743 20.0463C8.21988 20.0476 8.50747 19.9715 8.76087 19.8254C9.01439 19.6794 9.22462 19.4687 9.3701 19.2148C9.37014 19.2147 9.37018 19.2147 9.37023 19.2146L10.9133 16.5463H16.625C17.5324 16.5463 18.4026 16.1858 19.0442 15.5442C19.6858 14.9026 20.0462 14.0324 20.0462 13.125V4.375C20.0462 3.46763 19.6858 2.59742 19.0442 1.95581C18.4026 1.3142 17.5324 0.95375 16.625 0.95375H4.375C3.46763 0.95375 2.59742 1.3142 1.95581 1.95581C1.3142 2.59742 0.95375 3.46763 0.95375 4.375V13.125C0.95375 14.0324 1.3142 14.9026 1.95581 15.5442C2.59742 16.1858 3.46763 16.5463 4.375 16.5463H4.94151L6.47614 19.2148L6.47649 19.2154C6.62414 19.4692 6.83604 19.6796 7.09087 19.8255C7.34552 19.9712 7.63404 20.0474 7.92743 20.0463ZM7.92743 20.0463C7.92722 20.0463 7.927 20.0462 7.92678 20.0462L7.9275 19.9063L7.92809 20.0463C7.92787 20.0463 7.92765 20.0463 7.92743 20.0463ZM11.2102 12.6127L11.2102 12.6127C11.1396 12.7469 11.0321 12.8581 10.9005 12.9334C10.7696 13.0082 10.6201 13.0443 10.4695 13.0375C10.3493 13.0356 10.231 13.0068 10.1234 12.9532C10.0295 12.9079 9.94546 12.8443 9.87628 12.7663C9.80688 12.6879 9.75378 12.5966 9.72009 12.4975C9.6864 12.3984 9.6728 12.2936 9.68008 12.1892C9.68736 12.0848 9.71537 11.9829 9.76248 11.8895C9.76248 11.8895 9.76248 11.8895 9.76249 11.8895L10.9381 9.54625H8.7241H8.72375V9.40625C8.61107 9.40701 8.50014 9.37836 8.40192 9.32311C8.30371 9.26787 8.22161 9.18795 8.16375 9.09125C8.11014 8.99334 8.08204 8.8835 8.08204 8.77188C8.08204 8.66025 8.11014 8.55041 8.16375 8.4525L11.2102 12.6127ZM11.2102 12.6127L11.2115 12.6101L12.9604 9.11235C13.0244 8.99443 13.058 8.86235 13.058 8.72813C13.058 8.593 13.0239 8.46004 12.959 8.34151L12.9591 8.34147L12.9565 8.33701C12.8834 8.2146 12.7785 8.11431 12.653 8.04684C12.5284 7.97991 12.3881 7.94777 12.2469 7.95375H10.0356L11.2111 5.61085C11.2111 5.6108 11.2112 5.61074 11.2112 5.61069C11.2585 5.51735 11.287 5.41561 11.2951 5.31126C11.3031 5.20685 11.2905 5.10188 11.258 5.00234C11.2255 4.9028 11.1736 4.81064 11.1055 4.73113C11.0374 4.65161 10.9542 4.58629 10.8609 4.53891C10.6723 4.4432 10.4534 4.42633 10.2523 4.49202C10.0513 4.5577 9.88461 4.70055 9.7889 4.88914L9.78853 4.88989L8.03964 8.38766L11.2102 12.6127ZM6.08906 15.348L6.08875 15.3475L5.39875 14.9538H5.39792H4.375C3.88999 14.9538 3.42484 14.7611 3.08188 14.4181C2.73892 14.0752 2.54625 13.61 2.54625 13.125V4.375C2.54625 3.88999 2.73892 3.42484 3.08188 3.08188C3.42484 2.73892 3.88999 2.54625 4.375 2.54625H16.625C17.11 2.54625 17.5752 2.73892 17.9181 3.08188C18.2611 3.42484 18.4538 3.88999 18.4538 4.375V13.125C18.4538 13.61 18.2611 14.0752 17.9181 14.4181C17.5752 14.7611 17.11 14.9538 16.625 14.9538L10.4125 14.9537L10.411 14.9538C10.2728 14.9552 10.1371 14.9918 10.0169 15.0603C9.89673 15.1287 9.79595 15.2266 9.72412 15.3448L9.72407 15.3448L9.7222 15.348L7.9722 18.4105L7.97217 18.4105L7.97084 18.413C7.95167 18.4481 7.9336 18.4671 7.92128 18.4764C7.91532 18.4809 7.91109 18.4828 7.90883 18.4836C7.9067 18.4844 7.90577 18.4844 7.90562 18.4844C7.90548 18.4844 7.90455 18.4844 7.90242 18.4836C7.90016 18.4828 7.89593 18.4809 7.88997 18.4764C7.87765 18.4671 7.85958 18.4481 7.84041 18.413L7.84043 18.4129L7.83905 18.4105L6.08906 15.348Z" fill="#7F56D9" stroke="#7F56D9" stroke-width="0.28"/>
</g>
<defs>
<clipPath id="clip0_10693_27810">
<rect width="21" height="21" fill="white"/>
</clipPath>
</defs>
</svg>
