<svg width="34" height="35" viewBox="0 0 34 35" fill="none" xmlns="http://www.w3.org/2000/svg">
<g clip-path="url(#clip0_3005_92300)">
<path d="M17 0.717773C26.384 0.717773 34 8.33377 34 17.7178C34 27.1018 26.384 34.7178 17 34.7178C7.616 34.7178 0 27.1018 0 17.7178C0 8.33377 7.616 0.717773 17 0.717773ZM17 5.20577C10.064 5.20577 4.488 10.7818 4.488 17.7178C4.488 24.6538 10.064 30.2298 17 30.2298C23.936 30.2298 29.512 24.6538 29.512 17.7178C29.512 10.7818 23.936 5.20577 17 5.20577ZM21.216 18.3978C23.1689 18.3978 24.752 19.9809 24.752 21.9338C24.752 23.8867 23.1689 25.4698 21.216 25.4698C19.2631 25.4698 17.68 23.8867 17.68 21.9338C17.68 19.9809 19.2631 18.3978 21.216 18.3978ZM12.784 18.3978C14.7369 18.3978 16.32 19.9809 16.32 21.9338C16.32 23.8867 14.7369 25.4698 12.784 25.4698C10.8311 25.4698 9.248 23.8867 9.248 21.9338C9.248 19.9809 10.8311 18.3978 12.784 18.3978ZM21.216 9.96577C23.1689 9.96577 24.752 11.5489 24.752 13.5018C24.752 15.4547 23.1689 17.0378 21.216 17.0378C19.2631 17.0378 17.68 15.4547 17.68 13.5018C17.68 11.5489 19.2631 9.96577 21.216 9.96577ZM12.784 9.96577C14.7369 9.96577 16.32 11.5489 16.32 13.5018C16.32 15.4547 14.7369 17.0378 12.784 17.0378C10.8311 17.0378 9.248 15.4547 9.248 13.5018C9.248 11.5489 10.8311 9.96577 12.784 9.96577Z" fill="#F12E45"/>
</g>
<defs>
<clipPath id="clip0_3005_92300">
<rect width="34" height="34" fill="white" transform="translate(0 0.717773)"/>
</clipPath>
</defs>
</svg>
