<svg width="40" height="40" viewBox="0 0 40 40" fill="none" xmlns="http://www.w3.org/2000/svg">
<rect width="40" height="40" rx="20" fill="#F2F4F7"/>
<g opacity="0.08">
<rect x="0.375" y="0.375" width="39.25" height="39.25" rx="19.625" stroke="#101828" stroke-width="0.75"/>
</g>
<path d="M17.108 18.2898H14.983C14.9223 17.9413 14.8106 17.6326 14.6477 17.3636C14.4848 17.0909 14.2822 16.8598 14.0398 16.6705C13.7973 16.4811 13.5208 16.339 13.2102 16.2443C12.9034 16.1458 12.572 16.0966 12.2159 16.0966C11.5833 16.0966 11.0227 16.2557 10.5341 16.5739C10.0455 16.8883 9.66288 17.3504 9.38636 17.9602C9.10985 18.5663 8.97159 19.3068 8.97159 20.1818C8.97159 21.072 9.10985 21.822 9.38636 22.4318C9.66667 23.0379 10.0492 23.4962 10.5341 23.8068C11.0227 24.1136 11.5814 24.267 12.2102 24.267C12.5587 24.267 12.8845 24.2216 13.1875 24.1307C13.4943 24.036 13.7689 23.8977 14.0114 23.7159C14.2576 23.5341 14.464 23.3106 14.6307 23.0455C14.8011 22.7803 14.9186 22.4773 14.983 22.1364L17.108 22.1477C17.0284 22.7008 16.8561 23.2197 16.5909 23.7045C16.3295 24.1894 15.9867 24.6174 15.5625 24.9886C15.1383 25.3561 14.642 25.6439 14.0739 25.8523C13.5057 26.0568 12.875 26.1591 12.1818 26.1591C11.1591 26.1591 10.2462 25.9223 9.44318 25.4489C8.64015 24.9754 8.00758 24.2917 7.54545 23.3977C7.08333 22.5038 6.85227 21.4318 6.85227 20.1818C6.85227 18.928 7.08523 17.8561 7.55114 16.9659C8.01705 16.072 8.65152 15.3883 9.45455 14.9148C10.2576 14.4413 11.1667 14.2045 12.1818 14.2045C12.8295 14.2045 13.4318 14.2955 13.9886 14.4773C14.5455 14.6591 15.0417 14.9261 15.4773 15.2784C15.9129 15.6269 16.2708 16.0549 16.5511 16.5625C16.8352 17.0663 17.0208 17.642 17.108 18.2898ZM21.4872 26L18.2031 14.3636H20.4702L22.5668 22.9148H22.6747L24.9134 14.3636H26.9759L29.2202 22.9205H29.3224L31.419 14.3636H33.6861L30.402 26H28.3224L25.9929 17.8352H25.902L23.5668 26H21.4872Z" fill="#475467"/>
</svg>
