<svg width="20" height="20" viewBox="0 0 20 20" fill="none" xmlns="http://www.w3.org/2000/svg">
<g clip-path="url(#clip0_6866_45739)">
<path d="M18.3346 17.4893V15.8236C18.3346 14.2713 17.2729 12.967 15.8361 12.5971M12.9211 2.7402C14.142 3.2344 15.0033 4.43134 15.0033 5.82943C15.0033 7.22752 14.142 8.42445 12.9211 8.91865M14.1704 17.4893C14.1704 15.937 14.1704 15.1609 13.9168 14.5487C13.5787 13.7324 12.9302 13.0839 12.1139 12.7458C11.5017 12.4922 10.7256 12.4922 9.17334 12.4922H6.6748C5.12258 12.4922 4.34646 12.4922 3.73425 12.7458C2.91797 13.0839 2.26944 13.7324 1.93132 14.5487C1.67773 15.1609 1.67773 15.937 1.67773 17.4893M11.2555 5.82943C11.2555 7.6693 9.76394 9.16081 7.92407 9.16081C6.0842 9.16081 4.59269 7.6693 4.59269 5.82943C4.59269 3.98956 6.0842 2.49805 7.92407 2.49805C9.76394 2.49805 11.2555 3.98956 11.2555 5.82943Z" stroke="#7F56D9" stroke-width="1.66569" stroke-linecap="round" stroke-linejoin="round"/>
</g>
<defs>
<clipPath id="clip0_6866_45739">
<rect width="19.9883" height="19.9883" fill="white" transform="translate(0.0117188)"/>
</clipPath>
</defs>
</svg>
